<?xml version="1.0" standalone="no"?>
<!DOCTYPE svg PUBLIC "-//W3C//DTD SVG 1.1//EN" "http://www.w3.org/Graphics/SVG/1.1/DTD/svg11.dtd" >
<svg xmlns="http://www.w3.org/2000/svg">
<metadata>
Created by FontPrep 20130207 at Wed Oct  8 15:53:22 2014
 By Stephanie Siaw
 ITC Franklin Gothic is a trademark of The International Typeface Corporation which may be registered in certain jurisdictions. Portions copyright Microsoft Corporation.  All rights reserved.
</metadata>
<defs>
<font id="3a9d5be2ce2a615738fe880b1ca0b370" horiz-adv-x='1024' >
  <font-face 
    font-family="FranklinGothic-Medium"
    font-weight="400"
    font-stretch="normal"
    units-per-em="2048"
    panose-1="2 11 6 3 2 1 2 2 2 4"
    ascent="1638"
    descent="-410"
    x-height="1010"
    cap-height="1365"
    bbox="-441 -628 2239 1949"
    underline-thickness="102"
    underline-position="-103"
    unicode-range="U+0020-FB02"
  />
<missing-glyph horiz-adv-x="2048" 
d="M384 128h1280v1280h-1280v-1280zM256 0v1536h1536v-1536h-1536z" />
    <glyph glyph-name=".notdef" horiz-adv-x="2048" 
d="M384 128h1280v1280h-1280v-1280zM256 0v1536h1536v-1536h-1536z" />
    <glyph glyph-name=".null" horiz-adv-x="0" 
 />
    <glyph glyph-name="nonmarkingreturn" horiz-adv-x="512" 
 />
    <glyph glyph-name="space" unicode=" " horiz-adv-x="512" 
 />
    <glyph glyph-name="exclam" unicode="!" horiz-adv-x="564" 
d="M406 250v-250h-249v250h249zM437 1365l-101 -951h-104l-96 951h301z" />
    <glyph glyph-name="quotedbl" unicode="&#x22;" horiz-adv-x="775" 
d="M634 817h-157l-33 548h224zM297 817h-157l-33 548h224z" />
    <glyph glyph-name="numbersign" unicode="#" horiz-adv-x="1201" 
d="M730 801h-216l-36 -209h215zM1151 994l-34 -193h-199l-37 -209h199l-34 -193h-200l-71 -399h-186l71 399h-217l-71 -399h-188l71 401h-205l34 191h208l37 209h-208l35 193h207l66 371h186l-66 -371h215l66 371h186l-67 -371h202z" />
    <glyph glyph-name="dollar" unicode="$" horiz-adv-x="1201" 
d="M880 389q0 146 -221 187v-383q94 1 157.5 55t63.5 141zM320 1002q0 -140 204 -167v336q-87 -1 -145.5 -43.5t-58.5 -125.5zM659 -175h-135v185q-372 31 -476 360l215 50q58 -211 261 -227v395q-265 61 -345 154.5t-80 223.5q0 337 425 389v144h135v-144q311 -40 393 -307
l-203 -43q-52 154 -190 166v-349q196 -56 264 -86t122.5 -117t54.5 -204q0 -166 -113 -276t-328 -129v-185z" />
    <glyph glyph-name="percent" unicode="%" horiz-adv-x="1580" 
d="M1197 133q71 0 103.5 68.5t32.5 177.5q0 220 -128 220q-142 0 -142 -233t134 -233zM1192 -12q-138 0 -226.5 104.5t-88.5 275.5t98.5 276.5t222.5 105.5t220.5 -98t96.5 -280t-92.5 -283t-230.5 -101zM1289 1365l-845 -1365h-151l848 1365h148zM383 765q138 0 138 234
t-134 234t-134 -234t130 -234zM378 617q-140 0 -226.5 112.5t-86.5 272.5t87.5 268t241.5 108t232.5 -113t78.5 -275t-93.5 -267.5t-233.5 -105.5z" />
    <glyph glyph-name="ampersand" unicode="&#x26;" horiz-adv-x="1468" 
d="M335 422q0 -110 79.5 -176.5t214.5 -66.5t267 97l-357 402q-204 -92 -204 -256zM817 1088q0 58 -41.5 91t-99.5 33t-101.5 -33.5t-43.5 -87.5q0 -88 112 -183q174 73 174 180zM1356 167q34 0 72 5v-191l-95 -2q-93 0 -152.5 27t-153.5 119q-205 -146 -440 -146
t-378.5 123.5t-143.5 304.5q0 115 67 219t288 202q-119 140 -119 266t100 209t258 83t260 -80t102 -218q0 -97 -69 -187t-197 -142l296 -338q140 180 172 407l205 -36q-44 -292 -243 -516q70 -76 103.5 -92.5t67.5 -16.5z" />
    <glyph glyph-name="quotesingle" unicode="'" horiz-adv-x="438" 
d="M297 817h-157l-33 548h224z" />
    <glyph glyph-name="parenleft" unicode="(" horiz-adv-x="601" 
d="M66 530q0 270 115 503t229 332h135q-164 -229 -226 -428t-62 -429t78.5 -452.5t209.5 -396.5h-135q-344 376 -344 871z" />
    <glyph glyph-name="parenright" unicode=")" horiz-adv-x="601" 
d="M536 494q0 -271 -116.5 -504t-229.5 -331h-135q164 228 226 427.5t62 428.5q0 459 -288 850h135q346 -378 346 -871z" />
    <glyph glyph-name="asterisk" unicode="*" horiz-adv-x="1201" 
d="M695 1379l-24 -342l310 118l49 -180l-316 -70l203 -251l-158 -105l-158 274l-159 -274l-157 105l202 251l-316 70l49 180l310 -118l-23 342h188z" />
    <glyph glyph-name="plus" unicode="+" horiz-adv-x="1201" 
d="M1107 785v-191h-411v-425h-190v425h-411v191h411v426h190v-426h411z" />
    <glyph glyph-name="comma" unicode="," horiz-adv-x="493" 
d="M371 255v-229l-161 -318h-88l119 292h-119v255h249z" />
    <glyph glyph-name="hyphen" unicode="-" horiz-adv-x="493" 
d="M497 613v-187h-502v187h502z" />
    <glyph glyph-name="period" unicode="." horiz-adv-x="493" 
d="M370 262v-262h-247v262h247z" />
    <glyph glyph-name="slash" unicode="/" horiz-adv-x="981" 
d="M919 1365l-893 -1706h-142l889 1706h146z" />
    <glyph glyph-name="zero" unicode="0" horiz-adv-x="1201" 
d="M597 172q104 0 168 64t87 179t23 301t-56.5 336.5t-216.5 150.5q-278 0 -278 -514q0 -233 59 -375t214 -142zM598 -21q-251 0 -387 194.5t-136 506.5t142.5 509t382.5 197q173 0 292.5 -92.5t178 -257t58.5 -308.5q0 -241 -55 -395.5t-175 -254t-301 -99.5z" />
    <glyph glyph-name="one" unicode="1" horiz-adv-x="1201" 
d="M1185 0h-1045v201h411v862q-205 -179 -373 -246v246q171 65 214 92.5t126 102t117 135.5h164v-1192h386v-201z" />
    <glyph glyph-name="two" unicode="2" horiz-adv-x="1201" 
d="M1092 213v-213h-1006v239l418 278q195 130 262 230.5t67 192.5t-67 161.5t-174 69.5q-234 0 -269 -285l-237 59q27 182 161.5 311.5t356.5 129.5t357 -129t135 -315t-120 -323.5t-595 -405.5h711z" />
    <glyph glyph-name="three" unicode="3" horiz-adv-x="1201" 
d="M431 603v194h125q112 0 187 50t75 148t-63.5 147t-163.5 49q-202 0 -275 -198l-225 39q38 156 175.5 255t331.5 99t330 -99.5t136 -266.5q0 -124 -73.5 -212t-181.5 -96q134 -20 215.5 -111t81.5 -219q0 -176 -141.5 -289.5t-367.5 -113.5t-367.5 110.5t-178.5 253.5
l233 57q70 -228 302 -228q120 0 193.5 61t73.5 149t-63.5 154.5t-191.5 66.5h-167z" />
    <glyph glyph-name="four" unicode="4" horiz-adv-x="1201" 
d="M675 520v377q0 60 6 108l12 131l-387 -616h369zM928 0h-253v310h-606v180l606 903h253v-873h205v-210h-205v-310z" />
    <glyph glyph-name="five" unicode="5" horiz-adv-x="1201" 
d="M680 915q198 0 333 -136t135 -327t-142 -332t-390 -141q-197 0 -344.5 91t-191.5 283l236 35q69 -209 287 -209q134 0 206.5 81.5t72.5 195.5t-72 192.5t-187 78.5q-174 0 -264 -159l-220 43l78 754h849l-22 -211h-647l-38 -396q123 157 321 157z" />
    <glyph glyph-name="six" unicode="6" horiz-adv-x="1201" 
d="M630 160q116 0 191 66.5t75 203.5q0 93 -71 174t-193 81t-193 -77.5t-71 -189.5t73 -185t189 -73zM643 1206q-178 0 -247.5 -150.5t-69.5 -317.5q0 -33 1 -66q102 205 352 205q194 0 324 -123.5t130 -315.5t-139 -325.5t-350 -133.5q-263 0 -413.5 185.5t-150.5 505.5
t147.5 518t395.5 198q373 0 464 -332l-208 -40q-58 192 -236 192z" />
    <glyph glyph-name="seven" unicode="7" horiz-adv-x="1201" 
d="M1094 1365v-174q-252 -327 -334.5 -567t-99.5 -624h-281q35 663 506 1154h-781l21 211h969z" />
    <glyph glyph-name="eight" unicode="8" horiz-adv-x="1201" 
d="M294 357q0 -73 76 -136t222 -63t222.5 52t76.5 126t-63.5 126t-311.5 131q-100 -36 -161 -99.5t-61 -136.5zM866 1024q0 91 -77 141t-180 50t-178.5 -44.5t-75.5 -132.5t82 -135t240 -96q189 78 189 217zM107 1001q0 168 132.5 276.5t360.5 108.5t359 -97t131 -257
q0 -195 -243 -296q297 -127 297 -359q0 -172 -148.5 -285t-407.5 -113t-394.5 104.5t-135.5 262.5q0 225 289 328q-240 110 -240 327z" />
    <glyph glyph-name="nine" unicode="9" horiz-adv-x="1201" 
d="M560 688q116 0 197 70t81 202q0 91 -71 165.5t-192 74.5t-194.5 -75t-73.5 -177t68.5 -181t184.5 -79zM559 164q153 0 236 143t85 399q-74 -138 -166 -177.5t-191 -39.5q-191 0 -320.5 120.5t-129.5 318.5t133.5 328t369.5 130t389 -172.5t153 -496.5t-148 -531
t-418 -207q-172 0 -283.5 80t-147.5 188l206 59q79 -142 232 -142z" />
    <glyph glyph-name="colon" unicode=":" horiz-adv-x="493" 
d="M370 250v-250h-247v250h247zM370 943v-249h-247v249h247z" />
    <glyph glyph-name="semicolon" unicode=";" horiz-adv-x="493" 
d="M371 255v-229l-161 -318h-88l119 292h-119v255h249zM371 943v-249h-249v249h249z" />
    <glyph glyph-name="semicolon" unicode="&#x37e;" horiz-adv-x="493" 
d="M371 255v-229l-161 -318h-88l119 292h-119v255h249zM371 943v-249h-249v249h249z" />
    <glyph glyph-name="less" unicode="&#x3c;" horiz-adv-x="1201" 
d="M1024 1221v-230l-641 -310l640 -310l1 -229l-887 442v196z" />
    <glyph glyph-name="equal" unicode="=" horiz-adv-x="1201" 
d="M1107 625v-191h-1012v191h1012zM1107 924v-191h-1012v191h1012z" />
    <glyph glyph-name="greater" unicode="&#x3e;" horiz-adv-x="1201" 
d="M177 142v230l642 310l-641 311l-1 228l887 -442v-196z" />
    <glyph glyph-name="question" unicode="?" horiz-adv-x="1027" 
d="M640 250v-250h-235v250h235zM405 392v135q0 68 27.5 107t120.5 111q142 109 142 231q0 92 -55.5 146t-144.5 54q-206 0 -243 -285l-218 39q20 213 157 334.5t329 121.5t317 -113.5t125 -282.5q0 -84 -34.5 -159.5t-78.5 -117t-186 -145.5q-40 -29 -51 -56.5t-12 -119.5
h-195z" />
    <glyph glyph-name="at" unicode="@" horiz-adv-x="1469" 
d="M706 434q72 0 136.5 77.5t64.5 201.5q0 70 -49.5 125.5t-124.5 55.5t-126 -68.5t-51 -169.5t39 -161.5t111 -60.5zM1037 481q0 -67 48 -67q77 0 147.5 105.5t70.5 255.5q0 217 -156.5 352.5t-390.5 135.5t-400.5 -168t-166.5 -406t156.5 -407.5t439.5 -169.5
q220 0 449 118l59 -136q-245 -125 -508 -125q-349 0 -554.5 210.5t-205.5 508.5t216 503.5t513 205.5t493 -176.5t196 -445.5q0 -195 -110 -347.5t-268 -152.5q-123 0 -170 104q-85 -108 -211 -108t-216.5 105.5t-90.5 281.5t102.5 287.5t240.5 111.5t198 -86l8 70h172
l-55 -466q-6 -49 -6 -94z" />
    <glyph glyph-name="A" unicode="A" horiz-adv-x="1235" 
d="M783 522l-199 609l-199 -609h398zM1221 0h-263l-109 325h-525l-107 -325h-210l453 1365h303z" />
    <glyph glyph-name="B" unicode="B" horiz-adv-x="1244" 
d="M383 205h318q101 0 159.5 53t58.5 141t-59.5 143t-157.5 55h-319v-392zM383 792h300q92 0 145.5 55t53.5 145t-61 134t-143 44h-295v-378zM150 0v1365h532q135 0 224 -28t154 -117.5t65 -205.5t-66 -199.5t-182 -106.5q144 -25 218 -117t74 -234t-103.5 -249.5
t-318.5 -107.5h-597z" />
    <glyph glyph-name="C" unicode="C" horiz-adv-x="1186" 
d="M642 -21q-204 0 -321 94t-180 255t-63 355q0 312 148 507.5t407 195.5q203 0 338 -125t170 -358l-228 -24q-63 309 -278 309q-138 0 -214.5 -128.5t-76.5 -374.5t82 -372.5t217 -126.5q108 0 184 85t86 203l228 -25q-22 -205 -158.5 -337.5t-340.5 -132.5z" />
    <glyph glyph-name="D" unicode="D" horiz-adv-x="1341" 
d="M396 201h205q165 0 280 124.5t115 346.5t-100.5 360.5t-265.5 138.5h-234v-970zM143 0v1365h503q279 0 448 -197.5t169 -487.5t-174 -485t-498 -195h-448z" />
    <glyph glyph-name="E" unicode="E" horiz-adv-x="1099" 
d="M1037 0h-887v1365h878v-203h-632v-370h508v-198h-508v-382h641v-212z" />
    <glyph glyph-name="F" unicode="F" horiz-adv-x="1040" 
d="M403 0h-253v1365h863v-211h-610v-373h480v-205h-480v-576z" />
    <glyph glyph-name="G" unicode="G" horiz-adv-x="1315" 
d="M1186 698v-698h-109l-75 184q-119 -205 -369 -205q-279 0 -416.5 212t-137.5 499t153.5 491.5t429.5 204.5q206 0 339 -119.5t168 -297.5l-214 -38q-60 250 -287 250q-145 0 -236.5 -118t-91.5 -363q0 -517 324 -517q126 0 208.5 87t82.5 230h-282v198h513z" />
    <glyph glyph-name="H" unicode="H" horiz-adv-x="1313" 
d="M1163 0h-246v593h-521v-593h-246v1365h246v-561h521v561h246v-1365z" />
    <glyph glyph-name="I" unicode="I" horiz-adv-x="546" 
d="M396 0h-246v1365h246v-1365z" />
    <glyph glyph-name="J" unicode="J" horiz-adv-x="761" 
d="M624 1365v-942q0 -235 -101.5 -339.5t-323.5 -104.5q-128 0 -199 21v198q112 -8 158 -8q123 0 168 46t45 187v942h253z" />
    <glyph glyph-name="K" unicode="K" horiz-adv-x="1257" 
d="M396 0h-246v1365h246v-717q47 73 68 101l453 616h249l-324 -449l381 -916h-275l-288 695l-264 -350v-345z" />
    <glyph glyph-name="L" unicode="L" horiz-adv-x="1021" 
d="M990 0h-840v1365h259v-1142h581v-223z" />
    <glyph glyph-name="M" unicode="M" horiz-adv-x="1640" 
d="M1489 0h-251v1195l-378 -1195h-129l-380 1195v-1195h-201v1365h385l286 -879l281 879h387v-1365z" />
    <glyph glyph-name="N" unicode="N" horiz-adv-x="1331" 
d="M1181 0h-239q-518 872 -544 915q-25 42 -50 85v-1000h-198v1365h272l478 -804q6 -10 87 -147v951h194v-1365z" />
    <glyph glyph-name="O" unicode="O" horiz-adv-x="1318" 
d="M646 177q142 0 234 110t92 372q0 529 -314 529t-314 -509q0 -247 80 -374.5t222 -127.5zM650 -21q-268 0 -420 204t-152 503t161 499.5t426 200.5t419.5 -201t154.5 -509t-160.5 -502.5t-428.5 -194.5z" />
    <glyph glyph-name="P" unicode="P" horiz-adv-x="1227" 
d="M396 752h291q114 0 174 56t60 144t-55.5 148.5t-200.5 60.5h-269v-409zM396 0h-246v1365h559q239 0 354.5 -120.5t115.5 -296.5t-125 -291.5t-317 -115.5h-341v-541z" />
    <glyph glyph-name="Q" unicode="Q" horiz-adv-x="1318" 
d="M652 179q320 0 320 504q0 268 -85.5 386.5t-225.5 118.5q-317 0 -317 -518q0 -491 308 -491zM1043 -288q-303 0 -304 265q-75 -4 -91 -4q-274 0 -422 201.5t-148 505.5t152.5 505t428.5 201q201 0 320 -94t189.5 -247t70.5 -359q0 -439 -291 -628q-46 -30 -46 -58
t30.5 -53.5t83.5 -25.5l167 6v-206q-118 -9 -140 -9z" />
    <glyph glyph-name="R" unicode="R" horiz-adv-x="1316" 
d="M396 758h306q133 0 198 56t65 150t-64 149.5t-179 55.5h-326v-411zM396 561v-561h-246v1365h592q247 0 363 -111.5t116 -288.5q0 -263 -246 -362l239 -603h-260l-212 561h-346z" />
    <glyph glyph-name="S" unicode="S" horiz-adv-x="1170" 
d="M576 177q131 0 201.5 52.5t70.5 118.5t-32 113.5t-137 74.5l-261 68q-134 35 -198 79.5t-102.5 125.5t-38.5 173q0 183 136 293.5t330 110.5t332.5 -77t176.5 -218l-234 -58q-54 155 -252 155q-115 0 -175.5 -48t-60.5 -122q0 -117 190 -164l232 -58q211 -53 283 -156.5
t72 -228.5q0 -201 -151.5 -316.5t-373.5 -115.5t-374.5 85t-202.5 265l239 51q43 -203 330 -203z" />
    <glyph glyph-name="T" unicode="T" horiz-adv-x="990" 
d="M627 0h-264v1154h-363v211h990v-211h-363v-1154z" />
    <glyph glyph-name="U" unicode="U" horiz-adv-x="1218" 
d="M1087 1365v-877q0 -178 -40 -274t-154.5 -165.5t-280.5 -69.5t-273.5 60t-154.5 164.5t-47 266.5v895h251v-877q0 -180 75 -236.5t183 -56.5t177 60.5t69 232.5v877h195z" />
    <glyph glyph-name="V" unicode="V" horiz-adv-x="1107" 
d="M675 0h-250l-421 1365h260l313 -1046l320 1046h205z" />
    <glyph glyph-name="W" unicode="W" horiz-adv-x="1809" 
d="M1789 1365l-365 -1365h-258l-272 1004l-247 -1004h-253l-373 1365h261l264 -995l246 995h249l272 -995l259 995h217z" />
    <glyph glyph-name="X" unicode="X" horiz-adv-x="1160" 
d="M1149 0h-287l-302 538l-320 -538h-229l432 711l-371 654h286l252 -454l267 454h230l-380 -623z" />
    <glyph glyph-name="Y" unicode="Y" horiz-adv-x="1113" 
d="M699 0h-261v576l-465 789h298l324 -563l310 563h236l-442 -789v-576z" />
    <glyph glyph-name="Z" unicode="Z" horiz-adv-x="1091" 
d="M1050 212v-212h-1009v194l699 976h-650v195h940v-195l-691 -958h711z" />
    <glyph glyph-name="bracketleft" unicode="[" horiz-adv-x="601" 
d="M482 1201h-167v-1378h167v-164h-344v1706h344v-164z" />
    <glyph glyph-name="backslash" unicode="\" horiz-adv-x="981" 
d="M62 1365h146l889 -1706h-141z" />
    <glyph glyph-name="bracketright" unicode="]" horiz-adv-x="601" 
d="M119 -177h167v1378h-167v164h344v-1706h-344v164z" />
    <glyph glyph-name="asciicircum" unicode="^" horiz-adv-x="1024" 
d="M266 703h-244l338 669h305l338 -669h-244l-247 484z" />
    <glyph glyph-name="underscore" unicode="_" horiz-adv-x="1024" 
d="M0 -107h1024v-208h-1024v208z" />
    <glyph glyph-name="grave" unicode="`" horiz-adv-x="1024" 
d="M280 1487l393 -219l-42 -107l-417 176z" />
    <glyph glyph-name="a" unicode="a" horiz-adv-x="1107" 
d="M749 514q-442 0 -442 -211q0 -63 44.5 -107.5t134.5 -44.5q130 0 196.5 82.5t66.5 187.5v93zM407 -21q-151 0 -242.5 88.5t-91.5 222.5q0 348 611 348q24 0 65 -1v76q0 157 -211 157t-239 -157l-194 29q16 126 130 207.5t330 81.5q117 0 191 -19.5t125 -66t70.5 -101
t19.5 -184.5v-456q0 -99 30 -204h-217q-29 92 -35 204q-91 -225 -342 -225z" />
    <glyph glyph-name="b" unicode="b" horiz-adv-x="1103" 
d="M365 431q0 -135 58.5 -199.5t150.5 -64.5t152.5 74t64.5 290q0 158 -55 243.5t-152 85.5t-158 -73t-61 -206v-150zM137 0v1365h228v-493q65 113 130 149t152 36q166 0 275 -141t109 -379t-107.5 -398t-309.5 -160t-313 187l-61 -166h-103z" />
    <glyph glyph-name="c" unicode="c" horiz-adv-x="954" 
d="M506 -21q-209 0 -321.5 152.5t-112.5 376.5t123 373.5t328 149.5q330 0 393 -348l-196 -27q-26 188 -185 188q-116 0 -168.5 -102t-52.5 -250t54.5 -231t152.5 -83q150 0 199 193l196 -20q-38 -190 -147 -281t-263 -91z" />
    <glyph glyph-name="d" unicode="d" horiz-adv-x="1103" 
d="M739 596q0 123 -58.5 191.5t-155.5 68.5t-154 -88t-57 -263q0 -338 212 -338q84 0 148.5 72.5t64.5 185.5v171zM967 0h-213v204q-88 -225 -298 -225q-186 0 -285 155t-99 377t103 381t295 159t269 -178v492h228v-1365z" />
    <glyph glyph-name="e" unicode="e" horiz-adv-x="1074" 
d="M540 871q-94 0 -157 -64.5t-74 -182.5h456q-1 109 -66 178t-159 69zM538 -21q-210 0 -338 141t-128 376t129 385t347 150t336.5 -148t118.5 -380l-1 -26h-693q0 -103 19.5 -165t77.5 -108t145 -46q169 0 228 164l206 -28q-40 -137 -156 -226t-291 -89z" />
    <glyph glyph-name="f" unicode="f" horiz-adv-x="647" 
d="M392 0h-220v833h-150v177h150v50q0 148 72 238t291 90q32 0 81 -2v-179q-43 3 -59 3q-142 0 -153.5 -53t-11.5 -147h224v-177h-224v-833z" />
    <glyph glyph-name="g" unicode="g" horiz-adv-x="1061" 
d="M241 -32q0 -69 82 -121.5t261 -52.5q263 0 263 135q0 50 -46 75.5t-105 25.5h-242q-69 0 -164 25q-49 -45 -49 -87zM540 553q186 0 186 175q0 67 -46 113t-136 46t-139.5 -48t-49.5 -121t49 -119t136 -46zM1058 1203v-175h-70q-46 0 -80.5 -11t-67.5 -71
q120 -98 120 -225t-112.5 -215t-297.5 -88q-80 0 -187 26q-70 -32 -70 -99q0 -37 34 -68t103 -31h300q154 0 241.5 -80t87.5 -210t-132.5 -224t-392.5 -94q-489 0 -489 273q0 135 147 205q-94 80 -94 167q0 132 161 210q-140 85 -140 223t103 226.5t313 88.5q96 0 195 -21
q46 193 243 193h85z" />
    <glyph glyph-name="h" unicode="h" horiz-adv-x="1110" 
d="M973 0h-228v661q0 107 -45.5 150.5t-106.5 43.5q-97 0 -163 -77t-66 -254v-524h-228v1365h228v-532q85 218 298 218q311 0 311 -357v-694z" />
    <glyph glyph-name="i" unicode="i" horiz-adv-x="501" 
d="M364 0h-228v1010h228v-1010zM364 1128h-228v237h228v-237z" />
    <glyph glyph-name="j" unicode="j" horiz-adv-x="501" 
d="M364 1010v-994q0 -378 -347 -378q-53 0 -117 12v193q43 -5 73 -5q95 0 129 36t34 142v994h228zM364 1128h-228v237h228v-237z" />
    <glyph glyph-name="k" unicode="k" horiz-adv-x="1090" 
d="M355 0h-218v1365h218v-847q29 38 46 57l400 435h245l-304 -334l335 -676h-240l-258 518l-224 -251v-267z" />
    <glyph glyph-name="l" unicode="l" horiz-adv-x="501" 
d="M364 0h-228v1365h228v-1365z" />
    <glyph glyph-name="m" unicode="m" horiz-adv-x="1782" 
d="M1645 0h-239v629q0 196 -174 196q-101 0 -161.5 -74t-60.5 -221v-530h-242v629q0 199 -163 199q-99 0 -166.5 -80t-67.5 -218v-530h-235v1010h221v-215q108 236 334 236t293 -236q122 236 337 236q146 0 235 -91t89 -226v-714z" />
    <glyph glyph-name="n" unicode="n" horiz-adv-x="1109" 
d="M973 0h-228v631q0 100 -46 150.5t-123 50.5t-144 -78t-67 -235v-519h-228v1010h208v-234q109 255 306 255q133 0 227.5 -84t94.5 -295v-652z" />
    <glyph glyph-name="o" unicode="o" horiz-adv-x="1083" 
d="M540 167q230 0 230 343q0 155 -55 244.5t-171 89.5t-173 -92.5t-57 -251.5t60.5 -246t165.5 -87zM524 -21q-216 0 -334 161t-118 377t131 365t339 149t338.5 -144.5t130.5 -380.5t-135.5 -381.5t-351.5 -145.5z" />
    <glyph glyph-name="p" unicode="p" horiz-adv-x="1103" 
d="M369 414q0 -110 65.5 -182.5t145.5 -72.5q109 0 159.5 95.5t50.5 245.5t-51 247t-147 97t-159.5 -79t-63.5 -207v-144zM369 -341h-232v1351h218v-176q105 197 309 197q168 0 268 -146t100 -367t-95.5 -380t-287.5 -159t-280 162v-482z" />
    <glyph glyph-name="q" unicode="q" horiz-adv-x="1109" 
d="M736 593q0 99 -45.5 175t-152.5 76t-166 -91.5t-59 -251.5t60.5 -250t149.5 -90t151 76.5t62 209.5v146zM973 -341h-237v519q-81 -199 -277 -199t-291.5 157t-95.5 378t112 369t304 148t302 -162l61 141h122v-1351z" />
    <glyph glyph-name="r" unicode="r" horiz-adv-x="679" 
d="M365 0h-228v1010h206v-241q44 141 121 206t158 65q11 0 30 -1v-245q-174 0 -230.5 -111t-56.5 -215v-468z" />
    <glyph glyph-name="s" unicode="s" horiz-adv-x="930" 
d="M444 150q212 0 212 125q0 40 -33 66t-78 35l-184 35q-306 59 -306 299q0 134 97 227.5t289 93.5q320 0 391 -235l-203 -41q-32 114 -182 114q-182 0 -182 -114q0 -79 147 -109l217 -45q253 -52 253 -290q0 -167 -130 -249.5t-297 -82.5t-286 62.5t-155 190.5l214 41
q49 -123 216 -123z" />
    <glyph glyph-name="t" unicode="t" horiz-adv-x="660" 
d="M429 -22q-74 0 -140 36.5t-96.5 100t-30.5 195.5v523h-126v177h139l21 263l187 17v-280h203v-177h-203v-493q0 -95 34.5 -129.5t130.5 -34.5q27 0 57 2v-178q-102 -22 -176 -22z" />
    <glyph glyph-name="u" unicode="u" horiz-adv-x="1105" 
d="M968 0h-212v218q-86 -239 -319 -239q-138 0 -219 85.5t-81 238.5v707h233v-658q0 -109 48 -143t108 -34t137 66.5t77 283.5v485h228v-1010z" />
    <glyph glyph-name="v" unicode="v" horiz-adv-x="910" 
d="M897 1010l-343 -1010h-189l-351 1010h238l236 -685l230 685h179z" />
    <glyph glyph-name="w" unicode="w" horiz-adv-x="1427" 
d="M1406 1010l-296 -1010h-205l-182 708l-181 -708h-211l-311 1010h242l199 -679l174 679h207l177 -679l195 679h192z" />
    <glyph glyph-name="x" unicode="x" horiz-adv-x="904" 
d="M904 0h-260l-214 368l-234 -368h-196l336 520l-291 490h261l166 -297l189 297h191l-285 -438z" />
    <glyph glyph-name="y" unicode="y" horiz-adv-x="905" 
d="M223 -363q-45 0 -131 7v181l109 -2q72 0 106.5 23.5t54.5 83.5t20 68t-21 64l-347 948h239l245 -666l211 666h182l-393 -1150q-36 -106 -98.5 -164.5t-176.5 -58.5z" />
    <glyph glyph-name="z" unicode="z" horiz-adv-x="857" 
d="M810 177v-177h-762v177l487 656h-441v177h716v-161l-499 -672h499z" />
    <glyph glyph-name="braceleft" unicode="{" horiz-adv-x="601" 
d="M339 274v-296q0 -116 44 -140.5t155 -24.5v-153l-90 -2q-153 0 -223 66t-70 222v319q0 98 -33 133.5t-82 46.5v145q115 24 115 167v335q0 146 70.5 210t228.5 64q27 0 84 -2v-153q-126 0 -162.5 -32t-36.5 -129v-304q0 -62 -18.5 -126.5t-105.5 -108.5q124 -61 124 -237z
" />
    <glyph glyph-name="bar" unicode="|" horiz-adv-x="1024" 
d="M396 1365h232v-1706h-232v1706z" />
    <glyph glyph-name="braceright" unicode="}" horiz-adv-x="601" 
d="M262 750v296q0 116 -43.5 140.5t-155.5 24.5v153l89 2q158 0 225.5 -69t67.5 -219v-319q0 -97 32.5 -133t83.5 -47v-145q-116 -24 -116 -167v-335q0 -146 -70.5 -210t-227.5 -64q-28 0 -84 2v153q126 0 162.5 32t36.5 129v304q0 68 20 130t104 105q-124 60 -124 237z" />
    <glyph glyph-name="asciitilde" unicode="~" horiz-adv-x="1201" 
d="M392 848q84 0 224 -56t190 -55q96 0 158 115l133 -78q-113 -261 -319 -261q-57 -1 -202 55t-187 56q-94 0 -156 -131l-129 84q64 156 134 213.5t154 57.5z" />
    <glyph glyph-name="nonbreakingspace" unicode="&#xa0;" horiz-adv-x="512" 
 />
    <glyph glyph-name="exclamdown" unicode="&#xa1;" horiz-adv-x="564" 
d="M126 -341l101 951h104l96 -951h-301zM157 774v250h250v-250h-250z" />
    <glyph glyph-name="cent" unicode="&#xa2;" horiz-adv-x="1201" 
d="M413 688q0 -259 148 -294v618q-148 -24 -148 -324zM561 1450h127v-258q295 -40 352 -337l-186 -33q-52 174 -166 190v-618q115 7 166 184l186 -27q-53 -294 -352 -339v-280h-127v280q-181 24 -283.5 159t-102.5 333t106.5 332t279.5 156v258z" />
    <glyph glyph-name="sterling" unicode="&#xa3;" horiz-adv-x="1201" 
d="M-25 0v227q125 2 185.5 23.5t105 88.5t44.5 125t-12 160h-158v177h137q-17 113 -17 169q0 181 115 298.5t298 117.5q270 0 392 -249l-194 -90q-47 153 -189 153q-80 0 -127.5 -53t-47.5 -143t32 -203h248v-177h-248q0 -162 -29 -236t-123 -161h261q203 0 267.5 49.5
t73.5 143.5l216 -108q-80 -217 -204.5 -264.5t-263.5 -47.5h-762z" />
    <glyph glyph-name="currency" unicode="&#xa4;" horiz-adv-x="1365" 
d="M981 762q0 124 -87.5 211.5t-209.5 87.5t-210 -88t-88 -211t87.5 -211t209.5 -88t210 87.5t88 211.5zM174 763q0 152 94 283l-208 208l127 127l208 -207q133 94 287 94t287 -92l205 204l127 -126l-205 -205q97 -141 97 -289t-94 -280l207 -207l-125 -127l-207 206
q-136 -96 -287 -96t-293 95l-206 -204l-125 126l205 205q-94 133 -94 285z" />
    <glyph glyph-name="yen" unicode="&#xa5;" horiz-adv-x="1202" 
d="M107 867h223l-271 498h284l294 -563l280 563h225l-257 -498h209v-123h-272l-87 -168v-34h359v-123h-359v-419h-247v419h-381v123h381v34l-91 168h-290v123z" />
    <glyph glyph-name="brokenbar" unicode="&#xa6;" horiz-adv-x="1024" 
d="M396 314h232v-655h-232v655zM396 1365h232v-701h-232v701z" />
    <glyph glyph-name="section" unicode="&#xa7;" horiz-adv-x="1201" 
d="M859 493q0 111 -177 172l-216 74q-73 -61 -73 -129q0 -116 205 -190l188 -68q73 74 73 141zM623 -187q95 0 155.5 42.5t60.5 100.5t-37.5 100.5t-155.5 86.5l-215 80q-96 35 -138 69t-74.5 98.5t-32.5 143.5q0 175 156 265q-123 93 -123 235t108.5 243t317.5 101
q305 0 414 -249l-185 -52q-58 152 -252 152t-193 -135q0 -91 160 -146l179 -61q167 -57 228 -140t61 -187q0 -135 -132 -268q153 -94 153 -268t-121.5 -276t-322.5 -102t-318.5 65t-191.5 227l218 41q82 -166 281 -166z" />
    <glyph glyph-name="dieresis" unicode="&#xa8;" horiz-adv-x="1024" 
d="M677 1188q-48 0 -79.5 32t-31.5 76t31.5 77t78.5 33t81.5 -30t34.5 -80t-33.5 -79t-81.5 -29zM342 1188q-48 0 -79 31.5t-31 75.5t31 77.5t79 33.5t81.5 -30t33.5 -80t-33.5 -79t-81.5 -29z" />
    <glyph glyph-name="copyright" unicode="&#xa9;" horiz-adv-x="1584" 
d="M778 261q-150 0 -246 113t-96 306t96 309t260 116q276 0 329 -298l-164 -17q0 1 -6 23q-41 161 -158 161q-72 0 -121 -67t-49 -215t48.5 -222t118.5 -74t115 48t51 124l165 -18q-16 -132 -104.5 -210.5t-238.5 -78.5zM1374 682q0 246 -171 422t-411 176t-411 -175.5
t-171 -422.5t171.5 -422t410.5 -175t410.5 175.5t171.5 421.5zM1501 683q0 -293 -208 -502.5t-500 -209.5t-501 209.5t-209 502.5t208.5 502t502.5 209t500.5 -209t206.5 -502z" />
    <glyph glyph-name="ordfeminine" unicode="&#xaa;" horiz-adv-x="730" 
d="M475 1074q-253 0 -253 -117q0 -83 100 -83q78 0 115.5 46.5t37.5 105.5v48zM274 759q-100 0 -159.5 53.5t-59.5 135.5q0 213 420 213v37q-1 86 -123 86t-137 -94l-142 20q34 183 295 183q205 0 236.5 -71.5t31.5 -154.5v-269q0 -58 21 -127h-158q-15 33 -20 87
q-24 -31 -48 -51q-57 -48 -157 -48z" />
    <glyph glyph-name="guillemotleft" unicode="&#xab;" horiz-adv-x="674" 
d="M329 799l-97 -290l97 -288h-97l-157 288l157 290h97zM585 799l-91 -290l91 -288h-91l-165 288l165 290h91z" />
    <glyph glyph-name="logicalnot" unicode="&#xac;" horiz-adv-x="1201" 
d="M812 0v338h-655v208h887v-546h-232z" />
    <glyph glyph-name="sfthyphen" unicode="&#xad;" horiz-adv-x="493" 
d="M497 613v-187h-502v187h502z" />
    <glyph glyph-name="registered" unicode="&#xae;" horiz-adv-x="1584" 
d="M636 734h180q153 0 153 117q0 112 -140 112h-193v-229zM636 604v-331h-175v819h380q156 0 232.5 -68t76.5 -175q0 -153 -152 -216l151 -360h-184l-133 331h-196zM1374 682q0 246 -171 422t-411 176t-411 -175.5t-171 -422.5t171.5 -422t410.5 -175t410.5 175.5
t171.5 421.5zM1501 683q0 -293 -208 -502.5t-500 -209.5t-501 209.5t-209 502.5t208.5 502t502.5 209t500.5 -209t206.5 -502z" />
    <glyph glyph-name="overscore" unicode="&#xaf;" horiz-adv-x="1024" 
d="M0 1811h1024v-209h-1024v209z" />
    <glyph glyph-name="degree" unicode="&#xb0;" horiz-adv-x="1201" 
d="M602 1256q-58 0 -97 -41t-39 -95t38 -95t96 -41t98 40t40 96t-39 96t-97 40zM600 1393q118 0 196 -80.5t78 -192.5t-79.5 -192.5t-194.5 -80.5t-193.5 82t-78.5 190t77 191t195 83z" />
    <glyph glyph-name="plusminus" unicode="&#xb1;" horiz-adv-x="1201" 
d="M1107 102v-191h-1012v191h1012zM1107 785v-191h-411v-425h-190v425h-411v191h411v426h190v-426h411z" />
    <glyph glyph-name="twosuperior" unicode="&#xb2;" horiz-adv-x="792" 
d="M713 685v-139h-649v152l245 152q177 110 201.5 166.5t24.5 100.5t-40 82.5t-105 38.5q-143 0 -164 -171l-163 38q17 114 104 193.5t231 79.5t230.5 -78.5t86.5 -192.5t-80.5 -197t-350.5 -225h429z" />
    <glyph glyph-name="threesuperior" unicode="&#xb3;" horiz-adv-x="792" 
d="M282 903v128h86q67 0 113 27.5t46 82.5q0 107 -131 107t-175 -117l-155 26q24 99 114 160t214 61t212 -60.5t88 -161.5q0 -132 -129 -183q156 -55 156 -195q0 -106 -91 -175t-236 -69t-236.5 67t-116.5 160l160 36q43 -136 184 -136q76 0 119.5 34.5t43.5 83.5t-38 86.5
t-116 37.5h-112z" />
    <glyph glyph-name="acute" unicode="&#xb4;" horiz-adv-x="1024" 
d="M739 1487l66 -150l-417 -176l-42 107z" />
    <glyph glyph-name="mu1" unicode="&#xb5;" horiz-adv-x="1201" 
d="M173 -341v1351h228v-540q0 -111 16.5 -167t65.5 -96t128 -40t134 65t55 238v540h228v-1010h-193v155q-76 -176 -231 -176q-72 0 -129.5 42.5t-73.5 100.5v-463h-228z" />
    <glyph glyph-name="paragraph" unicode="&#xb6;" horiz-adv-x="1201" 
d="M661 818v433h-107q-152 0 -198.5 -28t-66 -92t-19.5 -111q0 -101 57.5 -151.5t204.5 -50.5h129zM1155 1365v-114h-150v-1586h-114v1586h-112v-1586h-118v1038h-130q-182 0 -269.5 25.5t-139.5 102t-52 181.5t55 196t133.5 124t277.5 33h619z" />
    <glyph glyph-name="middot" unicode="&#xb7;" horiz-adv-x="247" 
d="M247 651v-262h-247v262h247z" />
    <glyph glyph-name="cedilla" unicode="&#xb8;" horiz-adv-x="1024" 
d="M701 -251q0 -66 -54.5 -115.5t-134.5 -49.5t-208 59l32 78q86 -47 138 -47t75 20t23 48q0 86 -152 86q-16 0 -46 -2l58 174h81l-26 -93q102 0 158 -46t56 -112z" />
    <glyph glyph-name="onesuperior" unicode="&#xb9;" horiz-adv-x="792" 
d="M743 546h-617v133h232v487q-122 -99 -235 -141v160q205 66 291 197h114v-703h215v-133z" />
    <glyph glyph-name="ordmasculine" unicode="&#xba;" horiz-adv-x="715" 
d="M361 1269q-135 0 -135 -193t132 -193t131 193q0 193 -128 193zM350 759q-136 0 -216 93t-80 227t85 224t221 90t218.5 -89.5t82.5 -229.5t-87.5 -227.5t-223.5 -87.5z" />
    <glyph glyph-name="guillemotright" unicode="&#xbb;" horiz-adv-x="673" 
d="M343 797h94l162 -292l-162 -282h-94l94 282zM89 797h94l160 -292l-160 -282h-94l94 282z" />
    <glyph glyph-name="onequarter" unicode="&#xbc;" horiz-adv-x="1802" 
d="M685 546h-617v133h232v487q-122 -99 -235 -141v160q205 66 291 197h114v-703h215v-133zM436 0l843 1365h133l-843 -1365h-133zM1475 310v186q0 62 9 169l-241 -355h232zM1636 0h-172v183h-382v115l386 538h168v-515h129v-138h-129v-183z" />
    <glyph glyph-name="onehalf" unicode="&#xbd;" horiz-adv-x="1802" 
d="M692 546h-617v133h232v487q-122 -99 -235 -141v160q205 66 291 197h114v-703h215v-133zM443 0l843 1365h133l-843 -1365h-133zM1748 139v-139h-649v152l245 152q176 110 212 192q14 31 14 75q0 45 -40 83t-105 38q-143 0 -164 -171l-163 38q17 113 104 193t231 80
q145 0 231 -78t86 -193q0 -114 -80 -197t-351 -225h429z" />
    <glyph glyph-name="threequarters" unicode="&#xbe;" horiz-adv-x="1802" 
d="M271 903v128h86q67 -1 113 27t46 83q0 107 -131 107t-175 -117l-155 26q23 99 113 160t214 61t213 -60q88 -60 88 -162q0 -132 -129 -183q156 -55 156 -195q0 -106 -91 -175t-236 -69t-237 67t-116 160l160 36q43 -136 184 -136q76 1 120 35t43 83q0 49 -38 87t-116 37
h-112zM461 0l843 1365h133l-843 -1365h-133zM1454 310v186q0 62 9 169l-241 -355h232zM1615 0h-172v183h-382v115l386 538h168v-515h129v-138h-129v-183z" />
    <glyph glyph-name="questiondown" unicode="&#xbf;" horiz-adv-x="1027" 
d="M622 632v-135q0 -68 -27.5 -107t-120.5 -111q-142 -109 -142 -231q0 -91 55.5 -145.5t144.5 -54.5q206 0 243 285l218 -39q-20 -215 -157.5 -335.5t-331.5 -120.5t-316.5 114t-122.5 283q0 83 35 158.5t79 117.5t185 145q41 30 51.5 57t11.5 119h195zM387 775v249h235
v-249h-235z" />
    <glyph glyph-name="Agrave" unicode="&#xc0;" horiz-adv-x="1235" 
d="M783 522l-199 609l-199 -609h398zM1221 0h-263l-109 325h-525l-107 -325h-210l453 1365h303zM349 1800l393 -219l-42 -107l-417 176z" />
    <glyph glyph-name="Aacute" unicode="&#xc1;" horiz-adv-x="1235" 
d="M783 522l-199 609l-199 -609h398zM1221 0h-263l-109 325h-525l-107 -325h-210l453 1365h303zM873 1800l66 -150l-417 -176l-42 107z" />
    <glyph glyph-name="Acircumflex" unicode="&#xc2;" horiz-adv-x="1235" 
d="M783 522l-199 609l-199 -609h398zM1221 0h-263l-109 325h-525l-107 -325h-210l453 1365h303zM615 1790l347 -288l-180 -21l-167 132l-167 -132l-181 21z" />
    <glyph glyph-name="Atilde" unicode="&#xc3;" horiz-adv-x="1235" 
d="M783 522l-199 609l-199 -609h398zM1221 0h-263l-109 325h-525l-107 -325h-210l453 1365h303zM738 1515q-56 -1 -135 41q-80 42 -120 42t-119 -78l-69 103q93 115 201 115q52 0 138 -40t140 -41q52 0 102 78l70 -103q-24 -50 -88 -84t-120 -33z" />
    <glyph glyph-name="Adieresis" unicode="&#xc4;" horiz-adv-x="1235" 
d="M783 522l-199 609l-199 -609h398zM1221 0h-263l-109 325h-525l-107 -325h-210l453 1365h303zM772 1512q-48 0 -80 32t-31 76q-1 44 31 76q32 34 79 34t81 -30t35 -80t-33 -79t-82 -29zM438 1512q-48 0 -80 32t-31 75q0 43 31 77q30 34 78 34t82 -30t34 -80t-34 -79
q-32 -29 -80 -29z" />
    <glyph glyph-name="Aring" unicode="&#xc5;" horiz-adv-x="1235" 
d="M783 522l-199 609l-199 -609h398zM1221 0h-263l-109 325h-525l-107 -325h-210l453 1365h303zM615 1558q41 0 61 26t20 58t-22 56t-56 24t-60 -21t-26 -57t21 -62q21 -24 62 -24zM614 1454q-78 0 -132 54t-54 131t54 132t128 55q72 0 130 -49t59 -131t-53 -137t-132 -55z
" />
    <glyph glyph-name="AE" unicode="&#xc6;" horiz-adv-x="1732" 
d="M802 576v621l-310 -621h310zM1671 212v-212h-869v386h-408l-194 -386h-234l727 1365h961v-198h-606v-376h481v-196h-481v-383h623z" />
    <glyph glyph-name="Ccedilla" unicode="&#xc7;" horiz-adv-x="1186" 
d="M839 -260q0 -72 -55.5 -122t-149.5 -50t-226 61l33 82q116 -51 166 -51q92 0 92 73q0 88 -151 88q-16 0 -56 -2l52 165q-215 23 -340.5 221t-125.5 494t148 491.5t407 195.5q203 0 338 -125t170 -358l-228 -24q-63 309 -278 309q-138 0 -214.5 -128.5t-76.5 -374.5
t82 -372.5t217 -126.5q108 0 184 85t86 203l228 -25q-21 -195 -149 -328.5t-358 -141.5l-25 -79q118 0 174 -44t56 -116z" />
    <glyph glyph-name="Egrave" unicode="&#xc8;" horiz-adv-x="1099" 
d="M1037 0h-887v1365h878v-203h-632v-370h508v-198h-508v-382h641v-212zM362 1800l393 -219l-42 -107l-417 176z" />
    <glyph glyph-name="Eacute" unicode="&#xc9;" horiz-adv-x="1099" 
d="M1037 0h-887v1365h878v-203h-632v-370h508v-198h-508v-382h641v-212zM842 1800l66 -150l-417 -176l-42 107z" />
    <glyph glyph-name="Ecircumflex" unicode="&#xca;" horiz-adv-x="1099" 
d="M1037 0h-887v1365h878v-203h-632v-370h508v-198h-508v-382h641v-212zM601 1790l347 -288l-180 -21l-167 132l-167 -132l-181 21z" />
    <glyph glyph-name="Edieresis" unicode="&#xcb;" horiz-adv-x="1099" 
d="M1037 0h-887v1365h878v-203h-632v-370h508v-198h-508v-382h641v-212zM759 1512q-47 0 -79 32t-32 76t32 76q32 34 78 34q48 0 82 -30t34 -80t-34 -79t-81 -29zM424 1512q-48 0 -78 32q-32 32 -32 75t31 77t79 34t81 -30q34 -30 34 -80q1 -50 -33 -79t-82 -29z" />
    <glyph glyph-name="Igrave" unicode="&#xcc;" horiz-adv-x="546" 
d="M396 0h-246v1365h246v-1365zM36 1800l393 -219l-42 -107l-417 176z" />
    <glyph glyph-name="Iacute" unicode="&#xcd;" horiz-adv-x="546" 
d="M396 0h-246v1365h246v-1365zM540 1800l66 -150l-417 -176l-42 107z" />
    <glyph glyph-name="Icircumflex" unicode="&#xce;" horiz-adv-x="546" 
d="M396 0h-246v1365h246v-1365zM272 1790l347 -288l-180 -21l-167 132l-167 -132l-181 21z" />
    <glyph glyph-name="Idieresis" unicode="&#xcf;" horiz-adv-x="546" 
d="M396 0h-246v1365h246v-1365zM452 1512q-48 0 -80 32t-31 76q-1 44 31 76q32 34 79 34t81 -30t35 -80t-33 -79t-82 -29zM118 1512q-48 0 -80 32t-31 75q0 43 31 77q30 34 78 34t82 -30t34 -80t-34 -79q-32 -29 -80 -29z" />
    <glyph glyph-name="Eth" unicode="&#xd0;" horiz-adv-x="1341" 
d="M396 601v-400h206q165 0 280 124.5t115 346.5t-101 360.5t-265 138.5h-235v-379h337v-191h-337zM7 601v191h137v573h503q279 0 447.5 -197t168.5 -487t-173.5 -485.5t-497.5 -195.5h-448v601h-137z" />
    <glyph glyph-name="Ntilde" unicode="&#xd1;" horiz-adv-x="1331" 
d="M1181 0h-239q-518 872 -544 915q-25 42 -50 85v-1000h-198v1365h272l478 -804q6 -10 87 -147v951h194v-1365zM804 1515q-56 -1 -136 41t-120 42t-119 -78l-69 103q93 115 201 115q53 0 139 -40t138 -41q52 0 103 78l70 -103q-24 -50 -88 -84q-63 -34 -119 -33z" />
    <glyph glyph-name="Ograve" unicode="&#xd2;" horiz-adv-x="1318" 
d="M646 177q142 0 234 110t92 372q0 529 -314 529t-314 -509q0 -247 80 -375t222 -127zM650 -21q-268 0 -420 204t-152 503q0 300 161 500t426 200t419 -200t155 -510q-1 -308 -161 -502t-428 -195zM426 1800l393 -219l-42 -107l-417 176z" />
    <glyph glyph-name="Oacute" unicode="&#xd3;" horiz-adv-x="1318" 
d="M646 177q142 0 234 110t92 372q0 529 -314 529t-314 -509q0 -247 80 -375t222 -127zM650 -21q-268 0 -420 204t-152 503q0 300 161 500t426 200t419 -200t155 -510q-1 -308 -161 -502t-428 -195zM910 1800l66 -150l-417 -176l-42 107z" />
    <glyph glyph-name="Ocircumflex" unicode="&#xd4;" horiz-adv-x="1318" 
d="M646 177q142 0 234 110t92 372q0 529 -314 529t-314 -509q0 -247 80 -375t222 -127zM650 -21q-268 0 -420 204t-152 503q0 300 161 500t426 200t419 -200t155 -510q-1 -308 -161 -502t-428 -195zM666 1790l347 -288l-180 -21l-167 132l-167 -132l-181 21z" />
    <glyph glyph-name="Otilde" unicode="&#xd5;" horiz-adv-x="1318" 
d="M646 177q142 0 234 110t92 372q0 529 -314 529t-314 -509q0 -247 80 -375t222 -127zM650 -21q-268 0 -420 204t-152 503q0 300 161 500t426 200t419 -200t155 -510q-1 -308 -161 -502t-428 -195zM796 1515q-56 -1 -135 41q-80 42 -120 42t-119 -78l-69 103
q93 115 201 115q52 0 138 -40t140 -41q52 0 102 78l70 -103q-24 -50 -88 -84t-120 -33z" />
    <glyph glyph-name="Odieresis" unicode="&#xd6;" horiz-adv-x="1318" 
d="M646 177q142 0 234 110t92 372q0 529 -314 529t-314 -509q0 -247 80 -375t222 -127zM650 -21q-268 0 -420 204t-152 503q0 300 161 500t426 200t419 -200t155 -510q-1 -308 -161 -502t-428 -195zM823 1512q-47 0 -79 32t-32 76t32 76q32 34 78 34q48 0 82 -30t34 -80
t-34 -79t-81 -29zM488 1512q-48 0 -78 32q-32 32 -32 75t31 77t79 34t81 -30q34 -30 34 -80q1 -50 -33 -79t-82 -29z" />
    <glyph glyph-name="multiply" unicode="&#xd7;" horiz-adv-x="1201" 
d="M903 1126l135 -136l-301 -301l300 -300l-134 -134l-301 300l-301 -301l-135 135l301 301l-301 301l134 135l302 -301z" />
    <glyph glyph-name="Oslash" unicode="&#xd8;" horiz-adv-x="1318" 
d="M668 177q122 0 213.5 110t91.5 399q0 137 -33 275l-469 -708q75 -76 197 -76zM665 1188q-169 0 -244.5 -136t-75.5 -334t38 -309l466 706q-68 73 -184 73zM1239 672q0 -304 -160 -498.5t-425 -194.5q-189 0 -315 96l-92 -131h-190l168 242q-146 218 -146 510t162 491
t418 199q175 0 322 -94l87 129h192l-166 -246q145 -199 145 -503z" />
    <glyph glyph-name="Ugrave" unicode="&#xd9;" horiz-adv-x="1218" 
d="M1087 1365v-877q0 -178 -40 -274q-41 -96 -155 -166t-280 -69q-166 0 -274 60q-108 61 -154 165q-47 104 -47 266v895h251v-877q0 -180 76 -236t182 -57q108 1 177 61t69 232v877h195zM370 1800l393 -219l-42 -107l-417 176z" />
    <glyph glyph-name="Uacute" unicode="&#xda;" horiz-adv-x="1218" 
d="M1087 1365v-877q0 -178 -40 -274q-41 -96 -155 -166t-280 -69q-166 0 -274 60q-108 61 -154 165q-47 104 -47 266v895h251v-877q0 -180 76 -236t182 -57q108 1 177 61t69 232v877h195zM868 1800l66 -150l-417 -176l-42 107z" />
    <glyph glyph-name="Ucircumflex" unicode="&#xdb;" horiz-adv-x="1218" 
d="M1087 1365v-877q0 -178 -40 -274q-41 -96 -155 -166t-280 -69q-166 0 -274 60q-108 61 -154 165q-47 104 -47 266v895h251v-877q0 -180 76 -236t182 -57q108 1 177 61t69 232v877h195zM619 1790l347 -288l-180 -21l-167 132l-167 -132l-181 21z" />
    <glyph glyph-name="Udieresis" unicode="&#xdc;" horiz-adv-x="1218" 
d="M1087 1365v-877q0 -178 -40 -274q-41 -96 -155 -166t-280 -69q-166 0 -274 60q-108 61 -154 165q-47 104 -47 266v895h251v-877q0 -180 76 -236t182 -57q108 1 177 61t69 232v877h195zM777 1512q-47 0 -79 32t-32 76t32 76q32 34 78 34q48 0 82 -30t34 -80t-34 -79
t-81 -29zM442 1512q-48 0 -78 32q-32 32 -32 75t31 77t79 34t81 -30q34 -30 34 -80q1 -50 -33 -79t-82 -29z" />
    <glyph glyph-name="Yacute" unicode="&#xdd;" horiz-adv-x="1113" 
d="M699 0h-261v576l-465 789h298l324 -563l310 563h236l-442 -789v-576zM829 1800l66 -150l-417 -176l-42 107z" />
    <glyph glyph-name="Thorn" unicode="&#xde;" horiz-adv-x="1241" 
d="M396 561h291q113 0 173.5 56t60.5 140t-51.5 148t-204.5 64h-269v-408zM396 0h-246v1365h246v-191h313q239 0 354.5 -120.5t115.5 -296.5t-125.5 -292t-316.5 -116h-341v-349z" />
    <glyph glyph-name="germandbls" unicode="&#xdf;" horiz-adv-x="1142" 
d="M371 -94h-228v830h-111v179h111q4 316 140 432.5t309 116.5t285.5 -90.5t112.5 -228.5q0 -253 -351 -312q-26 -25 -26 -38q0 -26 103 -62q6 -2 115.5 -51t187.5 -120t78 -227q0 -157 -117.5 -268.5t-305.5 -111.5q-100 0 -207 38l50 154q60 -18 134 -18q232 0 232 151
q0 53 -40.5 100.5t-178.5 109.5t-181 116t-43 122q0 101 97 213l42 17q103 38 141.5 75t38.5 106t-46.5 115.5t-132.5 46.5t-147.5 -66t-61.5 -184v-1145z" />
    <glyph glyph-name="agrave" unicode="&#xe0;" horiz-adv-x="1107" 
d="M749 514q-442 0 -442 -211q1 -63 45 -107t134 -45q130 1 196 83t67 187v93zM407 -21q-151 1 -243 89t-91 222q0 348 611 348q24 0 65 -1v76q0 157 -211 157t-239 -157l-194 29q16 126 130 208t330 81q117 1 191 -19t125 -66t71 -102q20 -54 19 -184v-456q0 -99 30 -204
h-217q-29 92 -35 204q-91 -225 -342 -225zM333 1487l393 -219l-42 -107l-417 176z" />
    <glyph glyph-name="aacute" unicode="&#xe1;" horiz-adv-x="1107" 
d="M749 514q-442 0 -442 -211q1 -63 45 -107t134 -45q130 1 196 83t67 187v93zM407 -21q-151 1 -243 89t-91 222q0 348 611 348q24 0 65 -1v76q0 157 -211 157t-239 -157l-194 29q16 126 130 208t330 81q117 1 191 -19t125 -66t71 -102q20 -54 19 -184v-456q0 -99 30 -204
h-217q-29 92 -35 204q-91 -225 -342 -225zM799 1487l66 -150l-417 -176l-42 107z" />
    <glyph glyph-name="acircumflex" unicode="&#xe2;" horiz-adv-x="1107" 
d="M749 514q-442 0 -442 -211q1 -63 45 -107t134 -45q130 1 196 83t67 187v93zM407 -21q-151 1 -243 89t-91 222q0 348 611 348q24 0 65 -1v76q0 157 -211 157t-239 -157l-194 29q16 126 130 208t330 81q117 1 191 -19t125 -66t71 -102q20 -54 19 -184v-456q0 -99 30 -204
h-217q-29 92 -35 204q-91 -225 -342 -225zM565 1476l347 -288l-180 -21l-167 132l-167 -132l-181 21z" />
    <glyph glyph-name="atilde" unicode="&#xe3;" horiz-adv-x="1107" 
d="M749 514q-442 0 -442 -211q1 -63 45 -107t134 -45q130 1 196 83t67 187v93zM407 -21q-151 1 -243 89t-91 222q0 348 611 348q24 0 65 -1v76q0 157 -211 157t-239 -157l-194 29q16 126 130 208t330 81q117 1 191 -19t125 -66t71 -102q20 -54 19 -184v-456q0 -99 30 -204
h-217q-29 92 -35 204q-91 -225 -342 -225zM684 1201q-56 -1 -136 41t-120 42t-119 -78l-69 103q93 115 201 115q53 0 139 -40t138 -41q52 0 103 78l70 -103q-24 -50 -88 -84q-63 -34 -119 -33z" />
    <glyph glyph-name="adieresis" unicode="&#xe4;" horiz-adv-x="1107" 
d="M749 514q-442 0 -442 -211q1 -63 45 -107t134 -45q130 1 196 83t67 187v93zM407 -21q-151 1 -243 89t-91 222q0 348 611 348q24 0 65 -1v76q0 157 -211 157t-239 -157l-194 29q16 126 130 208t330 81q117 1 191 -19t125 -66t71 -102q20 -54 19 -184v-456q0 -99 30 -204
h-217q-29 92 -35 204q-91 -225 -342 -225zM730 1188q-48 0 -80 32t-31 76q-1 44 31 76q32 34 79 34t81 -30t35 -80t-33 -79t-82 -29zM396 1188q-48 0 -80 32t-31 75q0 43 31 77q30 34 78 34t82 -30t34 -80t-34 -79q-32 -29 -80 -29z" />
    <glyph glyph-name="aring" unicode="&#xe5;" horiz-adv-x="1107" 
d="M749 514q-442 0 -442 -211q1 -63 45 -107t134 -45q130 1 196 83t67 187v93zM407 -21q-151 1 -243 89t-91 222q0 348 611 348q24 0 65 -1v76q0 157 -211 157t-239 -157l-194 29q16 126 130 208t330 81q117 1 191 -19t125 -66t71 -102q20 -54 19 -184v-456q0 -99 30 -204
h-217q-29 92 -35 204q-91 -225 -342 -225zM566 1237q41 -1 61 25t20 58q1 32 -21 57q-22 24 -56 24t-61 -21q-26 -22 -26 -58t21 -60t62 -25zM565 1133q-78 0 -132 54t-54 131q1 77 55 132t126 55t132 -49q58 -49 58 -131t-54 -137t-131 -55z" />
    <glyph glyph-name="ae" unicode="&#xe6;" horiz-adv-x="1757" 
d="M322 298q0 -72 48 -111t128 -39t148.5 50t87.5 117.5t19 187.5q-244 -7 -337.5 -55.5t-93.5 -149.5zM1215 870q-204 0 -235 -245h469q-6 124 -73 184.5t-161 60.5zM1685 472h-712q2 -144 63.5 -229t187.5 -85q169 0 231 161l211 -35q-35 -130 -163 -217.5t-277 -87.5
t-256.5 57t-157.5 153q-137 -210 -373 -210q-177 0 -271.5 88t-94.5 223q0 170 157 255t435 85q37 0 90 -5q-2 105 -12.5 142.5t-58.5 66.5t-142 29q-183 0 -221 -140l-203 25q72 283 456 283q105 0 171 -23.5t156 -91.5q135 115 316 115q227 0 347.5 -141t120.5 -358v-60z
" />
    <glyph glyph-name="ccedilla" unicode="&#xe7;" horiz-adv-x="954" 
d="M707 -251q0 -66 -54.5 -115.5t-134.5 -49.5t-208 59l32 78q88 -47 139 -47t74 20t23 48q0 86 -152 86q-16 0 -46 -2l52 159q-172 27 -266 172.5t-94 360.5t123 364t328 149q330 0 393 -348l-196 -27q-26 188 -185 188q-116 0 -168.5 -102t-52.5 -250t54.5 -231t152.5 -83
q150 0 199 193l196 -20q-74 -362 -402 -371l-21 -73q102 0 158 -46t56 -112z" />
    <glyph glyph-name="egrave" unicode="&#xe8;" horiz-adv-x="1074" 
d="M540 871q-94 -1 -157 -65t-74 -182h456q-1 109 -65 178q-66 69 -160 69zM538 -21q-210 0 -338 141t-128 376t129 385t347 150t337 -148q118 -148 118 -380l-1 -26h-693q-1 -103 19 -165t78 -108t145 -46q169 0 228 164l206 -28q-40 -137 -156 -226t-291 -89zM326 1487
l393 -219l-42 -107l-417 176z" />
    <glyph glyph-name="eacute" unicode="&#xe9;" horiz-adv-x="1074" 
d="M540 871q-94 -1 -157 -65t-74 -182h456q-1 109 -65 178q-66 69 -160 69zM538 -21q-210 0 -338 141t-128 376t129 385t347 150t337 -148q118 -148 118 -380l-1 -26h-693q-1 -103 19 -165t78 -108t145 -46q169 0 228 164l206 -28q-40 -137 -156 -226t-291 -89zM785 1487
l66 -150l-417 -176l-42 107z" />
    <glyph glyph-name="ecircumflex" unicode="&#xea;" horiz-adv-x="1074" 
d="M540 871q-94 -1 -157 -65t-74 -182h456q-1 109 -65 178q-66 69 -160 69zM538 -21q-210 0 -338 141t-128 376t129 385t347 150t337 -148q118 -148 118 -380l-1 -26h-693q-1 -103 19 -165t78 -108t145 -46q169 0 228 164l206 -28q-40 -137 -156 -226t-291 -89zM565 1476
l347 -288l-180 -21l-167 132l-167 -132l-181 21z" />
    <glyph glyph-name="edieresis" unicode="&#xeb;" horiz-adv-x="1074" 
d="M540 871q-94 -1 -157 -65t-74 -182h456q-1 109 -65 178q-66 69 -160 69zM538 -21q-210 0 -338 141t-128 376t129 385t347 150t337 -148q118 -148 118 -380l-1 -26h-693q-1 -103 19 -165t78 -108t145 -46q169 0 228 164l206 -28q-40 -137 -156 -226t-291 -89zM730 1188
q-48 0 -80 32t-31 76q-1 44 31 76q32 34 79 34t81 -30t35 -80t-33 -79t-82 -29zM396 1188q-48 0 -80 32t-31 75q0 43 31 77q30 34 78 34t82 -30t34 -80t-34 -79q-32 -29 -80 -29z" />
    <glyph glyph-name="igrave" unicode="&#xec;" horiz-adv-x="501" 
d="M364 0h-228v1010h228v-1010zM32 1487l393 -219l-42 -107l-417 176z" />
    <glyph glyph-name="iacute" unicode="&#xed;" horiz-adv-x="501" 
d="M364 0h-228v1010h228v-1010zM510 1487l66 -150l-417 -176l-42 107z" />
    <glyph glyph-name="icircumflex" unicode="&#xee;" horiz-adv-x="501" 
d="M364 0h-228v1010h228v-1010zM252 1476l347 -288l-180 -21l-167 132l-167 -132l-181 21z" />
    <glyph glyph-name="idieresis" unicode="&#xef;" horiz-adv-x="501" 
d="M364 0h-228v1010h228v-1010zM414 1188q-48 0 -80 32t-31 76q-1 44 31 76q32 34 79 34t81 -30t35 -80t-33 -79t-82 -29zM80 1188q-48 0 -80 32t-31 75q0 43 31 77q30 34 78 34t82 -30t34 -80t-34 -79q-32 -29 -80 -29z" />
    <glyph glyph-name="eth" unicode="&#xf0;" horiz-adv-x="1083" 
d="M546 822q-132 0 -185 -105t-53 -227t53.5 -223.5t169.5 -101.5t175.5 87.5t59.5 243.5t-63 241t-157 85zM1011 525q0 -251 -134.5 -397.5t-348.5 -146.5t-335 155.5t-121 365.5t127.5 360t298.5 150q139 0 235 -118q-42 160 -154 288l-194 -96l-60 84l170 89
q-54 37 -185 95l42 80q130 -29 271 -110l195 96l72 -78l-177 -90q298 -305 298 -727z" />
    <glyph glyph-name="ntilde" unicode="&#xf1;" horiz-adv-x="1109" 
d="M973 0h-228v631q0 101 -46 151t-123 50t-144 -78t-67 -235v-519h-228v1010h208v-234q109 255 306 255q133 0 227 -84t95 -295v-652zM660 1201q-56 -1 -136 41t-120 42t-119 -78l-69 103q93 115 201 115q53 0 139 -40t138 -41q52 0 103 78l70 -103q-24 -50 -88 -84
q-63 -34 -119 -33z" />
    <glyph glyph-name="ograve" unicode="&#xf2;" horiz-adv-x="1083" 
d="M540 167q230 0 230 343q0 154 -55 244t-171 90t-173 -92t-57 -252q0 -159 60 -246t166 -87zM524 -21q-216 0 -334 161t-118 377t130 365t340 149q208 0 338 -145q130 -144 131 -380t-135 -382t-352 -145zM310 1487l393 -219l-42 -107l-417 176z" />
    <glyph glyph-name="oacute" unicode="&#xf3;" horiz-adv-x="1083" 
d="M540 167q230 0 230 343q0 154 -55 244t-171 90t-173 -92t-57 -252q0 -159 60 -246t166 -87zM524 -21q-216 0 -334 161t-118 377t130 365t340 149q208 0 338 -145q130 -144 131 -380t-135 -382t-352 -145zM787 1487l66 -150l-417 -176l-42 107z" />
    <glyph glyph-name="ocircumflex" unicode="&#xf4;" horiz-adv-x="1083" 
d="M540 167q230 0 230 343q0 154 -55 244t-171 90t-173 -92t-57 -252q0 -159 60 -246t166 -87zM524 -21q-216 0 -334 161t-118 377t130 365t340 149q208 0 338 -145q130 -144 131 -380t-135 -382t-352 -145zM549 1476l347 -288l-180 -21l-167 132l-167 -132l-181 21z" />
    <glyph glyph-name="otilde" unicode="&#xf5;" horiz-adv-x="1083" 
d="M540 167q230 0 230 343q0 154 -55 244t-171 90t-173 -92t-57 -252q0 -159 60 -246t166 -87zM524 -21q-216 0 -334 161t-118 377t130 365t340 149q208 0 338 -145q130 -144 131 -380t-135 -382t-352 -145zM680 1201q-56 -1 -135 41q-80 42 -120 42t-119 -78l-69 103
q93 115 201 115q52 0 138 -40t140 -41q52 0 102 78l70 -103q-24 -50 -88 -84t-120 -33z" />
    <glyph glyph-name="odieresis" unicode="&#xf6;" horiz-adv-x="1083" 
d="M540 167q230 0 230 343q0 154 -55 244t-171 90t-173 -92t-57 -252q0 -159 60 -246t166 -87zM524 -21q-216 0 -334 161t-118 377t130 365t340 149q208 0 338 -145q130 -144 131 -380t-135 -382t-352 -145zM714 1188q-48 0 -80 32t-31 76q-1 44 31 76q32 34 79 34t81 -30
t35 -80t-33 -79t-82 -29zM380 1188q-48 0 -80 32t-31 75q0 43 31 77q30 34 78 34t82 -30t34 -80t-34 -79q-32 -29 -80 -29z" />
    <glyph glyph-name="divide" unicode="&#xf7;" horiz-adv-x="1201" 
d="M722 340q0 -50 -36 -86t-86 -36t-86.5 36t-36.5 86t36.5 86.5t86.5 36.5t86 -36.5t36 -86.5zM1107 785v-191h-1012v191h1012zM722 1036q0 -50 -36 -86.5t-86 -36.5t-86.5 35.5t-36.5 86.5t36.5 87t86.5 36t86 -36t36 -86z" />
    <glyph glyph-name="oslash" unicode="&#xf8;" horiz-adv-x="1083" 
d="M541 167q229 0 229 350q0 111 -30 177l-324 -486q57 -41 125 -41zM531 844q-98 0 -157.5 -89t-59.5 -219t27 -226l335 489q-47 45 -145 45zM1011 509q0 -241 -135.5 -385.5t-347.5 -144.5q-132 0 -234 65l-80 -110h-142l132 188q-131 163 -131 387t129.5 373t349.5 149
q135 0 244 -69l73 97h142l-128 -176q77 -99 102.5 -181t25.5 -193z" />
    <glyph glyph-name="ugrave" unicode="&#xf9;" horiz-adv-x="1105" 
d="M968 0h-212v218q-86 -239 -319 -239q-138 -1 -219 85t-81 239v707h233v-658q0 -109 48 -143t108 -34q60 1 137 67t77 283v485h228v-1010zM321 1487l393 -219l-42 -107l-417 176z" />
    <glyph glyph-name="uacute" unicode="&#xfa;" horiz-adv-x="1105" 
d="M968 0h-212v218q-86 -239 -319 -239q-138 -1 -219 85t-81 239v707h233v-658q0 -109 48 -143t108 -34q60 1 137 67t77 283v485h228v-1010zM798 1487l66 -150l-417 -176l-42 107z" />
    <glyph glyph-name="ucircumflex" unicode="&#xfb;" horiz-adv-x="1105" 
d="M968 0h-212v218q-86 -239 -319 -239q-138 -1 -219 85t-81 239v707h233v-658q0 -109 48 -143t108 -34q60 1 137 67t77 283v485h228v-1010zM553 1476l347 -288l-180 -21l-167 132l-167 -132l-181 21z" />
    <glyph glyph-name="udieresis" unicode="&#xfc;" horiz-adv-x="1105" 
d="M968 0h-212v218q-86 -239 -319 -239q-138 -1 -219 85t-81 239v707h233v-658q0 -109 48 -143t108 -34q60 1 137 67t77 283v485h228v-1010zM718 1188q-48 0 -80 32t-31 76q-1 44 31 76q32 34 79 34t81 -30t35 -80t-33 -79t-82 -29zM384 1188q-48 0 -80 32t-31 75
q0 43 31 77q30 34 78 34t82 -30t34 -80t-34 -79q-32 -29 -80 -29z" />
    <glyph glyph-name="yacute" unicode="&#xfd;" horiz-adv-x="905" 
d="M223 -363q-45 0 -131 7v181l109 -2q73 -1 107 23t54 84t20 68t-21 64l-347 948h239l245 -666l211 666h182l-393 -1150q-36 -106 -98 -164t-177 -59zM719 1487l66 -150l-417 -176l-42 107z" />
    <glyph glyph-name="thorn" unicode="&#xfe;" horiz-adv-x="1098" 
d="M365 414q0 -111 64.5 -183t146.5 -72q109 0 159.5 95.5t50.5 249.5t-53 247t-147 93t-157.5 -79t-63.5 -207v-144zM365 -341h-228v1706h228v-510q95 176 285 176t283.5 -155t93.5 -367t-95 -371t-287 -159t-280 162v-482z" />
    <glyph glyph-name="ydieresis" unicode="&#xff;" horiz-adv-x="905" 
d="M223 -363q-45 0 -131 7v181l109 -2q73 -1 107 23t54 84t20 68t-21 64l-347 948h239l245 -666l211 666h182l-393 -1150q-36 -106 -98 -164t-177 -59zM638 1188q-48 0 -80 32t-31 76q-1 44 31 76q32 34 79 34t81 -30t35 -80t-33 -79t-82 -29zM304 1188q-48 0 -80 32t-31 75
q0 43 31 77q30 34 78 34t82 -30t34 -80t-34 -79q-32 -29 -80 -29z" />
    <glyph glyph-name="Amacron" unicode="&#x100;" horiz-adv-x="1235" 
d="M783 522l-199 609l-199 -609h398zM1221 0h-263l-109 325h-525l-107 -325h-210l453 1365h303zM915 1680v-130h-602v130h602z" />
    <glyph glyph-name="amacron" unicode="&#x101;" horiz-adv-x="1107" 
d="M749 514q-442 0 -442 -211q1 -63 45 -107t134 -45q130 1 196 83t67 187v93zM407 -21q-151 1 -243 89t-91 222q0 348 611 348q24 0 65 -1v76q0 157 -211 157t-239 -157l-194 29q16 126 130 208t330 81q117 1 191 -19t125 -66t71 -102q20 -54 19 -184v-456q0 -99 30 -204
h-217q-29 92 -35 204q-91 -225 -342 -225zM866 1352v-130h-602v130h602z" />
    <glyph glyph-name="Abreve" unicode="&#x102;" horiz-adv-x="1235" 
d="M783 522l-199 609l-199 -609h398zM1221 0h-263l-109 325h-525l-107 -325h-210l453 1365h303zM614 1634q154 0 172 132h131q-5 -114 -88 -194t-215 -80t-216 75t-88 199h131q19 -132 173 -132z" />
    <glyph glyph-name="abreve" unicode="&#x103;" horiz-adv-x="1107" 
d="M749 514q-442 0 -442 -211q1 -63 45 -107t134 -45q130 1 196 83t67 187v93zM407 -21q-151 1 -243 89t-91 222q0 348 611 348q24 0 65 -1v76q0 157 -211 157t-239 -157l-194 29q16 126 130 208t330 81q117 1 191 -19t125 -66t71 -102q20 -54 19 -184v-456q0 -99 30 -204
h-217q-29 92 -35 204q-91 -225 -342 -225zM564 1323q154 0 173 132h131q-5 -115 -88 -195t-215 -79q-132 0 -216 75t-88 199h131q18 -132 172 -132z" />
    <glyph glyph-name="Aogonek" unicode="&#x104;" horiz-adv-x="1235" 
d="M783 522l-199 609l-199 -609h398zM1072 -164q0 -97 124 -97q45 0 92 19l21 -81q-81 -36 -173 -36t-149.5 42.5t-57.5 119.5q0 131 175 197h-146l-109 325h-525l-107 -325h-210l453 1365h303l458 -1365q-149 -76 -149 -164z" />
    <glyph glyph-name="aogonek" unicode="&#x105;" horiz-adv-x="1107" 
d="M749 514q-442 0 -442 -211q0 -63 44.5 -107.5t134.5 -44.5q130 0 196.5 82.5t66.5 187.5v93zM407 -21q-151 0 -242.5 88.5t-91.5 222.5q0 348 611 348q24 0 65 -1v76q0 157 -211 157t-239 -157l-194 29q16 126 130 207.5t330 81.5q117 0 191 -19.5t125 -66t70.5 -101
t19.5 -184.5v-456q0 -99 30 -204q-143 -76 -143 -162q0 -41 28 -66.5t74 -25.5t95 18l20 -73q-77 -35 -163 -35t-140.5 43t-54.5 110q0 119 174 191h-107q-29 92 -35 204q-91 -225 -342 -225z" />
    <glyph glyph-name="Cacute" unicode="&#x106;" horiz-adv-x="1186" 
d="M642 -21q-204 0 -322 94q-116 94 -179 255t-63 355q0 311 148 507t407 196q203 0 338 -125t170 -358l-228 -24q-63 309 -278 309q-139 0 -215 -128t-76 -375t82 -373t217 -126q108 0 184 85t86 203l228 -25q-23 -205 -159 -337t-340 -133zM892 1800l66 -150l-417 -176
l-42 107z" />
    <glyph glyph-name="cacute" unicode="&#x107;" horiz-adv-x="954" 
d="M506 -21q-210 1 -322 153t-112 376t123 374q123 149 328 149q330 0 393 -348l-196 -27q-26 188 -185 188q-117 0 -169 -102t-52 -250t54 -231t153 -83q150 0 199 193l196 -20q-38 -190 -147 -281t-263 -91zM774 1487l66 -150l-417 -176l-42 107z" />
    <glyph glyph-name="Ccircumflex" unicode="&#x108;" horiz-adv-x="1186" 
d="M642 -21q-204 0 -322 94q-116 94 -179 255t-63 355q0 311 148 507t407 196q203 0 338 -125t170 -358l-228 -24q-63 309 -278 309q-139 0 -215 -128t-76 -375t82 -373t217 -126q108 0 184 85t86 203l228 -25q-23 -205 -159 -337t-340 -133zM644 1790l347 -288l-180 -21
l-167 132l-167 -132l-181 21z" />
    <glyph glyph-name="ccircumflex" unicode="&#x109;" horiz-adv-x="954" 
d="M506 -21q-210 1 -322 153t-112 376t123 374q123 149 328 149q330 0 393 -348l-196 -27q-26 188 -185 188q-117 0 -169 -102t-52 -250t54 -231t153 -83q150 0 199 193l196 -20q-38 -190 -147 -281t-263 -91zM529 1476l347 -288l-180 -21l-167 132l-167 -132l-181 21z" />
    <glyph glyph-name="Cdot" unicode="&#x10a;" horiz-adv-x="1186" 
d="M642 -21q-204 0 -322 94q-116 94 -179 255t-63 355q0 311 148 507t407 196q203 0 338 -125t170 -358l-228 -24q-63 309 -278 309q-139 0 -215 -128t-76 -375t82 -373t217 -126q108 0 184 85t86 203l228 -25q-23 -205 -159 -337t-340 -133zM642 1512q-48 0 -80 32t-31 75
q0 43 31 77q30 34 78 34t82 -30t34 -80t-34 -79q-32 -29 -80 -29z" />
    <glyph glyph-name="cdot" unicode="&#x10b;" horiz-adv-x="954" 
d="M506 -21q-210 1 -322 153t-112 376t123 374q123 149 328 149q330 0 393 -348l-196 -27q-26 188 -185 188q-117 0 -169 -102t-52 -250t54 -231t153 -83q150 0 199 193l196 -20q-38 -190 -147 -281t-263 -91zM534 1188q-48 0 -80 32t-31 75q0 43 31 77q30 34 78 34t82 -30
t34 -80t-34 -79q-32 -29 -80 -29z" />
    <glyph glyph-name="Ccaron" unicode="&#x10c;" horiz-adv-x="1186" 
d="M642 -21q-204 0 -322 94q-116 94 -179 255t-63 355q0 311 148 507t407 196q203 0 338 -125t170 -358l-228 -24q-63 309 -278 309q-139 0 -215 -128t-76 -375t82 -373t217 -126q108 0 184 85t86 203l228 -25q-23 -205 -159 -337t-340 -133zM644 1468l-348 288l181 20
l167 -131l167 131l180 -20z" />
    <glyph glyph-name="ccaron" unicode="&#x10d;" horiz-adv-x="954" 
d="M506 -21q-210 1 -322 153t-112 376t123 374q123 149 328 149q330 0 393 -348l-196 -27q-26 188 -185 188q-117 0 -169 -102t-52 -250t54 -231t153 -83q150 0 199 193l196 -20q-38 -190 -147 -281t-263 -91zM535 1154l-348 288l181 20l167 -131l167 131l180 -20z" />
    <glyph glyph-name="Dcaron" unicode="&#x10e;" horiz-adv-x="1341" 
d="M396 201h205q165 0 280 124q115 125 115 347t-100 360t-266 139h-234v-970zM143 0v1365h503q279 1 448 -197t169 -488t-174 -485t-498 -195h-448zM605 1468l-348 288l181 20l167 -131l167 131l180 -20z" />
    <glyph glyph-name="dcaron" unicode="&#x10f;" horiz-adv-x="1322" 
d="M739 596q-1 124 -59 192t-155 68t-154 -88t-57 -263q0 -338 212 -338q84 1 148 73t65 185v171zM967 0h-213v204q-88 -225 -298 -225q-186 0 -285 155t-99 377t103 381t295 159t269 -178v492h228v-1365zM1323 1365l-176 -397h-91l62 397h205z" />
    <glyph glyph-name="Dslash" unicode="&#x110;" horiz-adv-x="1341" 
d="M396 601v-400h206q165 0 280 124.5t115 346.5t-101 360.5t-265 138.5h-235v-379h337v-191h-337zM7 601v191h137v573h503q279 0 447.5 -197t168.5 -487t-173.5 -485.5t-497.5 -195.5h-448v601h-137z" />
    <glyph glyph-name="dmacron" unicode="&#x111;" horiz-adv-x="1103" 
d="M739 596q0 135 -63.5 197.5t-155.5 62.5t-149 -88t-57 -263q0 -338 211 -338q85 0 149.5 72.5t64.5 185.5v171zM739 1365h228v-116h137v-123h-137v-1126h-213v204q-88 -225 -298 -225q-186 0 -285 155t-99 377t103 381t295 159t269 -178v253h-273v123h273v116z" />
    <glyph glyph-name="Emacron" unicode="&#x112;" horiz-adv-x="1099" 
d="M1037 0h-887v1365h878v-203h-632v-370h508v-198h-508v-382h641v-212zM901 1680v-130h-602v130h602z" />
    <glyph glyph-name="emacron" unicode="&#x113;" horiz-adv-x="1074" 
d="M540 871q-94 -1 -157 -65t-74 -182h456q-1 109 -65 178q-66 69 -160 69zM538 -21q-210 0 -338 141t-128 376t129 385t347 150t337 -148q118 -148 118 -380l-1 -26h-693q-1 -103 19 -165t78 -108t145 -46q169 0 228 164l206 -28q-40 -137 -156 -226t-291 -89zM866 1352
v-130h-602v130h602z" />
    <glyph glyph-name="Ebreve" unicode="&#x114;" horiz-adv-x="1099" 
d="M1037 0h-887v1365h878v-203h-632v-370h508v-198h-508v-382h641v-212zM600 1634q154 0 173 132h131q-5 -114 -88 -194t-215 -80t-216 75t-88 199h131q18 -132 172 -132z" />
    <glyph glyph-name="ebreve" unicode="&#x115;" horiz-adv-x="1074" 
d="M540 871q-94 -1 -157 -65t-74 -182h456q-1 109 -65 178q-66 69 -160 69zM538 -21q-210 0 -338 141t-128 376t129 385t347 150t337 -148q118 -148 118 -380l-1 -26h-693q-1 -103 19 -165t78 -108t145 -46q169 0 228 164l206 -28q-40 -137 -156 -226t-291 -89zM564 1323
q154 0 173 132h131q-5 -115 -88 -195t-215 -79q-132 0 -216 75t-88 199h131q18 -132 172 -132z" />
    <glyph glyph-name="Edot" unicode="&#x116;" horiz-adv-x="1099" 
d="M1037 0h-887v1365h878v-203h-632v-370h508v-198h-508v-382h641v-212zM598 1512q-48 0 -78 32q-32 32 -32 75t31 77t79 34t81 -30q34 -30 34 -80q1 -50 -33 -79t-82 -29z" />
    <glyph glyph-name="edot" unicode="&#x117;" horiz-adv-x="1074" 
d="M540 871q-94 -1 -157 -65t-74 -182h456q-1 109 -65 178q-66 69 -160 69zM538 -21q-210 0 -338 141t-128 376t129 385t347 150t337 -148q118 -148 118 -380l-1 -26h-693q-1 -103 19 -165t78 -108t145 -46q169 0 228 164l206 -28q-40 -137 -156 -226t-291 -89zM562 1188
q-48 0 -78 32q-32 32 -32 75t31 77t79 34t81 -30q34 -30 34 -80q1 -50 -33 -79t-82 -29z" />
    <glyph glyph-name="Eogonek" unicode="&#x118;" horiz-adv-x="1099" 
d="M150 0v1365h878v-203h-632v-370h508v-198h-508v-382h641v-212q-148 -76 -148 -164q0 -97 123 -97q45 0 93 19l20 -81q-81 -36 -171 -36t-149.5 42t-59.5 120q0 131 176 197h-771z" />
    <glyph glyph-name="eogonek" unicode="&#x119;" horiz-adv-x="1074" 
d="M540 871q-94 0 -157 -64.5t-74 -182.5h456q-1 109 -66 178t-159 69zM712 -337q-87 0 -142 42.5t-55 109.5q0 104 138 175q-68 -10 -118 -10q-217 0 -340 146t-123 376t129 379.5t347 149.5t336.5 -148t118.5 -380l-1 -26h-693q0 -103 19.5 -165t77.5 -108t145 -46
q169 0 228 164l206 -28q-35 -131 -182 -249t-147 -203q0 -37 28 -63t74 -26t95 18l21 -73q-75 -35 -162 -35z" />
    <glyph glyph-name="Ecaron" unicode="&#x11a;" horiz-adv-x="1099" 
d="M1037 0h-887v1365h878v-203h-632v-370h508v-198h-508v-382h641v-212zM601 1468l-348 288l181 20l167 -131l167 131l180 -20z" />
    <glyph glyph-name="ecaron" unicode="&#x11b;" horiz-adv-x="1074" 
d="M540 871q-94 -1 -157 -65t-74 -182h456q-1 109 -65 178q-66 69 -160 69zM538 -21q-210 0 -338 141t-128 376t129 385t347 150t337 -148q118 -148 118 -380l-1 -26h-693q-1 -103 19 -165t78 -108t145 -46q169 0 228 164l206 -28q-40 -137 -156 -226t-291 -89zM565 1154
l-348 288l181 20l167 -131l167 131l180 -20z" />
    <glyph glyph-name="Gcircumflex" unicode="&#x11c;" horiz-adv-x="1315" 
d="M1186 698v-698h-109l-75 184q-119 -205 -369 -205q-279 0 -417 212t-137 499q-1 288 153 492t430 204q206 0 339 -120t168 -297l-214 -38q-60 250 -287 250q-144 0 -236 -118t-92 -363q0 -517 324 -517q126 0 208 87t83 230h-282v198h513zM681 1790l347 -288l-180 -21
l-167 132l-167 -132l-181 21z" />
    <glyph glyph-name="gcircumflex" unicode="&#x11d;" horiz-adv-x="1061" 
d="M241 -32q0 -70 82 -122t261 -52q263 0 263 135q0 49 -46 75t-105 26h-242q-69 0 -164 25q-49 -45 -49 -87zM540 553q186 0 186 175q0 67 -46 113t-136 46t-140 -48t-49 -121q0 -73 49 -119t136 -46zM1058 1203v-175h-70q-46 0 -80 -11t-68 -71q120 -98 120 -225
t-112 -215t-298 -88q-80 0 -187 26q-70 -32 -70 -99q0 -37 34 -68t103 -31h300q154 0 242 -80t87 -210t-133 -224t-392 -94q-489 0 -489 273q0 135 147 205q-94 80 -94 167q0 132 161 210q-140 85 -140 223t103 226q103 89 313 89q96 0 195 -21q46 193 243 193h85zM572 1564
l347 -288l-180 -21l-167 132l-167 -132l-181 21z" />
    <glyph glyph-name="Gbreve" unicode="&#x11e;" horiz-adv-x="1315" 
d="M1186 698v-698h-109l-75 184q-119 -205 -369 -205q-279 0 -417 212t-137 499q-1 288 153 492t430 204q206 0 339 -120t168 -297l-214 -38q-60 250 -287 250q-144 0 -236 -118t-92 -363q0 -517 324 -517q126 0 208 87t83 230h-282v198h513zM674 1634q154 0 172 132h131
q-5 -114 -88 -194t-215 -80t-216 75t-88 199h131q19 -132 173 -132z" />
    <glyph glyph-name="gbreve" unicode="&#x11f;" horiz-adv-x="1061" 
d="M241 -32q0 -70 82 -122t261 -52q263 0 263 135q0 49 -46 75t-105 26h-242q-69 0 -164 25q-49 -45 -49 -87zM540 553q186 0 186 175q0 67 -46 113t-136 46t-140 -48t-49 -121q0 -73 49 -119t136 -46zM1058 1203v-175h-70q-46 0 -80 -11t-68 -71q120 -98 120 -225
t-112 -215t-298 -88q-80 0 -187 26q-70 -32 -70 -99q0 -37 34 -68t103 -31h300q154 0 242 -80t87 -210t-133 -224t-392 -94q-489 0 -489 273q0 135 147 205q-94 80 -94 167q0 132 161 210q-140 85 -140 223t103 226q103 89 313 89q96 0 195 -21q46 193 243 193h85zM532 1373
q154 0 172 132h131q-5 -115 -88 -195t-215 -79q-132 0 -216 75t-88 199h131q19 -132 173 -132z" />
    <glyph glyph-name="Gdot" unicode="&#x120;" horiz-adv-x="1315" 
d="M1186 698v-698h-109l-75 184q-119 -205 -369 -205q-279 0 -417 212t-137 499q-1 288 153 492t430 204q206 0 339 -120t168 -297l-214 -38q-60 250 -287 250q-144 0 -236 -118t-92 -363q0 -517 324 -517q126 0 208 87t83 230h-282v198h513zM674 1512q-48 0 -78 32
q-32 32 -32 75t31 77t79 34t81 -30q34 -30 34 -80q1 -50 -33 -79t-82 -29z" />
    <glyph glyph-name="gdot" unicode="&#x121;" horiz-adv-x="1061" 
d="M241 -32q0 -70 82 -122t261 -52q263 0 263 135q0 49 -46 75t-105 26h-242q-69 0 -164 25q-49 -45 -49 -87zM540 553q186 0 186 175q0 67 -46 113t-136 46t-140 -48t-49 -121q0 -73 49 -119t136 -46zM1058 1203v-175h-70q-46 0 -80 -11t-68 -71q120 -98 120 -225
t-112 -215t-298 -88q-80 0 -187 26q-70 -32 -70 -99q0 -37 34 -68t103 -31h300q154 0 242 -80t87 -210t-133 -224t-392 -94q-489 0 -489 273q0 135 147 205q-94 80 -94 167q0 132 161 210q-140 85 -140 223t103 226q103 89 313 89q96 0 195 -21q46 193 243 193h85zM528 1188
q-48 0 -78 32q-32 32 -32 75t31 77t79 34t81 -30q34 -30 34 -80q1 -50 -33 -79t-82 -29z" />
    <glyph glyph-name="Gcedilla" unicode="&#x122;" horiz-adv-x="1315" 
d="M1186 698v-698h-109l-75 184q-119 -205 -369 -205q-279 0 -417 212t-137 499q-1 288 153 492t430 204q206 0 339 -120t168 -297l-214 -38q-60 250 -287 250q-144 0 -236 -118t-92 -363q0 -517 324 -517q126 0 208 87t83 230h-282v198h513zM776 -109l-176 -370h-91l61 370
h206z" />
    <glyph glyph-name="gcedilla" unicode="&#x123;" horiz-adv-x="1061" 
d="M241 -32q0 -70 82 -122t261 -52q263 0 263 135q0 49 -46 75t-105 26h-242q-69 0 -164 25q-49 -45 -49 -87zM540 553q186 0 186 175q0 67 -46 113t-136 46t-140 -48t-49 -121q0 -73 49 -119t136 -46zM1058 1203v-175h-70q-46 0 -80 -11t-68 -71q120 -98 120 -225
t-112 -215t-298 -88q-80 0 -187 26q-70 -32 -70 -99q0 -37 34 -68t103 -31h300q154 0 242 -80t87 -210t-133 -224t-392 -94q-489 0 -489 273q0 135 147 205q-94 80 -94 167q0 132 161 210q-140 85 -140 223t103 226q103 89 313 89q96 0 195 -21q46 193 243 193h85zM407 1187
l176 397h91l-62 -397h-205z" />
    <glyph glyph-name="Hcircumflex" unicode="&#x124;" horiz-adv-x="1313" 
d="M1163 0h-246v593h-521v-593h-246v1365h246v-561h521v561h246v-1365zM657 1790l347 -288l-180 -21l-167 132l-167 -132l-181 21z" />
    <glyph glyph-name="hcircumflex" unicode="&#x125;" horiz-adv-x="1110" 
d="M973 0h-228v661q1 107 -45 151t-107 43q-97 0 -163 -77t-66 -254v-524h-228v1365h228v-532q85 218 298 218q311 0 311 -357v-694zM261 1790l347 -288l-180 -21l-167 132l-167 -132l-181 21z" />
    <glyph glyph-name="Hbar" unicode="&#x126;" horiz-adv-x="1313" 
d="M396 987v-183h522v183h-522zM14 987v192h137v186h245v-186h522v186h246v-186h136v-192h-136v-987h-246v593h-522v-593h-245v987h-137z" />
    <glyph glyph-name="hbar" unicode="&#x127;" horiz-adv-x="1110" 
d="M0 1126v123h137v116h228v-116h286v-123h-286v-293q84 218 297 218q311 0 311 -357v-694h-228v661q0 107 -45.5 150.5t-106.5 43.5q-97 0 -162.5 -77t-65.5 -254v-524h-228v1126h-137z" />
    <glyph glyph-name="Itilde" unicode="&#x128;" horiz-adv-x="546" 
d="M396 0h-246v1365h246v-1365zM378 1515q-56 -1 -136 41t-120 42t-119 -78l-69 103q93 115 201 115q53 0 139 -40t138 -41q52 0 103 78l70 -103q-24 -50 -88 -84q-63 -34 -119 -33z" />
    <glyph glyph-name="itilde" unicode="&#x129;" horiz-adv-x="501" 
d="M364 0h-228v1010h228v-1010zM368 1201q-56 -1 -135 41q-80 42 -120 42t-119 -78l-69 103q93 115 201 115q52 0 138 -40t140 -41q52 0 102 78l70 -103q-24 -50 -88 -84t-120 -33z" />
    <glyph glyph-name="Imacron" unicode="&#x12a;" horiz-adv-x="546" 
d="M396 0h-246v1365h246v-1365zM629 1680v-130h-602v130h602z" />
    <glyph glyph-name="imacron" unicode="&#x12b;" horiz-adv-x="501" 
d="M364 0h-228v1010h228v-1010zM613 1352v-130h-602v130h602z" />
    <glyph glyph-name="Ibreve" unicode="&#x12c;" horiz-adv-x="546" 
d="M396 0h-246v1365h246v-1365zM290 1651q154 0 173 132h131q-5 -115 -88 -195t-215 -79q-132 0 -216 75t-88 199h131q18 -132 172 -132z" />
    <glyph glyph-name="ibreve" unicode="&#x12d;" horiz-adv-x="501" 
d="M364 0h-228v1010h228v-1010zM284 1323q154 0 173 132h131q-5 -115 -88 -195t-215 -79q-132 0 -216 75t-88 199h131q18 -132 172 -132z" />
    <glyph glyph-name="Iogonek" unicode="&#x12e;" horiz-adv-x="546" 
d="M268 -164q0 -43 30 -69.5t67 -26.5t85 18l21 -81q-79 -36 -155 -36t-133.5 43.5t-57.5 117.5q0 120 155 198h-129v1365h246v-1365q-129 -82 -129 -164z" />
    <glyph glyph-name="iogonek" unicode="&#x12f;" horiz-adv-x="501" 
d="M248 -162q0 -32 21 -60.5t57 -28.5t78 15l21 -73q-77 -35 -143 -35t-120.5 43t-54.5 110q0 106 154 191h-125v1010h228v-1010q-116 -87 -116 -162zM364 1128h-228v237h228v-237z" />
    <glyph glyph-name="Idotaccent" unicode="&#x130;" horiz-adv-x="546" 
d="M396 0h-246v1365h246v-1365zM270 1512q-48 0 -78 32q-32 32 -32 75t31 77t79 34t81 -30q34 -30 34 -80q1 -50 -33 -79t-82 -29z" />
    <glyph glyph-name="dotlessi" unicode="&#x131;" horiz-adv-x="501" 
d="M364 0h-228v1010h228v-1010z" />
    <glyph glyph-name="IJ" unicode="&#x132;" horiz-adv-x="1293" 
d="M1156 1365v-942q0 -241 -104.5 -342.5t-314.5 -101.5q-135 0 -205 21v198q119 -9 157 -9q131 0 173 49.5t42 184.5v942h252zM396 0h-246v1365h246v-1365z" />
    <glyph glyph-name="ij" unicode="&#x133;" horiz-adv-x="995" 
d="M858 1010v-994q0 -378 -347 -378q-52 0 -117 12v193q44 -5 100 -5t96 27.5t40 150.5v994h228zM364 0h-228v1010h228v-1010zM858 1128h-228v237h228v-237zM364 1128h-228v237h228v-237z" />
    <glyph glyph-name="Jcircumflex" unicode="&#x134;" horiz-adv-x="761" 
d="M624 1365v-942q0 -235 -102 -339t-323 -105q-128 0 -199 21v198q112 -8 158 -8q123 0 168 46t45 187v942h253zM497 1790l347 -288l-180 -21l-167 132l-167 -132l-181 21z" />
    <glyph glyph-name="jcircumflex" unicode="&#x135;" horiz-adv-x="501" 
d="M364 1010v-994q0 -378 -347 -378q-53 0 -117 12v193q43 -5 73 -5q95 0 129 36t34 142v994h228zM255 1476l348 -288l-181 -21l-167 132l-167 -132l-181 21z" />
    <glyph glyph-name="Kcedilla" unicode="&#x136;" horiz-adv-x="1257" 
d="M396 0h-246v1365h246v-717q47 73 68 101l453 616h249l-324 -449l381 -916h-275l-288 695l-264 -350v-345zM765 -109l-176 -370h-91l61 370h206z" />
    <glyph glyph-name="kcedilla" unicode="&#x137;" horiz-adv-x="1090" 
d="M355 0h-218v1365h218v-847q29 38 46 57l400 435h245l-304 -334l335 -676h-240l-258 518l-224 -251v-267zM700 -109l-176 -370h-91l61 370h206z" />
    <glyph glyph-name="kgreenlandic" unicode="&#x138;" horiz-adv-x="1090" 
d="M355 0h-218v1010h218v-492q29 38 46 57l400 435h245l-304 -334l335 -676h-240l-258 518l-224 -251v-267z" />
    <glyph glyph-name="Lacute" unicode="&#x139;" horiz-adv-x="1021" 
d="M990 0h-840v1365h259v-1142h581v-223zM537 1800l66 -150l-417 -176l-42 107z" />
    <glyph glyph-name="lacute" unicode="&#x13a;" horiz-adv-x="501" 
d="M364 0h-228v1365h228v-1365zM495 1800l66 -150l-417 -176l-42 107z" />
    <glyph glyph-name="Lcedilla" unicode="&#x13b;" horiz-adv-x="1021" 
d="M990 0h-840v1365h259v-1142h581v-223zM697 -109l-176 -370h-91l61 370h206z" />
    <glyph glyph-name="lcedilla" unicode="&#x13c;" horiz-adv-x="501" 
d="M364 0h-228v1365h228v-1365zM363 -109l-176 -370h-91l61 370h206z" />
    <glyph glyph-name="Lcaron" unicode="&#x13d;" horiz-adv-x="1021" 
d="M990 0h-840v1365h259v-1142h581v-223zM827 1413v-225l-153 -268h-74l110 268h-110v225h227z" />
    <glyph glyph-name="lcaron" unicode="&#x13e;" horiz-adv-x="720" 
d="M364 0h-228v1365h228v-1365zM720 1365l-176 -397h-91l62 397h205z" />
    <glyph glyph-name="Ldot" unicode="&#x13f;" horiz-adv-x="1021" 
d="M990 0h-840v1365h259v-1142h581v-223zM913 831v-262h-247v262h247z" />
    <glyph glyph-name="ldot" unicode="&#x140;" horiz-adv-x="736" 
d="M364 0h-228v1365h228v-1365zM743 831v-262h-247v262h247z" />
    <glyph glyph-name="Lslash" unicode="&#x141;" horiz-adv-x="1021" 
d="M990 223v-223h-839v454l-137 -138v234l137 139v676h259v-500l279 281v-235l-279 -280v-408h580z" />
    <glyph glyph-name="lslash" unicode="&#x142;" horiz-adv-x="515" 
d="M372 0h-228v577l-130 -138v168l130 137v621h228v-459l129 136v-168l-129 -136v-738z" />
    <glyph glyph-name="Nacute" unicode="&#x143;" horiz-adv-x="1331" 
d="M1181 0h-239q-518 872 -544 915q-25 42 -50 85v-1000h-198v1365h272l478 -804q6 -10 87 -147v951h194v-1365zM927 1800l66 -150l-417 -176l-42 107z" />
    <glyph glyph-name="nacute" unicode="&#x144;" horiz-adv-x="1109" 
d="M973 0h-228v631q0 101 -46 151t-123 50t-144 -78t-67 -235v-519h-228v1010h208v-234q109 255 306 255q133 0 227 -84t95 -295v-652zM788 1487l66 -150l-417 -176l-42 107z" />
    <glyph glyph-name="Ncedilla" unicode="&#x145;" horiz-adv-x="1331" 
d="M1181 0h-239q-518 872 -544 915q-25 42 -50 85v-1000h-198v1365h272l478 -804q6 -10 87 -147v951h194v-1365zM772 -109l-176 -370h-91l61 370h206z" />
    <glyph glyph-name="ncedilla" unicode="&#x146;" horiz-adv-x="1109" 
d="M973 0h-228v631q0 101 -46 151t-123 50t-144 -78t-67 -235v-519h-228v1010h208v-234q109 255 306 255q133 0 227 -84t95 -295v-652zM675 -109l-176 -370h-91l61 370h206z" />
    <glyph glyph-name="Ncaron" unicode="&#x147;" horiz-adv-x="1331" 
d="M1181 0h-239q-518 872 -544 915q-25 42 -50 85v-1000h-198v1365h272l478 -804q6 -10 87 -147v951h194v-1365zM666 1468l-348 288l181 20l167 -131l167 131l180 -20z" />
    <glyph glyph-name="ncaron" unicode="&#x148;" horiz-adv-x="1109" 
d="M973 0h-228v631q0 101 -46 151t-123 50t-144 -78t-67 -235v-519h-228v1010h208v-234q109 255 306 255q133 0 227 -84t95 -295v-652zM561 1154l-348 288l181 20l167 -131l167 131l180 -20z" />
    <glyph glyph-name="napostrophe" unicode="&#x149;" horiz-adv-x="1417" 
d="M1281 0h-228v631q0 101 -46 151t-123 50t-144 -78t-67 -235v-519h-228v1010h208v-234q109 255 306 255q133 0 227 -84t95 -295v-652zM357 1365v-225l-153 -268h-74l110 268h-110v225h227z" />
    <glyph glyph-name="Eng" unicode="&#x14a;" horiz-adv-x="1313" 
d="M150 0v1365h218v-234q138 255 382 255q158 0 285.5 -103.5t127.5 -401.5v-778q0 -174 -39 -273t-141 -164t-257 -65q-74 0 -137 18v186q60 -13 106 -13q126 0 174 51t48 205v869q0 135 -63 203t-152 68q-123 0 -214.5 -105t-91.5 -317v-766h-246z" />
    <glyph glyph-name="eng" unicode="&#x14b;" horiz-adv-x="1109" 
d="M137 0v1010h208v-234q109 255 306 255q133 0 227.5 -84t94.5 -295v-679q0 -378 -348 -378q-52 0 -117 12v193q44 -5 73 -5q95 0 129.5 36t34.5 142v658q0 100 -46 150.5t-123 50.5t-144 -78t-67 -235v-519h-228z" />
    <glyph glyph-name="Omacron" unicode="&#x14c;" horiz-adv-x="1318" 
d="M646 177q142 0 234 110t92 372q0 529 -314 529t-314 -509q0 -247 80 -375t222 -127zM650 -21q-268 0 -420 204t-152 503q0 300 161 500t426 200t419 -200t155 -510q-1 -308 -161 -502t-428 -195zM959 1680v-130h-602v130h602z" />
    <glyph glyph-name="omacron" unicode="&#x14d;" horiz-adv-x="1083" 
d="M540 167q230 0 230 343q0 154 -55 244t-171 90t-173 -92t-57 -252q0 -159 60 -246t166 -87zM524 -21q-216 0 -334 161t-118 377t130 365t340 149q208 0 338 -145q130 -144 131 -380t-135 -382t-352 -145zM849 1352v-130h-602v130h602z" />
    <glyph glyph-name="Obreve" unicode="&#x14e;" horiz-adv-x="1318" 
d="M646 177q142 0 234 110t92 372q0 529 -314 529t-314 -509q0 -247 80 -375t222 -127zM650 -21q-268 0 -420 204t-152 503q0 300 161 500t426 200t419 -200t155 -510q-1 -308 -161 -502t-428 -195zM658 1634q154 0 172 132h131q-5 -114 -88 -194t-215 -80t-216 75t-88 199
h131q19 -132 173 -132z" />
    <glyph glyph-name="obreve" unicode="&#x14f;" horiz-adv-x="1083" 
d="M540 167q230 0 230 343q0 154 -55 244t-171 90t-173 -92t-57 -252q0 -159 60 -246t166 -87zM524 -21q-216 0 -334 161t-118 377t130 365t340 149q208 0 338 -145q130 -144 131 -380t-135 -382t-352 -145zM542 1323q154 0 172 132h131q-5 -115 -88 -195t-215 -79
q-132 0 -216 75t-88 199h131q19 -132 173 -132z" />
    <glyph glyph-name="Odblacute" unicode="&#x150;" horiz-adv-x="1318" 
d="M646 177q142 0 234 110t92 372q0 529 -314 529t-314 -509q0 -247 80 -375t222 -127zM650 -21q-268 0 -420 204t-152 503q0 300 161 500t426 200t419 -200t155 -510q-1 -308 -161 -502t-428 -195zM1024 1800l94 -116l-328 -210l-60 87zM683 1800l93 -116l-328 -210l-71 87
z" />
    <glyph glyph-name="odblacute" unicode="&#x151;" horiz-adv-x="1083" 
d="M540 167q230 0 230 343q0 154 -55 244t-171 90t-173 -92t-57 -252q0 -159 60 -246t166 -87zM524 -21q-216 0 -334 161t-118 377t130 365t340 149q208 0 338 -145q130 -144 131 -380t-135 -382t-352 -145zM941 1487l94 -116l-328 -210l-60 87zM600 1487l93 -116l-328 -210
l-71 87z" />
    <glyph glyph-name="OE" unicode="&#x152;" horiz-adv-x="1924" 
d="M953 919q0 123 -87 196t-204 73t-217 -103t-100 -381t87 -397.5t228 -119.5q101 0 197 60.5t96 190.5v481zM953 1365h911v-198h-665v-374h528v-195h-528v-386h665v-212h-911v69q-127 -90 -301 -90q-258 0 -415.5 201.5t-157.5 509.5t153.5 502.5t407.5 194.5
q179 0 313 -82v60z" />
    <glyph glyph-name="oe" unicode="&#x153;" horiz-adv-x="1728" 
d="M528 167q108 0 170 87t62 271t-68.5 251.5t-169.5 67.5t-157.5 -95t-56.5 -249t56 -243.5t164 -89.5zM1202 862q-96 0 -160.5 -60t-72.5 -182h455q-1 106 -63.5 174t-158.5 68zM967 479q0 -156 66 -234t178 -78q169 0 223 154l208 -31q-25 -100 -137 -205.5t-304 -105.5
q-237 0 -337 152q-119 -152 -339 -152t-336.5 157.5t-116.5 375.5t126.5 368.5t343.5 150.5t322 -152q110 152 330 152t342.5 -139.5t119.5 -412.5h-689z" />
    <glyph glyph-name="Racute" unicode="&#x154;" horiz-adv-x="1316" 
d="M396 758h306q133 0 198 56t65 150t-64 150t-179 55h-326v-411zM396 561v-561h-246v1365h592q247 1 363 -111t116 -289q0 -263 -246 -362l239 -603h-260l-212 561h-346zM867 1801l66 -150l-417 -176l-42 107z" />
    <glyph glyph-name="racute" unicode="&#x155;" horiz-adv-x="679" 
d="M365 0h-228v1010h206v-241q44 141 121 206t158 65q11 0 30 -1v-245q-174 0 -230 -111t-57 -215v-468zM653 1487l66 -150l-417 -176l-42 107z" />
    <glyph glyph-name="Rcedilla" unicode="&#x156;" horiz-adv-x="1316" 
d="M396 758h306q133 0 198 56t65 150t-64 150t-179 55h-326v-411zM396 561v-561h-246v1365h592q247 1 363 -111t116 -289q0 -263 -246 -362l239 -603h-260l-212 561h-346zM771 -109l-176 -370h-91l61 370h206z" />
    <glyph glyph-name="rcedilla" unicode="&#x157;" horiz-adv-x="679" 
d="M365 0h-228v1010h206v-241q44 141 121 206t158 65q11 0 30 -1v-245q-174 0 -230 -111t-57 -215v-468zM364 -109l-176 -370h-91l61 370h206z" />
    <glyph glyph-name="Rcaron" unicode="&#x158;" horiz-adv-x="1316" 
d="M396 758h306q133 0 198 56t65 150t-64 150t-179 55h-326v-411zM396 561v-561h-246v1365h592q247 1 363 -111t116 -289q0 -263 -246 -362l239 -603h-260l-212 561h-346zM640 1468l-348 288l181 20l167 -131l167 131l180 -20z" />
    <glyph glyph-name="rcaron" unicode="&#x159;" horiz-adv-x="679" 
d="M365 0h-228v1010h206v-241q44 141 121 206t158 65q11 0 30 -1v-245q-174 0 -230 -111t-57 -215v-468zM394 1154l-348 288l181 20l167 -131l167 131l180 -20z" />
    <glyph glyph-name="Sacute" unicode="&#x15a;" horiz-adv-x="1170" 
d="M576 177q132 0 202 52q70 53 70 119t-32 114t-137 74l-261 68q-134 36 -198 80t-102 125t-39 173q0 184 136 294t330 110q195 0 333 -77t176 -218l-234 -58q-54 155 -252 155q-116 0 -176 -48t-60 -122q0 -117 190 -164l232 -58q211 -52 283 -156t72 -229
q1 -201 -151 -317t-374 -115q-222 0 -374 85t-203 265l239 51q43 -203 330 -203zM823 1800l66 -150l-417 -176l-42 107z" />
    <glyph glyph-name="sacute" unicode="&#x15b;" horiz-adv-x="930" 
d="M444 150q212 0 212 125q0 40 -33 66t-78 35l-184 35q-306 59 -306 299q0 134 97 228t289 93q320 0 391 -235l-203 -41q-32 114 -182 114q-182 0 -182 -114q0 -79 147 -109l217 -45q253 -52 253 -290q0 -167 -130 -249t-297 -83q-167 1 -286 63t-155 190l214 41
q49 -123 216 -123zM707 1487l66 -150l-417 -176l-42 107z" />
    <glyph glyph-name="Scircumflex" unicode="&#x15c;" horiz-adv-x="1170" 
d="M576 177q132 0 202 52q70 53 70 119t-32 114t-137 74l-261 68q-134 36 -198 80t-102 125t-39 173q0 184 136 294t330 110q195 0 333 -77t176 -218l-234 -58q-54 155 -252 155q-116 0 -176 -48t-60 -122q0 -117 190 -164l232 -58q211 -52 283 -156t72 -229
q1 -201 -151 -317t-374 -115q-222 0 -374 85t-203 265l239 51q43 -203 330 -203zM579 1790l347 -288l-180 -21l-167 132l-167 -132l-181 21z" />
    <glyph glyph-name="scircumflex" unicode="&#x15d;" horiz-adv-x="930" 
d="M444 150q212 0 212 125q0 40 -33 66t-78 35l-184 35q-306 59 -306 299q0 134 97 228t289 93q320 0 391 -235l-203 -41q-32 114 -182 114q-182 0 -182 -114q0 -79 147 -109l217 -45q253 -52 253 -290q0 -167 -130 -249t-297 -83q-167 1 -286 63t-155 190l214 41
q49 -123 216 -123zM462 1476l347 -288l-180 -21l-167 132l-167 -132l-181 21z" />
    <glyph glyph-name="Scedilla" unicode="&#x15e;" horiz-adv-x="1170" 
d="M753 -261q0 -71 -55.5 -121t-149.5 -50t-226 61l33 82q116 -51 166 -51q92 0 92 73q0 88 -151 88q-16 0 -56 -2l53 166q-372 51 -452 344l239 51q43 -203 330 -203q131 0 201.5 52.5t70.5 118.5t-32 113.5t-137 74.5l-261 68q-134 35 -198 79.5t-102.5 125.5t-38.5 173
q0 183 136 293.5t330 110.5t332.5 -77t176.5 -218l-234 -58q-54 155 -252 155q-115 0 -175.5 -48t-60.5 -122q0 -117 190 -164l232 -58q211 -53 283 -156.5t72 -228.5q0 -196 -148 -314t-413 -118l-25 -79q230 0 230 -161z" />
    <glyph glyph-name="scedilla" unicode="&#x15f;" horiz-adv-x="930" 
d="M633 -251q0 -66 -54 -115.5t-134 -49.5t-208 59l32 78q87 -47 138 -47t74 20t23 48q0 86 -151 86q-17 0 -46 -2l52 158q-287 37 -345 248l214 41q49 -123 216 -123q212 0 212 125q0 40 -33 66t-78 35l-184 35q-306 59 -306 299q0 134 97 227.5t289 93.5q320 0 391 -235
l-203 -41q-32 114 -182 114q-182 0 -182 -114q0 -79 147 -109l217 -45q253 -52 253 -290q0 -165 -127.5 -248.5t-314.5 -83.5l-21 -72q102 0 158 -46t56 -112z" />
    <glyph glyph-name="Scaron" unicode="&#x160;" horiz-adv-x="1170" 
d="M576 177q132 0 202 52q70 53 70 119t-32 114t-137 74l-261 68q-134 36 -198 80t-102 125t-39 173q0 184 136 294t330 110q195 0 333 -77t176 -218l-234 -58q-54 155 -252 155q-116 0 -176 -48t-60 -122q0 -117 190 -164l232 -58q211 -52 283 -156t72 -229
q1 -201 -151 -317t-374 -115q-222 0 -374 85t-203 265l239 51q43 -203 330 -203zM579 1468l-348 288l181 20l167 -131l167 131l180 -20z" />
    <glyph glyph-name="scaron" unicode="&#x161;" horiz-adv-x="930" 
d="M444 150q212 0 212 125q0 40 -33 66t-78 35l-184 35q-306 59 -306 299q0 134 97 228t289 93q320 0 391 -235l-203 -41q-32 114 -182 114q-182 0 -182 -114q0 -79 147 -109l217 -45q253 -52 253 -290q0 -167 -130 -249t-297 -83q-167 1 -286 63t-155 190l214 41
q49 -123 216 -123zM462 1154l-348 288l181 20l167 -131l167 131l180 -20z" />
    <glyph glyph-name="Tcedilla" unicode="&#x162;" horiz-adv-x="990" 
d="M627 0h-264v1154h-363v211h990v-211h-363v-1154zM609 -109l-176 -370h-91l61 370h206z" />
    <glyph glyph-name="tcedilla" unicode="&#x163;" horiz-adv-x="660" 
d="M429 -22q-74 0 -140 36q-67 36 -97 100t-30 196v523h-126v177h139l21 263l187 17v-280h203v-177h-203v-493q1 -96 35 -130t130 -34q27 0 57 2v-178q-102 -22 -176 -22zM488 -109l-176 -370h-91l61 370h206z" />
    <glyph glyph-name="Tcaron" unicode="&#x164;" horiz-adv-x="990" 
d="M627 0h-264v1154h-363v211h990v-211h-363v-1154zM496 1468l-348 288l181 20l167 -131l167 131l180 -20z" />
    <glyph glyph-name="tcaron" unicode="&#x165;" horiz-adv-x="718" 
d="M429 -22q-74 0 -140 36.5t-96.5 100t-30.5 195.5v523h-126v177h139l21 263l187 17v-280h203v-177h-203v-493q0 -95 34.5 -129.5t130.5 -34.5q27 0 57 2v-178q-102 -22 -176 -22zM759 1517l-176 -397h-91l61 397h206z" />
    <glyph glyph-name="Tbar" unicode="&#x166;" horiz-adv-x="990" 
d="M90 699v191h273v264h-363v211h990v-211h-363v-264h273v-191h-273v-699h-264v699h-273z" />
    <glyph glyph-name="tbar" unicode="&#x167;" horiz-adv-x="660" 
d="M43 567v122h119v144h-126v177h139l21 263l187 17v-280h203v-177h-203v-144h190v-122h-190v-227q0 -95 34.5 -129.5t130.5 -34.5q27 0 57 2v-178q-102 -22 -176 -22t-140 36.5t-96.5 100t-30.5 195.5v257h-119z" />
    <glyph glyph-name="Utilde" unicode="&#x168;" horiz-adv-x="1218" 
d="M1087 1365v-877q0 -178 -40 -274q-41 -96 -155 -166t-280 -69q-166 0 -274 60q-108 61 -154 165q-47 104 -47 266v895h251v-877q0 -180 76 -236t182 -57q108 1 177 61t69 232v877h195zM770 1515q-56 -1 -135 41q-80 42 -120 42t-119 -78l-69 103q93 115 201 115
q52 0 138 -40t140 -41q52 0 102 78l70 -103q-24 -50 -88 -84t-120 -33z" />
    <glyph glyph-name="utilde" unicode="&#x169;" horiz-adv-x="1105" 
d="M968 0h-212v218q-86 -239 -319 -239q-138 -1 -219 85t-81 239v707h233v-658q0 -109 48 -143t108 -34q60 1 137 67t77 283v485h228v-1010zM678 1201q-56 -1 -136 41t-120 42t-119 -78l-69 103q93 115 201 115q53 0 139 -40t138 -41q52 0 103 78l70 -103q-24 -50 -88 -84
q-63 -34 -119 -33z" />
    <glyph glyph-name="Umacron" unicode="&#x16a;" horiz-adv-x="1218" 
d="M1087 1365v-877q0 -178 -40 -274q-41 -96 -155 -166t-280 -69q-166 0 -274 60q-108 61 -154 165q-47 104 -47 266v895h251v-877q0 -180 76 -236t182 -57q108 1 177 61t69 232v877h195zM919 1680v-130h-602v130h602z" />
    <glyph glyph-name="umacron" unicode="&#x16b;" horiz-adv-x="1105" 
d="M968 0h-212v218q-86 -239 -319 -239q-138 -1 -219 85t-81 239v707h233v-658q0 -109 48 -143t108 -34q60 1 137 67t77 283v485h228v-1010zM854 1352v-130h-602v130h602z" />
    <glyph glyph-name="Ubreve" unicode="&#x16c;" horiz-adv-x="1218" 
d="M1087 1365v-877q0 -178 -40 -274q-41 -96 -155 -166t-280 -69q-166 0 -274 60q-108 61 -154 165q-47 104 -47 266v895h251v-877q0 -180 76 -236t182 -57q108 1 177 61t69 232v877h195zM638 1634q154 0 173 132h131q-5 -114 -88 -194t-215 -80t-216 75t-88 199h131
q18 -132 172 -132z" />
    <glyph glyph-name="ubreve" unicode="&#x16d;" horiz-adv-x="1105" 
d="M968 0h-212v218q-86 -239 -319 -239q-138 -1 -219 85t-81 239v707h233v-658q0 -109 48 -143t108 -34q60 1 137 67t77 283v485h228v-1010zM552 1323q154 0 173 132h131q-5 -115 -88 -195t-215 -79q-132 0 -216 75t-88 199h131q18 -132 172 -132z" />
    <glyph glyph-name="Uring" unicode="&#x16e;" horiz-adv-x="1218" 
d="M1087 1365v-877q0 -178 -40 -274q-41 -96 -155 -166t-280 -69q-166 0 -274 60q-108 61 -154 165q-47 104 -47 266v895h251v-877q0 -180 76 -236t182 -57q108 1 177 61t69 232v877h195zM620 1558q41 0 61 26t20 58q1 32 -21 56t-56 24t-61 -21q-26 -21 -26 -57t21 -62
q21 -24 62 -24zM619 1454q-78 0 -132 54t-54 131q1 77 55 132t126 55t132 -49q58 -49 58 -131t-54 -137t-131 -55z" />
    <glyph glyph-name="uring" unicode="&#x16f;" horiz-adv-x="1105" 
d="M968 0h-212v218q-86 -239 -319 -239q-138 -1 -219 85t-81 239v707h233v-658q0 -109 48 -143t108 -34q60 1 137 67t77 283v485h228v-1010zM554 1237q41 -1 61 25t20 58q1 32 -21 57q-22 24 -56 24t-61 -21q-26 -22 -26 -58t21 -60t62 -25zM553 1133q-78 0 -132 54t-54 131
q1 77 55 132t126 55t132 -49q58 -49 58 -131t-54 -137t-131 -55z" />
    <glyph glyph-name="Udblacute" unicode="&#x170;" horiz-adv-x="1218" 
d="M1087 1365v-877q0 -178 -40 -274q-41 -96 -155 -166t-280 -69q-166 0 -274 60q-108 61 -154 165q-47 104 -47 266v895h251v-877q0 -180 76 -236t182 -57q108 1 177 61t69 232v877h195zM981 1800l94 -116l-328 -210l-60 87zM640 1800l93 -116l-328 -210l-71 87z" />
    <glyph glyph-name="udblacute" unicode="&#x171;" horiz-adv-x="1105" 
d="M968 0h-212v218q-86 -239 -319 -239q-138 -1 -219 85t-81 239v707h233v-658q0 -109 48 -143t108 -34q60 1 137 67t77 283v485h228v-1010zM940 1487l94 -116l-328 -210l-60 87zM599 1487l93 -116l-328 -210l-71 87z" />
    <glyph glyph-name="Uogonek" unicode="&#x172;" horiz-adv-x="1218" 
d="M815 -352q-90 0 -149.5 42t-59.5 120q0 111 143 184q-81 -15 -141 -15q-204 0 -337.5 107.5t-133.5 383.5v895h251v-877q0 -180 75 -236.5t183 -56.5t177 60.5t69 232.5v877h195v-877q0 -191 -36.5 -268.5t-137.5 -161.5t-132 -126t-31 -89q0 -97 123 -97q46 0 92 18
l21 -80q-81 -36 -171 -36z" />
    <glyph glyph-name="uogonek" unicode="&#x173;" horiz-adv-x="1105" 
d="M756 0v218q-86 -239 -319 -239q-138 0 -219 85.5t-81 238.5v707h233v-658q0 -109 48 -143t108 -34t137 66.5t77 283.5v485h228v-1010q-143 -76 -143 -162q0 -41 28.5 -66.5t74.5 -25.5t94 18l21 -73q-77 -35 -164 -35t-141 43.5t-54 109.5q0 119 175 191h-103z" />
    <glyph glyph-name="Wcircumflex" unicode="&#x174;" horiz-adv-x="1809" 
d="M1789 1365l-365 -1365h-258l-272 1004l-247 -1004h-253l-373 1365h261l264 -995l246 995h249l272 -995l259 995h217zM912 1790l347 -288l-180 -21l-167 132l-167 -132l-181 21z" />
    <glyph glyph-name="wcircumflex" unicode="&#x175;" horiz-adv-x="1427" 
d="M1406 1010l-296 -1010h-205l-182 708l-181 -708h-211l-311 1010h242l199 -679l174 679h207l177 -679l195 679h192zM740 1476l347 -288l-180 -21l-167 132l-167 -132l-181 21z" />
    <glyph glyph-name="Ycircumflex" unicode="&#x176;" horiz-adv-x="1113" 
d="M699 0h-261v576l-465 789h298l324 -563l310 563h236l-442 -789v-576zM578 1790l347 -288l-180 -21l-167 132l-167 -132l-181 21z" />
    <glyph glyph-name="ycircumflex" unicode="&#x177;" horiz-adv-x="905" 
d="M223 -363q-45 0 -131 7v181l109 -2q73 -1 107 23t54 84t20 68t-21 64l-347 948h239l245 -666l211 666h182l-393 -1150q-36 -106 -98 -164t-177 -59zM473 1476l347 -288l-180 -21l-167 132l-167 -132l-181 21z" />
    <glyph glyph-name="Ydieresis" unicode="&#x178;" horiz-adv-x="1113" 
d="M699 0h-261v576l-465 789h298l324 -563l310 563h236l-442 -789v-576zM736 1512q-48 0 -80 32t-31 76q-1 44 31 76q32 34 79 34t81 -30t35 -80t-33 -79t-82 -29zM402 1512q-48 0 -80 32t-31 75q0 43 31 77q30 34 78 34t82 -30t34 -80t-34 -79q-32 -29 -80 -29z" />
    <glyph glyph-name="Zacute" unicode="&#x179;" horiz-adv-x="1091" 
d="M1050 212v-212h-1009v194l699 976h-650v195h940v-195l-691 -958h711zM825 1800l66 -150l-417 -176l-42 107z" />
    <glyph glyph-name="zacute" unicode="&#x17a;" horiz-adv-x="857" 
d="M810 177v-177h-762v177l487 656h-441v177h716v-161l-499 -672h499zM708 1487l66 -150l-417 -176l-42 107z" />
    <glyph glyph-name="Zdot" unicode="&#x17b;" horiz-adv-x="1091" 
d="M1050 212v-212h-1009v194l699 976h-650v195h940v-195l-691 -958h711zM564 1512q-48 0 -80 32t-31 75q0 43 31 77q30 34 78 34t82 -30t34 -80t-34 -79q-32 -29 -80 -29z" />
    <glyph glyph-name="zdot" unicode="&#x17c;" horiz-adv-x="857" 
d="M810 177v-177h-762v177l487 656h-441v177h716v-161l-499 -672h499zM454 1188q-48 0 -78 32q-32 32 -32 75t31 77t79 34t81 -30q34 -30 34 -80q1 -50 -33 -79t-82 -29z" />
    <glyph glyph-name="Zcaron" unicode="&#x17d;" horiz-adv-x="1091" 
d="M1050 212v-212h-1009v194l699 976h-650v195h940v-195l-691 -958h711zM567 1468l-348 288l181 20l167 -131l167 131l180 -20z" />
    <glyph glyph-name="zcaron" unicode="&#x17e;" horiz-adv-x="857" 
d="M810 177v-177h-762v177l487 656h-441v177h716v-161l-499 -672h499zM456 1154l-348 288l181 20l167 -131l167 131l180 -20z" />
    <glyph glyph-name="longs" unicode="&#x17f;" horiz-adv-x="1201" 
d="M669 0h-220v1010q0 139 25 211.5t98.5 119.5t239.5 47q32 0 81 -2v-179q-43 3 -93 3t-84 -22.5t-40.5 -53t-6.5 -124.5v-1010z" />
    <glyph glyph-name="florin" unicode="&#x192;" horiz-adv-x="1201" 
d="M214 -273q-94 0 -131 9l35 183l55 -1q87 0 123 20.5t52.5 57t36.5 145.5l147 812h-147l28 182h152q32 245 142.5 319t262.5 74q41 0 119 -10l-34 -192q-45 3 -56 3q-130 0 -165 -47.5t-47 -146.5h215l-35 -182h-212l-134 -748q-29 -158 -49.5 -225t-74.5 -131t-121.5 -93
t-161.5 -29z" />
    <glyph glyph-name="Aringacute" unicode="&#x1fa;" horiz-adv-x="1235" 
d="M783 522l-199 609l-199 -609h398zM616 1394q40 0 60 26t20 52q0 86 -78 86q-34 0 -60 -20t-26 -58t22 -62t62 -24zM428 1483q0 69 54.5 124t127.5 55t131.5 -49t58.5 -123t-37 -126l458 -1364h-263l-109 325h-525l-107 -325h-210l453 1365h4q-36 49 -36 118zM768 1949
l61 -151l-431 -146l-39 108z" />
    <glyph glyph-name="aringacute" unicode="&#x1fb;" horiz-adv-x="1107" 
d="M749 514q-442 0 -442 -211q1 -63 45 -107t134 -45q130 1 196 83t67 187v93zM407 -21q-151 1 -243 89t-91 222q0 348 611 348q24 0 65 -1v76q0 157 -211 157t-239 -157l-194 29q16 126 130 208t330 81q117 1 191 -19t125 -66t71 -102q20 -54 19 -184v-456q0 -99 30 -204
h-217q-29 92 -35 204q-91 -225 -342 -225zM556 1210q41 0 61 26t20 58q1 32 -21 56t-56 24t-61 -21q-26 -21 -26 -57t21 -62q21 -24 62 -24zM555 1106q-78 0 -132 54t-54 131q1 77 55 132t126 55t132 -49q58 -49 58 -131t-54 -137t-131 -55zM739 1808l66 -150l-417 -176
l-42 107z" />
    <glyph glyph-name="AEacute" unicode="&#x1fc;" horiz-adv-x="1732" 
d="M802 576v621l-310 -621h310zM1671 212v-212h-869v386h-408l-194 -386h-234l727 1365h961v-198h-606v-376h481v-196h-481v-383h623zM1371 1800l66 -150l-417 -176l-42 107z" />
    <glyph glyph-name="aeacute" unicode="&#x1fd;" horiz-adv-x="1757" 
d="M322 298q0 -72 48 -111t128 -39t148 50q69 50 88 118t19 187q-243 -7 -337 -55t-94 -150zM1215 870q-204 0 -235 -245h469q-6 125 -73 185t-161 60zM1685 472h-712q1 -144 63 -229t188 -85q169 0 231 161l211 -35q-35 -130 -163 -218t-277 -87q-148 0 -256 57t-158 153
q-137 -210 -373 -210q-177 0 -271 88t-95 223q0 170 157 255t435 85q37 0 90 -5q-3 105 -13 143t-58 66q-48 29 -142 29q-183 0 -221 -140l-203 25q72 283 456 283q105 1 171 -23t156 -92q135 115 316 115q227 0 347 -141t121 -358v-60zM1149 1487l66 -150l-417 -176
l-42 107z" />
    <glyph glyph-name="Oslashacute" unicode="&#x1fe;" horiz-adv-x="1318" 
d="M668 177q122 0 214 110t91 399q0 137 -33 275l-469 -708q75 -76 197 -76zM665 1188q-169 0 -245 -136t-75 -334q0 -198 38 -309l466 706q-68 73 -184 73zM1239 672q0 -304 -160 -498t-425 -195q-189 0 -315 96l-92 -131h-190l168 242q-146 218 -146 510t162 491t418 199
q175 0 322 -94l87 129h192l-166 -246q145 -199 145 -503zM842 1800l66 -150l-417 -176l-42 107z" />
    <glyph glyph-name="oslashacute" unicode="&#x1ff;" horiz-adv-x="1083" 
d="M541 167q229 0 229 350q0 111 -30 177l-324 -486q57 -41 125 -41zM531 844q-97 0 -157 -90t-60 -218q0 -130 27 -226l335 489q-47 45 -145 45zM1011 509q1 -241 -135 -385t-348 -145q-132 0 -234 65l-80 -110h-142l132 188q-131 163 -131 387q-1 224 129 373t350 149
q135 0 244 -69l73 97h142l-128 -176q77 -99 103 -181t25 -193zM714 1487l66 -150l-417 -176l-42 107z" />
    <glyph glyph-name="circumflex" unicode="&#x2c6;" horiz-adv-x="1024" 
d="M512 1476l347 -288l-180 -21l-167 132l-167 -132l-181 21z" />
    <glyph glyph-name="caron" unicode="&#x2c7;" horiz-adv-x="1024" 
d="M512 1154l-348 288l181 20l167 -131l167 131l180 -20z" />
    <glyph glyph-name="macron" unicode="&#x2c9;" horiz-adv-x="1024" 
d="M813 1352v-130h-602v130h602z" />
    <glyph glyph-name="breve" unicode="&#x2d8;" horiz-adv-x="1024" 
d="M512 1323q154 0 172 132h131q-5 -115 -88 -194.5t-215 -79.5t-216 75t-88 199h131q19 -132 173 -132z" />
    <glyph glyph-name="dotaccent" unicode="&#x2d9;" horiz-adv-x="1024" 
d="M510 1188q-48 0 -79.5 31.5t-31.5 75.5t30.5 77.5t78.5 33.5t82 -30t34 -80t-33 -79t-81 -29z" />
    <glyph glyph-name="ring" unicode="&#x2da;" horiz-adv-x="1024" 
d="M513 1237q41 0 61 25.5t20 57.5t-22 56.5t-56 24.5t-60 -21.5t-26 -57.5t21 -60.5t62 -24.5zM512 1133q-78 0 -132 54t-54 131t55 132t127 55t130.5 -49t58.5 -131t-53.5 -137t-131.5 -55z" />
    <glyph glyph-name="ogonek" unicode="&#x2db;" horiz-adv-x="1024" 
d="M750 -162q0 -41 29 -66.5t75 -25.5t93 18l21 -73q-77 -35 -163 -35t-141 43t-55 110q0 119 174 191h110q-143 -76 -143 -162z" />
    <glyph glyph-name="tilde" unicode="&#x2dc;" horiz-adv-x="1024" 
d="M630 1201q-56 -1 -135 41q-80 42 -120 42t-119 -78l-69 103q93 115 201 115q52 0 138 -40t140 -41q52 0 102 78l70 -103q-24 -50 -88 -83.5t-120 -33.5z" />
    <glyph glyph-name="hungarumlaut" unicode="&#x2dd;" horiz-adv-x="1024" 
d="M953 1487l94 -116l-328 -210l-60 87zM612 1487l93 -116l-328 -210l-71 87z" />
    <glyph glyph-name="tonos" unicode="&#x384;" horiz-adv-x="1024" 
d="M107 1474l154 -109l-299 -331l-92 67z" />
    <glyph glyph-name="dieresistonos" unicode="&#x385;" horiz-adv-x="1024" 
d="M677 1188q-48 0 -79.5 32t-31.5 76t31.5 77t78.5 33t81.5 -30t34.5 -80t-33.5 -79t-81.5 -29zM342 1188q-48 0 -79 31.5t-31 75.5t31 77.5t79 33.5t81.5 -30t33.5 -80t-33.5 -79t-81.5 -29zM670 1761l101 -131l-296 -193l-61 91z" />
    <glyph glyph-name="Alphatonos" unicode="&#x386;" horiz-adv-x="1235" 
d="M783 522l-199 609l-199 -609h398zM1221 0h-263l-109 325h-525l-107 -325h-210l453 1365h303zM209 1474l154 -109l-299 -331l-92 67z" />
    <glyph glyph-name="anoteleia" unicode="&#x387;" horiz-adv-x="247" 
d="M247 651v-262h-247v262h247z" />
    <glyph glyph-name="Epsilontonos" unicode="&#x388;" horiz-adv-x="1099" 
d="M1037 0h-887v1365h878v-203h-632v-370h508v-198h-508v-382h641v-212zM-78 1474l154 -109l-299 -331l-92 67z" />
    <glyph glyph-name="Etatonos" unicode="&#x389;" horiz-adv-x="1314" 
d="M1163 0h-246v593h-521v-593h-246v1365h246v-561h521v561h246v-1365zM-76 1474l154 -109l-299 -331l-92 67z" />
    <glyph glyph-name="Iotatonos" unicode="&#x38a;" horiz-adv-x="546" 
d="M396 0h-246v1365h246v-1365zM-76 1474l154 -109l-299 -331l-92 67z" />
    <glyph glyph-name="Omicrontonos" unicode="&#x38c;" horiz-adv-x="1318" 
d="M646 177q142 0 234 110t92 372q0 529 -314 529t-314 -509q0 -247 80 -375t222 -127zM650 -21q-268 0 -420 204t-152 503q0 300 161 500t426 200t419 -200t155 -510q-1 -308 -161 -502t-428 -195zM90 1474l154 -109l-299 -331l-92 67z" />
    <glyph glyph-name="Upsilontonos" unicode="&#x38e;" horiz-adv-x="1113" 
d="M698 0h-261v576l-465 789h298l324 -563l310 563h236l-442 -789v-576zM-204 1474l154 -109l-299 -331l-92 67z" />
    <glyph glyph-name="Omegatonos" unicode="&#x38f;" horiz-adv-x="1358" 
d="M57 0v212h330q-307 150 -307 551q0 291 172 457t428 166t426 -166q172 -166 172 -454q0 -403 -307 -554h329v-212h-536v212q248 151 248 523q0 213 -90 333t-240 120q-152 0 -244 -115t-92 -338q0 -372 248 -523v-212h-537zM83 1474l154 -109l-299 -331l-92 67z" />
    <glyph glyph-name="iotadieresistonos" unicode="&#x390;" horiz-adv-x="501" 
d="M364 0h-228v1010h228v-1010zM416 1188q-48 0 -80 32t-31 76q-1 44 31 76q32 34 79 34t81 -30t35 -80t-33 -79t-82 -29zM82 1188q-48 0 -80 32t-31 75q0 43 31 77q30 34 78 34t82 -30t34 -80t-34 -79q-32 -29 -80 -29zM409 1761l101 -131l-296 -193l-61 91z" />
    <glyph glyph-name="Alpha" unicode="&#x391;" horiz-adv-x="1235" 
d="M783 522l-199 609l-199 -609h398zM1221 0h-263l-109 325h-525l-107 -325h-210l453 1365h303z" />
    <glyph glyph-name="Beta" unicode="&#x392;" horiz-adv-x="1244" 
d="M383 205h318q101 0 159 53t59 141t-59 143t-158 55h-319v-392zM383 792h300q91 0 145 55t54 145t-61 134t-143 44h-295v-378zM150 0v1365h532q135 0 224 -28t154 -117q65 -90 65 -206t-66 -200t-182 -106q144 -25 218 -117t74 -234q1 -141 -103 -249t-319 -108h-597z" />
    <glyph glyph-name="Gamma" unicode="&#x393;" horiz-adv-x="932" 
d="M150 0v1365h782v-211h-536v-1154h-246z" />
    <glyph glyph-name="uni0394" unicode="&#x394;" horiz-adv-x="1185" 
d="M250 212h610l-292 948h-29zM-34 0l455 1365h316l470 -1365h-1241z" />
    <glyph glyph-name="Epsilon" unicode="&#x395;" horiz-adv-x="1099" 
d="M1037 0h-887v1365h878v-203h-632v-370h508v-198h-508v-382h641v-212z" />
    <glyph glyph-name="Zeta" unicode="&#x396;" horiz-adv-x="1091" 
d="M1050 212v-212h-1009v194l699 976h-650v195h940v-195l-691 -958h711z" />
    <glyph glyph-name="Eta" unicode="&#x397;" horiz-adv-x="1313" 
d="M1163 0h-246v593h-521v-593h-246v1365h246v-561h521v561h246v-1365z" />
    <glyph glyph-name="Theta" unicode="&#x398;" horiz-adv-x="1363" 
d="M867 793v-191h-370v191h370zM680 1188q-157 0 -251 -141t-94 -379t98.5 -364.5t250.5 -126.5t247.5 137.5t95.5 367.5t-95 368t-252 138zM678 1386q285 0 445.5 -200t160.5 -504t-164 -503.5t-436 -199.5t-439 191t-167 519q0 270 157.5 483.5t442.5 213.5z" />
    <glyph glyph-name="Iota" unicode="&#x399;" horiz-adv-x="546" 
d="M396 0h-246v1365h246v-1365z" />
    <glyph glyph-name="Kappa" unicode="&#x39a;" horiz-adv-x="1257" 
d="M396 0h-246v1365h246v-717q47 73 68 101l453 616h249l-324 -449l381 -916h-275l-288 695l-264 -350v-345z" />
    <glyph glyph-name="Lambda" unicode="&#x39b;" horiz-adv-x="1117" 
d="M183 0h-214l433 1365h312l431 -1365h-264l-345 1136h-14z" />
    <glyph glyph-name="Mu" unicode="&#x39c;" horiz-adv-x="1640" 
d="M1489 0h-251v1195l-378 -1195h-129l-380 1195v-1195h-201v1365h385l286 -879l281 879h387v-1365z" />
    <glyph glyph-name="Nu" unicode="&#x39d;" horiz-adv-x="1331" 
d="M1181 0h-239q-518 872 -544 915q-25 42 -50 85v-1000h-198v1365h272l478 -804q6 -10 87 -147v951h194v-1365z" />
    <glyph glyph-name="Xi" unicode="&#x39e;" horiz-adv-x="1093" 
d="M76 0v212h940v-212h-940zM227 600v199h638v-199h-638zM76 1154v211h940v-211h-940z" />
    <glyph glyph-name="Omicron" unicode="&#x39f;" horiz-adv-x="1318" 
d="M646 177q142 0 234 110t92 372q0 529 -314 529t-314 -509q0 -247 80 -375t222 -127zM650 -21q-268 0 -420 204t-152 503q0 300 161 500t426 200t419 -200t155 -510q-1 -308 -161 -502t-428 -195z" />
    <glyph glyph-name="Pi" unicode="&#x3a0;" horiz-adv-x="1267" 
d="M150 0v1365h966v-1365h-245v1154h-475v-1154h-246z" />
    <glyph glyph-name="Rho" unicode="&#x3a1;" horiz-adv-x="1227" 
d="M396 752h291q114 0 174 56t60 144q1 88 -55 149q-56 60 -201 60h-269v-409zM396 0h-246v1365h559q239 -1 355 -121t115 -296q0 -176 -125 -291q-125 -116 -317 -116h-341v-541z" />
    <glyph glyph-name="Sigma" unicode="&#x3a3;" horiz-adv-x="1043" 
d="M71 0v194l408 531l-383 442v198h869v-198h-572l359 -401l-423 -554h682v-212h-940z" />
    <glyph glyph-name="Tau" unicode="&#x3a4;" horiz-adv-x="990" 
d="M627 0h-264v1154h-363v211h990v-211h-363v-1154z" />
    <glyph glyph-name="Upsilon" unicode="&#x3a5;" horiz-adv-x="1113" 
d="M699 0h-261v576l-465 789h298l324 -563l310 563h236l-442 -789v-576z" />
    <glyph glyph-name="Phi" unicode="&#x3a6;" horiz-adv-x="1520" 
d="M1187 694q0 316 -320 368v-758q157 26 238.5 117t81.5 273zM334 672q0 -316 319 -368v758q-157 -26 -238 -116.5t-81 -273.5zM89 686q0 230 141 379t423 174v167h214v-167q288 -26 426 -176t138 -378t-135 -379t-429 -179v-168h-214v168q-292 27 -428 178t-136 381z" />
    <glyph glyph-name="Chi" unicode="&#x3a7;" horiz-adv-x="1160" 
d="M1149 0h-287l-302 538l-320 -538h-229l432 711l-371 654h286l252 -454l267 454h230l-380 -623z" />
    <glyph glyph-name="Psi" unicode="&#x3a8;" horiz-adv-x="1655" 
d="M703 0v252q-335 15 -429 135t-116.5 233.5t-22.5 339.5v405h246v-405q0 -215 27 -351t295 -156v912h246v-912q149 10 218 63.5t88 138t19 305.5v405h246v-405q0 -229 -20.5 -337t-118 -231.5t-432.5 -139.5v-252h-246z" />
    <glyph glyph-name="Omega" unicode="&#x3a9;" horiz-adv-x="1358" 
d="M57 0v212h330q-307 150 -307 551q0 292 172 457.5t428 165.5t427 -166t171 -454q0 -403 -307 -554h329v-212h-536v212q248 151 248 523q0 214 -89 333.5t-241 119.5t-244 -115t-92 -338q0 -372 248 -523v-212h-537z" />
    <glyph glyph-name="Iotadieresis" unicode="&#x3aa;" horiz-adv-x="546" 
d="M396 0h-246v1365h246v-1365zM452 1512q-48 0 -80 32t-31 76q-1 44 31 76q32 34 79 34t81 -30t35 -80t-33 -79t-82 -29zM118 1512q-48 0 -80 32t-31 75q0 43 31 77q30 34 78 34t82 -30t34 -80t-34 -79q-32 -29 -80 -29z" />
    <glyph glyph-name="Upsilondieresis" unicode="&#x3ab;" horiz-adv-x="1113" 
d="M699 0h-261v576l-465 789h298l324 -563l310 563h236l-442 -789v-576zM736 1512q-48 0 -80 32t-31 76q-1 44 31 76q32 34 79 34t81 -30t35 -80t-33 -79t-82 -29zM402 1512q-48 0 -80 32t-31 75q0 43 31 77q30 34 78 34t82 -30t34 -80t-34 -79q-32 -29 -80 -29z" />
    <glyph glyph-name="alphatonos" unicode="&#x3ac;" horiz-adv-x="1225" 
d="M528 844q-86 0 -150 -90t-64 -244t64 -248q64 -96 154 -96t149 104q58 104 103 249q-87 225 -140 275t-116 50zM485 -21q-181 1 -297 153t-116 382t123 374q123 143 318 143q218 0 332 -246l81 225h237l-183 -479l218 -531h-251l-102 274q-125 -295 -360 -295zM628 1552
l154 -109l-299 -331l-92 67z" />
    <glyph glyph-name="epsilontonos" unicode="&#x3ad;" horiz-adv-x="957" 
d="M320 293q0 -65 50 -105t131 -39q172 0 221 176l210 -37q-30 -129 -140 -219t-289 -90q-235 1 -330 95t-95 221q0 185 217 242q-121 51 -154 103t-33 116q0 120 98 198t275 77q366 0 426 -281l-206 -37q-35 146 -193 146t-158 -127q0 -66 51 -100t197 -33v-157
q-115 -2 -163 -8q-47 -6 -81 -41t-34 -100zM592 1552l154 -109l-299 -331l-92 67z" />
    <glyph glyph-name="etatonos" unicode="&#x3ae;" horiz-adv-x="1119" 
d="M990 -341h-228v976q0 209 -162 209q-104 0 -170 -74t-65 -194v-576h-228v1010h211v-167q107 188 317 188q117 0 195 -52t104 -128t26 -240v-952zM650 1552l154 -109l-299 -331l-92 67z" />
    <glyph glyph-name="iotatonos" unicode="&#x3af;" horiz-adv-x="501" 
d="M364 0h-228v1010h228v-1010zM303 1552l154 -109l-299 -331l-92 67z" />
    <glyph glyph-name="upsilondieresistonos" unicode="&#x3b0;" horiz-adv-x="1086" 
d="M355 1010v-587q-1 -117 11 -161q25 -95 175 -95t177 90q13 43 13 166v587h228v-587q1 -173 -41 -265q-81 -178 -367 -179q-206 1 -315 87t-109 357v587h228zM708 1188q-48 0 -80 32t-31 76q-1 44 31 76q32 34 79 34t81 -30t35 -80t-33 -79t-82 -29zM374 1188
q-48 0 -80 32t-31 75q0 43 31 77q30 34 78 34t82 -30t34 -80t-34 -79q-32 -29 -80 -29zM701 1761l101 -131l-296 -193l-61 91z" />
    <glyph glyph-name="alpha" unicode="&#x3b1;" horiz-adv-x="1225" 
d="M528 844q-87 0 -150.5 -90t-63.5 -244t64 -249t154 -95t148.5 104t103.5 249q-87 224 -140 274.5t-116 50.5zM485 -21q-182 0 -297.5 152.5t-115.5 382.5t123 373.5t318 143.5q218 0 332 -246l81 225h237l-183 -479l218 -531h-251l-102 274q-125 -295 -360 -295z" />
    <glyph glyph-name="beta" unicode="&#x3b2;" horiz-adv-x="1142" 
d="M564 167q118 0 189.5 72.5t71.5 184.5t-56.5 184t-217.5 72v153q122 2 163 55.5t41 138.5q0 198 -197 198q-88 0 -137.5 -50t-49.5 -245v-684q75 -79 193 -79zM143 -341v1244q0 181 58.5 332t359.5 151q186 0 305.5 -85t119.5 -243q0 -209 -235 -286q316 -76 316 -372
q0 -181 -119 -301t-302 -120t-275 129v-449h-228z" />
    <glyph glyph-name="gamma" unicode="&#x3b3;" horiz-adv-x="895" 
d="M333 -341v359l-345 992h248l234 -699l245 699h197l-351 -992v-359h-228z" />
    <glyph glyph-name="delta" unicode="&#x3b4;" horiz-adv-x="1099" 
d="M554 814q-233 0 -233 -324q-1 -324 229 -323q230 -1 230 323t-226 324zM901 1365v-177h-415l153 -105q132 -90 257 -214t125 -368t-125.5 -383t-343.5 -139t-345.5 134.5t-127.5 354.5t118 347t329 127l-334 258v165h709z" />
    <glyph glyph-name="epsilon" unicode="&#x3b5;" horiz-adv-x="957" 
d="M320 293q0 -65 50.5 -104.5t130.5 -39.5q172 0 221 176l210 -37q-30 -129 -140 -219t-289 -90q-235 0 -330 94.5t-95 221.5q0 185 217 242q-121 51 -154 103.5t-33 115.5q0 120 98.5 197.5t274.5 77.5q366 0 426 -281l-206 -37q-35 146 -193 146t-158 -127
q0 -65 51 -99.5t197 -33.5v-157q-115 -1 -163 -7.5t-81.5 -41.5t-33.5 -100z" />
    <glyph glyph-name="zeta" unicode="&#x3b6;" horiz-adv-x="792" 
d="M128 1188v177h622v-150q-173 -123 -300.5 -333t-127.5 -436q0 -134 50.5 -183t160.5 -55t173 -42.5t63 -174.5q0 -139 -84 -332l-199 25q71 141 71 228q0 49 -29.5 68t-108.5 23q-339 14 -339 396q0 420 449 789h-401z" />
    <glyph glyph-name="eta" unicode="&#x3b7;" horiz-adv-x="1119" 
d="M990 -341h-228v976q0 209 -162 209q-104 0 -169.5 -73.5t-65.5 -194.5v-576h-228v1010h211v-167q107 188 317 188q116 0 194.5 -52t104.5 -128t26 -240v-952z" />
    <glyph glyph-name="theta" unicode="&#x3b8;" horiz-adv-x="1111" 
d="M555 146q229 0 236 485h-472q7 -485 236 -485zM555 1219q-92 0 -160 -102t-76 -331h472q-8 230 -76 331.5t-160 101.5zM559 1386q219 0 343 -184t124 -520t-125 -519.5t-341 -183.5t-345.5 174t-129.5 526t127.5 529.5t346.5 177.5z" />
    <glyph glyph-name="iota" unicode="&#x3b9;" horiz-adv-x="501" 
d="M364 0h-228v1010h228v-1010z" />
    <glyph glyph-name="kappa" unicode="&#x3ba;" horiz-adv-x="1041" 
d="M365 0h-228v1010h228v-271l1 -85q0 -24 -5 -86q36 46 92 106l312 336h226l-318 -336l359 -674h-250l-263 490l-154 -155v-335z" />
    <glyph glyph-name="lambda" unicode="&#x3bb;" horiz-adv-x="887" 
d="M-10 0l339 932l-154 433h237l484 -1365h-238l-242 693l-241 -693h-185z" />
    <glyph glyph-name="mu" unicode="&#x3bc;" horiz-adv-x="1128" 
d="M137 -341v1351h228v-540q0 -111 16.5 -167t65.5 -96t128 -40t134 65t55 238v540h228v-1010h-193v155q-76 -176 -231 -176q-72 0 -129.5 42.5t-73.5 100.5v-463h-228z" />
    <glyph glyph-name="nu" unicode="&#x3bd;" horiz-adv-x="897" 
d="M883 1010l-343 -1010h-189l-351 1010h238l236 -685l230 685h179z" />
    <glyph glyph-name="xi" unicode="&#x3be;" horiz-adv-x="886" 
d="M664 -114q0 66 -34.5 85t-133.5 27q-218 16 -321.5 104t-103.5 249t76.5 247t232.5 132q-237 67 -237 221q0 162 237 237h-257v177h724v-177h-128q-334 0 -334 -197q0 -83 64 -138t214 -55h85v-180h-85q-132 0 -200.5 -16t-109.5 -68t-41 -128t32 -118.5t79.5 -57.5
t162.5 -26t203.5 -40t88.5 -198q0 -115 -67 -320l-201 35q54 139 54 205z" />
    <glyph glyph-name="omicron" unicode="&#x3bf;" horiz-adv-x="1083" 
d="M540 167q230 0 230 343q0 154 -55 244t-171 90t-173 -92t-57 -252q0 -159 60 -246t166 -87zM524 -21q-216 0 -334 161t-118 377t130 365t340 149q208 0 338 -145q130 -144 131 -380t-135 -382t-352 -145z" />
    <glyph glyph-name="pi" unicode="&#x3c0;" horiz-adv-x="1138" 
d="M167 0v833h-122v177h1048v-177h-123v-833h-228v833h-347v-833h-228z" />
    <glyph glyph-name="rho" unicode="&#x3c1;" horiz-adv-x="1125" 
d="M577 844q-111 0 -168.5 -75t-57.5 -264q0 -338 230 -338q230 1 230 339t-234 338zM116 -341v733q0 241 35 360t148 199t276 80q218 0 348 -144.5t130 -386.5t-119.5 -381.5t-305.5 -139.5t-284 160v-480h-228z" />
    <glyph glyph-name="sigma1" unicode="&#x3c2;" horiz-adv-x="980" 
d="M711 -130q0 84 -27.5 104t-149.5 35t-228 68.5t-170 168t-64 274.5q0 222 120 366.5t340 144.5q177 0 281 -99.5t126 -253.5l-212 -38q-23 204 -197 204q-98 0 -157.5 -73t-59.5 -215t41 -212t112 -100t211 -51t197 -71t57 -172t-64 -304l-206 41q50 99 50 183z" />
    <glyph glyph-name="sigma" unicode="&#x3c3;" horiz-adv-x="1115" 
d="M550 844q-229 0 -229 -338t229 -339q229 1 229 339t-229 338zM1088 1010v-177h-234q106 -91 136.5 -169.5t30.5 -184.5q0 -223 -129.5 -361.5t-335.5 -138.5t-341.5 128.5t-135.5 384.5t125 397.5t351 141.5q77 0 143 -21h390z" />
    <glyph glyph-name="tau" unicode="&#x3c4;" horiz-adv-x="790" 
d="M282 0v833h-290v177h806v-177h-288v-833h-228z" />
    <glyph glyph-name="upsilon" unicode="&#x3c5;" horiz-adv-x="1086" 
d="M355 1010v-587q0 -117 18 -186.5t168 -69.5t170 66.5t20 189.5v587h228v-587q0 -174 -61 -309t-347 -135q-206 0 -315 86.5t-109 357.5v587h228z" />
    <glyph glyph-name="phi" unicode="&#x3c6;" horiz-adv-x="1376" 
d="M1066 506q0 316 -276 361v-719q276 42 276 358zM581 -341v315q-242 19 -371.5 163.5t-129.5 363.5q0 176 84 305t214 173l68 -182q-139 -97 -139 -291q0 -303 274 -357v876q67 6 117 6q314 0 456 -158t142 -369t-129.5 -361.5t-376.5 -168.5v-315h-209z" />
    <glyph glyph-name="chi" unicode="&#x3c7;" horiz-adv-x="968" 
d="M351 391l-324 619h246l241 -464l230 464h207l-339 -654l364 -697h-246l-272 553l-277 -553h-214z" />
    <glyph glyph-name="psi" unicode="&#x3c8;" horiz-adv-x="1472" 
d="M627 -341v316q-352 12 -424 156.5t-72 340.5v538h228v-538q0 -189 52.5 -250t215.5 -64v852h218v-852q159 3 213.5 61.5t54.5 252.5v538h228v-538q0 -184 -67 -334.5t-429 -162.5v-316h-218z" />
    <glyph glyph-name="omega" unicode="&#x3c9;" 
d="M833 785v-337q0 -179 31.5 -230.5t99.5 -51.5t119.5 70.5t51.5 233.5q0 257 -164 476l163 95q242 -244 242 -562q0 -258 -114.5 -379t-277.5 -121q-80 0 -142 34t-116 143q-83 -177 -253 -177t-284 122.5t-114 365.5q0 330 242 574l164 -95q-164 -220 -164 -477
q0 -161 51 -232t118 -71t99.5 48.5t32.5 233.5v337h215z" />
    <glyph glyph-name="iotadieresis" unicode="&#x3ca;" horiz-adv-x="501" 
d="M364 0h-228v1010h228v-1010zM416 1188q-48 0 -80 32t-31 76q-1 44 31 76q32 34 79 34t81 -30t35 -80t-33 -79t-82 -29zM82 1188q-48 0 -80 32t-31 75q0 43 31 77q30 34 78 34t82 -30t34 -80t-34 -79q-32 -29 -80 -29z" />
    <glyph glyph-name="upsilondieresis" unicode="&#x3cb;" horiz-adv-x="1086" 
d="M355 1010v-587q-1 -117 11 -161q25 -95 175 -95t177 90q13 43 13 166v587h228v-587q1 -173 -41 -265q-81 -178 -367 -179q-206 1 -315 87t-109 357v587h228zM708 1188q-48 0 -80 32t-31 76q-1 44 31 76q32 34 79 34t81 -30t35 -80t-33 -79t-82 -29zM374 1188
q-48 0 -80 32t-31 75q0 43 31 77q30 34 78 34t82 -30t34 -80t-34 -79q-32 -29 -80 -29z" />
    <glyph glyph-name="omicrontonos" unicode="&#x3cc;" horiz-adv-x="1083" 
d="M540 167q230 0 230 343q0 154 -55 244t-171 90t-173 -92t-57 -252q0 -159 60 -246t166 -87zM524 -21q-216 0 -334 161t-118 377t130 365t340 149q208 0 338 -145q130 -144 131 -380t-135 -382t-352 -145zM601 1552l154 -109l-299 -331l-92 67z" />
    <glyph glyph-name="upsilontonos" unicode="&#x3cd;" horiz-adv-x="1086" 
d="M355 1010v-587q-1 -117 11 -161q25 -95 175 -95t177 90q13 43 13 166v587h228v-587q1 -173 -41 -265q-81 -178 -367 -179q-206 1 -315 87t-109 357v587h228zM603 1572l154 -109l-299 -331l-92 67z" />
    <glyph glyph-name="omegatonos" unicode="&#x3ce;" 
d="M833 785v-337q-1 -178 31 -230t100 -52t120 70t51 234q0 257 -164 476l163 95q242 -244 242 -562q0 -258 -114 -379t-278 -121q-80 0 -142 34t-116 143q-83 -177 -253 -177q-170 1 -284 123t-114 365q0 330 242 574l164 -95q-164 -220 -164 -477q0 -161 51 -232t118 -71
q68 0 100 48t32 234v337h215zM819 1552l154 -109l-299 -331l-92 67z" />
    <glyph glyph-name="afii10023" unicode="&#x401;" horiz-adv-x="1099" 
d="M1037 0h-887v1365h878v-203h-632v-370h508v-198h-508v-382h641v-212zM765 1522q-47 0 -79 32t-32 76t32 76q32 34 78 34q48 0 82 -30t34 -80t-34 -79t-81 -29zM430 1522q-48 0 -78 32q-32 32 -32 75t31 77t79 34t81 -30q34 -30 34 -80q1 -50 -33 -79t-82 -29z" />
    <glyph glyph-name="afii10051" unicode="&#x402;" horiz-adv-x="1278" 
d="M212 0v1165h-224v200h972v-200h-502v-426q116 176 356 176q264 0 317 -162t53 -468t-51 -426t-147.5 -165t-256.5 -51l-13 185q135 0 179 85.5t44 382.5t-49.5 365t-155.5 68q-276 0 -276 -284v-445h-246z" />
    <glyph glyph-name="afii10052" unicode="&#x403;" horiz-adv-x="891" 
d="M150 0v1365h741v-211h-495v-1154h-246zM750 1819l66 -150l-417 -176l-42 107z" />
    <glyph glyph-name="afii10053" unicode="&#x404;" horiz-adv-x="1260" 
d="M840 799v-187h-500q0 -189 90 -312t251 -123q230 0 312 250l232 -45q-56 -182 -194 -292.5t-353 -110.5q-266 0 -432.5 190.5t-166.5 508.5t153.5 513t436.5 195q391 0 527 -365l-229 -58q-81 225 -297 225q-155 0 -237.5 -111t-92.5 -278h500z" />
    <glyph glyph-name="afii10054" unicode="&#x405;" horiz-adv-x="1170" 
d="M576 177q132 0 202 52q70 53 70 119t-32 114t-137 74l-261 68q-134 36 -198 80t-102 125t-39 173q0 184 136 294t330 110q195 0 333 -77t176 -218l-234 -58q-54 155 -252 155q-116 0 -176 -48t-60 -122q0 -117 190 -164l232 -58q211 -52 283 -156t72 -229
q1 -201 -151 -317t-374 -115q-222 0 -374 85t-203 265l239 51q43 -203 330 -203z" />
    <glyph glyph-name="afii10055" unicode="&#x406;" horiz-adv-x="546" 
d="M396 0h-246v1365h246v-1365z" />
    <glyph glyph-name="afii10056" unicode="&#x407;" horiz-adv-x="546" 
d="M396 0h-246v1365h246v-1365zM437 1522q-47 0 -79 32t-32 76t32 76q32 34 78 34q48 0 82 -30t34 -80t-34 -79t-81 -29zM102 1522q-48 0 -78 32q-32 32 -32 75t31 77t79 34t81 -30q34 -30 34 -80q1 -50 -33 -79t-82 -29z" />
    <glyph glyph-name="afii10057" unicode="&#x408;" horiz-adv-x="761" 
d="M624 1365v-942q0 -235 -102 -339t-323 -105q-128 0 -199 21v198q112 -8 158 -8q123 0 168 46t45 187v942h253z" />
    <glyph glyph-name="afii10058" unicode="&#x409;" horiz-adv-x="1715" 
d="M1193 212q235 0 235 216t-235 215h-287l115 -431h172zM1160 843q194 0 295 -37.5t163 -141t62 -237.5q0 -185 -114.5 -306t-353.5 -121h-399l-277 1136h-14l-339 -1136h-214l433 1365h312l139 -522h307z" />
    <glyph glyph-name="afii10059" unicode="&#x40a;" horiz-adv-x="1919" 
d="M1124 212h270q237 0 237 209q0 202 -237 202h-270v-411zM1124 822h251q195 0 295.5 -41.5t156 -139.5t55.5 -224q0 -186 -116.5 -301.5t-337.5 -115.5h-550v623h-482v-623h-246v1365h246v-543h482v543h246v-543z" />
    <glyph glyph-name="afii10060" unicode="&#x40b;" horiz-adv-x="1297" 
d="M458 1165v-417q122 168 338 168q165 0 274 -99t109 -344v-473h-245v484q0 141 -55 192t-152 51q-209 0 -269 -173v-554h-246v1165h-224v200h977v-200h-507z" />
    <glyph glyph-name="afii10061" unicode="&#x40c;" horiz-adv-x="1257" 
d="M396 0h-246v1365h246v-717q47 73 68 101l453 616h249l-324 -449l381 -916h-275l-288 695l-264 -350v-345zM857 1819l66 -150l-417 -176l-42 107z" />
    <glyph glyph-name="afii10062" unicode="&#x40e;" horiz-adv-x="1051" 
d="M241 0h-92v212h92q91 0 130 32t69 106l20 48l-485 967h266l336 -691l276 691h231l-426 -1027q-82 -198 -168 -268t-249 -70zM556 1635q154 0 173 132h131q-5 -115 -88 -195t-215 -79q-132 0 -216 75t-88 199h131q18 -132 172 -132z" />
    <glyph glyph-name="afii10145" unicode="&#x40f;" horiz-adv-x="1277" 
d="M396 212h485v1153h246v-1365h-387l-14 -287h-182l-14 287h-380v1365h246v-1153z" />
    <glyph glyph-name="afii10017" unicode="&#x410;" horiz-adv-x="1235" 
d="M783 522l-199 609l-199 -609h398zM1221 0h-263l-109 325h-525l-107 -325h-210l453 1365h303z" />
    <glyph glyph-name="afii10018" unicode="&#x411;" horiz-adv-x="1227" 
d="M396 212h275q231 0 231 206q0 85 -51 141.5t-205 56.5h-250v-404zM150 0v1365h855v-198h-609v-356h236q179 0 283 -31t170.5 -132t66.5 -239q0 -183 -115 -296t-336 -113h-551z" />
    <glyph glyph-name="afii10019" unicode="&#x412;" horiz-adv-x="1244" 
d="M383 205h318q101 0 159 53t59 141t-59 143t-158 55h-319v-392zM383 792h300q91 0 145 55t54 145t-61 134t-143 44h-295v-378zM150 0v1365h532q135 0 224 -28t154 -117q65 -90 65 -206t-66 -200t-182 -106q144 -25 218 -117t74 -234q1 -141 -103 -249t-319 -108h-597z" />
    <glyph glyph-name="afii10020" unicode="&#x413;" horiz-adv-x="891" 
d="M150 0v1365h741v-211h-495v-1154h-246z" />
    <glyph glyph-name="afii10021" unicode="&#x414;" horiz-adv-x="1234" 
d="M302 212h581l-237 924h-74zM1243 212v-499h-171l-30 287h-849l-30 -287h-171v499h100l360 1153h367l324 -1153h100z" />
    <glyph glyph-name="afii10022" unicode="&#x415;" horiz-adv-x="1099" 
d="M1037 0h-887v1365h878v-203h-632v-370h508v-198h-508v-382h641v-212z" />
    <glyph glyph-name="afii10024" unicode="&#x416;" horiz-adv-x="1652" 
d="M947 0h-234v617l-80 24l-415 -641h-242l472 711l-436 654h270l380 -572l51 -14v586h234v-586l51 14l380 572h242l-407 -586l504 -779h-275l-416 641l-79 -24v-617z" />
    <glyph glyph-name="afii10025" unicode="&#x417;" horiz-adv-x="1161" 
d="M558 177q141 0 204.5 64.5t63.5 160.5q0 214 -236 214h-119v180h108q101 0 160.5 54t59.5 144t-67 142t-175 52q-244 0 -283 -224l-218 33q70 389 512 389q223 0 353.5 -103.5t130.5 -258.5q0 -224 -247 -299q287 -60 287 -321q0 -177 -136 -301t-386 -124t-390 114.5
t-159 304.5l226 38q50 -259 311 -259z" />
    <glyph glyph-name="afii10026" unicode="&#x418;" horiz-adv-x="1348" 
d="M396 0h-246v1365h246v-766q0 -93 -7 -206q66 139 161 272l402 562v138h245v-1365h-245v707q0 184 6 250q-72 -144 -162 -271l-400 -562v-124z" />
    <glyph glyph-name="afii10027" unicode="&#x419;" horiz-adv-x="1348" 
d="M396 0h-246v1365h246v-766q0 -93 -7 -206q66 139 161 272l402 562v138h245v-1365h-245v707q0 184 6 250q-72 -144 -162 -271l-400 -562v-124zM684 1635q154 0 172 132h131q-5 -115 -88 -195t-215 -79q-132 0 -216 75t-88 199h131q19 -132 173 -132z" />
    <glyph glyph-name="afii10028" unicode="&#x41a;" horiz-adv-x="1257" 
d="M396 0h-246v1365h246v-717q47 73 68 101l453 616h249l-324 -449l381 -916h-275l-288 695l-264 -350v-345z" />
    <glyph glyph-name="afii10029" unicode="&#x41b;" horiz-adv-x="1117" 
d="M183 0h-214l433 1365h312l431 -1365h-264l-345 1136h-14z" />
    <glyph glyph-name="afii10030" unicode="&#x41c;" horiz-adv-x="1640" 
d="M1489 0h-251v1195l-378 -1195h-129l-380 1195v-1195h-201v1365h385l286 -879l281 879h387v-1365z" />
    <glyph glyph-name="afii10031" unicode="&#x41d;" horiz-adv-x="1313" 
d="M1163 0h-246v593h-521v-593h-246v1365h246v-561h521v561h246v-1365z" />
    <glyph glyph-name="afii10032" unicode="&#x41e;" horiz-adv-x="1318" 
d="M646 177q142 0 234 110t92 372q0 529 -314 529t-314 -509q0 -247 80 -375t222 -127zM650 -21q-268 0 -420 204t-152 503q0 300 161 500t426 200t419 -200t155 -510q-1 -308 -161 -502t-428 -195z" />
    <glyph glyph-name="afii10033" unicode="&#x41f;" horiz-adv-x="1277" 
d="M150 0v1365h977v-1365h-246v1165h-485v-1165h-246z" />
    <glyph glyph-name="afii10034" unicode="&#x420;" horiz-adv-x="1227" 
d="M396 752h291q114 0 174 56t60 144q1 88 -55 149q-56 60 -201 60h-269v-409zM396 0h-246v1365h559q239 -1 355 -121t115 -296q0 -176 -125 -291q-125 -116 -317 -116h-341v-541z" />
    <glyph glyph-name="afii10035" unicode="&#x421;" horiz-adv-x="1186" 
d="M642 -21q-204 0 -322 94q-116 94 -179 255t-63 355q0 311 148 507t407 196q203 0 338 -125t170 -358l-228 -24q-63 309 -278 309q-139 0 -215 -128t-76 -375t82 -373t217 -126q108 0 184 85t86 203l228 -25q-23 -205 -159 -337t-340 -133z" />
    <glyph glyph-name="afii10036" unicode="&#x422;" horiz-adv-x="990" 
d="M627 0h-264v1154h-363v211h990v-211h-363v-1154z" />
    <glyph glyph-name="afii10037" unicode="&#x423;" horiz-adv-x="1051" 
d="M241 0h-92v212h92q91 0 130 32.5t69 105.5l20 48l-485 967h266l336 -691l276 691h231l-426 -1027q-82 -198 -168 -268t-249 -70z" />
    <glyph glyph-name="afii10038" unicode="&#x424;" horiz-adv-x="1520" 
d="M1187 694q0 316 -320 368v-758q157 26 238.5 117t81.5 273zM334 672q0 -316 319 -368v758q-157 -26 -238 -116.5t-81 -273.5zM89 686q0 230 141 379t423 174v167h214v-167q288 -26 426 -176t138 -378t-135 -379t-429 -179v-168h-214v168q-292 27 -428 178t-136 381z" />
    <glyph glyph-name="afii10039" unicode="&#x425;" horiz-adv-x="1160" 
d="M1149 0h-287l-302 538l-320 -538h-229l432 711l-371 654h286l252 -454l267 454h230l-380 -623z" />
    <glyph glyph-name="afii10040" unicode="&#x426;" horiz-adv-x="1313" 
d="M164 0v1365h246v-1153h486v1153h245v-1153h172v-499h-170l-30 287h-949z" />
    <glyph glyph-name="afii10041" unicode="&#x427;" horiz-adv-x="1241" 
d="M845 0v588q-140 -150 -349 -150q-121 0 -212 54.5t-132 143.5t-41 250v479h246v-491q0 -125 44.5 -181.5t153.5 -56.5q169 0 290 123v606h246v-1365h-246z" />
    <glyph glyph-name="afii10042" unicode="&#x428;" horiz-adv-x="1911" 
d="M164 0v1365h246v-1153h423v1153h246v-1153h423v1153h246v-1365h-1584z" />
    <glyph glyph-name="afii10043" unicode="&#x429;" horiz-adv-x="1925" 
d="M1748 212h177v-499h-170l-30 287h-1561v1365h246v-1153h423v1153h246v-1153h423v1153h246v-1153z" />
    <glyph glyph-name="afii10044" unicode="&#x42a;" horiz-adv-x="1323" 
d="M539 212h262q235 0 235 216t-235 215h-262v-431zM293 1154h-340v211h586v-522h229q194 0 295 -37.5t163 -141t62 -237.5q0 -185 -114.5 -306t-353.5 -121h-527v1154z" />
    <glyph glyph-name="afii10045" unicode="&#x42b;" horiz-adv-x="1736" 
d="M410 212h262q235 0 235 216t-235 215h-262v-431zM164 0v1365h246v-522h229q192 0 293.5 -36.5t164 -140.5t62.5 -239q0 -185 -114.5 -306t-353.5 -121h-527zM1327 0v1365h246v-1365h-246z" />
    <glyph glyph-name="afii10046" unicode="&#x42c;" horiz-adv-x="1181" 
d="M396 212h262q235 0 235 216t-235 215h-262v-431zM150 0v1365h246v-522h229q192 0 293.5 -36.5t164 -140.5t62.5 -239q0 -185 -114.5 -306t-353.5 -121h-527z" />
    <glyph glyph-name="afii10047" unicode="&#x42d;" horiz-adv-x="1259" 
d="M418 612v187h501q-10 166 -92 277.5t-238 111.5q-216 0 -298 -225l-229 58q137 365 528 365q284 0 437 -196.5t153 -499.5t-155.5 -507t-443.5 -204q-216 0 -353.5 110.5t-193.5 292.5l232 45q82 -250 312 -250q162 0 251.5 124t89.5 311h-501z" />
    <glyph glyph-name="afii10048" unicode="&#x42e;" horiz-adv-x="1887" 
d="M1211 1188q-147 0 -233.5 -141t-86.5 -377t93.5 -364.5t237.5 -128.5t232 144t88 381t-92 361.5t-239 124.5zM396 615v-615h-246v1365h246v-550h240q37 257 192.5 414t401.5 157t412.5 -189t166.5 -495t-157.5 -514.5t-429.5 -208.5t-425.5 188.5t-160.5 447.5h-240z" />
    <glyph glyph-name="afii10049" unicode="&#x42f;" horiz-adv-x="1291" 
d="M894 1166h-311q-116 0 -176.5 -53t-60.5 -141t62 -150t194 -62h292v406zM894 567h-344l-250 -567h-247l288 612q-250 95 -250 349q0 189 123.5 296.5t328.5 107.5h597v-1365h-246v567z" />
    <glyph glyph-name="afii10065" unicode="&#x430;" horiz-adv-x="1107" 
d="M749 514q-442 0 -442 -211q1 -63 45 -107t134 -45q130 1 196 83t67 187v93zM407 -21q-151 1 -243 89t-91 222q0 348 611 348q24 0 65 -1v76q0 157 -211 157t-239 -157l-194 29q16 126 130 208t330 81q117 1 191 -19t125 -66t71 -102q20 -54 19 -184v-456q0 -99 30 -204
h-217q-29 92 -35 204q-91 -225 -342 -225z" />
    <glyph glyph-name="afii10066" unicode="&#x431;" horiz-adv-x="1111" 
d="M556 855q-239 0 -239 -344t239 -344q233 0 233 344t-233 344zM586 1031q192 0 318.5 -133t126.5 -385t-127.5 -393t-345.5 -141t-345 136.5t-127 438.5q0 394 104 544t174 190t168 62t124 40.5t31 65.5h234q-7 -101 -69 -152.5t-200 -80.5t-220 -69t-111 -234
q88 75 140.5 93t124.5 18z" />
    <glyph glyph-name="afii10067" unicode="&#x432;" horiz-adv-x="1088" 
d="M365 177h261q86 0 122 34.5t36 106.5q0 142 -158 142h-261v-283zM365 595h261q133 0 133 128q0 121 -133 121h-261v-249zM137 0v1010h525q182 0 250 -77t68 -174q0 -168 -195 -226q232 -57 232 -253q0 -124 -80 -202t-226 -78h-574z" />
    <glyph glyph-name="afii10068" unicode="&#x433;" horiz-adv-x="762" 
d="M136 0v1010h626v-177h-398v-833h-228z" />
    <glyph glyph-name="afii10069" unicode="&#x434;" horiz-adv-x="985" 
d="M267 177h406l-151 656h-82zM993 177v-409h-148l-27 232h-651l-27 -232h-148v409h92l237 833h370l210 -833h92z" />
    <glyph glyph-name="afii10070" unicode="&#x435;" horiz-adv-x="1074" 
d="M540 871q-94 -1 -157 -65t-74 -182h456q-1 109 -65 178q-66 69 -160 69zM538 -21q-210 0 -338 141t-128 376t129 385t347 150t337 -148q118 -148 118 -380l-1 -26h-693q-1 -103 19 -165t78 -108t145 -46q169 0 228 164l206 -28q-40 -137 -156 -226t-291 -89z" />
    <glyph glyph-name="afii10072" unicode="&#x436;" horiz-adv-x="1328" 
d="M776 0h-219v436l-68 19l-291 -455h-223l360 535l-324 475h238l272 -396l36 -10v406h219v-406l36 10l272 396h226l-305 -406l368 -604h-248l-282 455l-67 -19v-436z" />
    <glyph glyph-name="afii10073" unicode="&#x437;" horiz-adv-x="947" 
d="M355 442v157q164 0 206 40.5t42 96.5t-40 91.5t-113 35.5q-157 0 -187 -150l-208 37q67 281 412 281q186 0 282 -78t96 -197q0 -152 -187 -219q217 -58 217 -243q0 -135 -104.5 -225t-300.5 -90q-360 0 -439 309l210 37q41 -180 209 -180q86 0 134.5 42.5t48.5 105.5
t-33 98.5t-84.5 43t-160.5 7.5z" />
    <glyph glyph-name="afii10074" unicode="&#x438;" horiz-adv-x="1128" 
d="M365 0h-228v1010h228v-439q0 -99 -5 -211q50 81 144 198l259 322v130h228v-1010h-228v415q0 124 7 218q-48 -78 -132 -184l-273 -347v-102z" />
    <glyph glyph-name="afii10075" unicode="&#x439;" horiz-adv-x="1128" 
d="M365 0h-228v1010h228v-439q0 -99 -5 -211q50 81 144 198l259 322v130h228v-1010h-228v415q0 124 7 218q-48 -78 -132 -184l-273 -347v-102zM564 1323q154 0 173 132h131q-5 -115 -88 -195t-215 -79q-132 0 -216 75t-88 199h131q18 -132 172 -132z" />
    <glyph glyph-name="afii10076" unicode="&#x43a;" horiz-adv-x="1028" 
d="M365 0h-228v1010h228v-300q0 -97 -7 -173q50 66 95 113l339 360h224l-313 -350l352 -660h-245l-265 488l-180 -190v-298z" />
    <glyph glyph-name="afii10077" unicode="&#x43b;" horiz-adv-x="887" 
d="M-10 0l323 1010h269l314 -1010h-238l-228 833l-255 -833h-185z" />
    <glyph glyph-name="afii10078" unicode="&#x43c;" horiz-adv-x="1471" 
d="M136 0v1010h344l259 -833l273 833h322v-1010h-211v833h-14l-273 -833h-233l-269 833h-14v-833h-184z" />
    <glyph glyph-name="afii10079" unicode="&#x43d;" horiz-adv-x="1124" 
d="M136 0v1010h228v-389h395v389h228v-1010h-228v444h-395v-444h-228z" />
    <glyph glyph-name="afii10080" unicode="&#x43e;" horiz-adv-x="1083" 
d="M540 167q230 0 230 343q0 154 -55 244t-171 90t-173 -92t-57 -252q0 -159 60 -246t166 -87zM524 -21q-216 0 -334 161t-118 377t130 365t340 149q208 0 338 -145q130 -144 131 -380t-135 -382t-352 -145z" />
    <glyph glyph-name="afii10081" unicode="&#x43f;" horiz-adv-x="1080" 
d="M136 0v1010h807v-1010h-228v845h-351v-845h-228z" />
    <glyph glyph-name="afii10082" unicode="&#x440;" horiz-adv-x="1103" 
d="M369 414q-1 -110 65 -182t146 -73q110 -1 160 95t50 246t-51 248q-51 96 -147 96t-160 -79t-63 -207v-144zM369 -341h-232v1351h218v-176q105 197 309 197q168 0 268 -146t100 -367t-96 -380t-287 -159q-192 0 -280 162v-482z" />
    <glyph glyph-name="afii10083" unicode="&#x441;" horiz-adv-x="954" 
d="M506 -21q-210 1 -322 153t-112 376t123 374q123 149 328 149q330 0 393 -348l-196 -27q-26 188 -185 188q-117 0 -169 -102t-52 -250t54 -231t153 -83q150 0 199 193l196 -20q-38 -190 -147 -281t-263 -91z" />
    <glyph glyph-name="afii10084" unicode="&#x442;" horiz-adv-x="763" 
d="M270 0v833h-280v177h784v-177h-276v-833h-228z" />
    <glyph glyph-name="afii10085" unicode="&#x443;" horiz-adv-x="905" 
d="M223 -363q-45 0 -131 7v181l109 -2q73 -1 107 23t54 84t20 68t-21 64l-347 948h239l245 -666l211 666h182l-393 -1150q-36 -106 -98 -164t-177 -59z" />
    <glyph glyph-name="afii10086" unicode="&#x444;" horiz-adv-x="1353" 
d="M1044 508q0 308 -272 358v-716q272 50 272 358zM308 508q0 -308 271 -358v716q-271 -50 -271 -358zM579 -341v341q-247 20 -375.5 157t-128.5 355t143 347t361 151v340h195v-340q218 -22 361 -151t143 -347t-129 -355t-375 -157v-341h-195z" />
    <glyph glyph-name="afii10087" unicode="&#x445;" horiz-adv-x="904" 
d="M904 0h-260l-214 368l-234 -368h-196l336 520l-291 490h261l166 -297l189 297h191l-285 -438z" />
    <glyph glyph-name="afii10088" unicode="&#x446;" horiz-adv-x="1108" 
d="M137 0v1010h228v-833h365v833h228v-833h150v-409h-150l-27 232h-794z" />
    <glyph glyph-name="afii10089" unicode="&#x447;" horiz-adv-x="1031" 
d="M666 0v397q-112 -88 -258 -88t-226 75t-80 213v413h228v-381q0 -133 151 -133q105 0 185 41v473h228v-1010h-228z" />
    <glyph glyph-name="afii10090" unicode="&#x448;" horiz-adv-x="1627" 
d="M147 0v1010h228v-833h325v833h228v-833h325v833h228v-1010h-1334z" />
    <glyph glyph-name="afii10091" unicode="&#x449;" horiz-adv-x="1648" 
d="M150 0v1010h228v-833h325v833h228v-833h325v833h228v-833h164v-409h-150l-28 232h-1320z" />
    <glyph glyph-name="afii10092" unicode="&#x44a;" horiz-adv-x="1091" 
d="M454 177h221q84 0 120.5 33.5t36.5 108.5q0 156 -157 156h-221v-298zM226 0v833h-271v177h499v-369h266q173 0 254 -92.5t81 -238.5t-88.5 -228t-246.5 -82h-494z" />
    <glyph glyph-name="afii10093" unicode="&#x44b;" horiz-adv-x="1482" 
d="M1108 0v1010h228v-1010h-228zM375 177h221q84 0 120.5 33.5t36.5 108.5q0 156 -157 156h-221v-298zM147 0v1010h228v-369h266q173 0 254.5 -93t81.5 -238t-88.5 -227.5t-247.5 -82.5h-494z" />
    <glyph glyph-name="afii10094" unicode="&#x44c;" horiz-adv-x="1002" 
d="M365 177h221q84 0 120.5 33.5t36.5 108.5q0 156 -157 156h-221v-298zM137 0v1010h228v-369h266q173 0 254.5 -93t81.5 -238t-88.5 -227.5t-247.5 -82.5h-494z" />
    <glyph glyph-name="afii10095" unicode="&#x44d;" horiz-adv-x="1019" 
d="M311 434v165h393q-21 245 -236 245q-163 0 -211 -137l-212 42q104 282 426 282q239 0 357.5 -153.5t118.5 -382.5t-125 -372.5t-362 -143.5q-328 0 -431 298l209 40q55 -151 225 -151q107 0 174 68.5t67 199.5h-393z" />
    <glyph glyph-name="afii10096" unicode="&#x44e;" horiz-adv-x="1596" 
d="M1040 857q-249 0 -249 -345t250 -345q242 0 242 345t-243 345zM365 441v-441h-228v1010h228v-391h199q28 183 158.5 297.5t334.5 114.5t336 -144.5t132 -380.5t-136.5 -381.5t-350.5 -145.5t-337 133.5t-137 328.5h-199z" />
    <glyph glyph-name="afii10097" unicode="&#x44f;" horiz-adv-x="1069" 
d="M704 563v281h-236q-146 0 -146 -148q0 -133 136 -133h246zM704 0v396h-243l-187 -396h-243l250 445q-187 69 -187 255q0 157 91 233.5t236 76.5h511v-1010h-228z" />
    <glyph glyph-name="afii10071" unicode="&#x451;" horiz-adv-x="1074" 
d="M540 871q-94 -1 -157 -65t-74 -182h456q-1 109 -65 178q-66 69 -160 69zM538 -21q-210 0 -338 141t-128 376t129 385t347 150t337 -148q118 -148 118 -380l-1 -26h-693q-1 -103 19 -165t78 -108t145 -46q169 0 228 164l206 -28q-40 -137 -156 -226t-291 -89zM716 1188
q-48 0 -80 32t-31 76q-1 44 31 76q32 34 79 34t81 -30t35 -80t-33 -79t-82 -29zM382 1188q-48 0 -80 32t-31 75q0 43 31 77q30 34 78 34t82 -30t34 -80t-34 -79q-32 -29 -80 -29z" />
    <glyph glyph-name="afii10099" unicode="&#x452;" horiz-adv-x="1080" 
d="M135 0v1122h-180v152h180v112h228v-112h402v-152h-402v-305q24 71 106.5 126t198.5 55t193 -67t99 -191.5t22 -435.5t-48 -478t-337 -167l-19 172q105 4 144 85.5t39 329.5t-11 362.5t-58.5 154.5t-119.5 40t-140.5 -75t-68.5 -209v-519h-228z" />
    <glyph glyph-name="afii10100" unicode="&#x453;" horiz-adv-x="762" 
d="M136 0v1010h626v-177h-398v-833h-228zM628 1496l66 -150l-417 -176l-42 107z" />
    <glyph glyph-name="afii10101" unicode="&#x454;" horiz-adv-x="1023" 
d="M709 599v-165h-394q0 -132 67.5 -200t172.5 -68q172 0 226 151l209 -40q-102 -298 -430 -298q-229 0 -358.5 139t-129.5 378t123 387t354 148q321 0 426 -282l-213 -42q-47 137 -209 137q-217 0 -238 -245h394z" />
    <glyph glyph-name="afii10102" unicode="&#x455;" horiz-adv-x="930" 
d="M444 150q212 0 212 125q0 40 -33 66t-78 35l-184 35q-306 59 -306 299q0 134 97 228t289 93q320 0 391 -235l-203 -41q-32 114 -182 114q-182 0 -182 -114q0 -79 147 -109l217 -45q253 -52 253 -290q0 -167 -130 -249t-297 -83q-167 1 -286 63t-155 190l214 41
q49 -123 216 -123z" />
    <glyph glyph-name="afii10103" unicode="&#x456;" horiz-adv-x="501" 
d="M364 0h-228v1010h228v-1010zM364 1128h-228v237h228v-237z" />
    <glyph glyph-name="afii10104" unicode="&#x457;" horiz-adv-x="501" 
d="M364 0h-228v1010h228v-1010zM415 1188q-47 0 -79 32t-32 76t32 76q32 34 78 34q48 0 82 -30t34 -80t-34 -79t-81 -29zM80 1188q-48 0 -78 32q-32 32 -32 75t31 77t79 34t81 -30q34 -30 34 -80q1 -50 -33 -79t-82 -29z" />
    <glyph glyph-name="afii10105" unicode="&#x458;" horiz-adv-x="501" 
d="M364 1010v-994q0 -378 -347 -378q-53 0 -117 12v193q43 -5 73 -5q95 0 129 36t34 142v994h228zM364 1128h-228v237h228v-237z" />
    <glyph glyph-name="afii10106" unicode="&#x459;" horiz-adv-x="1364" 
d="M962 177q152 0 152 143q0 155 -152 155h-245l70 -298h175zM1004 641q180 0 257.5 -96.5t77.5 -238.5t-88.5 -224t-246.5 -82h-401l-173 833l-255 -833h-185l323 1010h269l95 -369h327z" />
    <glyph glyph-name="afii10107" unicode="&#x45a;" horiz-adv-x="1602" 
d="M960 177h230q151 -1 151 141t-151 142h-230v-283zM960 621h271q109 0 172.5 -25t113 -100t49.5 -180q0 -151 -88 -233.5t-247 -82.5h-499v444h-367v-444h-228v1010h228v-389h367v389h228v-389z" />
    <glyph glyph-name="afii10108" unicode="&#x45b;" horiz-adv-x="1089" 
d="M135 1274v112h228v-112h395v-152h-395v-305q104 181 299 181q88 0 156.5 -33.5t106 -88t49.5 -103.5t12 -178v-595h-228v573q0 86 -10.5 127t-52.5 72t-95 31q-93 0 -165 -75.5t-72 -208.5v-519h-228v1122h-180v152h180z" />
    <glyph glyph-name="afii10109" unicode="&#x45c;" horiz-adv-x="1028" 
d="M365 0h-228v1010h228v-300q0 -97 -7 -173q50 66 95 113l339 360h224l-313 -350l352 -660h-245l-265 488l-180 -190v-298zM770 1493l66 -150l-417 -176l-42 107z" />
    <glyph glyph-name="afii10110" unicode="&#x45e;" horiz-adv-x="905" 
d="M223 -363q-45 0 -131 7v181l109 -2q73 -1 107 23t54 84t20 68t-21 64l-347 948h239l245 -666l211 666h182l-393 -1150q-36 -106 -98 -164t-177 -59zM472 1323q154 0 172 132h131q-5 -115 -88 -195t-215 -79q-132 0 -216 75t-88 199h131q19 -132 173 -132z" />
    <glyph glyph-name="afii10193" unicode="&#x45f;" horiz-adv-x="1095" 
d="M136 0v1010h228v-833h366v833h228v-1010h-312l-23 -232h-150l-23 232h-314z" />
    <glyph glyph-name="afii10050" unicode="&#x490;" horiz-adv-x="932" 
d="M932 1616v-462h-536v-1154h-246v1365h581v251h201z" />
    <glyph glyph-name="afii10098" unicode="&#x491;" horiz-adv-x="762" 
d="M586 1010v216h176v-393h-398v-833h-228v1010h450z" />
    <glyph glyph-name="Wgrave" unicode="&#x1e80;" horiz-adv-x="1809" 
d="M1789 1365l-365 -1365h-258l-272 1004l-247 -1004h-253l-373 1365h261l264 -995l246 995h249l272 -995l259 995h217zM747 1800l393 -219l-42 -107l-417 176z" />
    <glyph glyph-name="wgrave" unicode="&#x1e81;" horiz-adv-x="1427" 
d="M1406 1010l-296 -1010h-205l-182 708l-181 -708h-211l-311 1010h242l199 -679l174 679h207l177 -679l195 679h192zM577 1487l393 -219l-42 -107l-417 176z" />
    <glyph glyph-name="Wacute" unicode="&#x1e82;" horiz-adv-x="1809" 
d="M1789 1365l-365 -1365h-258l-272 1004l-247 -1004h-253l-373 1365h261l264 -995l246 995h249l272 -995l259 995h217zM1088 1800l66 -150l-417 -176l-42 107z" />
    <glyph glyph-name="wacute" unicode="&#x1e83;" horiz-adv-x="1427" 
d="M1406 1010l-296 -1010h-205l-182 708l-181 -708h-211l-311 1010h242l199 -679l174 679h207l177 -679l195 679h192zM912 1487l66 -150l-417 -176l-42 107z" />
    <glyph glyph-name="Wdieresis" unicode="&#x1e84;" horiz-adv-x="1809" 
d="M1789 1365l-365 -1365h-258l-272 1004l-247 -1004h-253l-373 1365h261l264 -995l246 995h249l272 -995l259 995h217zM1070 1512q-48 0 -80 32t-31 76q-1 44 31 76q32 34 79 34t81 -30t35 -80t-33 -79t-82 -29zM736 1512q-48 0 -80 32t-31 75q0 43 31 77q30 34 78 34
t82 -30t34 -80t-34 -79q-32 -29 -80 -29z" />
    <glyph glyph-name="wdieresis" unicode="&#x1e85;" horiz-adv-x="1427" 
d="M1406 1010l-296 -1010h-205l-182 708l-181 -708h-211l-311 1010h242l199 -679l174 679h207l177 -679l195 679h192zM905 1188q-47 0 -79 32t-32 76t32 76q32 34 78 34q48 0 82 -30t34 -80t-34 -79t-81 -29zM570 1188q-48 0 -78 32q-32 32 -32 75t31 77t79 34t81 -30
q34 -30 34 -80q1 -50 -33 -79t-82 -29z" />
    <glyph glyph-name="Ygrave" unicode="&#x1ef2;" horiz-adv-x="1113" 
d="M699 0h-261v576l-465 789h298l324 -563l310 563h236l-442 -789v-576zM400 1800l393 -219l-42 -107l-417 176z" />
    <glyph glyph-name="ygrave" unicode="&#x1ef3;" horiz-adv-x="905" 
d="M223 -363q-45 0 -131 7v181l109 -2q73 -1 107 23t54 84t20 68t-21 64l-347 948h239l245 -666l211 666h182l-393 -1150q-36 -106 -98 -164t-177 -59zM317 1487l393 -219l-42 -107l-417 176z" />
    <glyph glyph-name="endash" unicode="&#x2013;" horiz-adv-x="1201" 
d="M1015 612v-189h-829v189h829z" />
    <glyph glyph-name="emdash" unicode="&#x2014;" horiz-adv-x="1365" 
d="M1436 614v-185h-1507v185h1507z" />
    <glyph glyph-name="afii00208" unicode="&#x2015;" horiz-adv-x="1365" 
d="M1436 614v-185h-1507v185h1507z" />
    <glyph glyph-name="underscoredbl" unicode="&#x2017;" horiz-adv-x="1024" 
d="M0 -341h1024v-144h-1024v144zM0 -101h1024v-144h-1024v144z" />
    <glyph glyph-name="quoteleft" unicode="&#x2018;" horiz-adv-x="493" 
d="M133 872v226l152 267h75l-110 -267h110v-226h-227z" />
    <glyph glyph-name="quoteright" unicode="&#x2019;" horiz-adv-x="493" 
d="M360 1365v-225l-153 -268h-74l110 268h-110v225h227z" />
    <glyph glyph-name="quotesinglbase" unicode="&#x201a;" horiz-adv-x="493" 
d="M360 225v-225l-153 -269h-74l110 269h-110v225h227z" />
    <glyph glyph-name="quotereversed" unicode="&#x201b;" horiz-adv-x="493" 
d="M133 1365h227v-225h-110l110 -268h-75l-152 268v225z" />
    <glyph glyph-name="quotedblleft" unicode="&#x201c;" horiz-adv-x="769" 
d="M418 871v225l149 269h72l-105 -269h105v-225h-221zM130 871v225l150 269h86l-115 -269h96v-225h-217z" />
    <glyph glyph-name="quotedblright" unicode="&#x201d;" horiz-adv-x="769" 
d="M351 1365v-226l-148 -268h-73l106 268h-106v226h221zM639 1365v-226l-149 -268h-85l114 268h-95v226h215z" />
    <glyph glyph-name="quotedblbase" unicode="&#x201e;" horiz-adv-x="769" 
d="M351 227v-227l-148 -269h-73l106 269h-106v227h221zM639 227v-227l-149 -269h-85l114 269h-95v227h215z" />
    <glyph glyph-name="dagger" unicode="&#x2020;" horiz-adv-x="1201" 
d="M125 801v188h366v376h218v-376h366v-188h-366v-1142h-218v1142h-366z" />
    <glyph glyph-name="daggerdbl" unicode="&#x2021;" horiz-adv-x="1201" 
d="M125 801v188h366v376h218v-376h366v-188h-366v-558h366v-188h-366v-396h-218v396h-366v188h366v558h-366z" />
    <glyph glyph-name="bullet" unicode="&#x2022;" horiz-adv-x="1365" 
d="M964 696q0 -118 -82 -202t-200 -84t-199.5 84t-81.5 202t82.5 202t198.5 84t199 -84t83 -202z" />
    <glyph glyph-name="ellipsis" unicode="&#x2026;" horiz-adv-x="1518" 
d="M1389 262v-262h-247v262h247zM882 262v-262h-245v262h245zM377 262v-262h-247v262h247z" />
    <glyph glyph-name="perthousand" unicode="&#x2030;" horiz-adv-x="2303" 
d="M1785 366q0 -233 136 -233q136 -1 136 251q0 214 -129 215q-143 0 -143 -233zM1916 -12q-138 0 -226.5 104.5t-88.5 275.5t98.5 276.5t222.5 105.5t220.5 -98t96.5 -280t-92.5 -283t-230.5 -101zM1197 133q71 0 103.5 68.5t32.5 177.5q0 220 -128 220q-142 0 -142 -233
t134 -233zM1192 -12q-138 0 -226.5 104.5t-88.5 275.5t98.5 276.5t222.5 105.5t220.5 -98t96.5 -280t-92.5 -283t-230.5 -101zM1289 1365l-845 -1365h-151l848 1365h148zM383 765q138 0 138 234t-134 234t-134 -234t130 -234zM378 617q-140 0 -226.5 112.5t-86.5 272.5
t87.5 268t241.5 108t232.5 -113t78.5 -275t-93.5 -267.5t-233.5 -105.5z" />
    <glyph glyph-name="minute" unicode="&#x2032;" horiz-adv-x="438" 
d="M212 817h-157l158 548h224z" />
    <glyph glyph-name="second" unicode="&#x2033;" horiz-adv-x="775" 
d="M604 817h-157l158 548h224zM199 817h-157l158 548h224z" />
    <glyph glyph-name="guilsinglleft" unicode="&#x2039;" horiz-adv-x="418" 
d="M329 818l-94 -293l94 -282h-94l-160 282l160 293h94z" />
    <glyph glyph-name="guilsinglright" unicode="&#x203a;" horiz-adv-x="418" 
d="M89 818h94l160 -293l-160 -282h-94l94 282z" />
    <glyph glyph-name="exclamdbl" unicode="&#x203c;" horiz-adv-x="1024" 
d="M894 277v-277h-258v277h258zM388 277v-277h-258v277h258zM889 1365v-364l-64 -595h-122l-63 592v367h249zM384 1365v-364l-64 -595h-122l-64 592v367h250z" />
    <glyph glyph-name="radicalex" unicode="&#x203e;" horiz-adv-x="1135" 
d="M-42 1869h1219v-74h-1219v74z" />
    <glyph glyph-name="fraction1" unicode="&#x2044;" horiz-adv-x="218" 
d="M-379 0l843 1365h133l-843 -1365h-133z" />
    <glyph glyph-name="nsuperior" unicode="&#x207f;" horiz-adv-x="732" 
d="M637 546h-164v379q0 112 -87 112q-52 0 -89.5 -44.5t-37.5 -133.5v-313h-164v610h151l4 -95q58 81 101.5 94t83.5 13q78 0 140 -52t62 -178v-392z" />
    <glyph glyph-name="franc" unicode="&#x20a3;" horiz-adv-x="1040" 
d="M151 204h-122v191h122v970h863v-211h-611v-373h481v-205h-481v-181h244v-191h-244v-204h-252v204z" />
    <glyph glyph-name="afii08941" unicode="&#x20a4;" horiz-adv-x="1201" 
d="M140 446v151h161l-14 123h-147v150h128q-8 64 -8 101q0 178 114.5 296.5t297.5 118.5q271 0 393 -249l-194 -90q-47 153 -189 153q-85 0 -130 -56t-45 -145q0 -38 13 -129h267v-150h-250q4 -50 4 -123h246v-151h-263q-25 -122 -137 -219h261q203 0 267.5 49.5t73.5 143.5
l216 -108q-80 -217 -204.5 -264.5t-263.5 -47.5h-762v227q118 2 175 19.5t102.5 75.5t55.5 124h-168z" />
    <glyph glyph-name="peseta" unicode="&#x20a7;" horiz-adv-x="2095" 
d="M1782 102q110 0 110 67q0 42 -59 53l-115 20q-200 37 -200 184q0 82 64 139t187 57q208 0 257 -150l-147 -28q-18 68 -113 68t-95 -57q0 -44 81 -60l136 -27q167 -32 167 -177q0 -102 -84.5 -152.5t-200.5 -50.5q-223 0 -279 161l153 27q28 -74 138 -74zM1320 -13
q-92 0 -140 47.5t-48 155.5v301h-78v119h88l13 154l137 12v-166h127v-119h-127v-284q0 -40 13 -64.5t80 -24.5q19 0 46 1v-117q-73 -15 -111 -15zM396 752h223q114 0 174 56t60 140t-52 148.5t-204 64.5h-201v-409zM396 0h-246v1365h491q130 0 230 -37.5t170 -137.5t70 -230
q0 -187 -125.5 -303t-316.5 -116h-273v-541z" />
    <glyph glyph-name="Euro" unicode="&#x20ac;" horiz-adv-x="1201" 
d="M636 -20q-216 0 -346 148.5t-163 373.5h-113v123h101q-2 19 -2 61t2 62h-101v122h111q36 254 192.5 385t344.5 131t321 -110t166 -313l-229 -25q-48 260 -271 260q-94 0 -174 -80t-102 -248h309v-122h-320l-2 -62l2 -61h320v-123h-309q26 -170 112.5 -248t183.5 -78
t168.5 76t82.5 192l229 -24q-31 -221 -164 -330.5t-349 -109.5z" />
    <glyph glyph-name="afii61248" unicode="&#x2105;" horiz-adv-x="1876" 
d="M1437 548q-158 0 -158 -220q-1 -220 155 -219q156 -1 156 219t-153 220zM1422 -23q-154 0 -237 107.5t-83 251.5t92.5 243.5t240.5 99.5t240.5 -97.5t92.5 -253.5t-96 -253.5t-250 -97.5zM427 0l843 1365h133l-842 -1365h-134zM416 686q-148 0 -228 102t-80 252t87 249
t233 99q236 0 280 -237l-146 -19q-17 124 -126 124q-80 0 -115.5 -66t-35.5 -158q0 -206 141 -206q104 0 136 127l146 -14q-60 -253 -292 -253z" />
    <glyph glyph-name="afii61289" unicode="&#x2113;" horiz-adv-x="1201" 
d="M872 1178q0 92 -40 91q-85 0 -181 -552q101 113 161 241t60 220zM563 168q0 -68 33 -68q43 0 89 102q18 40 43 40q33 0 33 -39q0 -73 -68.5 -152.5t-152.5 -79.5q-153 0 -153 244q0 66 8 166q-63 -61 -77 -61t-25.5 14t-11.5 36t38 59q38 38 91 102q64 358 167 607
t253 249q69 0 110 -50.5t41 -133.5q0 -296 -359 -656q-59 -311 -59 -379z" />
    <glyph glyph-name="afii61352" unicode="&#x2116;" horiz-adv-x="2048" 
d="M1938 188v-188h-594v188h594zM1503 705q0 -193 131 -193t131 193t-128 193q-134 0 -134 -193zM1626 372q-144 0 -227.5 98t-83.5 238t88.5 235t232.5 95t230.5 -94.5t86.5 -240.5t-91.5 -238.5t-235.5 -92.5zM1181 0h-225l-534 872q-10 16 -30 58t-44 90v-1020h-198v1365
h272l478 -804q6 -10 87 -163v967h194v-1365z" />
    <glyph glyph-name="trademark" unicode="&#x2122;" horiz-adv-x="1591" 
d="M1512 587h-172v611l-207 -611h-95l-209 611v-611h-142v778h250l163 -467l160 467h252v-778zM401 587h-180v646h-218v132h616v-132h-218v-646z" />
    <glyph glyph-name="Ohm" unicode="&#x2126;" horiz-adv-x="1573" 
d="M135 811q0 297 177 494.5t478 197.5t475.5 -200t174.5 -500q0 -416 -344 -643l364 7v-167h-575v179q165 75 256 240.5t91 377.5t-112 377.5t-326 165.5t-330.5 -158t-116.5 -389t93 -389.5t249 -224.5v-179h-577v167l369 -7q-346 201 -346 651z" />
    <glyph glyph-name="estimated" unicode="&#x212e;" horiz-adv-x="1229" 
d="M917 605v297q-123 121 -299 121t-297 -122v-296h596zM321 531v-371q120 -121 298 -121q254 0 395 246l72 -43q-118 -170 -231.5 -223t-235.5 -53q-232 0 -380.5 158.5t-148.5 408.5t149.5 406.5t371.5 156.5t374 -142t163 -423h-827z" />
    <glyph glyph-name="oneeighth" unicode="&#x215b;" horiz-adv-x="1802" 
d="M1231 219q0 -45 49.5 -78t133.5 -33t131.5 28t47.5 70t-39.5 70.5t-190.5 72.5q-132 -48 -132 -130zM1578 611q0 51 -48 78.5t-108 27.5t-106.5 -24.5t-46.5 -74.5t54 -76t141 -52q114 44 114 121zM1098 598q0 101 86 167t232 66t231 -58.5t85 -165.5t-143 -166
q176 -73 176 -211q0 -104 -94.5 -173t-258.5 -69t-254 61.5t-90 161.5q0 133 171 194q-141 65 -141 193zM379 0l843 1365h147l-843 -1365h-147zM678 546h-617v133h232v487q-122 -99 -235 -141v160q205 66 291 197h114v-703h215v-133z" />
    <glyph glyph-name="threeeighths" unicode="&#x215c;" horiz-adv-x="1802" 
d="M1231 219q0 -45 49.5 -78t133.5 -33t131.5 28t47.5 70t-39.5 70.5t-189.5 72.5q-133 -47 -133 -130zM1578 611q0 52 -48 79t-108 27t-106.5 -24.5t-46.5 -74.5t54 -76t142 -52q113 44 113 121zM1098 598q0 101 86 167t232 66t231 -59t85 -156q0 -116 -143 -175
q176 -73 176 -211q0 -104 -94.5 -173t-258.5 -69t-253.5 61.5t-89.5 161.5q0 133 171 194q-142 65 -142 193zM406 0l843 1365h147l-843 -1365h-147zM271 903v128h86q67 0 113 27.5t46 82.5q0 107 -131 107t-175 -117l-155 26q24 99 113.5 160t213.5 61t212.5 -60.5
t88.5 -161.5q0 -132 -129 -183q156 -55 156 -195q0 -106 -91 -175t-236 -69t-236.5 67t-116.5 160l160 36q43 -136 184 -136q76 0 119.5 34.5t43.5 83.5t-38 86.5t-116 37.5h-112z" />
    <glyph glyph-name="fiveeighths" unicode="&#x215d;" horiz-adv-x="1802" 
d="M1225 219q0 -45 49.5 -78t133.5 -33t131.5 28t47.5 70t-40 70.5t-190 72.5q-132 -48 -132 -130zM1572 611q0 51 -48 78.5t-108 27.5t-106.5 -24.5t-46.5 -74.5t54 -76t141 -52q114 44 114 121zM1092 598q0 101 85.5 167t232.5 66t231.5 -59t84.5 -156q0 -117 -143 -175
q176 -73 176 -211q0 -104 -94.5 -173t-258.5 -69t-254 61.5t-90 161.5q0 133 171 194q-141 65 -141 193zM407 0l843 1365h147l-843 -1365h-147zM412 1099q124 0 211.5 -81.5t87.5 -197.5t-92 -201t-251 -85q-285 0 -346 233l162 22q42 -124 178 -124q79 0 123 45.5t44 111.5
t-44 109.5t-112 43.5q-108 0 -163 -94l-150 27l51 457h548l-15 -139h-407l-21 -206q72 79 196 79z" />
    <glyph glyph-name="seveneighths" unicode="&#x215e;" horiz-adv-x="1802" 
d="M1203 219q0 -45 49.5 -78t134.5 -33t132 28t47 70t-39.5 70.5t-190.5 72.5q-133 -48 -133 -130zM1550 611q0 51 -47 78.5t-107 27.5t-107.5 -24.5t-47.5 -74.5t54.5 -76t141.5 -52q113 44 113 121zM1071 598q0 101 84.5 167t232.5 66t232.5 -59t84.5 -156
q0 -116 -143 -175q176 -73 176 -211q0 -105 -95 -173.5t-258 -68.5t-253.5 61.5t-90.5 161.5q0 133 171 194q-141 65 -141 193zM311 0l842 1365h147l-842 -1365h-147zM690 1365v-113q-159 -191 -211 -333.5t-63 -372.5h-190q20 393 309 680h-483l15 139h623z" />
    <glyph glyph-name="arrowleft" unicode="&#x2190;" horiz-adv-x="2048" 
d="M1968 567v-101h-1595q102 -102 198 -309h-78q-223 253 -414 341v45q177 71 413 333h76q-81 -170 -195 -309h1595z" />
    <glyph glyph-name="arrowup" unicode="&#x2191;" horiz-adv-x="1024" 
d="M563 -429h-101v1474q-139 -114 -309 -195v76q262 237 333 413h46q87 -191 340 -414v-77q-207 95 -309 197v-1474z" />
    <glyph glyph-name="arrowright" unicode="&#x2192;" horiz-adv-x="2048" 
d="M79 466v101h1595q-114 139 -195 309h76q237 -262 413 -333v-45q-191 -88 -414 -341h-77q95 207 197 309h-1595z" />
    <glyph glyph-name="arrowdown" unicode="&#x2193;" horiz-adv-x="1024" 
d="M462 1339h101v-1474q102 102 309 197v-77q-253 -223 -340 -414h-46q-71 176 -333 413v76q170 -81 309 -195v1474z" />
    <glyph glyph-name="arrowboth" unicode="&#x2194;" horiz-adv-x="2048" 
d="M1968 540v-45q-181 -79 -406 -337h-80q69 172 194 311h-1305q125 -139 194 -311h-80q-224 258 -406 337v45q182 79 406 338h80q-69 -172 -194 -311h1305q-125 139 -194 311h80q225 -259 406 -338z" />
    <glyph glyph-name="arrowupdn" unicode="&#x2195;" horiz-adv-x="1024" 
d="M489 1463h45q79 -182 337 -407v-80q-171 69 -311 195v-1306q140 126 311 194v-79q-258 -225 -337 -407h-45q-79 182 -337 407v79q171 -68 311 -194v1306q-140 -126 -311 -195v80q258 225 337 407z" />
    <glyph glyph-name="arrowupdnbse" unicode="&#x21a8;" horiz-adv-x="1024" 
d="M154 -522h717v-98h-717v98zM489 1463h45q79 -182 337 -407v-80q-171 69 -311 195v-1306q140 126 311 194v-79q-258 -225 -337 -407h-45q-79 182 -337 407v79q171 -68 311 -194v1306q-140 -126 -311 -195v80q258 225 337 407z" />
    <glyph glyph-name="partialdiff" unicode="&#x2202;" horiz-adv-x="1012" 
d="M236 319q0 -104 53.5 -155.5t116.5 -51.5q144 0 279 169.5t169 514.5q-246 -12 -362 -70t-186 -180.5t-70 -226.5zM651 1491q148 0 235 -139.5t87 -425.5q0 -437 -181.5 -695.5t-429.5 -258.5q-135 0 -220.5 92t-85.5 256q0 258 197 428t605 176q-2 250 -57 344.5
t-148 94.5q-143 0 -227 -225l-135 60q64 150 163.5 221.5t196.5 71.5z" />
    <glyph glyph-name="Delta" unicode="&#x2206;" horiz-adv-x="1253" 
d="M990 82l-399 967l-440 -967h839zM1226 0h-1200l628 1387z" />
    <glyph glyph-name="product" unicode="&#x220f;" horiz-adv-x="1685" 
d="M162 1536h1362v-1962h-191v1788h-978v-1788h-193v1962z" />
    <glyph glyph-name="summation" unicode="&#x2211;" horiz-adv-x="1460" 
d="M139 1536h1237v-164h-988l607 -796l-646 -841h1037v-161h-1264v187l620 808l-603 791v176z" />
    <glyph glyph-name="minus" unicode="&#x2212;" horiz-adv-x="1201" 
d="M1107 785v-191h-1012v191h1012z" />
    <glyph glyph-name="fraction" unicode="&#x2215;" horiz-adv-x="218" 
d="M-379 0l843 1365h133l-843 -1365h-133z" />
    <glyph glyph-name="periodcentered" unicode="&#x2219;" horiz-adv-x="247" 
d="M247 651v-262h-247v262h247z" />
    <glyph glyph-name="radical" unicode="&#x221a;" horiz-adv-x="1124" 
d="M1047 1869h74l-312 -1947l-496 1021l-198 -91l-34 64l301 151l405 -823z" />
    <glyph glyph-name="infinity" unicode="&#x221e;" horiz-adv-x="1460" 
d="M398 893q-61 0 -98 -43.5t-37 -112.5t39.5 -112t97.5 -43q100 0 218 153q-122 158 -220 158zM1012 519q74 0 129.5 50.5t55.5 158.5t-51.5 165.5t-119.5 57.5t-120 -40t-150 -174q47 -76 114.5 -147t141.5 -71zM1037 1064q93 0 182 -78t89 -254t-93 -250.5t-183 -74.5
t-160 43t-185 190q-136 -172 -288 -172q-112 0 -179.5 83t-67.5 185t67.5 184t179.5 82q152 0 288 -171q117 150 187 191.5t163 41.5z" />
    <glyph glyph-name="orthogonal" unicode="&#x221f;" horiz-adv-x="2005" 
d="M362 1279h100v-1179h1181v-100h-1281v1279z" />
    <glyph glyph-name="intersection" unicode="&#x2229;" horiz-adv-x="1472" 
d="M302 0h-110v473q0 265 13 373t76 210t188 171.5t268 69.5t267.5 -70t186 -167.5t76 -206.5t14.5 -380v-473h-109v480q0 232 -12 333t-60 182.5t-149 138.5t-215 57t-215.5 -58t-148 -137t-58.5 -181.5t-12 -334.5v-480z" />
    <glyph glyph-name="integral" unicode="&#x222b;" horiz-adv-x="561" 
d="M435 1863q54 0 89.5 -34.5t35.5 -75.5t-25.5 -71t-63.5 -30t-70 28t-49 28q-40 0 -40 -53t23 -309t23 -418q0 -161 -12 -564t-77 -493.5t-151 -90.5q-49 0 -83.5 32t-34.5 82t25 78t65 28t69 -32t49 -32q39 0 39 52t-9 129q-37 316 -37 868t56 715t178 163z" />
    <glyph glyph-name="approxequal" unicode="&#x2248;" horiz-adv-x="1201" 
d="M394 659q82 1 222 -55t190 -56q96 0 158 115l133 -78q-114 -260 -320 -260q-56 0 -201 55t-187 55q-94 0 -156 -131l-129 84q67 161 137.5 216t152.5 55zM393 1054q83 0 223 -56t189 -55q97 0 159 114l133 -77q-113 -261 -319 -261q-57 0 -202 55t-187 55
q-94 0 -156 -130l-129 84q66 158 136 214.5t153 56.5z" />
    <glyph glyph-name="notequal" unicode="&#x2260;" horiz-adv-x="1201" 
d="M1044 946v-208h-322l-75 -152h398v-209h-493l-103 -206l-149 73l66 133h-209v209h304l76 152h-380v208h474l112 224l149 -74l-75 -150h227z" />
    <glyph glyph-name="equivalence" unicode="&#x2261;" horiz-adv-x="1201" 
d="M187 474h887v-209h-887v209zM187 793h887v-209h-887v209zM187 1112h887v-208h-887v208z" />
    <glyph glyph-name="lessequal" unicode="&#x2264;" horiz-adv-x="1201" 
d="M1024 241v-209h-887v209h887zM1024 1333v-217l-641 -300l641 -299v-217l-887 419v195z" />
    <glyph glyph-name="greaterequal" unicode="&#x2265;" horiz-adv-x="1201" 
d="M177 32v209h887v-209h-887zM177 300v217l642 300l-641 299l-1 217l887 -419v-196z" />
    <glyph glyph-name="house" unicode="&#x2302;" horiz-adv-x="1229" 
d="M234 81h761v519l-381 427l-380 -427v-519zM153 0v634l461 519l462 -519v-634h-923z" />
    <glyph glyph-name="revlogicalnot" unicode="&#x2310;" horiz-adv-x="1201" 
d="M389 0h-232v546h887v-208h-655v-338z" />
    <glyph glyph-name="integraltp" unicode="&#x2320;" horiz-adv-x="1237" 
d="M691 -515h-145v1811q0 219 89.5 330t202.5 111q67 0 102.5 -32.5t35.5 -74.5t-25 -68t-59 -26t-56 12t-46 49t-44 37q-40 0 -47 -36q-8 -36 -8 -142v-1971z" />
    <glyph glyph-name="integralbt" unicode="&#x2321;" horiz-adv-x="1237" 
d="M546 1737h145v-1811q0 -219 -89.5 -330t-202.5 -111q-67 0 -102.5 32.5t-35.5 74.5t25.5 68t59.5 26t56 -13q23 -13 46 -49t43 -36q40 0 48 40q7 32 7 138v1971z" />
    <glyph glyph-name="SF100000" unicode="&#x2500;" 
d="M1473 534h-1496v175h1496v-175z" />
    <glyph glyph-name="SF110000" unicode="&#x2502;" 
d="M638 -621v2485h175v-2485h-175z" />
    <glyph glyph-name="SF010000" unicode="&#x250c;" 
d="M1474 709v-175h-661v-1155h-175v1330h836z" />
    <glyph glyph-name="SF030000" unicode="&#x2510;" 
d="M637 534h-660v175h835v-1330h-175v1155z" />
    <glyph glyph-name="SF020000" unicode="&#x2514;" 
d="M638 534v1330h175v-1155h661v-175h-836z" />
    <glyph glyph-name="SF040000" unicode="&#x2518;" 
d="M812 534h-835v175h660v1155h175v-1330z" />
    <glyph glyph-name="SF080000" unicode="&#x251c;" 
d="M638 -621v2485h175v-1155h661v-175h-661v-1155h-175z" />
    <glyph glyph-name="SF090000" unicode="&#x2524;" 
d="M637 -621v1155h-660v175h660v1155h175v-2485h-175z" />
    <glyph glyph-name="SF060000" unicode="&#x252c;" 
d="M637 534h-660v175h1496v-175h-661v-1155h-175v1155z" />
    <glyph glyph-name="SF070000" unicode="&#x2534;" 
d="M1473 534h-1496v175h660v1155h175v-1155h661v-175z" />
    <glyph glyph-name="SF050000" unicode="&#x253c;" 
d="M637 534h-660v175h660v1155h175v-1155h661v-175h-661v-1155h-175v1155z" />
    <glyph glyph-name="SF430000" unicode="&#x2550;" 
d="M1473 344h-1496v175h1496v-175zM1473 724h-1496v175h1496v-175z" />
    <glyph glyph-name="SF240000" unicode="&#x2551;" 
d="M448 -621v2485h175v-2485h-175zM829 -621v2485h175v-2485h-175z" />
    <glyph glyph-name="SF510000" unicode="&#x2552;" 
d="M638 -621v1520h836v-175h-661v-205h661v-175h-661v-965h-175z" />
    <glyph glyph-name="SF520000" unicode="&#x2553;" 
d="M448 -621v1330h1027v-175h-471v-1155h-175v1155h-206v-1155h-175z" />
    <glyph glyph-name="SF390000" unicode="&#x2554;" 
d="M1004 344v-965h-175v1140h645v-175h-470zM623 -621h-175v1520h1026v-175h-851v-1345z" />
    <glyph glyph-name="SF220000" unicode="&#x2555;" 
d="M637 344h-660v175h660v205h-660v175h835v-1520h-175v965z" />
    <glyph glyph-name="SF210000" unicode="&#x2556;" 
d="M448 -621v1155h-471v175h1026v-1330h-175v1155h-206v-1155h-174z" />
    <glyph glyph-name="SF250000" unicode="&#x2557;" 
d="M447 344h-470v175h645v-1140h-175v965zM828 -621v1345h-851v175h1026v-1520h-175z" />
    <glyph glyph-name="SF500000" unicode="&#x2558;" 
d="M638 344v1520h175v-965h661v-175h-661v-205h661v-175h-836z" />
    <glyph glyph-name="SF490000" unicode="&#x2559;" 
d="M1475 534h-1027v1330h175v-1155h206v1155h175v-1155h471v-175z" />
    <glyph glyph-name="SF380000" unicode="&#x255a;" 
d="M1004 899h470v-175h-645v1140h175v-965zM623 1864v-1345h850v-175h-1025v1520h175z" />
    <glyph glyph-name="SF280000" unicode="&#x255b;" 
d="M812 344h-835v175h660v205h-660v175h660v965h175v-1520z" />
    <glyph glyph-name="SF270000" unicode="&#x255c;" 
d="M1003 534h-1026v175h470v1155h175v-1155h206v1155h175v-1330z" />
    <glyph glyph-name="SF260000" unicode="&#x255d;" 
d="M447 899v965h175v-1140h-645v175h470zM828 1864h175v-1520h-1026v175h851v1345z" />
    <glyph glyph-name="SF360000" unicode="&#x255e;" 
d="M638 -621v2485h175v-965h661v-175h-661v-205h661v-175h-661v-965h-175z" />
    <glyph glyph-name="SF370000" unicode="&#x255f;" 
d="M448 -621v2485h175v-2485h-175zM829 -621v2485h175v-1155h470v-175h-470v-1155h-175z" />
    <glyph glyph-name="SF420000" unicode="&#x2560;" 
d="M829 -621v1140h645v-175h-470v-965h-175zM829 724v1140h175v-965h470v-175h-645zM448 -621v2485h175v-2485h-175z" />
    <glyph glyph-name="SF190000" unicode="&#x2561;" 
d="M637 344h-660v175h660v205h-660v175h660v965h175v-2485h-175v965z" />
    <glyph glyph-name="SF200000" unicode="&#x2562;" 
d="M828 -621v2485h175v-2485h-175zM-23 534v175h470v1155h175v-2485h-175l1 1155h-471z" />
    <glyph glyph-name="SF230000" unicode="&#x2563;" 
d="M447 344h-470v175h645v-1140h-175v965zM622 1864v-1140h-645v175h470v965h175zM828 -621v2485h175v-2485h-175z" />
    <glyph glyph-name="SF470000" unicode="&#x2564;" 
d="M637 344h-660v175h1496v-175h-661v-965h-175v965zM1473 724h-1496v175h1496v-175z" />
    <glyph glyph-name="SF480000" unicode="&#x2565;" 
d="M447 -621v1155h-470v175h1496v-175h-470v-1155h-175v1155h-206v-1155h-175z" />
    <glyph glyph-name="SF410000" unicode="&#x2566;" 
d="M828 -621v1140h645v-175h-470v-965h-175zM447 344h-470v175h645v-1140h-175v965zM1473 724h-1496v175h1496v-175z" />
    <glyph glyph-name="SF450000" unicode="&#x2567;" 
d="M1473 344h-1496v175h1496v-175zM1473 724h-1496v175h660v965h175v-965h661v-175z" />
    <glyph glyph-name="SF460000" unicode="&#x2568;" 
d="M1473 534h-1496v175h470v1155h175v-1155h206v1155h175v-1155h470v-175z" />
    <glyph glyph-name="SF400000" unicode="&#x2569;" 
d="M1473 344h-1496v175h1496v-175zM1473 724h-645v1140h175v-965h470v-175zM622 724h-645v175h470v965h175v-1140z" />
    <glyph glyph-name="SF540000" unicode="&#x256a;" 
d="M637 344h-660v175h660v205h-660v175h660v965h175v-965h661v-175h-661v-205h661v-175h-661v-965h-175v965z" />
    <glyph glyph-name="SF530000" unicode="&#x256b;" 
d="M447 -621v1155h-470v175h470v1155h175v-1155h206v1155h175v-1155h470v-175h-470v-1155h-175v1155h-206v-1155h-175z" />
    <glyph glyph-name="SF440000" unicode="&#x256c;" 
d="M1003 344v-965h-175v1140h645v-175h-470zM447 344h-470v175h645v-1140h-175v965zM447 899v965h175v-1140h-645v175h470zM1003 899h470v-175h-645v1140h175v-965z" />
    <glyph glyph-name="upblock" unicode="&#x2580;" 
d="M1473 621h-1496v1243h1496v-1243z" />
    <glyph glyph-name="dnblock" unicode="&#x2584;" 
d="M1473 -621h-1496v1242h1496v-1242z" />
    <glyph glyph-name="block" unicode="&#x2588;" 
d="M-23 -621v2485h1496v-2485h-1496z" />
    <glyph glyph-name="lfblock" unicode="&#x258c;" 
d="M-23 -621v2485h748v-2485h-748z" />
    <glyph glyph-name="rtblock" unicode="&#x2590;" 
d="M726 -621v2485h748v-2485h-748z" />
    <glyph glyph-name="ltshade" unicode="&#x2591;" 
d="M1206 -379h121v-125h-121v125zM723 -379h121v-125h-121v125zM241 -379h121v-125h-121v125zM0 -130h121v-125h-121v125zM482 -130h121v-125h-121v125zM965 -130h121v-125h-121v125zM1206 120h121v-125h-121v125zM723 120h121v-125h-121v125zM241 120h121v-125h-121v125z
M965 369h121v-125h-121v125zM482 369h121v-125h-121v125zM0 369h121v-125h-121v125zM241 618h121v-125h-121v125zM723 618h121v-125h-121v125zM1206 618h121v-125h-121v125zM965 867h121v-125h-121v125zM482 867h121v-125h-121v125zM0 867h121v-125h-121v125zM241 1117h121
v-125h-121v125zM723 1117h121v-125h-121v125zM1206 1117h121v-125h-121v125zM0 1366h121v-125h-121v125zM482 1366h121v-125h-121v125zM965 1366h121v-125h-121v125zM1206 1615h121v-125h-121v125zM723 1615h121v-125h-121v125zM241 1615h121v-125h-121v125zM965 1864h121
v-125h-121v125zM482 1864h121v-125h-121v125zM0 1864h121v-125h-121v125z" />
    <glyph glyph-name="shade" unicode="&#x2592;" 
d="M1206 -379h121v-125h-121v125zM1086 -504h-121v124l121 1v-125zM724 -379h120v-125h-120v125zM482 -379h121v-125h-121v125zM241 -379h121v-125h-121v125zM0 -379h121v-125h-121v125zM121 -130h120v-125h-120v125zM362 -130h120v-125h-120v125zM603 -130h121v-125h-121
v125zM844 -130h121v-125h-121v125zM1086 -130h120v-125h-120v125zM1327 -130h120v-125h-120v125zM1206 119h121v-124h-121v124zM965 119h121v-124h-121v124zM724 119h120v-124h-120v124zM482 119h121v-124h-121v124zM241 119h121v-124h-121v124zM0 119h121v-124h-121v124z
M121 369h120v-125h-120v125zM362 369h120v-125h-120v125zM603 369h121v-125h-121v125zM844 369h121v-125h-121v125zM1086 369h120v-125h-120v125zM1327 369h120v-125h-120v125zM241 618h121v-125h-121v125zM1206 618h121v-125h-121v125zM965 618h121v-125h-121v125zM724 618
h120v-125h-120v125zM482 618h121v-125h-121v125zM0 618h121v-125h-121v125zM1327 867h120v-125h-120v125zM1086 867h120v-125h-120v125zM844 867h121v-125h-121v125zM603 867h121v-125h-121v125zM362 867h120v-125h-120v125zM121 867h120v-125h-120v125zM0 1116h121v-124
h-121v124zM1206 1116h121v-124h-121v124zM965 1116h121v-124h-121v124zM724 1116h120v-124h-120v124zM482 1116h121v-124h-121v124zM241 1116h121v-124h-121v124zM1327 1366h120v-125h-120v125zM1086 1366h120v-125h-120v125zM844 1366h121v-125h-121v125zM603 1366h121
v-125h-121v125zM362 1366h120v-125h-120v125zM121 1366h120v-125h-120v125zM1206 1615h121v-125h-121v125zM965 1615h121v-125h-121v125zM724 1615h120v-125h-120v125zM482 1615h121v-125h-121v125zM241 1615h121v-125h-121v125zM0 1615h121v-125h-121v125zM1327 1864h120
v-125h-120v125zM1086 1864h120v-125h-120v125zM844 1864h121v-125h-121v125zM603 1864h121v-125h-121v125zM362 1864h120v-125h-120v125zM121 1864h120v-125h-120v125z" />
    <glyph glyph-name="dkshade" unicode="&#x2593;" 
d="M1086 -379v-125h120v125h-120zM844 -379v-125h121v125h-121zM603 -379v-125h121v125h-121zM362 -379v-125h120v125h-120zM121 -379v-125h120v125h-120zM362 -255v125h-121v-125h121zM603 -255v125h-121v-125h121zM844 -255v125h-120v-125h120zM1086 -255v125h-121v-125
h121zM1327 -255v125h-121v-125h121zM1086 119v-124h120v124h-120zM844 119v-124h121v124h-121zM603 119v-124h121v124h-121zM362 119v-124h120v124h-120zM121 119v-124h120v124h-120zM362 244v125h-121v-125h121zM603 244v125h-121v-125h121zM844 244v125h-120v-125h120z
M1086 244v125h-121v-125h121zM1327 244v125h-121v-125h121zM1086 618v-125h120v125h-120zM844 618v-125h121v125h-121zM482 493v125h-120v-125h120zM603 618v-125h121v125h-121zM121 618v-125h120v125h-120zM1206 867v-125h121v125h-121zM965 867v-125h121v125h-121z
M724 867v-125h120v125h-120zM482 867v-125h121v125h-121zM362 867h-121v-125h121v125zM1086 1116v-124h120v124h-120zM844 1116v-124h121v124h-121zM603 1116v-124h121v124h-121zM362 1116v-124h120v124h-120zM121 1116v-124h120v124h-120zM362 1366h-121v-125h121v125z
M603 1366h-121v-125h121v125zM844 1366h-120v-125h120v125zM1086 1366h-121v-125h121v125zM1327 1366h-121v-125h121v125zM1086 1615v-125h120v125h-120zM844 1615v-125h121v125h-121zM603 1615v-125h121v125h-121zM362 1615v-125h120v125h-120zM121 1615v-125h120v125h-120
zM1447 1490v-374h-120v-124h120v-374h-120v-125h120v-374h-120v-124h120v-374h-120v-125h120v-124h-1447v373h121v125h-121v374h121v125h-121v373h121v125h-121v374h121v125h-121v373h121v125h120v-125h121v125h120v-125h121v125h121v-125h120v125h121v-125h121v125h120
v-125h121v125h120v-249h-120v-125h120z" />
    <glyph glyph-name="filledbox" unicode="&#x25a0;" horiz-adv-x="1237" 
d="M146 944h944v-944h-944v944z" />
    <glyph glyph-name="H22073" unicode="&#x25a1;" horiz-adv-x="1237" 
d="M222 868v-792h792v792h-792zM146 944h944v-944h-944v944z" />
    <glyph glyph-name="H18543" unicode="&#x25aa;" horiz-adv-x="727" 
d="M635 948v-543h-543v543h543z" />
    <glyph glyph-name="H18551" unicode="&#x25ab;" horiz-adv-x="727" 
d="M559 872h-391v-391h391v391zM635 948v-543h-543v543h543z" />
    <glyph glyph-name="filledrect" unicode="&#x25ac;" horiz-adv-x="2048" 
d="M0 703h2047v-386h-2047v386z" />
    <glyph glyph-name="triagup" unicode="&#x25b2;" horiz-adv-x="2027" 
d="M304 0l710 1419l710 -1419h-1420z" />
    <glyph glyph-name="triagrt" unicode="&#x25ba;" horiz-adv-x="2027" 
d="M288 1417l1451 -724l-1451 -724v1448z" />
    <glyph glyph-name="triagdn" unicode="&#x25bc;" horiz-adv-x="2027" 
d="M1724 1388l-710 -1419l-710 1419h1420z" />
    <glyph glyph-name="triaglf" unicode="&#x25c4;" horiz-adv-x="2027" 
d="M1739 1417v-1448l-1451 724z" />
    <glyph glyph-name="lozenge" unicode="&#x25ca;" horiz-adv-x="1012" 
d="M495 1325l-340 -616l340 -615l359 615zM549 1422l418 -713l-418 -709h-111l-391 709l391 713h111z" />
    <glyph glyph-name="circle" unicode="&#x25cb;" horiz-adv-x="1237" 
d="M618 942q-92 0 -179 -47t-136 -135t-49 -182q0 -151 107 -258t258 -107t257.5 107t106.5 258q0 94 -49 182t-136.5 135t-179.5 47zM618 1018q110 0 216.5 -57t165.5 -163t59 -220q0 -183 -129.5 -312t-311.5 -129t-311 129t-129 312q0 115 59 220.5t165 162.5t216 57z
" />
    <glyph glyph-name="H18533" unicode="&#x25cf;" horiz-adv-x="1237" 
d="M1059 578q0 -182 -129.5 -311.5t-311.5 -129.5t-311 129.5t-129 311.5t129 311t311 129t311.5 -129t129.5 -311z" />
    <glyph glyph-name="invbullet" unicode="&#x25d8;" horiz-adv-x="1237" 
d="M618 692q-84 0 -143 -59t-59 -143t59 -143t143 -59t143 59t59 143t-59 143t-143 59zM128 0v980h980v-980h-980z" />
    <glyph glyph-name="invcircle" unicode="&#x25d9;" horiz-adv-x="1237" 
d="M620 942q92 0 179 -47t136 -134.5t49 -183.5q0 -151 -106 -257.5t-258 -106.5t-258.5 106.5t-106.5 257.5q0 96 49 183.5t136.5 134.5t179.5 47zM620 1018q-112 0 -217.5 -57t-164.5 -163t-59 -221q0 -182 129.5 -311t311.5 -129t311 129t129 311q0 115 -59 221t-164 163
t-217 57zM42 0v1155h1155v-1155h-1155z" />
    <glyph glyph-name="openbullet" unicode="&#x25e6;" horiz-adv-x="727" 
d="M574 676q0 86 -62 148t-148 62t-148 -62t-62 -148t61.5 -148t148.5 -62t148.5 62t61.5 148zM649 676q0 -118 -83.5 -202t-201.5 -84t-202 84t-84 202t84 202t202 84t201.5 -84t83.5 -202z" />
    <glyph glyph-name="smileface" unicode="&#x263a;" horiz-adv-x="2048" 
d="M1024 205q153 0 231 144l63 -36q-103 -195 -294 -195t-294 195l62 36q79 -144 232 -144zM1268 731q34 0 57.5 -23.5t23.5 -57.5t-23.5 -57.5t-57.5 -23.5t-57.5 23.5t-23.5 57.5t23.5 57.5t57.5 23.5zM780 731q34 0 57 -23.5t23 -57.5t-23 -57.5t-57 -23.5t-58 23.5
t-24 57.5t24 57.5t58 23.5zM1024 1063q-137 0 -267.5 -70.5t-204 -201.5t-73.5 -273t72 -271t202 -201t271 -72t271 72t202 201t72 271t-73.5 273t-204 201.5t-267.5 70.5zM1024 1156q160 0 313 -82.5t239 -236t86 -319.5t-84.5 -317t-236 -235.5t-317.5 -84.5t-317.5 84.5
t-236 235.5t-84.5 317t85.5 319.5t239 236t313.5 82.5z" />
    <glyph glyph-name="invsmileface" unicode="&#x263b;" horiz-adv-x="2048" 
d="M1024 205q-153 0 -232 144l-62 -36q103 -195 294 -195t294 195l-63 36q-78 -144 -231 -144zM1268 731q-34 0 -57.5 -23.5t-23.5 -57.5t23.5 -57.5t57.5 -23.5t57.5 23.5t23.5 57.5t-23.5 57.5t-57.5 23.5zM780 731q-34 0 -58 -23.5t-24 -57.5t24 -57.5t58 -23.5t57 23.5
t23 57.5t-23 57.5t-57 23.5zM1024 1156q160 0 313 -82.5t239 -236t86 -319.5t-84.5 -317t-236 -235.5t-317.5 -84.5t-317.5 84.5t-236 235.5t-84.5 317t85.5 319.5t239 236t313.5 82.5z" />
    <glyph glyph-name="sun" unicode="&#x263c;" horiz-adv-x="1877" 
d="M937 1211q-129 0 -252 -66t-191.5 -189.5t-68.5 -256.5t67.5 -255t189.5 -190t255 -68t255 68t190 190t68 255t-69 256.5t-192 189.5t-252 66zM902 1621h76v-337q102 -7 181.5 -38.5t167.5 -102.5l290 284l52 -53l-286 -286q138 -180 144 -354h335v-69h-335
q-19 -193 -143 -351l285 -291l-57 -50l-283 282q-98 -72 -171 -100.5t-180 -40.5v-337h-76v337q-112 15 -188.5 46t-156.5 92l-294 -278l-51 51l285 286q-66 84 -100 166t-45 188h-336v69h336q9 106 42 185.5t102 163.5l-284 287l48 57l292 -282q101 70 179.5 100.5
t170.5 38.5v337z" />
    <glyph glyph-name="female" unicode="&#x2640;" horiz-adv-x="1536" 
d="M768 1451q-118 0 -231 -60.5t-176 -173.5t-63 -235q0 -195 138 -332.5t332 -137.5t331.5 137.5t137.5 332.5q0 122 -63 235t-175.5 173.5t-230.5 60.5zM796 59h459v-59h-459v-439h-59v439h-460v59h460v402q-103 0 -225.5 65.5t-195 191t-72.5 263.5t69.5 263t194 194
t260.5 69t260.5 -69.5t193.5 -194t69 -260.5q0 -209 -143.5 -360.5t-351.5 -161.5v-402z" />
    <glyph glyph-name="male" unicode="&#x2642;" horiz-adv-x="1536" 
d="M634 731q-118 0 -230.5 -60.5t-175.5 -173.5t-63 -235q0 -195 137.5 -332.5t331.5 -137.5t332 137.5t138 332.5q0 122 -63 235t-176 173.5t-231 60.5zM1158 266q0 -140 -69 -264.5t-194 -194t-261 -69.5t-260.5 69.5t-193.5 194t-69 260.5q0 217 153.5 370t372.5 153
q78 0 166 -27l360 771l-537 -265l-24 53l614 303l36 -16l163 -666l-57 -15l-142 581l-358 -768q148 -75 224 -202.5t76 -267.5z" />
    <glyph glyph-name="spade" unicode="&#x2660;" horiz-adv-x="1344" 
d="M406 275q-90 0 -155 64.5t-65 146.5t38 153t140 154t163 151t94.5 133.5t51.5 153.5q26 -108 80 -193t192.5 -210.5t175.5 -193t37 -149.5t-64 -146t-154 -64q-157 0 -255 190q1 -147 58 -279t319 -149l7 -37h-792l7 37q184 0 285.5 107.5t97.5 320.5q-90 -190 -261 -190
z" />
    <glyph glyph-name="club" unicode="&#x2663;" horiz-adv-x="1344" 
d="M660 511q-118 -238 -340 -238q-104 0 -184.5 81t-80.5 198t74 196.5t165 81.5q63 -2 166 -53q-42 69 -54.5 105t-12.5 77q0 115 79 193.5t197 78.5t198.5 -78.5t80.5 -178.5t-69 -197q84 41 106 47t56 6q100 0 173.5 -78.5t73.5 -196.5t-80.5 -199.5t-196.5 -82.5
q-138 7 -242 113q-35 37 -87 125q7 -287 170 -395q77 -51 238 -82l8 -34h-848l8 34q165 35 219 69q81 51 132.5 151t51.5 210q0 16 -1 47z" />
    <glyph glyph-name="heart" unicode="&#x2665;" horiz-adv-x="1344" 
d="M958 1231q108 0 183.5 -74.5t75.5 -170.5t-43.5 -193t-189.5 -281t-212 -302q-67 -119 -98 -234q-31 118 -88.5 221.5t-200.5 292.5q-143 190 -180 246q-78 119 -78 231q0 113 74 188t180 76q210 -2 293 -252q32 112 104 182t180 70z" />
    <glyph glyph-name="diamond" unicode="&#x2666;" horiz-adv-x="1344" 
d="M671 -24q-93 180 -458 628q101 114 239 300t219 330q88 -154 228 -340t232 -290q-74 -78 -226 -281t-234 -347z" />
    <glyph glyph-name="musicalnote" unicode="&#x266a;" horiz-adv-x="1024" 
d="M486 1363h38q172 0 239 -17q67 -16 119 -66q104 -99 105 -305v-103h-99v43q0 138 -113 188q-73 32 -162 32h-28v-835q0 -121 -32 -188.5t-110.5 -108t-178.5 -40.5t-163.5 61.5t-63.5 163.5t76 174t199 72q78 0 174 -46v975z" />
    <glyph glyph-name="musicalnotedbl" unicode="&#x266b;" horiz-adv-x="1536" 
d="M1330 411q0 -124 -31.5 -187t-107 -104t-177.5 -41t-167 62.5t-65 162.5t77 172t199 72q40 0 70.5 -7t99.5 -36v724l-595 -185v-836q0 -121 -32 -188.5t-110.5 -107.5t-178.5 -40t-163.5 61.5t-63.5 163.5t76 173.5t199 71.5q78 0 174 -46v975l796 248v-1108z" />
    <glyph glyph-name="fi1" unicode="&#xf001;" horiz-adv-x="1105" 
d="M969 1010v-1010h-235v1010h235zM969 1365v-240h-235v240h235zM407 0h-236v833h-150v177h150q1 152 40 225t112 112t145 39t161 -10v-181q-21 1 -77 1t-90 -18t-45 -51q-10 -32 -10 -117h222v-177h-222v-833z" />
    <glyph glyph-name="fl1" unicode="&#xf002;" horiz-adv-x="1106" 
d="M970 1365v-1365h-235v1365h235zM409 0h-236v833h-152v177h152q2 132 29 206q26 74 102 122t192 48q55 0 134 -10v-182q-54 2 -59 2q-75 0 -119 -28t-44 -115l1 -43h221v-177h-221v-833z" />
    <glyph glyph-name="foursuperior" unicode="&#xf003;" horiz-adv-x="792" 
d="M470 856v186q0 62 9 169l-241 -355h232zM631 546h-172v183h-382v115l386 538h168v-515h129v-138h-129v-183z" />
    <glyph glyph-name="commaaccent" unicode="&#xf004;" horiz-adv-x="1024" 
d="M723 1365l-176 -397h-91l62 397h205z" />
    <glyph glyph-name="undercommaaccent" unicode="&#xf005;" horiz-adv-x="1024" 
d="M632 -109l-176 -370h-91l61 370h206z" />
    <glyph glyph-name="pi1" unicode="&#xf006;" horiz-adv-x="1138" 
d="M167 0v833h-122v177h1048v-177h-123v-833h-228v833h-347v-833h-228z" />
    <glyph glyph-name="fi" unicode="&#xfb01;" horiz-adv-x="1105" 
d="M969 1010v-1010h-235v1010h235zM969 1365v-240h-235v240h235zM407 0h-236v833h-150v177h150q1 152 40 225t112 112t145 39t161 -10v-181q-21 1 -77 1t-90.5 -18.5t-44.5 -50.5t-10 -117h222v-177h-222v-833z" />
    <glyph glyph-name="fl" unicode="&#xfb02;" horiz-adv-x="1106" 
d="M970 1365v-1365h-235v1365h235zM409 0h-236v833h-152v177h152q2 131 29 205.5t102.5 122.5t191.5 48q55 0 134 -10v-182q-54 2 -59 2q-76 0 -119.5 -28t-43.5 -115l1 -43h221v-177h-221v-833z" />
    </font>
</defs>
</svg>
