<?xml version="1.0" standalone="no"?>
<!DOCTYPE svg PUBLIC "-//W3C//DTD SVG 1.1//EN" "http://www.w3.org/Graphics/SVG/1.1/DTD/svg11.dtd" >
<svg xmlns="http://www.w3.org/2000/svg">
<metadata>
Created by FontPrep 20130207 at Wed Oct  8 15:53:19 2014
 By Stephanie Siaw
 ITC Franklin Gothic is a trademark of The International Typeface Corporation which may be registered in certain jurisdictions. Portions copyright Microsoft Corporation.  All rights reserved.
</metadata>
<defs>
<font id="150a8a6763a4de10c61048c60f7196f6" horiz-adv-x='1024' >
  <font-face 
    font-family="FranklinGothic-MediumItalic"
    font-weight="400"
    font-style="italic"
    font-stretch="normal"
    units-per-em="2048"
    panose-1="2 11 6 3 2 1 2 9 2 4"
    ascent="1638"
    descent="-410"
    x-height="1017"
    cap-height="1365"
    bbox="-327 -628 2144 1948"
    underline-thickness="102"
    underline-position="-103"
    slope="-9.5"
    unicode-range="U+0020-FB02"
  />
<missing-glyph horiz-adv-x="2048" 
d="M384 128h1280v1280h-1280v-1280zM256 0v1536h1536v-1536h-1536z" />
    <glyph glyph-name=".notdef" horiz-adv-x="2048" 
d="M384 128h1280v1280h-1280v-1280zM256 0v1536h1536v-1536h-1536z" />
    <glyph glyph-name=".null" horiz-adv-x="0" 
 />
    <glyph glyph-name="nonmarkingreturn" horiz-adv-x="512" 
 />
    <glyph glyph-name="space" unicode=" " horiz-adv-x="512" 
 />
    <glyph glyph-name="exclam" unicode="!" horiz-adv-x="505" 
d="M291 0h-246l42 253h246zM276 380h-104l34 985h290z" />
    <glyph glyph-name="quotedbl" unicode="&#x22;" horiz-adv-x="768" 
d="M680 823h-150l57 542h217zM343 823h-150l57 542h217z" />
    <glyph glyph-name="numbersign" unicode="#" horiz-adv-x="1201" 
d="M756 801h-194l-47 -209h196zM1186 994l-42 -193h-200l-46 -209h200l-43 -193h-201l-89 -399h-185l89 399h-197l-89 -399h-189l90 401h-205l42 191h209l46 209h-207l42 193h208l83 371h185l-82 -371h194l84 371h185l-83 -371h201z" />
    <glyph glyph-name="dollar" unicode="$" horiz-adv-x="1201" 
d="M621 194q99 0 163.5 57.5t64.5 140.5q0 153 -194 189l-64 -386q20 -1 30 -1zM397 1003q0 -124 169 -167l56 339q-114 0 -169.5 -51.5t-55.5 -120.5zM193 974q0 164 119.5 271t296.5 107q18 0 43 -2l24 145h132l-27 -163q246 -47 329 -267l-185 -66q-56 138 -173 161
l-59 -352q143 -47 202 -80.5t110 -117.5t51 -181q0 -172 -128 -290t-322 -118q-19 0 -44 3l-29 -177h-133l32 192q-296 62 -379 339l189 67q49 -195 220 -231l67 404q-336 87 -336 356z" />
    <glyph glyph-name="percent" unicode="%" horiz-adv-x="1532" 
d="M1004 286q0 -167 116 -167q77 0 116.5 104t39.5 212q0 165 -114 165q-86 0 -122 -105.5t-36 -208.5zM834 322q0 163 100 291t227 128t207 -94.5t80 -251.5t-96 -287t-230 -130t-211 90.5t-77 253.5zM373 0h-153l998 1365h150zM316 944q0 -102 33 -137.5t77 -35.5t78 28.5
t59 112t25 180.5q0 160 -111 160q-82 0 -121.5 -103t-39.5 -205zM145 970q0 154 92.5 288.5t244.5 134.5q115 0 196.5 -86.5t81.5 -242.5t-93 -294t-249 -138q-114 0 -193.5 92t-79.5 246z" />
    <glyph glyph-name="ampersand" unicode="&#x26;" horiz-adv-x="1419" 
d="M289 384q0 -94 71.5 -163.5t198.5 -69.5t272 106l-285 405q-257 -94 -257 -278zM867 1081q0 57 -41.5 93.5t-107.5 36.5t-103.5 -44.5t-37.5 -97.5q0 -84 85 -185l52 23q153 69 153 174zM1223 -39q-102 0 -156.5 30t-124.5 116q-171 -155 -400 -155t-361 122.5
t-132 303.5q0 310 396 433q-84 130 -84 260t94.5 232t255.5 102t260 -90.5t99 -225.5q0 -245 -323 -348l243 -342q186 210 249 434l187 -52q-110 -330 -325 -524q57 -96 175 -96q16 0 46 1l-33 -197q-40 -4 -66 -4z" />
    <glyph glyph-name="quotesingle" unicode="'" horiz-adv-x="431" 
d="M343 823h-150l57 542h217z" />
    <glyph glyph-name="parenleft" unicode="(" horiz-adv-x="601" 
d="M62 376q0 293 143.5 558t328.5 431h154q-208 -233 -324.5 -514.5t-116.5 -581.5t153 -624h-127q-211 366 -211 731z" />
    <glyph glyph-name="parenright" unicode=")" horiz-adv-x="601" 
d="M540 633q0 -296 -146.5 -562t-327.5 -426h-154q205 228 324 509.5t119 582.5t-155 628h127q213 -364 213 -732z" />
    <glyph glyph-name="asterisk" unicode="*" horiz-adv-x="1201" 
d="M665 1373l158 -27l-72 -341l343 66l24 -159l-347 -37l168 -305l-144 -72l-142 318l-238 -254l-113 114l259 234l-316 148l74 143l303 -174z" />
    <glyph glyph-name="plus" unicode="+" horiz-adv-x="1201" 
d="M1137 785v-191h-411v-425h-190v425h-411v191h411v426h190v-426h411z" />
    <glyph glyph-name="comma" unicode="," horiz-adv-x="493" 
d="M72 -295h-87l170 295h-113l42 249h239l-38 -229z" />
    <glyph glyph-name="hyphen" unicode="-" horiz-adv-x="493" 
d="M476 414h-490l31 183h490z" />
    <glyph glyph-name="period" unicode="." horiz-adv-x="493" 
d="M281 0h-239l42 250h239z" />
    <glyph glyph-name="slash" unicode="/" horiz-adv-x="890" 
d="M-93 -355h-150l1062 1720h154z" />
    <glyph glyph-name="zero" unicode="0" horiz-adv-x="1201" 
d="M568 149q191 0 278.5 257t87.5 448t-65 275.5t-179 84.5q-180 0 -269 -250.5t-89 -481.5q0 -158 62.5 -245.5t173.5 -87.5zM566 -38q-237 0 -354 177t-117 421q0 306 163 573.5t452 267.5q191 0 324 -151t133 -456q0 -134 -52 -328t-197 -349t-352 -155z" />
    <glyph glyph-name="one" unicode="1" horiz-adv-x="1201" 
d="M272 951q-12 0 -33 1l35 209q359 31 511 254h158l-201 -1202h402l-36 -213h-1028l36 213h396l145 869q-57 -56 -175.5 -93.5t-209.5 -37.5z" />
    <glyph glyph-name="two" unicode="2" horiz-adv-x="1201" 
d="M890 983q0 99 -62 158.5t-162 59.5t-182 -76t-114 -212l-212 93q71 197 209.5 302t324.5 105t317.5 -120t131.5 -284t-80 -287t-327.5 -269.5t-455.5 -234.5h781l-37 -218h-1012l32 249q208 115 445.5 272.5t320 260t82.5 201.5z" />
    <glyph glyph-name="three" unicode="3" horiz-adv-x="1201" 
d="M552 165q118 0 195.5 67.5t77.5 158.5t-43 142.5t-97 60t-247 8.5l32 194q33 -2 59 -2q201 0 281 65t80 153t-64 138t-156 50q-203 0 -300 -201l-207 95q182 304 513 304q201 0 329.5 -103.5t128.5 -257.5q0 -121 -82 -212t-222 -115q119 -32 179 -120t60 -196
q0 -170 -137.5 -298.5t-388.5 -128.5q-205 0 -336 104.5t-170 268.5l217 56q18 -102 99 -166.5t199 -64.5z" />
    <glyph glyph-name="four" unicode="4" horiz-adv-x="1201" 
d="M385 515h306l100 577q7 43 14 55q-57 -85 -102 -139l-413 -498q55 5 95 5zM833 0h-235l52 309h-595l35 220l729 881h250l-150 -895h212l-35 -206h-212z" />
    <glyph glyph-name="five" unicode="5" horiz-adv-x="1201" 
d="M564 160q107 0 194 86t87 206t-70 189.5t-169 69.5q-154 0 -251 -149l-193 85l193 721h803l-53 -210h-608l-108 -389q121 149 297 149t295 -129t119 -304q0 -221 -158.5 -371.5t-379.5 -150.5q-173 0 -308 92t-178 247l214 58q18 -85 92.5 -142.5t181.5 -57.5z" />
    <glyph glyph-name="six" unicode="6" horiz-adv-x="1201" 
d="M604 149q114 0 193.5 80.5t79.5 198.5t-79 188.5t-184 70.5t-181 -80.5t-76 -184.5t66.5 -188.5t180.5 -84.5zM730 1214q-162 0 -258 -170.5t-115 -358.5q114 199 348 199q165 0 285.5 -126t120.5 -318t-139.5 -334t-357.5 -142t-360.5 158t-142.5 448t167 560.5
t461 270.5q191 0 306.5 -100.5t144.5 -258.5l-222 -37q-41 209 -238 209z" />
    <glyph glyph-name="seven" unicode="7" horiz-adv-x="1201" 
d="M561 0h-279q2 6 22 94q51 227 126 388.5t213 338.5t312 327h-763l66 217h938l-32 -192q-51 -32 -306 -359t-297 -814z" />
    <glyph glyph-name="eight" unicode="8" horiz-adv-x="1201" 
d="M284 345q0 -87 74 -141t214 -54t215 64t75 132t-52.5 126.5t-249.5 128.5q-276 -80 -276 -256zM946 1042q0 77 -66 129t-187 52t-187 -53.5t-66 -131.5t69 -131t215 -100q78 27 150 92.5t72 142.5zM189 992q0 157 137 282t359 125t349 -93t127 -242q0 -232 -288 -332
q111 -46 173 -134t62 -188q0 -183 -150.5 -312.5t-400.5 -129.5t-376 99.5t-126 250.5q0 121 78.5 224.5t257.5 142.5q-202 109 -202 307z" />
    <glyph glyph-name="nine" unicode="9" horiz-adv-x="1201" 
d="M634 680q108 0 184.5 85.5t76.5 194.5t-71.5 181.5t-178.5 72.5t-184 -84t-77 -195t71 -183t179 -72zM514 154q160 0 260.5 156t130.5 397q-116 -221 -348 -221q-173 0 -288 118.5t-115 314.5t139 339.5t353 143.5t356.5 -151t142.5 -451t-173.5 -566.5t-466.5 -266.5
q-166 0 -279.5 82.5t-150.5 195.5l206 68q73 -159 233 -159z" />
    <glyph glyph-name="colon" unicode=":" horiz-adv-x="493" 
d="M281 0h-239l42 250h239zM388 638h-239l42 249h238z" />
    <glyph glyph-name="semicolon" unicode=";" horiz-adv-x="493" 
d="M72 -295h-87l170 295h-113l42 249h239l-38 -229zM388 638h-239l42 249h239z" />
    <glyph glyph-name="semicolon" unicode="&#x37e;" horiz-adv-x="493" 
d="M72 -295h-87l170 295h-113l42 249h239l-38 -229zM388 638h-239l42 249h239z" />
    <glyph glyph-name="less" unicode="&#x3c;" horiz-adv-x="1201" 
d="M1074 1221v-230l-641 -310l640 -310l1 -229l-887 442v196z" />
    <glyph glyph-name="equal" unicode="=" horiz-adv-x="1201" 
d="M1136 625v-191h-1012v191h1012zM1136 924v-191h-1012v191h1012z" />
    <glyph glyph-name="greater" unicode="&#x3e;" horiz-adv-x="1201" 
d="M187 142v230l642 310l-641 311l-1 228l887 -442v-196z" />
    <glyph glyph-name="question" unicode="?" horiz-adv-x="991" 
d="M528 0h-245l42 254h246zM772 1014q0 79 -53.5 130t-140.5 51t-156.5 -68.5t-97.5 -183.5l-203 79q65 178 191.5 276.5t299.5 98.5t287 -108.5t114 -269.5q0 -94 -53 -198t-233 -195q-111 -56 -139.5 -108t-32.5 -137h-189q24 183 59 241t173 149q174 115 174 243z" />
    <glyph glyph-name="at" unicode="@" horiz-adv-x="1502" 
d="M961 705q0 189 -174 189q-82 0 -130 -70t-48 -176t41 -159.5t101 -53.5q86 0 148 86t62 184zM1081 477q0 -62 70 -62t139.5 106.5t69.5 251.5q0 220 -157 355t-391 135t-402.5 -168.5t-168.5 -408.5t157 -407t433 -167q216 0 436 118l53 -136q-237 -125 -486 -125
q-370 0 -563.5 215t-193.5 506t219.5 499t517.5 208t492.5 -175t194.5 -438q0 -201 -115 -355t-274 -154q-57 0 -107.5 28t-70.5 76q-87 -108 -211 -108t-208 103.5t-84 273.5t94.5 291t242.5 121t216 -89l11 70h172l-76 -466q-10 -62 -10 -98z" />
    <glyph glyph-name="A" unicode="A" horiz-adv-x="1234" 
d="M798 520l-107 606l-281 -606h388zM1150 0h-273l-56 330h-495l-152 -330h-231l654 1365h303z" />
    <glyph glyph-name="B" unicode="B" horiz-adv-x="1251" 
d="M622 201q110 0 163 18.5t88 69.5t35 123t-36.5 120.5t-83 64t-127.5 15.5h-248l-69 -411h278zM687 800q161 0 213.5 63.5t52.5 133.5q0 179 -230 179h-216l-63 -376h243zM772 1365q129 0 212.5 -26t148.5 -110.5t65 -202.5q0 -243 -256 -324q213 -94 213 -309
q0 -141 -98.5 -267t-383.5 -126h-607l228 1365h478z" />
    <glyph glyph-name="C" unicode="C" horiz-adv-x="1211" 
d="M604 -36q-222 0 -361.5 160.5t-139.5 436.5q0 345 179 592.5t460 247.5q219 0 347 -127t146 -352l-222 -40q-30 314 -276 314q-199 0 -286.5 -236t-87.5 -426t73.5 -273.5t183.5 -83.5t195 81.5t130 198.5l200 -83q-175 -410 -541 -410z" />
    <glyph glyph-name="D" unicode="D" horiz-adv-x="1310" 
d="M567 206q109 0 174.5 28.5t126 97.5t97 198.5t36.5 253.5t-37.5 214t-110 127.5t-196.5 37.5h-147l-161 -957h218zM694 1365q139 0 224 -25t164 -96.5t128.5 -196.5t49.5 -302t-71.5 -344t-174 -257t-199.5 -117t-278 -27h-472l228 1365h401z" />
    <glyph glyph-name="E" unicode="E" horiz-adv-x="1099" 
d="M952 0h-887l228 1365h863l-36 -214h-618l-59 -354h512l-34 -202h-512l-64 -381h643z" />
    <glyph glyph-name="F" unicode="F" horiz-adv-x="1017" 
d="M315 0h-250l228 1365h840l-36 -214h-589l-62 -369h490l-34 -203h-490z" />
    <glyph glyph-name="G" unicode="G" horiz-adv-x="1325" 
d="M592 -25q-219 0 -354 151.5t-135 437.5q0 350 183 595t482 245q393 0 498 -404l-216 -54q-69 247 -287 247q-182 0 -289 -193.5t-107 -413.5t77.5 -313t208.5 -93q233 0 313 321h-297l34 206h526l-118 -707h-106l-41 184q-111 -209 -372 -209z" />
    <glyph glyph-name="H" unicode="H" horiz-adv-x="1323" 
d="M1088 0h-245l99 591h-534l-99 -591h-244l228 1365h245l-94 -559h534l94 559h244z" />
    <glyph glyph-name="I" unicode="I" horiz-adv-x="553" 
d="M318 0h-253l228 1365h253z" />
    <glyph glyph-name="J" unicode="J" horiz-adv-x="767" 
d="M90 193q155 0 207 60t77 209l151 903h250l-145 -863q-33 -200 -77.5 -299.5t-149 -163.5t-278.5 -64q-93 0 -210 22l39 204q74 -8 136 -8z" />
    <glyph glyph-name="K" unicode="K" horiz-adv-x="1264" 
d="M1145 0h-258l-203 685l-318 -348l-57 -337h-244l228 1365h245l-100 -595q-3 -17 -31 -144q36 56 77 101l576 638h262l-447 -487z" />
    <glyph glyph-name="L" unicode="L" horiz-adv-x="1000" 
d="M884 0h-819l228 1365h260l-193 -1151h560z" />
    <glyph glyph-name="M" unicode="M" horiz-adv-x="1633" 
d="M1399 0h-245l208 1243l-582 -1243h-133l-184 1232l-206 -1232h-191l228 1365h375l141 -917l417 917h400z" />
    <glyph glyph-name="N" unicode="N" horiz-adv-x="1330" 
d="M1094 0h-195l-466 1026l-171 -1026h-197l228 1365h253l425 -937l157 937h195z" />
    <glyph glyph-name="O" unicode="O" horiz-adv-x="1324" 
d="M363 543q0 -205 79 -290t192 -85q198 0 291 219t93 454q0 358 -282 358q-188 0 -280.5 -225.5t-92.5 -430.5zM104 598q0 296 176 551t471 255q246 0 387.5 -165t141.5 -470t-179 -555.5t-476 -250.5q-217 0 -369 169.5t-152 465.5z" />
    <glyph glyph-name="P" unicode="P" horiz-adv-x="1223" 
d="M688 748q128 0 179 16.5t90 72t39 131.5t-35 124t-83 61t-172 13h-191l-69 -418h242zM659 1365q178 0 260 -7.5t160 -53.5t126 -133t48 -211t-77.5 -233.5t-181 -144.5t-253.5 -35h-329l-92 -547h-255l228 1365h366z" />
    <glyph glyph-name="Q" unicode="Q" horiz-adv-x="1312" 
d="M362 521q0 -165 67 -256.5t179 -91.5q205 0 303 208t98 435q0 384 -269 384q-180 0 -279 -217.5t-99 -461.5zM932 -288q-108 0 -168 30t-88 80t-28 150q-26 -4 -46 -4q-234 0 -366.5 167.5t-132.5 458.5t173 548t472 257q244 0 380 -162.5t136 -439.5t-116.5 -487.5
t-311.5 -289.5q1 -103 170 -103q59 0 113 11l-22 -207q-57 -9 -165 -9z" />
    <glyph glyph-name="R" unicode="R" horiz-adv-x="1309" 
d="M775 759q156 0 205.5 69.5t49.5 141.5t-34.5 118.5t-81.5 62t-141 15.5h-269l-68 -407h339zM807 1365q154 0 244 -28.5t161.5 -125.5t71.5 -227t-79 -244t-244 -151l167 -589h-261l-145 560h-319l-94 -560h-244l228 1365h514z" />
    <glyph glyph-name="S" unicode="S" horiz-adv-x="1132" 
d="M631 1193q-114 0 -177.5 -53.5t-63.5 -123.5t43 -108.5t142 -66.5l187 -55q81 -23 154 -73t109 -125t36 -158q0 -186 -138.5 -322.5t-404.5 -136.5q-412 0 -534 340l223 79q81 -214 326 -214q140 0 208 64.5t68 151.5t-64.5 117t-204.5 70t-220.5 82t-131 122t-50.5 190
q0 187 135 306t368 119q344 0 474 -292l-224 -83q-72 170 -260 170z" />
    <glyph glyph-name="T" unicode="T" horiz-adv-x="945" 
d="M1053 1151h-347l-193 -1151h-251l193 1151h-347l36 214h945z" />
    <glyph glyph-name="U" unicode="U" horiz-adv-x="1239" 
d="M578 -31q-243 0 -346 127.5t-103 285.5q0 79 19 193l132 790h252l-135 -803q-22 -130 -22 -174q0 -110 71 -159t158 -49t149.5 32t97 98t62.5 233l137 822h196l-148 -882q-29 -174 -73.5 -269t-163 -170t-283.5 -75z" />
    <glyph glyph-name="V" unicode="V" horiz-adv-x="1113" 
d="M633 0h-273l-229 1365h257l173 -1079l473 1079h218z" />
    <glyph glyph-name="W" unicode="W" horiz-adv-x="1782" 
d="M1332 -10h-246l-120 1028l-421 -1028h-237l-160 1375h264l91 -1031l419 1031h243l109 -1031l415 1031h216z" />
    <glyph glyph-name="X" unicode="X" horiz-adv-x="1131" 
d="M1046 0h-269l-218 522l-394 -522h-250l548 709l-285 656h271l191 -456l342 456h245l-496 -636z" />
    <glyph glyph-name="Y" unicode="Y" horiz-adv-x="1061" 
d="M593 0h-257l96 575l-347 790h281l242 -590l388 590h236l-545 -802z" />
    <glyph glyph-name="Z" unicode="Z" horiz-adv-x="1077" 
d="M958 0h-1002l34 201l822 950h-643l36 214h957l-26 -171l-851 -980h709z" />
    <glyph glyph-name="bracketleft" unicode="[" horiz-adv-x="601" 
d="M398 -243l-19 -112h-385l288 1720h385l-19 -112h-217l-250 -1496h217z" />
    <glyph glyph-name="backslash" unicode="\" horiz-adv-x="890" 
d="M695 -355l-490 1720h139l486 -1720h-135z" />
    <glyph glyph-name="bracketright" unicode="]" horiz-adv-x="601" 
d="M202 1253l19 112h385l-288 -1720h-385l19 112h218l251 1496h-219z" />
    <glyph glyph-name="asciicircum" unicode="^" horiz-adv-x="1024" 
d="M295 703h-244l338 669h305l338 -669h-244l-247 484z" />
    <glyph glyph-name="underscore" unicode="_" horiz-adv-x="1024" 
d="M29 -107h1024v-208h-1024v208z" />
    <glyph glyph-name="grave" unicode="`" horiz-adv-x="1024" 
d="M439 1487l343 -219l-49 -107l-373 196z" />
    <glyph glyph-name="a" unicode="a" horiz-adv-x="1097" 
d="M276 289q0 -61 41 -99.5t112 -38.5q102 0 189 89.5t123 278.5q-261 -14 -363 -69t-102 -161zM673 72q0 45 18 147q-50 -114 -144.5 -179.5t-218.5 -65.5t-209.5 84.5t-85.5 208.5q0 171 152.5 272t477.5 101q42 0 98 -4q7 46 7 73q0 82 -56.5 124t-140.5 42
q-161 0 -235 -141l-200 63q126 248 445 248q190 0 300 -86t110 -229q1 -61 -49 -329q-50 -269 -50 -319t4 -82h-221q-2 27 -2 72z" />
    <glyph glyph-name="b" unicode="b" horiz-adv-x="1085" 
d="M538 170q123 0 192 154t69 314q0 230 -161 230q-126 0 -207.5 -157t-81.5 -329q0 -99 58 -155.5t131 -56.5zM726 1057q137 0 218.5 -115t81.5 -297q0 -237 -126.5 -450.5t-342.5 -213.5t-306 192l-96 -173h-103l228 1365h224l-87 -522q130 214 309 214z" />
    <glyph glyph-name="c" unicode="c" horiz-adv-x="979" 
d="M476 -22q-179 0 -292 120.5t-113 352.5t139 414t349 182q159 0 265.5 -92.5t133.5 -262.5l-190 -37q-40 200 -199 200q-118 0 -192 -134t-74 -288t56 -209.5t133 -55.5q150 0 228 201l188 -67q-144 -324 -432 -324z" />
    <glyph glyph-name="d" unicode="d" horiz-adv-x="1096" 
d="M460 160q130 0 207 145.5t77 318.5q0 107 -51.5 173t-136.5 66q-130 0 -196 -150.5t-66 -334.5q0 -218 166 -218zM369 -23q-137 0 -220.5 109.5t-83.5 307.5q0 270 127 463.5t330 193.5t270 -202l87 516h224l-229 -1365h-218l35 210q-123 -233 -322 -233z" />
    <glyph glyph-name="e" unicode="e" horiz-adv-x="1068" 
d="M786 627q0 258 -200 258q-207 0 -266 -258h466zM498 -25q-200 0 -314.5 123t-114.5 327q0 260 144.5 439t360.5 179t320 -129t104 -352q0 -37 -3 -80h-699q-7 -43 -7 -76q0 -115 55.5 -185t157.5 -70q158 0 240 189l200 -53q-140 -312 -444 -312z" />
    <glyph glyph-name="f" unicode="f" horiz-adv-x="645" 
d="M671 1413q92 0 143 -13l-20 -187q-48 12 -103 12q-193 0 -211 -208h219l-32 -186h-221l-139 -831h-224l139 831h-139l31 186h139q40 210 140.5 303t277.5 93z" />
    <glyph glyph-name="g" unicode="g" horiz-adv-x="1039" 
d="M169 -69q0 -60 74 -103.5t222 -43.5q287 0 287 154q0 60 -45 74.5t-233 14.5t-239 18q-66 -54 -66 -114zM537 553q97 0 151 52.5t54 141.5q0 151 -165 151q-98 0 -154 -52.5t-56 -138.5q0 -154 170 -154zM48 242q0 86 39.5 142.5t160.5 116.5q-115 83 -115 209
q0 156 120.5 244t333.5 88q75 0 126 -15q49 149 119 201t180 52q30 0 68 -5l-2 -174q-54 5 -92 5t-90.5 -18t-81.5 -98q156 -78 156 -232t-112 -246.5t-320 -92.5q-88 0 -198 29q-91 -46 -91 -124q0 -43 32 -67.5t131 -24.5h121q177 0 259.5 -29.5t129 -94t46.5 -138.5
q0 -126 -121.5 -229.5t-425.5 -103.5q-449 0 -449 239q0 82 42 129.5t120 90.5q-86 60 -86 146z" />
    <glyph glyph-name="h" unicode="h" horiz-adv-x="1102" 
d="M775 730q0 134 -130 134q-89 0 -169.5 -75t-115.5 -288l-84 -501h-224l228 1365h224l-87 -525q126 207 311 207q115 0 195 -66t80 -208q0 -41 -22 -172l-100 -601h-224l100 601q18 105 18 129z" />
    <glyph glyph-name="i" unicode="i" horiz-adv-x="508" 
d="M287 0h-235l170 1017h235zM477 1135h-235l41 244h235z" />
    <glyph glyph-name="j" unicode="j" horiz-adv-x="508" 
d="M-92 -384q-109 0 -181 12l13 192q60 -13 111 -13q112 0 149 52t61 193l161 965h235l-155 -927q-31 -187 -68.5 -275.5t-127 -143.5t-198.5 -55zM477 1139h-235l41 240h235z" />
    <glyph glyph-name="k" unicode="k" horiz-adv-x="1110" 
d="M1012 0h-242l-177 542l-268 -248l-49 -294h-224l228 1365h224l-137 -823l512 475h239l-345 -321z" />
    <glyph glyph-name="l" unicode="l" horiz-adv-x="508" 
d="M287 0h-235l228 1365h235z" />
    <glyph glyph-name="m" unicode="m" horiz-adv-x="1746" 
d="M1406 721q0 135 -143 135q-223 0 -293 -410l-76 -446h-223l99 592q17 102 17 141q0 126 -125 126q-99 0 -184.5 -94.5t-138.5 -413.5l-59 -351h-228l170 1017h224l-38 -227q45 118 136 188.5t193 70.5q234 0 266 -240q146 240 360 240q121 0 201.5 -76t80.5 -197
q0 -60 -23 -199l-97 -577h-235l103 615q13 75 13 106z" />
    <glyph glyph-name="n" unicode="n" horiz-adv-x="1100" 
d="M770 732q0 52 -31.5 91t-95.5 39q-102 0 -180 -103.5t-110 -300.5l-77 -458h-224l170 1017h208l-40 -237q95 178 176 221.5t175 43.5t175.5 -75.5t81.5 -210.5q0 -53 -20 -169l-99 -590h-224l104 611q11 69 11 121z" />
    <glyph glyph-name="o" unicode="o" horiz-adv-x="1075" 
d="M508 157q136 0 200 140.5t64 294.5q0 264 -204 264q-143 0 -205 -151t-62 -289t60 -198.5t147 -60.5zM506 -26q-113 0 -218.5 50t-161 158.5t-55.5 258.5q0 243 143 420.5t374 177.5q190 0 304 -127.5t114 -345.5t-136 -405t-364 -187z" />
    <glyph glyph-name="p" unicode="p" horiz-adv-x="1082" 
d="M547 154q117 0 180.5 147.5t63.5 303.5q0 263 -160 263q-121 0 -202.5 -143.5t-81.5 -293.5t58.5 -213.5t141.5 -63.5zM703 1051q143 0 232 -116t89 -337t-120 -424t-322 -203t-277 209l-89 -535h-224l230 1372h200l-35 -210q126 244 316 244z" />
    <glyph glyph-name="q" unicode="q" horiz-adv-x="1085" 
d="M452 153q130 0 207 160.5t77 320.5q0 75 -16.5 117.5t-59 73.5t-104.5 31q-129 0 -195.5 -156t-66.5 -328q0 -219 158 -219zM376 -29q-149 0 -229.5 110.5t-80.5 306.5q0 276 139.5 466.5t330.5 190.5t302 -184l87 156h115q-25 -113 -40 -202l-195 -1170h-224l88 531
q-117 -205 -293 -205z" />
    <glyph glyph-name="r" unicode="r" horiz-adv-x="711" 
d="M734 1045q9 0 27 -1l-29 -250q-33 2 -50 2q-83 0 -156.5 -44t-115 -118.5t-69.5 -244.5l-65 -389h-224l170 1017h206l-46 -277q131 305 352 305z" />
    <glyph glyph-name="s" unicode="s" horiz-adv-x="938" 
d="M418 147q91 0 143.5 37.5t52.5 87.5t-35.5 75.5t-146.5 56.5t-177 63t-111 98t-45 151q0 133 101 231.5t285 98.5q299 0 420 -240l-193 -62q-67 133 -221 133q-69 0 -117 -32t-48 -78t24 -71t140 -59t194.5 -69.5t124 -101t45.5 -150.5q0 -144 -110.5 -241t-327.5 -97
q-347 0 -453 269l214 52q59 -152 241 -152z" />
    <glyph glyph-name="t" unicode="t" horiz-adv-x="657" 
d="M385 -17q-141 0 -206.5 63.5t-65.5 154.5q0 47 23 183l77 450h-151l31 183h153l61 274l204 14l-48 -288h219l-30 -183h-220l-76 -453q-14 -84 -14 -108q0 -97 144 -97q30 0 73 7l-31 -185q-101 -15 -143 -15z" />
    <glyph glyph-name="u" unicode="u" horiz-adv-x="1083" 
d="M346 -19q-120 0 -184 77t-64 171q0 49 26 202l98 586h224l-106 -631q-14 -88 -14 -122t31 -63t91 -29t131.5 57t101.5 133.5t55 224.5l72 430h224l-170 -1017h-208l37 222q-129 -241 -345 -241z" />
    <glyph glyph-name="v" unicode="v" horiz-adv-x="915" 
d="M504 0h-209l-216 1017h245l135 -712l331 712h198z" />
    <glyph glyph-name="w" unicode="w" horiz-adv-x="1432" 
d="M1031 0h-210l-77 723l-294 -723h-206l-152 1017h231l92 -703l294 703h202l74 -701l314 701h198z" />
    <glyph glyph-name="x" unicode="x" horiz-adv-x="936" 
d="M870 0h-256l-181 390l-307 -390h-222l443 539l-239 478h259l141 -314l245 314h220l-377 -458z" />
    <glyph glyph-name="y" unicode="y" horiz-adv-x="933" 
d="M84 -176q74 0 120.5 29.5t84.5 110.5l38 81l-249 972h240l154 -700l336 700h196l-522 -1053q-73 -146 -138.5 -240t-279.5 -94q-56 0 -121 9l10 194q57 -9 131 -9z" />
    <glyph glyph-name="z" unicode="z" horiz-adv-x="863" 
d="M731 0h-765l28 183l571 658h-432l29 176h722l-26 -158l-583 -676h486z" />
    <glyph glyph-name="braceleft" unicode="{" horiz-adv-x="601" 
d="M307 338q0 -23 -8 -73l-57 -339q-8 -49 -8 -83t29.5 -58.5t149.5 -24.5l-19 -114l-90 -1q-130 0 -191.5 46.5t-61.5 160.5q0 31 9 83l57 342q7 41 7 62q0 97 -92 119l18 106q119 23 143 168l60 358q25 148 106.5 212t238.5 64q28 0 83 -2l-19 -114q-125 0 -167 -32
t-58 -129l-59 -348q-30 -180 -163 -237q92 -51 92 -166z" />
    <glyph glyph-name="bar" unicode="|" horiz-adv-x="1024" 
d="M425 1365h232v-1706h-232v1706z" />
    <glyph glyph-name="braceright" unicode="}" horiz-adv-x="601" 
d="M293 672q0 23 8 73l57 339q8 49 8 84t-30.5 59t-148.5 24l19 113l90 2q137 0 195 -51t58 -155q0 -32 -8 -85l-58 -342q-7 -40 -7 -61q0 -98 92 -119l-17 -106q-120 -24 -144 -169l-60 -357q-25 -149 -106.5 -212.5t-238.5 -63.5q-28 0 -83 2l19 113q125 0 167 32t59 130
l58 348q30 179 164 236q-93 51 -93 166z" />
    <glyph glyph-name="asciitilde" unicode="~" horiz-adv-x="1201" 
d="M422 848q84 0 224 -56t190 -55q96 0 158 115l133 -78q-113 -261 -319 -261q-57 -1 -202 55t-187 56q-94 0 -156 -131l-129 84q64 156 134 213.5t154 57.5z" />
    <glyph glyph-name="uni00A0" unicode="&#xa0;" horiz-adv-x="512" 
 />
    <glyph glyph-name="exclamdown" unicode="&#xa1;" horiz-adv-x="505" 
d="M214 1011h246l-42 -253h-246zM229 631h104l-34 -985h-290z" />
    <glyph glyph-name="cent" unicode="&#xa2;" horiz-adv-x="1201" 
d="M442 594q0 -150 99 -201l101 600q-103 -16 -151.5 -132.5t-48.5 -266.5zM241 625q0 221 117.5 371t306.5 162l43 258h114l-45 -268q225 -47 278 -296l-177 -36q-15 153 -128 173l-103 -617q128 1 208 172l138 -65q-119 -258 -372 -260l-54 -324h-113l56 338
q-269 72 -269 392z" />
    <glyph glyph-name="sterling" unicode="&#xa3;" horiz-adv-x="1201" 
d="M633 0h-723l38 230q152 4 212 35t92 76t52 95t22 210h-163l30 177h139q-1 31 -1 48q0 263 141 406t348 143q258 0 350 -252l-207 -90q-39 153 -168 153q-64 0 -114.5 -39t-74 -101.5t-23.5 -232.5v-35h259l-29 -177h-241q-23 -300 -219 -418h269q171 0 247.5 45.5
t112.5 151.5l197 -110q-73 -164 -205.5 -239.5t-340.5 -75.5z" />
    <glyph glyph-name="currency" unicode="&#xa4;" horiz-adv-x="1502" 
d="M1092 762q0 124 -88 211.5t-210 87.5t-209.5 -88t-87.5 -211t87.5 -211t209.5 -88t210 87.5t88 211.5zM285 763q0 152 94 283l-208 208l127 127l208 -207q134 94 288 94t286 -92l205 204l127 -126l-205 -205q97 -141 97 -289t-94 -280l207 -207l-125 -127l-207 206
q-136 -96 -287 -96t-293 95l-206 -204l-125 126l205 205q-94 133 -94 285z" />
    <glyph glyph-name="yen" unicode="&#xa5;" horiz-adv-x="1201" 
d="M186 867h218l-203 498h254l231 -590l381 590h214l-327 -498h244l-21 -123h-303l-119 -181l-4 -21h392l-20 -123h-392l-70 -419h-234l70 419h-386l21 123h386l5 33l-68 169h-290z" />
    <glyph glyph-name="brokenbar" unicode="&#xa6;" horiz-adv-x="1024" 
d="M425 314h232v-655h-232v655zM425 1365h232v-701h-232v701z" />
    <glyph glyph-name="section" unicode="&#xa7;" horiz-adv-x="1201" 
d="M394 577q0 -43 35 -85t140 -86t172 -76q119 92 119 178q0 58 -51 98.5t-149 79.5t-139 60q-127 -86 -127 -169zM524 -198q99 0 157 48t58 109t-44.5 100.5t-184.5 95.5t-196 87.5t-93.5 93.5t-37.5 145q0 211 218 337q-92 63 -92 209t125.5 249t312.5 103
q122 0 234 -54.5t180 -188.5l-189 -57q-67 143 -240 143q-84 0 -145.5 -40.5t-61.5 -92.5t30.5 -79t180.5 -88t240 -122.5t90 -212.5q0 -193 -188 -327q106 -74 106 -234t-128 -277.5t-349 -117.5q-362 0 -491 298l227 39q69 -166 281 -166z" />
    <glyph glyph-name="dieresis" unicode="&#xa8;" horiz-adv-x="1024" 
d="M810 1188q-48 0 -79.5 32t-31.5 76t31.5 77t78.5 33t81.5 -30t34.5 -80t-33.5 -79t-81.5 -29zM476 1188q-48 0 -79.5 31.5t-31.5 75.5t30.5 77.5t78.5 33.5t82 -30t34 -80t-33 -79t-81 -29z" />
    <glyph glyph-name="copyright" unicode="&#xa9;" horiz-adv-x="1584" 
d="M783 252q-144 0 -233.5 98t-89.5 284t112 332.5t292 146.5q142 0 224.5 -79t93.5 -215l-159 -27q-18 187 -163 187q-134 0 -175.5 -154.5t-41.5 -244.5t42 -139.5t112 -49.5q122 0 190 170l143 -57q-109 -252 -347 -252zM1403 682q0 246 -170.5 422t-410.5 176
t-411.5 -175.5t-171.5 -422.5t171.5 -422t410.5 -175t410.5 175.5t171.5 421.5zM1530 683q0 -293 -208 -502.5t-500 -209.5t-501 209.5t-209 502.5t208 502t502 209t501 -209t207 -502z" />
    <glyph glyph-name="ordfeminine" unicode="&#xaa;" horiz-adv-x="721" 
d="M302 949q0 -75 86 -75q59 0 108 50t70 152q-157 -10 -210.5 -39.5t-53.5 -87.5zM530 771q-2 12 -2 23t3 62q-72 -100 -200 -100q-96 0 -148.5 55.5t-52.5 123.5q0 106 99 166.5t291 60.5q21 0 60 -1q4 19 4 33q0 93 -114 93q-93 0 -138 -86l-143 43q84 157 289 157
q121 0 193 -53t72 -140q-1 -37 -29 -193t-28 -187t3 -57h-159z" />
    <glyph glyph-name="guillemotleft" unicode="&#xab;" horiz-adv-x="675" 
d="M287 224h-87l-124 288l202 285h105l-153 -291zM538 224h-89l-124 292l203 281h106l-154 -287z" />
    <glyph glyph-name="logicalnot" unicode="&#xac;" horiz-adv-x="1201" 
d="M842 0v338h-655v208h887v-546h-232z" />
    <glyph glyph-name="uni00AD" unicode="&#xad;" horiz-adv-x="493" 
d="M476 414h-490l31 183h490z" />
    <glyph glyph-name="registered" unicode="&#xae;" horiz-adv-x="1584" 
d="M897 735q133 0 133 119q0 59 -33 83t-101 24h-139l-38 -226h178zM919 1092q90 0 142 -18.5t91 -77t39 -132.5t-45 -147t-136 -94l90 -350h-165l-78 330h-160l-55 -330h-156l137 819h296zM1403 682q0 246 -170.5 422t-410.5 176t-411.5 -175.5t-171.5 -422.5t171.5 -422
t410.5 -175t410.5 175.5t171.5 421.5zM1530 683q0 -293 -208 -502.5t-500 -209.5t-501 209.5t-209 502.5t208 502t502 209t501 -209t207 -502z" />
    <glyph glyph-name="uni00AF" unicode="&#xaf;" horiz-adv-x="1024" 
d="M29 1811h1024v-209h-1024v209z" />
    <glyph glyph-name="degree" unicode="&#xb0;" horiz-adv-x="1201" 
d="M704 1256q-58 0 -97 -41t-39 -95t38 -95t96 -41t98 40t40 96t-39 96t-97 40zM702 1393q118 0 196 -80.5t78 -192.5t-79.5 -192.5t-194.5 -80.5t-193.5 82t-78.5 190t77 191t195 83z" />
    <glyph glyph-name="plusminus" unicode="&#xb1;" horiz-adv-x="1201" 
d="M1096 102v-191h-1012v191h1012zM1096 785v-191h-411v-425h-190v425h-411v191h411v426h190v-426h411z" />
    <glyph glyph-name="twosuperior" unicode="&#xb2;" horiz-adv-x="792" 
d="M628 1130q0 56 -38 90.5t-98 34.5q-142 0 -185 -172l-149 59q97 252 343 252q115 0 207.5 -69t92.5 -202t-139.5 -232.5t-377.5 -201.5h473l-24 -143h-661l21 159q126 64 278 157.5t204.5 152.5t52.5 115z" />
    <glyph glyph-name="threesuperior" unicode="&#xb3;" horiz-adv-x="792" 
d="M426 657q74 0 119.5 37t45.5 88t-26.5 80.5t-61.5 34.5t-162 5l22 128q26 -1 45 -1q220 0 220 121q0 47 -40 75t-97 28q-127 0 -186 -119l-146 61q118 190 337 190q133 0 217.5 -64.5t84.5 -157.5q0 -139 -170 -192q134 -48 134 -187q0 -102 -89 -179.5t-253 -77.5
q-265 0 -334 231l153 37q11 -62 62 -100t125 -38z" />
    <glyph glyph-name="acute" unicode="&#xb4;" horiz-adv-x="1024" 
d="M854 1487l66 -136l-417 -190l-42 107z" />
    <glyph glyph-name="uni00B5" unicode="&#xb5;" horiz-adv-x="1201" 
d="M381 318q0 -61 43 -111.5t118 -50.5t147 58.5t105 254.5l92 548h224l-171 -1017h-188l27 158q-108 -185 -252 -185t-187 154l-81 -482h-224l230 1372h224l-92 -548q-15 -90 -15 -151z" />
    <glyph glyph-name="paragraph" unicode="&#xb6;" horiz-adv-x="1201" 
d="M700 1251q-160 0 -211 -27t-81 -93.5t-30 -149.5t49 -123t178 -40h81l72 433h-58zM591 703q-170 0 -243.5 20.5t-119.5 84t-46 181.5t69 214t164.5 129t291.5 33h551l-19 -114h-136l-266 -1586h-114l265 1586h-112l-265 -1586h-118l174 1038h-76z" />
    <glyph glyph-name="uni00B7" unicode="&#xb7;" horiz-adv-x="281" 
d="M239 380h-239l42 251h239z" />
    <glyph glyph-name="cedilla" unicode="&#xb8;" horiz-adv-x="1024" 
d="M647 -228q0 -64 -62.5 -119.5t-140.5 -55.5t-199 60l46 78q76 -46 139 -46q85 0 85 66q0 74 -166 74l83 171h82l-42 -93q72 0 123.5 -35.5t51.5 -99.5z" />
    <glyph glyph-name="onesuperior" unicode="&#xb9;" horiz-adv-x="792" 
d="M210 1107q-10 0 -27 1l22 136q237 18 329 151h113l-119 -710h230l-23 -139h-619l23 139h227l82 490q-116 -68 -238 -68z" />
    <glyph glyph-name="ordmasculine" unicode="&#xba;" horiz-adv-x="707" 
d="M437 881q76 0 113 78.5t37 176.5q0 143 -118 143q-82 0 -116.5 -87.5t-34.5 -169.5q0 -141 119 -141zM448 759q-128 0 -211.5 67.5t-83.5 215.5t91.5 253.5t227.5 105.5t209 -79.5t73 -213.5t-89 -241.5t-217 -107.5z" />
    <glyph glyph-name="guillemotright" unicode="&#xbb;" horiz-adv-x="674" 
d="M388 797h88l123 -288l-202 -285h-105l154 291zM137 797h89l124 -292l-202 -281h-107l155 287z" />
    <glyph glyph-name="onequarter" unicode="&#xbc;" horiz-adv-x="1802" 
d="M1471 307l59 352l-314 -354zM1570 0h-164l31 183h-381l23 138l463 526h170l-89 -529h135l-22 -135h-135zM474 0h-153l1069 1365h150zM171 1107q-10 0 -27 1l22 136q237 18 329 151h113l-119 -710h230l-23 -139h-619l23 139h227l82 490q-116 -68 -238 -68z" />
    <glyph glyph-name="onehalf" unicode="&#xbd;" horiz-adv-x="1802" 
d="M1586 582q0 59 -38.5 93t-96.5 34q-143 0 -186 -172l-149 59q99 252 343 252q123 0 212 -72t89 -187q0 -146 -141 -245.5t-377 -200.5h473l-24 -143h-661l21 159q106 53 263 148t214.5 155.5t57.5 119.5zM474 0h-153l1069 1365h150zM171 1107q-10 0 -27 1l22 136
q237 18 329 151h113l-119 -710h230l-23 -139h-619l23 139h227l82 490q-116 -68 -238 -68z" />
    <glyph glyph-name="threequarters" unicode="&#xbe;" horiz-adv-x="1802" 
d="M1471 307l59 352l-314 -354zM1570 0h-164l31 183h-381l23 138l463 526h169l-88 -529h135l-23 -135h-135zM473 0h-152l1068 1365h151zM386 657q74 0 120 37t46 88t-26.5 80.5t-61.5 34.5t-162 5l22 128q26 -1 45 -1q220 0 220 121q0 47 -40 75t-97 28q-127 0 -186 -119
l-146 61q118 190 337 190q133 0 217.5 -64.5t84.5 -157.5q0 -139 -170 -192q134 -48 134 -187q0 -102 -89 -179.5t-253 -77.5q-265 0 -334 231l153 37q11 -62 61.5 -100t124.5 -38z" />
    <glyph glyph-name="questiondown" unicode="&#xbf;" horiz-adv-x="992" 
d="M220 -4q0 -78 53 -129t141 -51t157 68.5t97 182.5l203 -79q-64 -176 -191 -275.5t-300 -99.5t-287 108.5t-114 270.5q0 94 53 198t233 194q111 57 139.5 109t32.5 136h189q-25 -190 -62 -246t-170 -144q-174 -115 -174 -243zM464 1010h245l-42 -254h-246z" />
    <glyph glyph-name="Agrave" unicode="&#xc0;" horiz-adv-x="1234" 
d="M798 520l-107 606l-281 -606h388zM1150 0h-273l-56 330h-495l-152 -330h-231l654 1365h303zM541 1800l343 -219l-49 -107l-373 196z" />
    <glyph glyph-name="Aacute" unicode="&#xc1;" horiz-adv-x="1234" 
d="M798 520l-107 606l-281 -606h388zM1150 0h-273l-56 330h-495l-152 -330h-231l654 1365h303zM1042 1800l66 -136l-417 -190l-42 107z" />
    <glyph glyph-name="Acircumflex" unicode="&#xc2;" horiz-adv-x="1234" 
d="M798 520l-107 606l-281 -606h388zM1150 0h-273l-56 330h-495l-152 -330h-231l654 1365h303zM821 1790l286 -288l-178 -21l-131 132l-203 -132l-177 21z" />
    <glyph glyph-name="Atilde" unicode="&#xc3;" horiz-adv-x="1234" 
d="M798 520l-107 606l-281 -606h388zM1150 0h-273l-56 330h-495l-152 -330h-231l654 1365h303zM907 1515q-61 1 -139 43t-118 42t-132 -80l-52 96q114 122 218 122q56 0 134 -40t129 -41q52 0 119 74l52 -99q-88 -117 -211 -117z" />
    <glyph glyph-name="Adieresis" unicode="&#xc4;" horiz-adv-x="1234" 
d="M798 520l-107 606l-281 -606h388zM1150 0h-273l-56 330h-495l-152 -330h-231l654 1365h303zM944 1512q-48 0 -80 32t-31 76q-1 44 31 76q32 34 79 34t81 -30t35 -80t-33 -79t-82 -29zM610 1512q-48 0 -80 32t-31 75q0 43 31 77q30 34 78 34t82 -30t34 -80t-34 -79
q-32 -29 -80 -29z" />
    <glyph glyph-name="Aring" unicode="&#xc5;" horiz-adv-x="1234" 
d="M798 520l-107 606l-281 -606h388zM1150 0h-273l-56 330h-495l-152 -330h-231l654 1365h303zM780 1558q41 0 61 26t20 58q1 32 -21 56t-56 24t-61 -21q-26 -21 -26 -57t21 -62q21 -24 62 -24zM779 1454q-78 0 -132 54t-54 131q1 77 55 132t126 55t132 -49q58 -49 58 -131
t-54 -137t-131 -55z" />
    <glyph glyph-name="AE" unicode="&#xc6;" horiz-adv-x="1717" 
d="M755 537l105 626l-405 -626h300zM1571 0h-906l59 351h-390l-224 -351h-229l895 1365h998l-35 -214h-637l-59 -355h530l-34 -201h-530l-63 -381h661z" />
    <glyph glyph-name="Ccedilla" unicode="&#xc7;" horiz-adv-x="1211" 
d="M759 -236q0 -76 -65.5 -136t-165.5 -60t-220 61l47 82q107 -51 155 -51t78 24.5t30 59.5q0 77 -137 77q-16 0 -57 -2l75 155q-192 40 -294 202t-102 385q0 345 179 592.5t460 247.5q219 0 347 -127t146 -352l-222 -40q-30 314 -276 314q-199 0 -286.5 -236t-87.5 -426
t73.5 -273.5t183.5 -83.5t195 81.5t130 198.5l200 -83q-177 -416 -559 -409l-32 -65q205 0 205 -136z" />
    <glyph glyph-name="Egrave" unicode="&#xc8;" horiz-adv-x="1099" 
d="M952 0h-887l228 1365h863l-36 -214h-618l-59 -354h512l-34 -202h-512l-64 -381h643zM554 1800l343 -219l-49 -107l-373 196z" />
    <glyph glyph-name="Eacute" unicode="&#xc9;" horiz-adv-x="1099" 
d="M952 0h-887l228 1365h863l-36 -214h-618l-59 -354h512l-34 -202h-512l-64 -381h643zM1021 1800l66 -136l-417 -190l-42 107z" />
    <glyph glyph-name="Ecircumflex" unicode="&#xca;" horiz-adv-x="1099" 
d="M952 0h-887l228 1365h863l-36 -214h-618l-59 -354h512l-34 -202h-512l-64 -381h643zM809 1790l286 -288l-178 -21l-131 132l-203 -132l-177 21z" />
    <glyph glyph-name="Edieresis" unicode="&#xcb;" horiz-adv-x="1099" 
d="M952 0h-887l228 1365h863l-36 -214h-618l-59 -354h512l-34 -202h-512l-64 -381h643zM923 1512q-47 0 -79 32t-32 76t32 76q32 34 78 34q48 0 82 -30t34 -80t-34 -79t-81 -29zM588 1512q-48 0 -78 32q-32 32 -32 75t31 77t79 34t81 -30q34 -30 34 -80q1 -50 -33 -79
t-82 -29z" />
    <glyph glyph-name="Igrave" unicode="&#xcc;" horiz-adv-x="553" 
d="M318 0h-253l228 1365h253zM222 1800l343 -219l-49 -107l-373 196z" />
    <glyph glyph-name="Iacute" unicode="&#xcd;" horiz-adv-x="553" 
d="M318 0h-253l228 1365h253zM709 1800l66 -136l-417 -190l-42 107z" />
    <glyph glyph-name="Icircumflex" unicode="&#xce;" horiz-adv-x="553" 
d="M318 0h-253l228 1365h253zM500 1790l286 -288l-178 -21l-131 132l-203 -132l-177 21z" />
    <glyph glyph-name="Idieresis" unicode="&#xcf;" horiz-adv-x="553" 
d="M318 0h-253l228 1365h253zM655 1512q-47 0 -79 32t-32 76t32 76q32 34 78 34q48 0 82 -30t34 -80t-34 -79t-81 -29zM320 1512q-48 0 -78 32q-32 32 -32 75t31 77t79 34t81 -30q34 -30 34 -80q1 -50 -33 -79t-82 -29z" />
    <glyph glyph-name="Eth" unicode="&#xd0;" horiz-adv-x="1310" 
d="M568 206q109 0 174.5 28.5t125.5 98t97 198.5t37 253t-37.5 213.5t-110 127.5t-195.5 38h-147l-62 -371h320l-32 -191h-321l-66 -395h217zM695 1365q139 0 224.5 -25t164 -97t128 -197t49.5 -302t-72.5 -344t-174.5 -256.5t-198.5 -116.5t-277.5 -27h-471l101 601h-137
l32 191h137l95 573h400z" />
    <glyph glyph-name="Ntilde" unicode="&#xd1;" horiz-adv-x="1330" 
d="M1094 0h-195l-466 1026l-171 -1026h-197l228 1365h253l425 -937l157 937h195zM986 1515q-61 1 -139 43q-77 42 -117 42t-133 -80l-52 96q114 122 218 122q55 0 133 -40t130 -41q52 0 119 74l52 -99q-88 -117 -211 -117z" />
    <glyph glyph-name="Ograve" unicode="&#xd2;" horiz-adv-x="1324" 
d="M363 543q0 -205 79 -290t192 -85q198 0 291 219t93 454q0 358 -282 358q-188 1 -280 -225t-93 -431zM104 598q0 296 176 552q176 254 471 254q245 0 387 -165t142 -470t-179 -555t-476 -251q-217 -1 -369 169t-152 466zM655 1800l343 -219l-49 -107l-373 196z" />
    <glyph glyph-name="Oacute" unicode="&#xd3;" horiz-adv-x="1324" 
d="M363 543q0 -205 79 -290t192 -85q198 0 291 219t93 454q0 358 -282 358q-188 1 -280 -225t-93 -431zM104 598q0 296 176 552q176 254 471 254q245 0 387 -165t142 -470t-179 -555t-476 -251q-217 -1 -369 169t-152 466zM1094 1800l66 -136l-417 -190l-42 107z" />
    <glyph glyph-name="Ocircumflex" unicode="&#xd4;" horiz-adv-x="1324" 
d="M363 543q0 -205 79 -290t192 -85q198 0 291 219t93 454q0 358 -282 358q-188 1 -280 -225t-93 -431zM104 598q0 296 176 552q176 254 471 254q245 0 387 -165t142 -470t-179 -555t-476 -251q-217 -1 -369 169t-152 466zM880 1790l286 -288l-178 -21l-131 132l-203 -132
l-177 21z" />
    <glyph glyph-name="Otilde" unicode="&#xd5;" horiz-adv-x="1324" 
d="M363 543q0 -205 79 -290t192 -85q198 0 291 219t93 454q0 358 -282 358q-188 1 -280 -225t-93 -431zM104 598q0 296 176 552q176 254 471 254q245 0 387 -165t142 -470t-179 -555t-476 -251q-217 -1 -369 169t-152 466zM970 1515q-61 1 -139 43q-77 42 -117 42t-133 -80
l-52 96q114 122 218 122q55 0 133 -40t130 -41q52 0 119 74l52 -99q-88 -117 -211 -117z" />
    <glyph glyph-name="Odieresis" unicode="&#xd6;" horiz-adv-x="1324" 
d="M363 543q0 -205 79 -290t192 -85q198 0 291 219t93 454q0 358 -282 358q-188 1 -280 -225t-93 -431zM104 598q0 296 176 552q176 254 471 254q245 0 387 -165t142 -470t-179 -555t-476 -251q-217 -1 -369 169t-152 466zM1008 1512q-48 0 -80 32t-31 76q-1 44 31 76
q32 34 79 34t81 -30t35 -80t-33 -79t-82 -29zM674 1512q-48 0 -80 32t-31 75q0 43 31 77q30 34 78 34t82 -30t34 -80t-34 -79q-32 -29 -80 -29z" />
    <glyph glyph-name="multiply" unicode="&#xd7;" horiz-adv-x="1201" 
d="M933 1126l135 -136l-301 -301l300 -300l-134 -134l-301 300l-301 -301l-135 135l301 301l-301 301l134 135l302 -301z" />
    <glyph glyph-name="Oslash" unicode="&#xd8;" horiz-adv-x="1324" 
d="M640 168q187 0 283 211t96 472q0 49 -11 107l-570 -701q79 -89 202 -89zM736 1199q-185 0 -279 -226t-94 -466q0 -34 8 -88l570 698q-77 82 -205 82zM104 580q0 310 177 567t469 257q210 0 346 -122l101 109h198l-198 -233q84 -167 84 -364q0 -339 -182 -585t-469 -246
q-187 0 -340 131l-115 -125h-197l211 252q-85 160 -85 359z" />
    <glyph glyph-name="Ugrave" unicode="&#xd9;" horiz-adv-x="1239" 
d="M578 -31q-244 -1 -374 161q-76 94 -75 252q0 79 19 193l132 790h252l-135 -803q-22 -130 -22 -174q0 -110 71 -159t158 -49q88 0 150 32t96 98t63 233l137 822h196l-148 -882q-30 -174 -74 -269t-162 -170t-284 -75zM611 1800l343 -219l-49 -107l-373 196z" />
    <glyph glyph-name="Uacute" unicode="&#xda;" horiz-adv-x="1239" 
d="M578 -31q-244 -1 -374 161q-76 94 -75 252q0 79 19 193l132 790h252l-135 -803q-22 -130 -22 -174q0 -110 71 -159t158 -49q88 0 150 32t96 98t63 233l137 822h196l-148 -882q-30 -174 -74 -269t-162 -170t-284 -75zM1069 1800l66 -136l-417 -190l-42 107z" />
    <glyph glyph-name="Ucircumflex" unicode="&#xdb;" horiz-adv-x="1239" 
d="M578 -31q-244 -1 -374 161q-76 94 -75 252q0 79 19 193l132 790h252l-135 -803q-22 -130 -22 -174q0 -110 71 -159t158 -49q88 0 150 32t96 98t63 233l137 822h196l-148 -882q-30 -174 -74 -269t-162 -170t-284 -75zM855 1790l286 -288l-178 -21l-131 132l-203 -132
l-177 21z" />
    <glyph glyph-name="Udieresis" unicode="&#xdc;" horiz-adv-x="1239" 
d="M578 -31q-244 -1 -374 161q-76 94 -75 252q0 79 19 193l132 790h252l-135 -803q-22 -130 -22 -174q0 -110 71 -159t158 -49q88 0 150 32t96 98t63 233l137 822h196l-148 -882q-30 -174 -74 -269t-162 -170t-284 -75zM975 1512q-47 0 -79 32t-32 76t32 76q32 34 78 34
q48 0 82 -30t34 -80t-34 -79t-81 -29zM640 1512q-48 0 -78 32q-32 32 -32 75t31 77t79 34t81 -30q34 -30 34 -80q1 -50 -33 -79t-82 -29z" />
    <glyph glyph-name="Yacute" unicode="&#xdd;" horiz-adv-x="1061" 
d="M593 0h-257l96 575l-347 790h281l242 -590l388 590h236l-545 -802zM968 1800l66 -136l-417 -190l-42 107z" />
    <glyph glyph-name="Thorn" unicode="&#xde;" horiz-adv-x="1237" 
d="M657 557q127 0 178 16.5t90 72t39 131.5t-35 123.5t-83 61t-172 13.5h-190l-70 -418h243zM628 1174q178 0 261 -7.5t161 -54.5t124.5 -133.5t46.5 -209.5t-77 -232.5t-180.5 -145t-254.5 -35.5h-329l-60 -356h-255l228 1365h256l-32 -191h111z" />
    <glyph glyph-name="germandbls" unicode="&#xdf;" horiz-adv-x="1149" 
d="M732 1495q186 0 288 -88t102 -200t-78 -203.5t-317 -124.5q-42 -6 -42 -33q0 -21 20 -34t104 -51q173 -77 228 -170t55 -188q0 -166 -123 -297.5t-329 -131.5q-115 0 -238 50l61 166q95 -33 185 -33t155.5 50.5t65.5 124.5q0 47 -30.5 91t-148.5 110t-150.5 117.5
t-32.5 111.5t33 122t69 84.5t131 49.5q150 42 150 162q0 63 -43.5 106.5t-124.5 43.5t-149 -60t-109 -303l-170 -1017h-235l139 833h-114l31 184h114q34 268 175.5 398t327.5 130z" />
    <glyph glyph-name="agrave" unicode="&#xe0;" horiz-adv-x="1097" 
d="M276 289q0 -61 41 -99t112 -39q102 -1 189 89t123 279q-261 -14 -363 -69t-102 -161zM673 72q0 45 18 147q-50 -113 -144 -179q-95 -66 -219 -66t-210 84t-85 209q1 171 153 272t477 101q42 0 98 -4q7 46 7 73q0 82 -56 124t-141 42q-161 0 -235 -141l-200 63
q126 248 445 248q190 0 300 -86t110 -229q1 -61 -49 -329q-50 -269 -50 -319t4 -82h-221q-2 27 -2 72zM439 1487l343 -219l-49 -107l-373 196z" />
    <glyph glyph-name="aacute" unicode="&#xe1;" horiz-adv-x="1097" 
d="M276 289q0 -61 41 -99t112 -39q102 -1 189 89t123 279q-261 -14 -363 -69t-102 -161zM673 72q0 45 18 147q-50 -113 -144 -179q-95 -66 -219 -66t-210 84t-85 209q1 171 153 272t477 101q42 0 98 -4q7 46 7 73q0 82 -56 124t-141 42q-161 0 -235 -141l-200 63
q126 248 445 248q190 0 300 -86t110 -229q1 -61 -49 -329q-50 -269 -50 -319t4 -82h-221q-2 27 -2 72zM854 1487l66 -136l-417 -190l-42 107z" />
    <glyph glyph-name="acircumflex" unicode="&#xe2;" horiz-adv-x="1097" 
d="M276 289q0 -61 41 -99t112 -39q102 -1 189 89t123 279q-261 -14 -363 -69t-102 -161zM673 72q0 45 18 147q-50 -113 -144 -179q-95 -66 -219 -66t-210 84t-85 209q1 171 153 272t477 101q42 0 98 -4q7 46 7 73q0 82 -56 124t-141 42q-161 0 -235 -141l-200 63
q126 248 445 248q190 0 300 -86t110 -229q1 -61 -49 -329q-50 -269 -50 -319t4 -82h-221q-2 27 -2 72zM701 1476l286 -288l-178 -21l-131 132l-203 -132l-177 21z" />
    <glyph glyph-name="atilde" unicode="&#xe3;" horiz-adv-x="1097" 
d="M276 289q0 -61 41 -99t112 -39q102 -1 189 89t123 279q-261 -14 -363 -69t-102 -161zM673 72q0 45 18 147q-50 -113 -144 -179q-95 -66 -219 -66t-210 84t-85 209q1 171 153 272t477 101q42 0 98 -4q7 46 7 73q0 82 -56 124t-141 42q-161 0 -235 -141l-200 63
q126 248 445 248q190 0 300 -86t110 -229q1 -61 -49 -329q-50 -269 -50 -319t4 -82h-221q-2 27 -2 72zM782 1201q-61 1 -139 43q-77 42 -117 42t-133 -80l-52 96q114 122 218 122q55 0 133 -40t130 -41q52 0 119 74l52 -99q-88 -117 -211 -117z" />
    <glyph glyph-name="adieresis" unicode="&#xe4;" horiz-adv-x="1097" 
d="M276 289q0 -61 41 -99t112 -39q102 -1 189 89t123 279q-261 -14 -363 -69t-102 -161zM673 72q0 45 18 147q-50 -113 -144 -179q-95 -66 -219 -66t-210 84t-85 209q1 171 153 272t477 101q42 0 98 -4q7 46 7 73q0 82 -56 124t-141 42q-161 0 -235 -141l-200 63
q126 248 445 248q190 0 300 -86t110 -229q1 -61 -49 -329q-50 -269 -50 -319t4 -82h-221q-2 27 -2 72zM834 1188q-48 0 -80 32t-31 76q-1 44 31 76q32 34 79 34t81 -30t35 -80t-33 -79t-82 -29zM500 1188q-48 0 -80 32t-31 75q0 43 31 77q30 34 78 34t82 -30t34 -80t-34 -79
q-32 -29 -80 -29z" />
    <glyph glyph-name="aring" unicode="&#xe5;" horiz-adv-x="1097" 
d="M276 289q0 -61 41 -99t112 -39q102 -1 189 89t123 279q-261 -14 -363 -69t-102 -161zM673 72q0 45 18 147q-50 -113 -144 -179q-95 -66 -219 -66t-210 84t-85 209q1 171 153 272t477 101q42 0 98 -4q7 46 7 73q0 82 -56 124t-141 42q-161 0 -235 -141l-200 63
q126 248 445 248q190 0 300 -86t110 -229q1 -61 -49 -329q-50 -269 -50 -319t4 -82h-221q-2 27 -2 72zM677 1237q41 -1 61 25t20 58t-22 57q-22 24 -56 24t-60 -21q-26 -22 -26 -58t21 -60t62 -25zM676 1133q-78 0 -132 54t-54 131t54 132t128 55q72 0 130 -49t59 -131
t-53 -137t-132 -55z" />
    <glyph glyph-name="ae" unicode="&#xe6;" horiz-adv-x="1698" 
d="M271 290q0 -67 44 -103t112 -36q108 0 194 96t116 270q-243 -11 -354.5 -61t-111.5 -166zM1420 625v23q0 91 -49 162t-156 71t-176.5 -79.5t-85.5 -176.5h467zM1123 -25q-276 0 -375 241q-158 -242 -398 -242q-141 0 -229 82.5t-88 211.5q0 371 630 371q41 0 94 -3
q8 35 8 62q0 176 -199 176q-157 0 -230 -138l-198 63q133 243 441 243q224 0 325 -126q121 126 311 126t304 -123t114 -329q0 -48 -8 -109h-700q-8 -43 -8 -77q0 -116 57.5 -184t158.5 -68q158 0 238 185l199 -57q-145 -305 -447 -305z" />
    <glyph glyph-name="ccedilla" unicode="&#xe7;" horiz-adv-x="979" 
d="M476 -22h-11l-32 -71q71 0 123 -36q52 -35 52 -99t-62 -120t-141 -55q-78 0 -199 60l46 78q76 -46 139 -46q85 0 85 66q0 74 -166 74l76 157q-119 22 -202 112q-113 120 -113 353q0 232 139 414t349 182q159 -1 265 -93t134 -262l-190 -37q-40 200 -199 200
q-118 0 -192 -134t-74 -288q0 -153 56 -209t133 -56q150 0 228 201l188 -67q-144 -324 -432 -324z" />
    <glyph glyph-name="egrave" unicode="&#xe8;" horiz-adv-x="1068" 
d="M786 627q0 258 -200 258q-207 0 -266 -258h466zM498 -25q-200 0 -314 123t-115 327q1 260 145 439t360 179t320 -129t104 -352q0 -37 -3 -80h-699q-7 -43 -7 -76q-1 -115 55 -185t158 -70q158 0 240 189l200 -53q-140 -312 -444 -312zM439 1487l343 -219l-49 -107
l-373 196z" />
    <glyph glyph-name="eacute" unicode="&#xe9;" horiz-adv-x="1068" 
d="M786 627q0 258 -200 258q-207 0 -266 -258h466zM498 -25q-200 0 -314 123t-115 327q1 260 145 439t360 179t320 -129t104 -352q0 -37 -3 -80h-699q-7 -43 -7 -76q-1 -115 55 -185t158 -70q158 0 240 189l200 -53q-140 -312 -444 -312zM854 1487l66 -136l-417 -190
l-42 107z" />
    <glyph glyph-name="ecircumflex" unicode="&#xea;" horiz-adv-x="1068" 
d="M786 627q0 258 -200 258q-207 0 -266 -258h466zM498 -25q-200 0 -314 123t-115 327q1 260 145 439t360 179t320 -129t104 -352q0 -37 -3 -80h-699q-7 -43 -7 -76q-1 -115 55 -185t158 -70q158 0 240 189l200 -53q-140 -312 -444 -312zM695 1476l286 -288l-178 -21
l-131 132l-203 -132l-177 21z" />
    <glyph glyph-name="edieresis" unicode="&#xeb;" horiz-adv-x="1068" 
d="M786 627q0 258 -200 258q-207 0 -266 -258h466zM498 -25q-200 0 -314 123t-115 327q1 260 145 439t360 179t320 -129t104 -352q0 -37 -3 -80h-699q-7 -43 -7 -76q-1 -115 55 -185t158 -70q158 0 240 189l200 -53q-140 -312 -444 -312zM829 1188q-47 0 -79 32t-32 76
t32 76q32 34 78 34q48 0 82 -30t34 -80t-34 -79t-81 -29zM494 1188q-48 0 -78 32q-32 32 -32 75t31 77t79 34t81 -30q34 -30 34 -80q1 -50 -33 -79t-82 -29z" />
    <glyph glyph-name="igrave" unicode="&#xec;" horiz-adv-x="508" 
d="M287 0h-235l170 1017h235zM174 1487l343 -219l-49 -107l-373 196z" />
    <glyph glyph-name="iacute" unicode="&#xed;" horiz-adv-x="508" 
d="M287 0h-235l170 1017h235zM613 1487l66 -136l-417 -190l-42 107z" />
    <glyph glyph-name="icircumflex" unicode="&#xee;" horiz-adv-x="508" 
d="M287 0h-235l170 1017h235zM455 1476l286 -288l-178 -21l-131 132l-203 -132l-177 21z" />
    <glyph glyph-name="idieresis" unicode="&#xef;" horiz-adv-x="508" 
d="M287 0h-235l170 1017h235zM581 1188q-47 0 -79 32t-32 76t32 76q32 34 78 34q48 0 82 -30t34 -80t-34 -79t-81 -29zM246 1188q-48 0 -78 32q-32 32 -32 75t31 77t79 34t81 -30q34 -30 34 -80q1 -50 -33 -79t-82 -29z" />
    <glyph glyph-name="eth" unicode="&#xf0;" horiz-adv-x="1075" 
d="M563 829q-158 0 -212.5 -158.5t-54.5 -254.5q0 -258 204 -258q137 0 201.5 138t64.5 271q0 262 -203 262zM1012 662q0 -291 -135.5 -489t-385.5 -198q-177 0 -300 106.5t-123 346.5t129.5 413.5t333.5 173.5q135 0 234 -84q-34 156 -113 246l-188 -84l-56 84l168 74
q-61 58 -172 87l35 95q148 -32 281 -118l200 88l60 -79l-173 -76q205 -199 205 -586z" />
    <glyph glyph-name="ntilde" unicode="&#xf1;" horiz-adv-x="1100" 
d="M770 732q0 52 -32 92q-32 38 -95 38q-102 0 -180 -104t-110 -300l-77 -458h-224l170 1017h208l-40 -237q95 178 176 222t175 43q93 1 175 -75t82 -211q0 -53 -20 -169l-99 -590h-224l104 611q11 69 11 121zM786 1201q-61 1 -139 43q-77 42 -117 42t-133 -80l-52 96
q114 122 218 122q55 0 133 -40t130 -41q52 0 119 74l52 -99q-88 -117 -211 -117z" />
    <glyph glyph-name="ograve" unicode="&#xf2;" horiz-adv-x="1075" 
d="M508 157q136 1 200 141t64 294q0 264 -204 264q-143 0 -205 -151t-62 -289t60 -199q60 -60 147 -60zM506 -26q-112 0 -218 50t-162 158t-55 259q0 243 143 421t374 177q190 1 304 -127t114 -346t-136 -405t-364 -187zM468 1487l343 -219l-49 -107l-373 196z" />
    <glyph glyph-name="oacute" unicode="&#xf3;" horiz-adv-x="1075" 
d="M508 157q136 1 200 141t64 294q0 264 -204 264q-143 0 -205 -151t-62 -289t60 -199q60 -60 147 -60zM506 -26q-112 0 -218 50t-162 158t-55 259q0 243 143 421t374 177q190 1 304 -127t114 -346t-136 -405t-364 -187zM900 1487l66 -136l-417 -190l-42 107z" />
    <glyph glyph-name="ocircumflex" unicode="&#xf4;" horiz-adv-x="1075" 
d="M508 157q136 1 200 141t64 294q0 264 -204 264q-143 0 -205 -151t-62 -289t60 -199q60 -60 147 -60zM506 -26q-112 0 -218 50t-162 158t-55 259q0 243 143 421t374 177q190 1 304 -127t114 -346t-136 -405t-364 -187zM703 1476l286 -288l-178 -21l-131 132l-203 -132
l-177 21z" />
    <glyph glyph-name="otilde" unicode="&#xf5;" horiz-adv-x="1075" 
d="M508 157q136 1 200 141t64 294q0 264 -204 264q-143 0 -205 -151t-62 -289t60 -199q60 -60 147 -60zM506 -26q-112 0 -218 50t-162 158t-55 259q0 243 143 421t374 177q190 1 304 -127t114 -346t-136 -405t-364 -187zM789 1201q-61 1 -139 43t-118 42t-132 -80l-52 96
q114 122 218 122q56 0 134 -40t129 -41q52 0 119 74l52 -99q-88 -117 -211 -117z" />
    <glyph glyph-name="odieresis" unicode="&#xf6;" horiz-adv-x="1075" 
d="M508 157q136 1 200 141t64 294q0 264 -204 264q-143 0 -205 -151t-62 -289t60 -199q60 -60 147 -60zM506 -26q-112 0 -218 50t-162 158t-55 259q0 243 143 421t374 177q190 1 304 -127t114 -346t-136 -405t-364 -187zM826 1188q-48 0 -80 32t-31 76q-1 44 31 76
q32 34 79 34t81 -30t35 -80t-33 -79t-82 -29zM492 1188q-48 0 -80 32t-31 75q0 43 31 77q30 34 78 34t82 -30t34 -80t-34 -79q-32 -29 -80 -29z" />
    <glyph glyph-name="divide" unicode="&#xf7;" horiz-adv-x="1201" 
d="M752 340q0 -50 -36 -86t-86 -36t-86.5 36t-36.5 86t36.5 86.5t86.5 36.5t86 -36.5t36 -86.5zM1137 785v-191h-1012v191h1012zM752 1036q0 -50 -36 -86.5t-86 -36.5t-86.5 35.5t-36.5 86.5t36.5 87t86.5 36t86 -36t36 -86z" />
    <glyph glyph-name="oslash" unicode="&#xf8;" horiz-adv-x="1075" 
d="M503 157q137 0 203.5 140t66.5 310q0 49 -12 97l-399 -489q61 -58 141 -58zM566 857q-137 0 -201 -149.5t-64 -313.5q0 -36 9 -75l394 490q-51 48 -138 48zM71 440q0 241 141.5 420.5t367.5 179.5q160 0 263 -84l78 87h146l-144 -169q84 -124 84 -292q0 -247 -143 -427.5
t-364 -180.5q-150 0 -274 85l-76 -88h-149l145 175q-75 126 -75 294z" />
    <glyph glyph-name="ugrave" unicode="&#xf9;" horiz-adv-x="1083" 
d="M346 -19q-120 0 -184 77t-64 171q0 49 26 202l98 586h224l-106 -631q-14 -88 -14 -122t31 -63t91 -29t131 57q72 57 102 133t55 225l72 430h224l-170 -1017h-208l37 222q-129 -241 -345 -241zM474 1487l343 -219l-49 -107l-373 196z" />
    <glyph glyph-name="uacute" unicode="&#xfa;" horiz-adv-x="1083" 
d="M346 -19q-120 0 -184 77t-64 171q0 49 26 202l98 586h224l-106 -631q-14 -88 -14 -122t31 -63t91 -29t131 57q72 57 102 133t55 225l72 430h224l-170 -1017h-208l37 222q-129 -241 -345 -241zM906 1487l66 -136l-417 -190l-42 107z" />
    <glyph glyph-name="ucircumflex" unicode="&#xfb;" horiz-adv-x="1083" 
d="M346 -19q-120 0 -184 77t-64 171q0 49 26 202l98 586h224l-106 -631q-14 -88 -14 -122t31 -63t91 -29t131 57q72 57 102 133t55 225l72 430h224l-170 -1017h-208l37 222q-129 -241 -345 -241zM719 1476l286 -288l-178 -21l-131 132l-203 -132l-177 21z" />
    <glyph glyph-name="udieresis" unicode="&#xfc;" horiz-adv-x="1083" 
d="M346 -19q-120 0 -184 77t-64 171q0 49 26 202l98 586h224l-106 -631q-14 -88 -14 -122t31 -63t91 -29t131 57q72 57 102 133t55 225l72 430h224l-170 -1017h-208l37 222q-129 -241 -345 -241zM832 1188q-48 0 -80 32t-31 76q-1 44 31 76q32 34 79 34t81 -30t35 -80
t-33 -79t-82 -29zM498 1188q-48 0 -80 32t-31 75q0 43 31 77q30 34 78 34t82 -30t34 -80t-34 -79q-32 -29 -80 -29z" />
    <glyph glyph-name="yacute" unicode="&#xfd;" horiz-adv-x="933" 
d="M84 -176q74 0 120 30t85 110l38 81l-249 972h240l154 -700l336 700h196l-522 -1053q-73 -146 -112 -202q-92 -132 -306 -132q-56 0 -121 9l10 194q57 -9 131 -9zM842 1487l66 -136l-417 -190l-42 107z" />
    <glyph glyph-name="thorn" unicode="&#xfe;" horiz-adv-x="1082" 
d="M547 154q117 0 180.5 147.5t63.5 303.5q0 263 -160 263q-121 0 -202.5 -143.5t-81.5 -293.5t58.5 -213.5t141.5 -63.5zM702 1052q144 0 233 -116.5t89 -337.5t-120 -424t-322 -203t-277 209l-89 -535h-224l288 1720h224l-88 -524q118 211 286 211z" />
    <glyph glyph-name="ydieresis" unicode="&#xff;" horiz-adv-x="933" 
d="M84 -176q74 0 120 30t85 110l38 81l-249 972h240l154 -700l336 700h196l-522 -1053q-73 -146 -112 -202q-92 -132 -306 -132q-56 0 -121 9l10 194q57 -9 131 -9zM762 1188q-48 0 -80 32t-31 76q-1 44 31 76q32 34 79 34t81 -30t35 -80t-33 -79t-82 -29zM428 1188
q-48 0 -80 32t-31 75q0 43 31 77q30 34 78 34t82 -30t34 -80t-34 -79q-32 -29 -80 -29z" />
    <glyph glyph-name="Amacron" unicode="&#x100;" horiz-adv-x="1234" 
d="M798 520l-107 606l-281 -606h388zM1150 0h-273l-56 330h-495l-152 -330h-231l654 1365h303zM1068 1550h-586l22 130h585z" />
    <glyph glyph-name="amacron" unicode="&#x101;" horiz-adv-x="1097" 
d="M276 289q0 -61 41 -99t112 -39q102 -1 189 89t123 279q-261 -14 -363 -69t-102 -161zM673 72q0 45 18 147q-50 -113 -144 -179q-95 -66 -219 -66t-210 84t-85 209q1 171 153 272t477 101q42 0 98 -4q7 46 7 73q0 82 -56 124t-141 42q-161 0 -235 -141l-200 63
q126 248 445 248q190 0 300 -86t110 -229q1 -61 -49 -329q-50 -269 -50 -319t4 -82h-221q-2 27 -2 72zM949 1222h-586l22 130h585z" />
    <glyph glyph-name="Abreve" unicode="&#x102;" horiz-adv-x="1234" 
d="M798 520l-107 606l-281 -606h388zM1150 0h-273l-56 330h-495l-152 -330h-231l654 1365h303zM649 1766q-1 -82 45 -107t106 -25q149 0 193 132h132q-27 -124 -124 -199t-223 -75t-196 64q-68 64 -68 160q0 18 3 50h132z" />
    <glyph glyph-name="abreve" unicode="&#x103;" horiz-adv-x="1097" 
d="M276 289q0 -61 41 -99t112 -39q102 -1 189 89t123 279q-261 -14 -363 -69t-102 -161zM673 72q0 45 18 147q-50 -113 -144 -179q-95 -66 -219 -66t-210 84t-85 209q1 171 153 272t477 101q42 0 98 -4q7 46 7 73q0 82 -56 124t-141 42q-161 0 -235 -141l-200 63
q126 248 445 248q190 0 300 -86t110 -229q1 -61 -49 -329q-50 -269 -50 -319t4 -82h-221q-2 27 -2 72zM540 1455q0 -82 46 -107t105 -25q149 0 193 132h132q-27 -124 -124 -199q-98 -75 -224 -75q-126 1 -194 65t-69 159q0 18 3 50h132z" />
    <glyph glyph-name="Aogonek" unicode="&#x104;" horiz-adv-x="1234" 
d="M798 520l-107 606l-281 -606h388zM995 -169q0 -92 120 -92q45 0 94 19l17 -81q-81 -36 -172 -36q-206 0 -206 157q0 133 185 202h-156l-56 330h-495l-152 -330h-231l654 1365h303l250 -1365q-155 -77 -155 -169z" />
    <glyph glyph-name="aogonek" unicode="&#x105;" horiz-adv-x="1097" 
d="M276 289q0 -61 41 -99t112 -39q102 -1 189 89t123 279q-261 -14 -363 -69t-102 -161zM673 72q0 45 18 147q-50 -113 -144 -179q-95 -66 -219 -66t-210 84t-85 209q1 171 153 272t477 101q42 0 98 -4q7 46 7 73q0 82 -56 124t-141 42q-161 0 -235 -141l-200 63
q126 248 445 248q190 0 300 -86t110 -229q1 -61 -49 -329q-50 -269 -50 -319t4 -82q-164 -81 -164 -174q0 -80 98 -80q40 0 91 18l12 -73q-82 -35 -167 -35t-132 40t-47 95q0 131 199 209h-111q-2 27 -2 72z" />
    <glyph glyph-name="Cacute" unicode="&#x106;" horiz-adv-x="1211" 
d="M604 -36q-222 0 -362 160t-139 437q0 345 179 593t460 247q219 0 347 -127t146 -352l-222 -40q-30 314 -276 314q-199 0 -287 -236t-87 -426q-1 -190 73 -273q74 -84 184 -84q110 -1 194 81q86 82 131 199l200 -83q-175 -410 -541 -410zM1071 1800l66 -136l-417 -190
l-42 107z" />
    <glyph glyph-name="cacute" unicode="&#x107;" horiz-adv-x="979" 
d="M476 -22q-179 0 -292 120t-113 353q0 232 139 414t349 182q159 -1 265 -93t134 -262l-190 -37q-40 200 -199 200q-118 0 -192 -134t-74 -288q0 -153 56 -209t133 -56q150 0 228 201l188 -67q-144 -324 -432 -324zM876 1487l66 -136l-417 -190l-42 107z" />
    <glyph glyph-name="Ccircumflex" unicode="&#x108;" horiz-adv-x="1211" 
d="M604 -36q-222 0 -362 160t-139 437q0 345 179 593t460 247q219 0 347 -127t146 -352l-222 -40q-30 314 -276 314q-199 0 -287 -236t-87 -426q-1 -190 73 -273q74 -84 184 -84q110 -1 194 81q86 82 131 199l200 -83q-175 -410 -541 -410zM871 1790l286 -288l-178 -21
l-131 132l-203 -132l-177 21z" />
    <glyph glyph-name="ccircumflex" unicode="&#x109;" horiz-adv-x="979" 
d="M476 -22q-179 0 -292 120t-113 353q0 232 139 414t349 182q159 -1 265 -93t134 -262l-190 -37q-40 200 -199 200q-118 0 -192 -134t-74 -288q0 -153 56 -209t133 -56q150 0 228 201l188 -67q-144 -324 -432 -324zM651 1476l286 -288l-178 -21l-131 132l-203 -132l-177 21
z" />
    <glyph glyph-name="Cdotaccent" unicode="&#x10a;" horiz-adv-x="1211" 
d="M604 -36q-222 0 -362 160t-139 437q0 345 179 593t460 247q219 0 347 -127t146 -352l-222 -40q-30 314 -276 314q-199 0 -287 -236t-87 -426q-1 -190 73 -273q74 -84 184 -84q110 -1 194 81q86 82 131 199l200 -83q-175 -410 -541 -410zM818 1512q-48 0 -80 32t-31 75
q0 43 31 77q30 34 78 34t82 -30t34 -80t-34 -79q-32 -29 -80 -29z" />
    <glyph glyph-name="cdotaccent" unicode="&#x10b;" horiz-adv-x="979" 
d="M476 -22q-179 0 -292 120t-113 353q0 232 139 414t349 182q159 -1 265 -93t134 -262l-190 -37q-40 200 -199 200q-118 0 -192 -134t-74 -288q0 -153 56 -209t133 -56q150 0 228 201l188 -67q-144 -324 -432 -324zM636 1188q-48 0 -80 32t-31 75q0 43 31 77q30 34 78 34
t82 -30t34 -80t-34 -79q-32 -29 -80 -29z" />
    <glyph glyph-name="Ccaron" unicode="&#x10c;" horiz-adv-x="1211" 
d="M604 -36q-222 0 -362 160t-139 437q0 345 179 593t460 247q219 0 347 -127t146 -352l-222 -40q-30 314 -276 314q-199 0 -287 -236t-87 -426q-1 -190 73 -273q74 -84 184 -84q110 -1 194 81q86 82 131 199l200 -83q-175 -410 -541 -410zM787 1467l-286 288l177 20
l132 -131l202 131l178 -20z" />
    <glyph glyph-name="ccaron" unicode="&#x10d;" horiz-adv-x="979" 
d="M476 -22q-179 0 -292 120t-113 353q0 232 139 414t349 182q159 -1 265 -93t134 -262l-190 -37q-40 200 -199 200q-118 0 -192 -134t-74 -288q0 -153 56 -209t133 -56q150 0 228 201l188 -67q-144 -324 -432 -324zM615 1154l-286 288l177 20l132 -131l202 131l178 -20z
" />
    <glyph glyph-name="Dcaron" unicode="&#x10e;" horiz-adv-x="1310" 
d="M567 206q109 0 175 28t126 98q60 69 96 198q36 130 37 254t-37 214t-110 128t-197 37h-147l-161 -957h218zM694 1365q139 0 224 -25q85 -24 164 -96q78 -72 128 -197t50 -302t-72 -344t-174 -257t-199 -117t-278 -27h-472l228 1365h401zM734 1468l-286 288l177 20
l132 -131l202 131l178 -20z" />
    <glyph glyph-name="dcaron" unicode="&#x10f;" horiz-adv-x="1308" 
d="M460 160q130 0 207 146t77 318q0 107 -52 173t-136 66q-130 -1 -196 -151t-66 -334q0 -218 166 -218zM369 -23q-137 -1 -221 109t-83 308q0 270 127 464t330 193q203 0 270 -202l87 516h224l-229 -1365h-218l35 210q-123 -233 -322 -233zM1241 968h-93l105 397h205z" />
    <glyph glyph-name="Dcroat" unicode="&#x110;" horiz-adv-x="1310" 
d="M568 206q108 0 174 28t126 98t97 199t37 253t-38 214t-110 127q-72 38 -195 38h-147l-62 -371h320l-32 -191h-321l-66 -395h217zM695 1365q139 0 225 -25t164 -97t128 -197t49 -302t-73 -344q-72 -166 -174 -256t-198 -117t-278 -27h-471l101 601h-137l32 191h137l95 573
h400z" />
    <glyph glyph-name="dcroat" unicode="&#x111;" horiz-adv-x="1096" 
d="M460 160q130 0 207 145.5t77 318.5q0 107 -51.5 173t-136.5 66q-130 0 -196 -150.5t-66 -334.5q0 -218 166 -218zM369 -23q-137 0 -220.5 109.5t-83.5 307.5q0 270 127 463.5t330 193.5t270 -202l47 282h-286l20 122h287l19 112h224l-19 -112h123l-21 -122h-123
l-189 -1131h-218l35 210q-123 -233 -322 -233z" />
    <glyph glyph-name="Emacron" unicode="&#x112;" horiz-adv-x="1099" 
d="M952 0h-887l228 1365h863l-36 -214h-618l-59 -354h512l-34 -202h-512l-64 -381h643zM1043 1535h-586l22 130h585z" />
    <glyph glyph-name="emacron" unicode="&#x113;" horiz-adv-x="1068" 
d="M786 627q0 258 -200 258q-207 0 -266 -258h466zM498 -25q-200 0 -314 123t-115 327q1 260 145 439t360 179t320 -129t104 -352q0 -37 -3 -80h-699q-7 -43 -7 -76q-1 -115 55 -185t158 -70q158 0 240 189l200 -53q-140 -312 -444 -312zM953 1222h-586l22 130h585z" />
    <glyph glyph-name="Ebreve" unicode="&#x114;" horiz-adv-x="1099" 
d="M952 0h-887l228 1365h863l-36 -214h-618l-59 -354h512l-34 -202h-512l-64 -381h643zM624 1766q0 -82 46 -107t105 -25q149 0 193 132h132q-27 -124 -124 -199q-98 -75 -224 -75t-194 64t-69 160q0 18 3 50h132z" />
    <glyph glyph-name="ebreve" unicode="&#x115;" horiz-adv-x="1068" 
d="M786 627q0 258 -200 258q-207 0 -266 -258h466zM498 -25q-200 0 -314 123t-115 327q1 260 145 439t360 179t320 -129t104 -352q0 -37 -3 -80h-699q-7 -43 -7 -76q-1 -115 55 -185t158 -70q158 0 240 189l200 -53q-140 -312 -444 -312zM544 1455q0 -82 46 -107t105 -25
q149 0 193 132h132q-27 -124 -124 -199q-98 -75 -224 -75q-126 1 -194 65t-69 159q0 18 3 50h132z" />
    <glyph glyph-name="Edotaccent" unicode="&#x116;" horiz-adv-x="1099" 
d="M952 0h-887l228 1365h863l-36 -214h-618l-59 -354h512l-34 -202h-512l-64 -381h643zM758 1512q-48 0 -78 32q-32 32 -32 75t31 77t79 34t81 -30q34 -30 34 -80q1 -50 -33 -79t-82 -29z" />
    <glyph glyph-name="edotaccent" unicode="&#x117;" horiz-adv-x="1068" 
d="M786 627q0 258 -200 258q-207 0 -266 -258h466zM498 -25q-200 0 -314 123t-115 327q1 260 145 439t360 179t320 -129t104 -352q0 -37 -3 -80h-699q-7 -43 -7 -76q-1 -115 55 -185t158 -70q158 0 240 189l200 -53q-140 -312 -444 -312zM660 1188q-48 0 -78 32
q-32 32 -32 75t31 77t79 34t81 -30q34 -30 34 -80q1 -50 -33 -79t-82 -29z" />
    <glyph glyph-name="Eogonek" unicode="&#x118;" horiz-adv-x="1099" 
d="M798 -169q0 -92 120 -92q45 0 93 19l18 -81q-81 -36 -172 -36q-206 0 -206 157q0 133 185 202h-771l228 1365h863l-36 -214h-618l-59 -354h512l-34 -202h-512l-64 -381h643l-36 -214q-154 -77 -154 -169z" />
    <glyph glyph-name="eogonek" unicode="&#x119;" horiz-adv-x="1068" 
d="M786 627q0 258 -200 258q-207 0 -266 -258h466zM613 -337q-88 0 -133 40.5t-45 93.5q0 107 140 183q-55 -5 -83 -5q-192 0 -307.5 121.5t-115.5 328.5q0 260 144.5 439t371.5 179q186 0 299.5 -119t113.5 -362q0 -37 -3 -80h-699q-7 -43 -7 -76q0 -115 55.5 -185
t157.5 -70q158 0 240 189l200 -53q-67 -155 -215 -261t-148 -194q0 -79 99 -79q39 0 90 18l12 -73q-79 -35 -167 -35z" />
    <glyph glyph-name="Ecaron" unicode="&#x11a;" horiz-adv-x="1099" 
d="M952 0h-887l228 1365h863l-36 -214h-618l-59 -354h512l-34 -202h-512l-64 -381h643zM737 1468l-286 288l177 20l132 -131l202 131l178 -20z" />
    <glyph glyph-name="ecaron" unicode="&#x11b;" horiz-adv-x="1068" 
d="M786 627q0 258 -200 258q-207 0 -266 -258h466zM498 -25q-200 0 -314 123t-115 327q1 260 145 439t360 179t320 -129t104 -352q0 -37 -3 -80h-699q-7 -43 -7 -76q-1 -115 55 -185t158 -70q158 0 240 189l200 -53q-140 -312 -444 -312zM627 1154l-286 288l177 20l132 -131
l202 131l178 -20z" />
    <glyph glyph-name="Gcircumflex" unicode="&#x11c;" horiz-adv-x="1325" 
d="M592 -25q-219 -1 -354 151t-135 438q0 350 183 595t482 245q393 0 498 -404l-216 -54q-69 247 -287 247q-182 1 -289 -193t-107 -414q-1 -220 77 -313t209 -93q233 0 313 321h-297l34 206h526l-118 -707h-106l-41 184q-111 -209 -372 -209zM893 1790l286 -288l-178 -21
l-131 132l-203 -132l-177 21z" />
    <glyph glyph-name="gcircumflex" unicode="&#x11d;" horiz-adv-x="1039" 
d="M169 -69q0 -59 74 -103t222 -44q287 0 287 154q0 60 -45 74t-233 15q-188 0 -239 18q-66 -54 -66 -114zM537 553q97 1 151 53t54 141q0 151 -165 151q-98 0 -154 -52t-56 -139q0 -154 170 -154zM48 242q0 86 40 142t160 117q-115 83 -115 209q1 156 121 244t333 88
q75 0 126 -15q49 149 119 201t180 52q30 0 68 -5l-2 -174q-54 5 -92 5t-90 -18q-53 -18 -82 -98q156 -78 156 -232t-112 -246q-112 -93 -320 -93q-88 0 -198 29q-91 -46 -91 -124q0 -44 32 -68t131 -24h121q177 0 259 -30t130 -94q46 -64 46 -138q0 -126 -122 -230
t-425 -103q-449 0 -449 239q0 82 42 130t120 90q-86 60 -86 146zM686 1660l286 -288l-178 -21l-131 132l-203 -132l-177 21z" />
    <glyph glyph-name="Gbreve" unicode="&#x11e;" horiz-adv-x="1325" 
d="M592 -25q-219 -1 -354 151t-135 438q0 350 183 595t482 245q393 0 498 -404l-216 -54q-69 247 -287 247q-182 1 -289 -193t-107 -414q-1 -220 77 -313t209 -93q233 0 313 321h-297l34 206h526l-118 -707h-106l-41 184q-111 -209 -372 -209zM698 1766q0 -82 46 -107
t105 -25q149 0 193 132h132q-27 -124 -124 -199q-98 -75 -224 -75t-194 64t-69 160q0 18 3 50h132z" />
    <glyph glyph-name="gbreve" unicode="&#x11f;" horiz-adv-x="1039" 
d="M169 -69q0 -59 74 -103t222 -44q287 0 287 154q0 60 -45 74t-233 15q-188 0 -239 18q-66 -54 -66 -114zM537 553q97 1 151 53t54 141q0 151 -165 151q-98 0 -154 -52t-56 -139q0 -154 170 -154zM48 242q0 86 40 142t160 117q-115 83 -115 209q1 156 121 244t333 88
q75 0 126 -15q49 149 119 201t180 52q30 0 68 -5l-2 -174q-54 5 -92 5t-90 -18q-53 -18 -82 -98q156 -78 156 -232t-112 -246q-112 -93 -320 -93q-88 0 -198 29q-91 -46 -91 -124q0 -44 32 -68t131 -24h121q177 0 259 -30t130 -94q46 -64 46 -138q0 -126 -122 -230
t-425 -103q-449 0 -449 239q0 82 42 130t120 90q-86 60 -86 146zM424 1550q0 -82 46 -107t105 -25q149 0 193 132h132q-27 -124 -124 -199q-98 -75 -224 -75t-194 64t-69 160q0 18 3 50h132z" />
    <glyph glyph-name="Gdotaccent" unicode="&#x120;" horiz-adv-x="1325" 
d="M592 -25q-219 -1 -354 151t-135 438q0 350 183 595t482 245q393 0 498 -404l-216 -54q-69 247 -287 247q-182 1 -289 -193t-107 -414q-1 -220 77 -313t209 -93q233 0 313 321h-297l34 206h526l-118 -707h-106l-41 184q-111 -209 -372 -209zM840 1512q-48 0 -80 32t-31 75
q0 43 31 77q30 34 78 34t82 -30t34 -80t-34 -79q-32 -29 -80 -29z" />
    <glyph glyph-name="gdotaccent" unicode="&#x121;" horiz-adv-x="1039" 
d="M169 -69q0 -59 74 -103t222 -44q287 0 287 154q0 60 -45 74t-233 15q-188 0 -239 18q-66 -54 -66 -114zM537 553q97 1 151 53t54 141q0 151 -165 151q-98 0 -154 -52t-56 -139q0 -154 170 -154zM48 242q0 86 40 142t160 117q-115 83 -115 209q1 156 121 244t333 88
q75 0 126 -15q49 149 119 201t180 52q30 0 68 -5l-2 -174q-54 5 -92 5t-90 -18q-53 -18 -82 -98q156 -78 156 -232t-112 -246q-112 -93 -320 -93q-88 0 -198 29q-91 -46 -91 -124q0 -44 32 -68t131 -24h121q177 0 259 -30t130 -94q46 -64 46 -138q0 -126 -122 -230
t-425 -103q-449 0 -449 239q0 82 42 130t120 90q-86 60 -86 146zM614 1248q-48 0 -80 32t-31 75q0 43 31 77q30 34 78 34t82 -30t34 -80t-34 -79q-32 -29 -80 -29z" />
    <glyph glyph-name="Gcommaaccent" unicode="&#x122;" horiz-adv-x="1325" 
d="M592 -25q-219 -1 -354 151t-135 438q0 350 183 595t482 245q393 0 498 -404l-216 -54q-69 247 -287 247q-182 1 -289 -193t-107 -414q-1 -220 77 -313t209 -93q233 0 313 321h-297l34 206h526l-118 -707h-106l-41 184q-111 -209 -372 -209zM466 -479h-93l105 370h205z
" />
    <glyph glyph-name="gcommaaccent" unicode="&#x123;" horiz-adv-x="1039" 
d="M169 -69q0 -59 74 -103t222 -44q287 0 287 154q0 60 -45 74t-233 15q-188 0 -239 18q-66 -54 -66 -114zM537 553q97 1 151 53t54 141q0 151 -165 151q-98 0 -154 -52t-56 -139q0 -154 170 -154zM48 242q0 86 40 142t160 117q-115 83 -115 209q1 156 121 244t333 88
q75 0 126 -15q49 149 119 201t180 52q30 0 68 -5l-2 -174q-54 5 -92 5t-90 -18q-53 -18 -82 -98q156 -78 156 -232t-112 -246q-112 -93 -320 -93q-88 0 -198 29q-91 -46 -91 -124q0 -44 32 -68t131 -24h121q177 0 259 -30t130 -94q46 -64 46 -138q0 -126 -122 -230
t-425 -103q-449 0 -449 239q0 82 42 130t120 90q-86 60 -86 146zM653 1602h93l-105 -397h-205z" />
    <glyph glyph-name="Hcircumflex" unicode="&#x124;" horiz-adv-x="1323" 
d="M1088 0h-245l99 591h-534l-99 -591h-244l228 1365h245l-94 -559h534l94 559h244zM892 1790l286 -288l-178 -21l-131 132l-203 -132l-177 21z" />
    <glyph glyph-name="hcircumflex" unicode="&#x125;" horiz-adv-x="1102" 
d="M775 730q0 134 -130 134q-89 0 -169 -75t-116 -288l-84 -501h-224l228 1365h224l-87 -525q126 207 311 207q115 0 195 -66t80 -208q0 -41 -22 -172l-100 -601h-224l100 601q18 105 18 129zM473 1790l286 -288l-178 -21l-131 132l-203 -132l-177 21z" />
    <glyph glyph-name="Hbar" unicode="&#x126;" horiz-adv-x="1323" 
d="M474 985l-30 -179h534l30 179h-534zM93 985l32 191h137l31 189h245l-32 -189h534l32 189h244l-32 -189h137l-32 -191h-137l-164 -985h-245l99 591h-534l-99 -591h-244l165 985h-137z" />
    <glyph glyph-name="hbar" unicode="&#x127;" horiz-adv-x="1102" 
d="M728 1047q115 0 195 -66t80 -208q0 -41 -22 -172l-100 -601h-224l100 601q18 105 18 129q0 134 -130 134q-89 0 -169.5 -75t-115.5 -288l-84 -501h-224l189 1131h-123l21 122h123l18 112h224l-18 -112h286l-20 -122h-287l-48 -291q126 207 311 207z" />
    <glyph glyph-name="Itilde" unicode="&#x128;" horiz-adv-x="553" 
d="M318 0h-253l228 1365h253zM569 1515q-61 1 -139 43t-118 42t-132 -80l-52 96q114 122 218 122q56 0 134 -40t129 -41q52 0 119 74l52 -99q-88 -117 -211 -117z" />
    <glyph glyph-name="itilde" unicode="&#x129;" horiz-adv-x="508" 
d="M287 0h-235l170 1017h235zM487 1201q-61 1 -139 43t-118 42t-132 -80l-52 96q114 122 218 122q56 0 134 -40t129 -41q52 0 119 74l52 -99q-88 -117 -211 -117z" />
    <glyph glyph-name="Imacron" unicode="&#x12a;" horiz-adv-x="553" 
d="M318 0h-253l228 1365h253zM752 1550h-586l22 130h585z" />
    <glyph glyph-name="imacron" unicode="&#x12b;" horiz-adv-x="508" 
d="M287 0h-235l170 1017h235zM667 1222h-586l22 130h585z" />
    <glyph glyph-name="Ibreve" unicode="&#x12c;" horiz-adv-x="553" 
d="M318 0h-253l228 1365h253zM311 1766q-1 -82 45 -107t106 -25q149 0 193 132h132q-27 -124 -124 -199t-223 -75t-196 64q-68 64 -68 160q0 18 3 50h132z" />
    <glyph glyph-name="ibreve" unicode="&#x12d;" horiz-adv-x="508" 
d="M287 0h-235l170 1017h235zM243 1455q-1 -82 45 -107t106 -25q149 0 193 132h132q-27 -124 -124 -199t-223 -75q-126 1 -196 65q-68 64 -68 159q0 18 3 50h132z" />
    <glyph glyph-name="Iogonek" unicode="&#x12e;" horiz-adv-x="553" 
d="M185 -168q0 -37 28 -64.5t68 -27.5t84 18l18 -81q-80 -36 -159 -36t-132.5 41.5t-53.5 114.5q0 112 165 203h-136l229 1365h252l-228 -1365q-135 -86 -135 -168z" />
    <glyph glyph-name="iogonek" unicode="&#x12f;" horiz-adv-x="508" 
d="M477 1135h-235l41 244h235zM123 -174q0 -80 98 -80q40 0 91 18l12 -73q-82 -35 -167 -35t-132 40t-47 95q0 131 199 209h-125l170 1017h235l-170 -1017q-164 -81 -164 -174z" />
    <glyph glyph-name="Idotaccent" unicode="&#x130;" horiz-adv-x="553" 
d="M318 0h-253l228 1365h253zM450 1512q-48 0 -78 32q-32 32 -32 75t31 77t79 34t81 -30q34 -30 34 -80q1 -50 -33 -79t-82 -29z" />
    <glyph glyph-name="dotlessi" unicode="&#x131;" horiz-adv-x="508" 
d="M287 0h-235l170 1017h235z" />
    <glyph glyph-name="IJ" unicode="&#x132;" horiz-adv-x="1176" 
d="M498 193q155 0 207.5 60t77.5 209l150 903h250l-144 -863q-34 -200 -78 -299.5t-148.5 -163.5t-279.5 -64q-93 0 -209 22l38 204q75 -8 136 -8zM188 0h-253l228 1365h253z" />
    <glyph glyph-name="ij" unicode="&#x133;" horiz-adv-x="1016" 
d="M287 0h-235l170 1017h235zM477 1135h-235l41 244h235zM415 -384q-109 0 -181 12l13 192q60 -13 111 -13q112 0 149 52t61 193l161 965h235l-155 -927q-31 -188 -69 -276t-126 -143q-90 -55 -199 -55zM984 1139h-235l41 240h235z" />
    <glyph glyph-name="Jcircumflex" unicode="&#x134;" horiz-adv-x="767" 
d="M90 193q155 0 207 60t77 209l151 903h250l-145 -863q-34 -200 -78 -300t-148 -163q-104 -64 -279 -64q-93 0 -210 22l39 204q74 -8 136 -8zM701 1790l286 -288l-178 -21l-131 132l-203 -132l-177 21z" />
    <glyph glyph-name="jcircumflex" unicode="&#x135;" horiz-adv-x="508" 
d="M-119 -384q-82 0 -154 12l13 192q60 -13 111 -13q112 0 149 52t61 193l161 965h235l-155 -927q-31 -185 -68 -273.5t-126 -144.5t-227 -56zM399 1476l286 -288l-177 -21l-131 132l-203 -132l-177 21z" />
    <glyph glyph-name="Kcommaaccent" unicode="&#x136;" horiz-adv-x="1264" 
d="M1145 0h-258l-203 685l-318 -348l-57 -337h-244l228 1365h245l-100 -595q-3 -17 -31 -144q36 56 77 101l576 638h262l-447 -487zM454 -479h-93l105 370h205z" />
    <glyph glyph-name="kcommaaccent" unicode="&#x137;" horiz-adv-x="1110" 
d="M1012 0h-242l-177 542l-268 -248l-49 -294h-224l228 1365h224l-137 -823l512 475h239l-345 -321zM387 -479h-93l105 370h205z" />
    <glyph glyph-name="kgreenlandic" unicode="&#x138;" horiz-adv-x="1110" 
d="M1012 0h-242l-177 542l-268 -248l-49 -294h-224l170 1017h224l-79 -475l512 475h239l-345 -321z" />
    <glyph glyph-name="Lacute" unicode="&#x139;" horiz-adv-x="1000" 
d="M884 0h-819l228 1365h260l-193 -1151h560zM731 1800l66 -136l-417 -190l-42 107z" />
    <glyph glyph-name="lacute" unicode="&#x13a;" horiz-adv-x="508" 
d="M287 0h-235l228 1365h235zM684 1800l66 -136l-417 -190l-42 107z" />
    <glyph glyph-name="Lcommaaccent" unicode="&#x13b;" horiz-adv-x="1000" 
d="M884 0h-819l228 1365h260l-193 -1151h560zM356 -479h-93l105 370h205z" />
    <glyph glyph-name="lcommaaccent" unicode="&#x13c;" horiz-adv-x="508" 
d="M287 0h-235l228 1365h235zM49 -479h-93l105 370h205z" />
    <glyph glyph-name="Lcaron" unicode="&#x13d;" horiz-adv-x="1000" 
d="M884 0h-819l228 1365h260l-193 -1151h560zM786 968h-93l105 397h205z" />
    <glyph glyph-name="lcaron" unicode="&#x13e;" horiz-adv-x="720" 
d="M287 0h-235l228 1365h235zM653 968h-93l105 397h205z" />
    <glyph glyph-name="Ldot" unicode="&#x13f;" horiz-adv-x="1000" 
d="M884 0h-819l228 1365h260l-193 -1151h560zM910 571h-239l42 251h239z" />
    <glyph glyph-name="ldot" unicode="&#x140;" horiz-adv-x="748" 
d="M287 0h-235l228 1365h235zM759 571h-239l42 251h239z" />
    <glyph glyph-name="Lslash" unicode="&#x141;" horiz-adv-x="1014" 
d="M898 0h-818l89 531l-152 -91l36 216l152 91l103 618h258l-86 -516l299 172l-36 -216l-299 -172l-70 -419h560z" />
    <glyph glyph-name="lslash" unicode="&#x142;" horiz-adv-x="521" 
d="M293 0h-235l104 618l-140 -101l25 150l140 101l100 597h235l-85 -504l139 93l-25 -151l-139 -93z" />
    <glyph glyph-name="Nacute" unicode="&#x143;" horiz-adv-x="1330" 
d="M1094 0h-195l-466 1026l-171 -1026h-197l228 1365h253l425 -937l157 937h195zM1117 1800l66 -136l-417 -190l-42 107z" />
    <glyph glyph-name="nacute" unicode="&#x144;" horiz-adv-x="1100" 
d="M770 732q0 52 -32 92q-32 38 -95 38q-102 0 -180 -104t-110 -300l-77 -458h-224l170 1017h208l-40 -237q95 178 176 222t175 43q93 1 175 -75t82 -211q0 -53 -20 -169l-99 -590h-224l104 611q11 69 11 121zM921 1487l66 -136l-417 -190l-42 107z" />
    <glyph glyph-name="Ncommaaccent" unicode="&#x145;" horiz-adv-x="1330" 
d="M1094 0h-195l-466 1026l-171 -1026h-197l228 1365h253l425 -937l157 937h195zM462 -479h-93l105 370h205z" />
    <glyph glyph-name="ncommaaccent" unicode="&#x146;" horiz-adv-x="1100" 
d="M770 732q0 52 -32 92q-32 38 -95 38q-102 0 -180 -104t-110 -300l-77 -458h-224l170 1017h208l-40 -237q95 178 176 222t175 43q93 1 175 -75t82 -211q0 -53 -20 -169l-99 -590h-224l104 611q11 69 11 121zM340 -479h-93l105 370h205z" />
    <glyph glyph-name="Ncaron" unicode="&#x147;" horiz-adv-x="1330" 
d="M1094 0h-195l-466 1026l-171 -1026h-197l228 1365h253l425 -937l157 937h195zM874 1467l-286 288l177 20l132 -131l202 131l178 -20z" />
    <glyph glyph-name="ncaron" unicode="&#x148;" horiz-adv-x="1100" 
d="M770 732q0 52 -32 92q-32 38 -95 38q-102 0 -180 -104t-110 -300l-77 -458h-224l170 1017h208l-40 -237q95 178 176 222t175 43q93 1 175 -75t82 -211q0 -53 -20 -169l-99 -590h-224l104 611q11 69 11 121zM649 1154l-286 288l177 20l132 -131l202 131l178 -20z" />
    <glyph glyph-name="napostrophe" unicode="&#x149;" horiz-adv-x="1372" 
d="M1041 732q1 52 -31 92q-32 38 -96 38q-102 0 -180 -104t-110 -300l-77 -458h-224l170 1017h208l-40 -237q95 178 176 222t175 43q94 1 176 -75t81 -211q0 -53 -20 -169l-99 -590h-224l104 611q11 69 11 121zM273 885h-80l152 259h-109l37 221h218l-35 -206z" />
    <glyph glyph-name="Eng" unicode="&#x14a;" horiz-adv-x="1323" 
d="M896 1404q146 0 249 -103t103 -276q0 -70 -28 -233l-90 -540q-42 -249 -90.5 -368t-164.5 -193.5t-291 -74.5q-95 0 -180 16l16 214q86 -17 176 -17t145.5 37t81.5 103t54 233l108 645q17 101 17 173t-45.5 125.5t-134.5 53.5q-143 0 -252.5 -149t-157.5 -435l-103 -615
h-244l228 1365h223l-53 -318q85 154 129.5 212.5t127.5 101.5t176 43z" />
    <glyph glyph-name="eng" unicode="&#x14b;" horiz-adv-x="1100" 
d="M741 1045q94 0 175.5 -75.5t81.5 -210.5q0 -53 -20 -169l-84 -500q-31 -185 -67.5 -273t-125.5 -144.5t-227 -56.5q-82 0 -155 12l12 185q65 -12 131 -12t106 25.5t58.5 69.5t37.5 156l93 559q12 71 12 122t-31 90t-95 39q-102 0 -180 -103.5t-110 -300.5l-77 -458h-224
l170 1017h208l-40 -237q95 178 176 221.5t175 43.5z" />
    <glyph glyph-name="Omacron" unicode="&#x14c;" horiz-adv-x="1324" 
d="M363 543q0 -205 79 -290t192 -85q198 0 291 219t93 454q0 358 -282 358q-188 1 -280 -225t-93 -431zM104 598q0 296 176 552q176 254 471 254q245 0 387 -165t142 -470t-179 -555t-476 -251q-217 -1 -369 169t-152 466zM1131 1550h-586l22 130h585z" />
    <glyph glyph-name="omacron" unicode="&#x14d;" horiz-adv-x="1075" 
d="M508 157q136 1 200 141t64 294q0 264 -204 264q-143 0 -205 -151t-62 -289t60 -199q60 -60 147 -60zM506 -26q-112 0 -218 50t-162 158t-55 259q0 243 143 421t374 177q190 1 304 -127t114 -346t-136 -405t-364 -187zM944 1222h-586l22 130h585z" />
    <glyph glyph-name="Obreve" unicode="&#x14e;" horiz-adv-x="1324" 
d="M363 543q0 -205 79 -290t192 -85q198 0 291 219t93 454q0 358 -282 358q-188 1 -280 -225t-93 -431zM104 598q0 296 176 552q176 254 471 254q245 0 387 -165t142 -470t-179 -555t-476 -251q-217 -1 -369 169t-152 466zM663 1766q-1 -82 45 -107t106 -25q149 0 193 132
h132q-27 -124 -124 -199t-223 -75t-196 64q-68 64 -68 160q0 18 3 50h132z" />
    <glyph glyph-name="obreve" unicode="&#x14f;" horiz-adv-x="1075" 
d="M508 157q136 1 200 141t64 294q0 264 -204 264q-143 0 -205 -151t-62 -289t60 -199q60 -60 147 -60zM506 -26q-112 0 -218 50t-162 158t-55 259q0 243 143 421t374 177q190 1 304 -127t114 -346t-136 -405t-364 -187zM492 1455q0 -82 46 -107t105 -25q149 0 193 132h132
q-27 -124 -124 -199q-98 -75 -224 -75q-126 1 -194 65t-69 159q0 18 3 50h132z" />
    <glyph glyph-name="Ohungarumlaut" unicode="&#x150;" horiz-adv-x="1324" 
d="M363 543q0 -205 79 -290t192 -85q198 0 291 219t93 454q0 358 -282 358q-188 1 -280 -225t-93 -431zM104 598q0 296 176 552q176 254 471 254q245 0 387 -165t142 -470t-179 -555t-476 -251q-217 -1 -369 169t-152 466zM1226 1794l80 -117l-352 -210l-53 84zM885 1794
l80 -117l-352 -210l-53 84z" />
    <glyph glyph-name="ohungarumlaut" unicode="&#x151;" horiz-adv-x="1075" 
d="M508 157q136 1 200 141t64 294q0 264 -204 264q-143 0 -205 -151t-62 -289t60 -199q60 -60 147 -60zM506 -26q-112 0 -218 50t-162 158t-55 259q0 243 143 421t374 177q190 1 304 -127t114 -346t-136 -405t-364 -187zM1048 1481l80 -117l-352 -210l-53 84zM707 1481
l80 -117l-352 -210l-53 84z" />
    <glyph glyph-name="OE" unicode="&#x152;" horiz-adv-x="1766" 
d="M750 1200q-180 0 -281 -209t-101 -453q0 -175 69 -270.5t200 -95.5q83 0 148 46l154 920q-88 62 -189 62zM615 -33q-224 0 -365.5 170t-141.5 448q0 350 184.5 582t448.5 232q108 0 218 -31h862l-36 -214h-599l-61 -365h498l-33 -201h-498l-63 -374h627l-36 -214h-799
q-109 -33 -206 -33z" />
    <glyph glyph-name="oe" unicode="&#x153;" horiz-adv-x="1707" 
d="M500 149q140 0 203.5 144.5t63.5 286.5t-54.5 206t-144.5 64q-130 0 -197.5 -136t-67.5 -313q0 -113 48.5 -182.5t148.5 -69.5zM1227 879q-190 0 -256 -254h461q-7 254 -205 254zM1138 -26q-202 0 -318 143q-128 -151 -323 -151t-311.5 125t-116.5 352t142.5 408.5
t366.5 181.5q185 0 314 -136q144 145 346 145q168 0 284.5 -117t116.5 -342q0 -42 -4 -101h-689q-6 -48 -6 -79q0 -126 59 -188.5t153 -62.5q158 0 234 188l199 -52q-142 -314 -447 -314z" />
    <glyph glyph-name="Racute" unicode="&#x154;" horiz-adv-x="1309" 
d="M775 759q155 -1 205 69t50 142t-34 118t-82 62q-47 16 -141 16h-269l-68 -407h339zM807 1365q154 -1 244 -29q89 -28 161 -125t72 -227t-79 -244t-244 -151l167 -589h-261l-145 560h-319l-94 -560h-244l228 1365h514zM988 1800l66 -136l-417 -190l-42 107z" />
    <glyph glyph-name="racute" unicode="&#x155;" horiz-adv-x="711" 
d="M734 1045q9 0 27 -1l-29 -250q-33 2 -50 2q-82 0 -156 -44t-116 -118t-69 -245l-65 -389h-224l170 1017h206l-46 -277q131 305 352 305zM783 1487l66 -136l-417 -190l-42 107z" />
    <glyph glyph-name="Rcommaaccent" unicode="&#x156;" horiz-adv-x="1309" 
d="M775 759q155 -1 205 69t50 142t-34 118t-82 62q-47 16 -141 16h-269l-68 -407h339zM807 1365q154 -1 244 -29q89 -28 161 -125t72 -227t-79 -244t-244 -151l167 -589h-261l-145 560h-319l-94 -560h-244l228 1365h514zM449 -479h-93l105 370h205z" />
    <glyph glyph-name="rcommaaccent" unicode="&#x157;" horiz-adv-x="711" 
d="M734 1045q9 0 27 -1l-29 -250q-33 2 -50 2q-82 0 -156 -44t-116 -118t-69 -245l-65 -389h-224l170 1017h206l-46 -277q131 305 352 305zM44 -479h-93l105 370h205z" />
    <glyph glyph-name="Rcaron" unicode="&#x158;" horiz-adv-x="1309" 
d="M775 759q155 -1 205 69t50 142t-34 118t-82 62q-47 16 -141 16h-269l-68 -407h339zM807 1365q154 -1 244 -29q89 -28 161 -125t72 -227t-79 -244t-244 -151l167 -589h-261l-145 560h-319l-94 -560h-244l228 1365h514zM745 1467l-286 288l177 20l132 -131l202 131l178 -20
z" />
    <glyph glyph-name="rcaron" unicode="&#x159;" horiz-adv-x="711" 
d="M734 1045q9 0 27 -1l-29 -250q-33 2 -50 2q-82 0 -156 -44t-116 -118t-69 -245l-65 -389h-224l170 1017h206l-46 -277q131 305 352 305zM501 1154l-286 288l177 20l132 -131l202 131l178 -20z" />
    <glyph glyph-name="Sacute" unicode="&#x15a;" horiz-adv-x="1132" 
d="M631 1193q-113 1 -177 -53t-64 -124t43 -108t142 -67l187 -55q81 -23 154 -73t109 -125t36 -158q-1 -186 -139 -322t-404 -137q-412 0 -534 340l223 79q81 -214 326 -214q140 0 208 64t68 152q0 87 -90 129q-39 18 -179 58t-220 82t-132 122q-50 80 -50 190
q0 187 135 306t368 119q344 0 474 -292l-224 -83q-72 170 -260 170zM958 1800l66 -136l-417 -190l-42 107z" />
    <glyph glyph-name="sacute" unicode="&#x15b;" horiz-adv-x="938" 
d="M418 147q92 -1 144 37t52 88t-36 76q-36 25 -146 56q-111 31 -177 63t-111 98t-45 151q0 134 101 232t285 98q299 0 420 -240l-193 -62q-67 133 -221 133q-69 0 -117 -32t-48 -78t24 -71t140 -59q116 -33 194 -69t124 -102t46 -150q0 -144 -110 -241t-328 -97
q-347 0 -453 269l214 52q59 -152 241 -152zM802 1487l66 -136l-417 -190l-42 107z" />
    <glyph glyph-name="Scircumflex" unicode="&#x15c;" horiz-adv-x="1132" 
d="M631 1193q-113 1 -177 -53t-64 -124t43 -108t142 -67l187 -55q81 -23 154 -73t109 -125t36 -158q-1 -186 -139 -322t-404 -137q-412 0 -534 340l223 79q81 -214 326 -214q140 0 208 64t68 152q0 87 -90 129q-39 18 -179 58t-220 82t-132 122q-50 80 -50 190
q0 187 135 306t368 119q344 0 474 -292l-224 -83q-72 170 -260 170zM749 1790l286 -288l-178 -21l-131 132l-203 -132l-177 21z" />
    <glyph glyph-name="scircumflex" unicode="&#x15d;" horiz-adv-x="938" 
d="M418 147q92 -1 144 37t52 88t-36 76q-36 25 -146 56q-111 31 -177 63t-111 98t-45 151q0 134 101 232t285 98q299 0 420 -240l-193 -62q-67 133 -221 133q-69 0 -117 -32t-48 -78t24 -71t140 -59q116 -33 194 -69t124 -102t46 -150q0 -144 -110 -241t-328 -97
q-347 0 -453 269l214 52q59 -152 241 -152zM595 1476l286 -288l-178 -21l-131 132l-203 -132l-177 21z" />
    <glyph glyph-name="Scedilla" unicode="&#x15e;" horiz-adv-x="1132" 
d="M653 -235q0 -77 -65.5 -137t-165.5 -60t-220 61l46 82q109 -51 157 -51t77.5 24.5t29.5 59.5q0 77 -137 77q-16 0 -57 -2l78 161q-314 55 -412 331l223 79q81 -214 326 -214q140 0 208 64.5t68 151.5t-64.5 117t-204.5 70t-220.5 82t-131 122t-50.5 190q0 187 135 306
t368 119q344 0 474 -292l-224 -83q-72 170 -260 170q-112 0 -176.5 -53.5t-64.5 -123.5t43 -108.5t142 -66.5l187 -55q81 -23 154 -73t109 -125t36 -158q0 -187 -138.5 -323t-404.5 -136q-11 0 -35 1l-35 -72q205 0 205 -135z" />
    <glyph glyph-name="scedilla" unicode="&#x15f;" horiz-adv-x="938" 
d="M418 147q92 -1 144 37t52 88t-36 76q-36 25 -146 56q-111 31 -177 63t-111 98t-45 151q0 134 101 232t285 98q299 0 420 -240l-193 -62q-67 133 -221 133q-69 0 -117 -32t-48 -78t24 -71t140 -59q116 -33 194 -69t124 -102t46 -150q0 -144 -110 -241t-328 -97
q-19 0 -38 1l-32 -72q72 0 124 -36q52 -35 51 -99t-63 -120t-140 -55q-78 0 -199 60l46 78q76 -46 139 -46q85 0 85 66q0 74 -166 74l77 158q-249 40 -337 260l214 52q59 -152 241 -152z" />
    <glyph glyph-name="Scaron" unicode="&#x160;" horiz-adv-x="1132" 
d="M631 1193q-113 1 -177 -53t-64 -124t43 -108t142 -67l187 -55q81 -23 154 -73t109 -125t36 -158q-1 -186 -139 -322t-404 -137q-412 0 -534 340l223 79q81 -214 326 -214q140 0 208 64t68 152q0 87 -90 129q-39 18 -179 58t-220 82t-132 122q-50 80 -50 190
q0 187 135 306t368 119q344 0 474 -292l-224 -83q-72 170 -260 170zM679 1468l-286 288l177 20l132 -131l202 131l178 -20z" />
    <glyph glyph-name="scaron" unicode="&#x161;" horiz-adv-x="938" 
d="M418 147q92 -1 144 37t52 88t-36 76q-36 25 -146 56q-111 31 -177 63t-111 98t-45 151q0 134 101 232t285 98q299 0 420 -240l-193 -62q-67 133 -221 133q-69 0 -117 -32t-48 -78t24 -71t140 -59q116 -33 194 -69t124 -102t46 -150q0 -144 -110 -241t-328 -97
q-347 0 -453 269l214 52q59 -152 241 -152zM571 1154l-286 288l177 20l132 -131l202 131l178 -20z" />
    <glyph glyph-name="Tcommaaccent" unicode="&#x162;" horiz-adv-x="945" 
d="M1053 1151h-347l-193 -1151h-251l193 1151h-347l36 214h945zM255 -479h-93l105 370h205z" />
    <glyph glyph-name="tcommaaccent" unicode="&#x163;" horiz-adv-x="657" 
d="M385 -17q-141 -1 -207 63t-65 155q0 47 23 183l77 450h-151l31 183h153l61 274l204 14l-48 -288h219l-30 -183h-220l-76 -453q-14 -84 -14 -108q0 -97 144 -97q30 0 73 7l-31 -185q-101 -15 -143 -15zM185 -479h-93l105 370h205z" />
    <glyph glyph-name="Tcaron" unicode="&#x164;" horiz-adv-x="945" 
d="M1053 1151h-347l-193 -1151h-251l193 1151h-347l36 214h945zM633 1468l-286 288l177 20l132 -131l202 131l178 -20z" />
    <glyph glyph-name="tcaron" unicode="&#x165;" horiz-adv-x="724" 
d="M385 -17q-141 -1 -207 63t-65 155q0 47 23 183l77 450h-151l31 183h153l61 274l204 14l-48 -288h219l-30 -183h-220l-76 -453q-14 -84 -14 -108q0 -97 144 -97q30 0 73 7l-31 -185q-101 -15 -143 -15zM685 1126h-93l105 397h205z" />
    <glyph glyph-name="Tbar" unicode="&#x166;" horiz-adv-x="945" 
d="M935 887l-32 -191h-273l-116 -696h-251l116 696h-273l32 191h273l44 264h-347l36 214h945l-36 -214h-347l-44 -264h273z" />
    <glyph glyph-name="tbar" unicode="&#x167;" horiz-adv-x="657" 
d="M342 273q0 -97 143 -97q31 0 74 7l-31 -185q-101 -15 -144 -15q-144 0 -208 64.5t-64 153.5q0 48 24 183l30 180h-136l21 123h136l26 147h-152l31 183h154l60 274l204 14l-48 -288h220l-31 -183h-220l-24 -147h206l-20 -123h-207l-30 -183q-14 -82 -14 -108z" />
    <glyph glyph-name="Utilde" unicode="&#x168;" horiz-adv-x="1239" 
d="M578 -31q-244 -1 -374 161q-76 94 -75 252q0 79 19 193l132 790h252l-135 -803q-22 -130 -22 -174q0 -110 71 -159t158 -49q88 0 150 32t96 98t63 233l137 822h196l-148 -882q-30 -174 -74 -269t-162 -170t-284 -75zM937 1515q-61 1 -139 43t-118 42t-132 -80l-52 96
q114 122 218 122q56 0 134 -40t129 -41q52 0 119 74l52 -99q-88 -117 -211 -117z" />
    <glyph glyph-name="utilde" unicode="&#x169;" horiz-adv-x="1083" 
d="M346 -19q-120 0 -184 77t-64 171q0 49 26 202l98 586h224l-106 -631q-14 -88 -14 -122t31 -63t91 -29t131 57q72 57 102 133t55 225l72 430h224l-170 -1017h-208l37 222q-129 -241 -345 -241zM791 1201q-61 1 -139 43t-118 42t-132 -80l-52 96q114 122 218 122
q56 0 134 -40t129 -41q52 0 119 74l52 -99q-88 -117 -211 -117z" />
    <glyph glyph-name="Umacron" unicode="&#x16a;" horiz-adv-x="1239" 
d="M578 -31q-244 -1 -374 161q-76 94 -75 252q0 79 19 193l132 790h252l-135 -803q-22 -130 -22 -174q0 -110 71 -159t158 -49q88 0 150 32t96 98t63 233l137 822h196l-148 -882q-30 -174 -74 -269t-162 -170t-284 -75zM1099 1550h-586l22 130h585z" />
    <glyph glyph-name="umacron" unicode="&#x16b;" horiz-adv-x="1083" 
d="M346 -19q-120 0 -184 77t-64 171q0 49 26 202l98 586h224l-106 -631q-14 -88 -14 -122t31 -63t91 -29t131 57q72 57 102 133t55 225l72 430h224l-170 -1017h-208l37 222q-129 -241 -345 -241zM954 1222h-586l22 130h585z" />
    <glyph glyph-name="Ubreve" unicode="&#x16c;" horiz-adv-x="1239" 
d="M578 -31q-244 -1 -374 161q-76 94 -75 252q0 79 19 193l132 790h252l-135 -803q-22 -130 -22 -174q0 -110 71 -159t158 -49q88 0 150 32t96 98t63 233l137 822h196l-148 -882q-30 -174 -74 -269t-162 -170t-284 -75zM673 1766q-1 -82 45 -107t106 -25q149 0 193 132h132
q-27 -124 -124 -199t-223 -75t-196 64q-68 64 -68 160q0 18 3 50h132z" />
    <glyph glyph-name="ubreve" unicode="&#x16d;" horiz-adv-x="1083" 
d="M346 -19q-120 0 -184 77t-64 171q0 49 26 202l98 586h224l-106 -631q-14 -88 -14 -122t31 -63t91 -29t131 57q72 57 102 133t55 225l72 430h224l-170 -1017h-208l37 222q-129 -241 -345 -241zM539 1455q-1 -82 45 -107t106 -25q149 0 193 132h132q-27 -124 -124 -199
t-223 -75q-126 1 -196 65q-68 64 -68 159q0 18 3 50h132z" />
    <glyph glyph-name="Uring" unicode="&#x16e;" horiz-adv-x="1239" 
d="M578 -31q-244 -1 -374 161q-76 94 -75 252q0 79 19 193l132 790h252l-135 -803q-22 -130 -22 -174q0 -110 71 -159t158 -49q88 0 150 32t96 98t63 233l137 822h196l-148 -882q-30 -174 -74 -269t-162 -170t-284 -75zM812 1550q41 0 61 26t20 58q1 32 -21 56t-56 24
t-61 -21q-26 -21 -26 -57t21 -62q21 -24 62 -24zM811 1446q-78 0 -132 54t-54 131q1 77 55 132t126 55t132 -49q58 -49 58 -131t-54 -137t-131 -55z" />
    <glyph glyph-name="uring" unicode="&#x16f;" horiz-adv-x="1083" 
d="M346 -19q-120 0 -184 77t-64 171q0 49 26 202l98 586h224l-106 -631q-14 -88 -14 -122t31 -63t91 -29t131 57q72 57 102 133t55 225l72 430h224l-170 -1017h-208l37 222q-129 -241 -345 -241zM676 1237q41 -1 61 25t20 58q1 32 -21 57q-22 24 -56 24t-61 -21
q-26 -22 -26 -58t21 -60t62 -25zM675 1133q-78 0 -132 54t-54 131q1 77 55 132t126 55t132 -49q58 -49 58 -131t-54 -137t-131 -55z" />
    <glyph glyph-name="Uhungarumlaut" unicode="&#x170;" horiz-adv-x="1239" 
d="M578 -31q-244 -1 -374 161q-76 94 -75 252q0 79 19 193l132 790h252l-135 -803q-22 -130 -22 -174q0 -110 71 -159t158 -49q88 0 150 32t96 98t63 233l137 822h196l-148 -882q-30 -174 -74 -269t-162 -170t-284 -75zM1197 1794l80 -117l-352 -210l-53 84zM856 1794
l80 -117l-352 -210l-53 84z" />
    <glyph glyph-name="uhungarumlaut" unicode="&#x171;" horiz-adv-x="1083" 
d="M346 -19q-120 0 -184 77t-64 171q0 49 26 202l98 586h224l-106 -631q-14 -88 -14 -122t31 -63t91 -29t131 57q72 57 102 133t55 225l72 430h224l-170 -1017h-208l37 222q-129 -241 -345 -241zM1057 1481l80 -117l-352 -210l-53 84zM716 1481l80 -117l-352 -210l-53 84z
" />
    <glyph glyph-name="Uogonek" unicode="&#x172;" horiz-adv-x="1239" 
d="M375 388q0 -110 71 -159t158 -49t149.5 32t97 98t62.5 233l137 822h196l-148 -882q-35 -209 -83 -286t-152 -157t-133.5 -117t-29.5 -86q0 -91 119 -91q46 0 93 18l18 -80q-82 -36 -172 -36q-206 0 -206 157q0 111 127 171q-70 -8 -107 -8q-126 0 -284.5 75.5
t-158.5 338.5q0 79 19 193l132 790h252l-135 -803q-22 -130 -22 -174z" />
    <glyph glyph-name="uogonek" unicode="&#x173;" horiz-adv-x="1083" 
d="M346 -19q-120 0 -184 77t-64 171q0 49 26 202l98 586h224l-106 -631q-14 -88 -14 -122t31 -63t91 -29t131 57q72 57 102 133t55 225l72 430h224l-170 -1017q-164 -81 -164 -174q0 -80 98 -80q40 0 91 18l12 -73q-82 -35 -167 -35t-132 40t-47 95q0 131 199 209h-98
l37 222q-129 -241 -345 -241z" />
    <glyph glyph-name="Wcircumflex" unicode="&#x174;" horiz-adv-x="1782" 
d="M1332 -10h-246l-120 1028l-421 -1028h-237l-160 1375h264l91 -1031l419 1031h243l109 -1031l415 1031h216zM1115 1790l286 -288l-178 -21l-131 132l-203 -132l-177 21z" />
    <glyph glyph-name="wcircumflex" unicode="&#x175;" horiz-adv-x="1432" 
d="M1031 0h-210l-77 723l-294 -723h-206l-152 1017h231l92 -703l294 703h202l74 -701l314 701h198zM870 1476l286 -288l-178 -21l-131 132l-203 -132l-177 21z" />
    <glyph glyph-name="Ycircumflex" unicode="&#x176;" horiz-adv-x="1061" 
d="M593 0h-257l96 575l-347 790h281l242 -590l388 590h236l-545 -802zM762 1790l286 -288l-178 -21l-131 132l-203 -132l-177 21z" />
    <glyph glyph-name="ycircumflex" unicode="&#x177;" horiz-adv-x="933" 
d="M84 -176q74 0 120 30t85 110l38 81l-249 972h240l154 -700l336 700h196l-522 -1053q-73 -146 -112 -202q-92 -132 -306 -132q-56 0 -121 9l10 194q57 -9 131 -9zM635 1476l286 -288l-178 -21l-131 132l-203 -132l-177 21z" />
    <glyph glyph-name="Ydieresis" unicode="&#x178;" horiz-adv-x="1061" 
d="M593 0h-257l96 575l-347 790h281l242 -590l388 590h236l-545 -802zM878 1512q-48 0 -80 32t-31 76q-1 44 31 76q32 34 79 34t81 -30t35 -80t-33 -79t-82 -29zM544 1512q-48 0 -80 32t-31 75q0 43 31 77q30 34 78 34t82 -30t34 -80t-34 -79q-32 -29 -80 -29z" />
    <glyph glyph-name="Zacute" unicode="&#x179;" horiz-adv-x="1077" 
d="M958 0h-1002l34 201l822 950h-643l36 214h957l-26 -171l-851 -980h709zM968 1800l66 -136l-417 -190l-42 107z" />
    <glyph glyph-name="zacute" unicode="&#x17a;" horiz-adv-x="863" 
d="M731 0h-765l28 183l571 658h-432l29 176h722l-26 -158l-583 -676h486zM805 1487l66 -136l-417 -190l-42 107z" />
    <glyph glyph-name="Zdotaccent" unicode="&#x17b;" horiz-adv-x="1077" 
d="M958 0h-1002l34 201l822 950h-643l36 214h957l-26 -171l-851 -980h709zM708 1512q-48 0 -80 32t-31 75q0 43 31 77q30 34 78 34t82 -30t34 -80t-34 -79q-32 -29 -80 -29z" />
    <glyph glyph-name="zdotaccent" unicode="&#x17c;" horiz-adv-x="863" 
d="M731 0h-765l28 183l571 658h-432l29 176h722l-26 -158l-583 -676h486zM552 1188q-48 0 -78 32q-32 32 -32 75t31 77t79 34t81 -30q34 -30 34 -80q1 -50 -33 -79t-82 -29z" />
    <glyph glyph-name="Zcaron" unicode="&#x17d;" horiz-adv-x="1077" 
d="M958 0h-1002l34 201l822 950h-643l36 214h957l-26 -171l-851 -980h709zM685 1468l-286 288l177 20l132 -131l202 131l178 -20z" />
    <glyph glyph-name="zcaron" unicode="&#x17e;" horiz-adv-x="863" 
d="M731 0h-765l28 183l571 658h-432l29 176h722l-26 -158l-583 -676h486zM537 1154l-286 288l177 20l132 -131l202 131l178 -20z" />
    <glyph glyph-name="longs" unicode="&#x17f;" horiz-adv-x="1201" 
d="M949 1413q92 0 142 -13l-19 -187q-48 12 -110 12t-106.5 -23.5t-63.5 -59t-34 -125.5l-173 -1017h-224l170 1017q67 396 418 396z" />
    <glyph glyph-name="florin" unicode="&#x192;" horiz-adv-x="1201" 
d="M106 -81q44 0 83.5 22.5t61.5 62t58 144.5l281 805h-146l56 183h154q68 234 185.5 313.5t288.5 79.5q54 0 115 -9l-67 -192q-34 3 -92 3t-112.5 -28.5t-96.5 -166.5h216l-66 -183h-211l-280 -805q-40 -115 -68.5 -173t-122 -154t-296.5 -96q-59 0 -110 12l66 184l25 -1
q34 -1 78 -1z" />
    <glyph glyph-name="Aringacute" unicode="&#x1fa;" horiz-adv-x="1234" 
d="M798 520l-100 650l-288 -650h388zM751 1374q41 0 61 26t20 56t-20 56t-56 26t-62 -21t-26 -57t21 -61t62 -25zM564 1466q0 66 54 120.5t128 54.5t131.5 -50t57.5 -121t-32 -121l247 -1349h-273l-56 330h-495l-152 -330h-231l650 1355q-29 45 -29 111zM1013 1806
l-465 -156l-35 108l441 190z" />
    <glyph glyph-name="aringacute" unicode="&#x1fb;" horiz-adv-x="1097" 
d="M276 289q0 -61 41 -99t112 -39q102 -1 189 89t123 279q-261 -14 -363 -69t-102 -161zM673 72q0 45 18 147q-50 -113 -144 -179q-95 -66 -219 -66t-210 84t-85 209q1 171 153 272t477 101q42 0 98 -4q7 46 7 73q0 82 -56 124t-141 42q-161 0 -235 -141l-200 63
q126 248 445 248q190 0 300 -86t110 -229q1 -61 -49 -329q-50 -269 -50 -319t4 -82h-221q-2 27 -2 72zM652 1237q41 -1 61 25t20 58q1 32 -21 57q-22 24 -56 24t-61 -21q-26 -22 -26 -58t21 -60t62 -25zM651 1133q-78 0 -132 54t-54 131q1 77 55 132t126 55t132 -49
q58 -49 58 -131t-54 -137t-131 -55zM854 1859l66 -136l-417 -190l-42 107z" />
    <glyph glyph-name="AEacute" unicode="&#x1fc;" horiz-adv-x="1717" 
d="M755 537l105 626l-405 -626h300zM1571 0h-906l59 351h-390l-224 -351h-229l895 1365h998l-35 -214h-637l-59 -355h530l-34 -201h-530l-63 -381h661zM1498 1800l66 -136l-417 -190l-42 107z" />
    <glyph glyph-name="aeacute" unicode="&#x1fd;" horiz-adv-x="1698" 
d="M271 290q0 -67 44 -103t112 -36q108 0 194 96t116 270q-243 -11 -355 -61t-111 -166zM1420 625v23q0 91 -49 162t-156 71q-107 1 -177 -79t-85 -177h467zM1123 -25q-276 0 -375 241q-158 -242 -398 -242q-141 0 -229 82t-88 212q0 371 630 371q41 0 94 -3q8 35 8 62
q0 176 -199 176q-157 0 -230 -138l-198 63q133 243 441 243q224 0 325 -126q121 126 311 126t304 -123t114 -329q0 -48 -8 -109h-700q-8 -43 -8 -77q-1 -116 57 -184t159 -68q158 0 238 185l199 -57q-145 -305 -447 -305zM1104 1487l66 -136l-417 -190l-42 107z" />
    <glyph glyph-name="Oslashacute" unicode="&#x1fe;" horiz-adv-x="1324" 
d="M640 168q187 0 283 211t96 472q0 49 -11 107l-570 -701q79 -89 202 -89zM736 1199q-185 0 -279 -226t-94 -466q0 -34 8 -88l570 698q-77 82 -205 82zM104 580q0 310 177 567t469 257q210 0 346 -122l101 109h198l-198 -233q84 -167 84 -364q0 -339 -182 -585t-469 -246
q-187 0 -340 131l-115 -125h-197l211 252q-85 160 -85 359zM1001 1800l66 -136l-417 -190l-42 107z" />
    <glyph glyph-name="oslashacute" unicode="&#x1ff;" horiz-adv-x="1075" 
d="M503 157q137 0 203 140t67 310q0 49 -12 97l-399 -489q61 -58 141 -58zM566 857q-137 1 -201 -149t-64 -314q0 -36 9 -75l394 490q-51 48 -138 48zM71 440q-1 240 141 420t368 180q160 0 263 -84l78 87h146l-144 -169q84 -124 84 -292q0 -248 -143 -428t-364 -180
q-150 0 -274 85l-76 -88h-149l145 175q-75 126 -75 294zM815 1487l66 -136l-417 -190l-42 107z" />
    <glyph glyph-name="circumflex" unicode="&#x2c6;" horiz-adv-x="1024" 
d="M676 1476l286 -288l-178 -21l-131 132l-203 -132l-177 21z" />
    <glyph glyph-name="caron" unicode="&#x2c7;" horiz-adv-x="1024" 
d="M611 1154l-286 288l177 20l132 -131l202 131l178 -20z" />
    <glyph glyph-name="macron" unicode="&#x2c9;" horiz-adv-x="1024" 
d="M923 1222h-586l22 130h585z" />
    <glyph glyph-name="breve" unicode="&#x2d8;" horiz-adv-x="1024" 
d="M514 1455q0 -82 45.5 -107t105.5 -25q149 0 193 132h132q-27 -124 -124.5 -199t-223.5 -75t-194.5 64.5t-68.5 159.5q0 18 3 50h132z" />
    <glyph glyph-name="dotaccent" unicode="&#x2d9;" horiz-adv-x="1024" 
d="M644 1188q-48 0 -79.5 31.5t-31.5 75.5t30.5 77.5t78.5 33.5t82 -30t34 -80t-33 -79t-81 -29z" />
    <glyph glyph-name="ring" unicode="&#x2da;" horiz-adv-x="1024" 
d="M652 1237q41 0 61 25.5t20 57.5t-21.5 56.5t-55.5 24.5t-60.5 -21.5t-26.5 -57.5t21 -60.5t62 -24.5zM651 1133q-78 0 -132 54t-54 131t54.5 132t126.5 55t131 -49t59 -131t-53.5 -137t-131.5 -55z" />
    <glyph glyph-name="ogonek" unicode="&#x2db;" horiz-adv-x="1024" 
d="M666 -174q0 -80 98 -80q40 0 91 18l12 -73q-82 -35 -167 -35t-132 39.5t-47 95.5q0 131 199 209h110q-164 -81 -164 -174z" />
    <glyph glyph-name="tilde" unicode="&#x2dc;" horiz-adv-x="1024" 
d="M765 1201q-61 1 -139 43t-118 42t-132 -80l-52 96q114 122 218 122q56 0 134 -40t129 -41q52 0 119 74l52 -99q-88 -117 -211 -117z" />
    <glyph glyph-name="hungarumlaut" unicode="&#x2dd;" horiz-adv-x="1024" 
d="M999 1481l80 -117l-352 -210l-53 84zM658 1481l80 -117l-352 -210l-53 84z" />
    <glyph glyph-name="tonos" unicode="&#x384;" horiz-adv-x="1024" 
d="M-7 1462l144 -97l-323 -360l-87 59z" />
    <glyph glyph-name="dieresistonos" unicode="&#x385;" horiz-adv-x="1024" 
d="M810 1188q-48 0 -79.5 32t-31.5 76t31.5 77t78.5 33t81.5 -30t34.5 -80t-33.5 -79t-81.5 -29zM476 1188q-48 0 -79.5 31.5t-31.5 75.5t30.5 77.5t78.5 33.5t82 -30t34 -80t-33 -79t-81 -29zM883 1761l79 -131l-328 -193l-46 91z" />
    <glyph glyph-name="Alphatonos" unicode="&#x386;" horiz-adv-x="1234" 
d="M798 520l-107 606l-281 -606h388zM1150 0h-273l-56 330h-495l-152 -330h-231l654 1365h303zM307 1462l144 -97l-323 -360l-87 59z" />
    <glyph glyph-name="anoteleia" unicode="&#x387;" horiz-adv-x="281" 
d="M239 380h-239l42 251h239z" />
    <glyph glyph-name="Epsilontonos" unicode="&#x388;" horiz-adv-x="1099" 
d="M952 0h-887l228 1365h863l-36 -214h-618l-59 -354h512l-34 -202h-512l-64 -381h643zM68 1462l144 -97l-323 -360l-87 59z" />
    <glyph glyph-name="Etatonos" unicode="&#x389;" horiz-adv-x="1323" 
d="M1088 0h-245l99 591h-534l-99 -591h-244l228 1365h245l-94 -559h534l94 559h244zM68 1462l144 -97l-323 -360l-87 59z" />
    <glyph glyph-name="Iotatonos" unicode="&#x38a;" horiz-adv-x="553" 
d="M318 0h-253l228 1365h253zM68 1462l144 -97l-323 -360l-87 59z" />
    <glyph glyph-name="Omicrontonos" unicode="&#x38c;" horiz-adv-x="1324" 
d="M363 543q0 -205 79 -290t192 -85q198 0 291 219t93 454q0 358 -282 358q-188 1 -280 -225t-93 -431zM104 598q0 296 176 552q176 254 471 254q245 0 387 -165t142 -470t-179 -555t-476 -251q-217 -1 -369 169t-152 466zM132 1462l144 -97l-323 -360l-87 59z" />
    <glyph glyph-name="Upsilontonos" unicode="&#x38e;" horiz-adv-x="1093" 
d="M624 0h-257l96 575l-347 790h281l242 -590l388 590h236l-545 -802zM-61 1462l144 -97l-323 -360l-87 59z" />
    <glyph glyph-name="Omegatonos" unicode="&#x38f;" horiz-adv-x="1382" 
d="M98 674q0 319 188 519t473 200q249 1 401 -145t151 -368t-93 -400t-287 -268h344l-36 -212h-541l35 212q181 113 245 286q64 174 64 344t-78 261t-210 91q-186 0 -292 -159t-105 -398q0 -143 42 -243t157 -182l-36 -212h-541l35 212h333q-249 143 -249 462zM82 1462
l144 -97l-323 -360l-87 59z" />
    <glyph glyph-name="iotadieresistonos" unicode="&#x390;" horiz-adv-x="508" 
d="M287 0h-235l170 1017h235zM552 1188q-48 0 -80 32t-31 76q-1 44 31 76q32 34 79 34t81 -30t35 -80t-33 -79t-82 -29zM218 1188q-48 0 -80 32t-31 75q0 43 31 77q30 34 78 34t82 -30t34 -80t-34 -79q-32 -29 -80 -29zM625 1761l79 -131l-328 -193l-46 91z" />
    <glyph glyph-name="Alpha" unicode="&#x391;" horiz-adv-x="1234" 
d="M798 520l-107 606l-281 -606h388zM1150 0h-273l-56 330h-495l-152 -330h-231l654 1365h303z" />
    <glyph glyph-name="Beta" unicode="&#x392;" horiz-adv-x="1251" 
d="M622 201q110 1 163 19t88 70t35 122q0 72 -36 120t-84 64q-46 16 -127 16h-248l-69 -411h278zM687 800q161 0 213 64t53 133q0 179 -230 179h-216l-63 -376h243zM772 1365q128 0 212 -26q84 -27 149 -111t65 -202q0 -243 -256 -324q213 -94 213 -309q-1 -141 -99 -267
t-383 -126h-607l228 1365h478z" />
    <glyph glyph-name="Gamma" unicode="&#x393;" horiz-adv-x="934" 
d="M66 0l228 1365h784l-35 -211h-540l-193 -1154h-244z" />
    <glyph glyph-name="Delta" unicode="&#x394;" horiz-adv-x="1191" 
d="M260 212h564l-132 942h-14zM-64 0l647 1365h307l245 -1365h-1199z" />
    <glyph glyph-name="Epsilon" unicode="&#x395;" horiz-adv-x="1099" 
d="M952 0h-887l228 1365h863l-36 -214h-618l-59 -354h512l-34 -202h-512l-64 -381h643z" />
    <glyph glyph-name="Zeta" unicode="&#x396;" horiz-adv-x="1077" 
d="M958 0h-1002l34 201l822 950h-643l36 214h957l-26 -171l-851 -980h709z" />
    <glyph glyph-name="Eta" unicode="&#x397;" horiz-adv-x="1323" 
d="M1088 0h-245l99 591h-534l-99 -591h-244l228 1365h245l-94 -559h534l94 559h244z" />
    <glyph glyph-name="Theta" unicode="&#x398;" horiz-adv-x="1352" 
d="M897 794l-22 -193h-355l22 193h355zM364 553q0 -203 82.5 -289.5t202.5 -86.5q206 0 301 209t95 449q0 353 -298 353q-195 0 -289 -216t-94 -419zM105 605q0 293 178.5 540.5t479.5 247.5q255 0 399.5 -165.5t144.5 -465.5t-181.5 -544.5t-484.5 -244.5
q-225 0 -380.5 169.5t-155.5 462.5z" />
    <glyph glyph-name="Iota" unicode="&#x399;" horiz-adv-x="553" 
d="M318 0h-253l228 1365h253z" />
    <glyph glyph-name="Kappa" unicode="&#x39a;" horiz-adv-x="1264" 
d="M1145 0h-258l-203 685l-318 -348l-57 -337h-244l228 1365h245l-100 -595q-3 -17 -31 -144q36 56 77 101l576 638h262l-447 -487z" />
    <glyph glyph-name="Lambda" unicode="&#x39b;" horiz-adv-x="1096" 
d="M136 0h-232l617 1365h310l220 -1365h-275l-152 1136h-18z" />
    <glyph glyph-name="Mu" unicode="&#x39c;" horiz-adv-x="1633" 
d="M1399 0h-245l208 1243l-582 -1243h-133l-184 1232l-206 -1232h-191l228 1365h375l141 -917l417 917h400z" />
    <glyph glyph-name="Nu" unicode="&#x39d;" horiz-adv-x="1330" 
d="M1094 0h-195l-466 1026l-171 -1026h-197l228 1365h253l425 -937l157 937h195z" />
    <glyph glyph-name="Xi" unicode="&#x39e;" horiz-adv-x="1097" 
d="M-8 0l35 212h944l-35 -212h-944zM245 600l33 199h639l-33 -199h-639zM185 1154l35 211h944l-35 -211h-944z" />
    <glyph glyph-name="Omicron" unicode="&#x39f;" horiz-adv-x="1324" 
d="M363 543q0 -205 79 -290t192 -85q198 0 291 219t93 454q0 358 -282 358q-188 1 -280 -225t-93 -431zM104 598q0 296 176 552q176 254 471 254q245 0 387 -165t142 -470t-179 -555t-476 -251q-217 -1 -369 169t-152 466z" />
    <glyph glyph-name="Pi" unicode="&#x3a0;" horiz-adv-x="1270" 
d="M66 0l228 1365h970l-228 -1365h-244l193 1154h-482l-193 -1154h-244z" />
    <glyph glyph-name="Rho" unicode="&#x3a1;" horiz-adv-x="1223" 
d="M688 748q128 0 179 16t90 72t39 132t-35 124t-83 61t-172 13h-191l-69 -418h242zM659 1365q178 1 260 -7t160 -54t126 -132t48 -212q1 -124 -77 -234t-182 -144q-104 -35 -253 -35h-329l-92 -547h-255l228 1365h366z" />
    <glyph glyph-name="Sigma" unicode="&#x3a3;" horiz-adv-x="1046" 
d="M-14 0l32 194l501 531l-313 442l33 198h872l-33 -198h-576l308 -422l-505 -533h660l-35 -212h-944z" />
    <glyph glyph-name="Tau" unicode="&#x3a4;" horiz-adv-x="945" 
d="M1053 1151h-347l-193 -1151h-251l193 1151h-347l36 214h945z" />
    <glyph glyph-name="Upsilon" unicode="&#x3a5;" horiz-adv-x="1061" 
d="M593 0h-257l96 575l-347 790h281l242 -590l388 590h236l-545 -802z" />
    <glyph glyph-name="Phi" unicode="&#x3a6;" horiz-adv-x="1527" 
d="M1233 751q0 253 -253 305l-126 -752q379 56 379 447zM360 618q0 -253 254 -307l125 752q-202 -29 -290.5 -150.5t-88.5 -294.5zM1475 756q0 -235 -152 -417t-499 -213l-28 -167h-241l28 173q-465 62 -465 478q0 241 156.5 421.5t494.5 207.5l28 167h242l-29 -173
q465 -61 465 -477z" />
    <glyph glyph-name="Chi" unicode="&#x3a7;" horiz-adv-x="1131" 
d="M1046 0h-269l-218 522l-394 -522h-250l548 709l-285 656h271l191 -456l342 456h245l-496 -636z" />
    <glyph glyph-name="Psi" unicode="&#x3a8;" horiz-adv-x="1663" 
d="M180 666q0 83 35 294l68 405h244l-67 -405q-34 -201 -34 -275q0 -218 277 -232l153 912h244l-152 -912q124 6 191.5 32t108 76.5t61 123t54.5 275.5l68 405h244l-68 -405q-42 -252 -73 -350.5t-109.5 -185t-199.5 -128.5t-311 -44l-42 -252h-245l43 252q-235 8 -362.5 98
t-127.5 316z" />
    <glyph glyph-name="Omega" unicode="&#x3a9;" horiz-adv-x="1382" 
d="M98 674q0 319 188.5 519t472.5 200q249 0 400.5 -145.5t151.5 -367.5t-92.5 -400t-287.5 -268h344l-36 -212h-541l35 212q180 113 244.5 286.5t64.5 343.5t-77.5 261t-210.5 91q-186 0 -291.5 -159t-105.5 -398q0 -142 42 -242.5t157 -182.5l-36 -212h-541l35 212h333
q-249 143 -249 462z" />
    <glyph glyph-name="Iotadieresis" unicode="&#x3aa;" horiz-adv-x="553" 
d="M318 0h-253l228 1365h253zM655 1512q-47 0 -79 32t-32 76t32 76q32 34 78 34q48 0 82 -30t34 -80t-34 -79t-81 -29zM320 1512q-48 0 -78 32q-32 32 -32 75t31 77t79 34t81 -30q34 -30 34 -80q1 -50 -33 -79t-82 -29z" />
    <glyph glyph-name="Upsilondieresis" unicode="&#x3ab;" horiz-adv-x="1061" 
d="M593 0h-257l96 575l-347 790h281l242 -590l388 590h236l-545 -802zM878 1512q-48 0 -80 32t-31 76q-1 44 31 76q32 34 79 34t81 -30t35 -80t-33 -79t-82 -29zM544 1512q-48 0 -80 32t-31 75q0 43 31 77q30 34 78 34t82 -30t34 -80t-34 -79q-32 -29 -80 -29z" />
    <glyph glyph-name="alphatonos" unicode="&#x3ac;" horiz-adv-x="1203" 
d="M573 861q-105 0 -185 -124t-80 -316q0 -113 50 -189t128 -77q79 0 146 82t156 286q-57 236 -104 287t-111 51zM416 -27q-156 0 -250 119t-94 321q0 251 137 441t367 191q134 0 204 -73t102 -183l112 228h231l-245 -482l145 -535h-245l-65 277q-166 -304 -399 -304z
M795 1553l144 -97l-323 -360l-87 59z" />
    <glyph glyph-name="epsilontonos" unicode="&#x3ad;" horiz-adv-x="948" 
d="M281 282q0 -66 46 -103t121 -37q172 0 242 179l200 -36q-108 -312 -467 -312q-195 -1 -287 79t-92 214q0 213 251 275q-110 57 -138 110t-28 108q0 118 95 202t302 84q366 0 394 -284l-206 -38q-17 150 -178 150q-90 1 -132 -41t-42 -104t48 -94t193 -31l-26 -157
q-121 0 -173 -9t-87 -49q-36 -40 -36 -106zM682 1553l144 -97l-323 -360l-87 59z" />
    <glyph glyph-name="etatonos" unicode="&#x3ae;" horiz-adv-x="1110" 
d="M787 724q0 138 -132 138q-105 0 -183 -78t-100 -207l-96 -577h-224l170 1017h206l-30 -180q92 125 174 167t188 41q106 0 182 -61t76 -185q0 -70 -20 -188l-162 -966h-224l166 990q9 57 9 89zM774 1553l144 -97l-323 -360l-87 59z" />
    <glyph glyph-name="iotatonos" unicode="&#x3af;" horiz-adv-x="508" 
d="M287 0h-235l170 1017h235zM453 1553l144 -97l-323 -360l-87 59z" />
    <glyph glyph-name="upsilondieresistonos" unicode="&#x3b0;" horiz-adv-x="1077" 
d="M321 275q0 -119 153 -119t196 92q21 44 43 174l99 595h224l-95 -568q-33 -200 -71 -284t-136 -138t-284 -54q-186 -1 -269 75t-83 209q0 69 16 165l100 595h224l-100 -595q-17 -104 -17 -147zM845 1188q-47 0 -79 32t-32 76t32 76q32 34 78 34q48 0 82 -30t34 -80
t-34 -79t-81 -29zM510 1188q-48 0 -78 32q-32 32 -32 75t31 77t79 34t81 -30q34 -30 34 -80q1 -50 -33 -79t-82 -29zM918 1761l79 -131l-328 -193l-46 91z" />
    <glyph glyph-name="alpha" unicode="&#x3b1;" horiz-adv-x="1203" 
d="M573 861q-106 0 -185.5 -124t-79.5 -316q0 -113 49.5 -189.5t128.5 -76.5t146 82t156 286q-57 236 -104 287t-111 51zM416 -27q-155 0 -249.5 119t-94.5 321q0 251 137 441.5t367 190.5q134 0 203.5 -73t102.5 -183l112 228h231l-245 -482l145 -535h-245l-65 277
q-166 -304 -399 -304z" />
    <glyph glyph-name="beta" unicode="&#x3b2;" horiz-adv-x="1133" 
d="M518 144q131 0 213 90t82 208t-56 171t-182 53l25 148q150 3 197 88t47 176q0 157 -168 157q-92 0 -139 -45t-64.5 -102.5t-37.5 -173.5l-114 -685q66 -85 197 -85zM685 1393q191 0 290.5 -85t99.5 -216q0 -263 -295 -337q264 -72 264 -330q0 -178 -127 -315t-350 -137
q-176 0 -268 125l-76 -453h-224l208 1241q29 177 49.5 242.5t107 165t321.5 99.5z" />
    <glyph glyph-name="gamma" unicode="&#x3b3;" horiz-adv-x="885" 
d="M185 -355l60 355l-172 1017h235l115 -716l366 716h198l-518 -1017l-60 -355h-224z" />
    <glyph glyph-name="delta" unicode="&#x3b4;" horiz-adv-x="1090" 
d="M586 807q-132 0 -204 -108t-72 -306q0 -237 200 -237q137 0 205 116.5t68 292.5q0 242 -197 242zM1017 562q0 -252 -142.5 -421t-384.5 -169q-197 0 -306.5 110.5t-109.5 304.5q0 251 141 398t331 147h34l-305 267l28 166h701l-30 -180h-420l148 -111
q116 -89 215.5 -195.5t99.5 -316.5z" />
    <glyph glyph-name="epsilon" unicode="&#x3b5;" horiz-adv-x="948" 
d="M281 282q0 -66 46 -103t121 -37q172 0 242 179l200 -36q-108 -312 -467 -312q-195 0 -287 79.5t-92 213.5q0 213 251 275q-110 57 -138 110t-28 108q0 118 95 202t302 84q366 0 394 -284l-206 -38q-17 150 -178 150q-89 0 -131.5 -41.5t-42.5 -103.5t48 -94t193 -31
l-26 -157q-121 0 -172.5 -9t-87.5 -49t-36 -106z" />
    <glyph glyph-name="zeta" unicode="&#x3b6;" horiz-adv-x="800" 
d="M321 376q0 -86 35 -129t164 -51t161 -57t32 -116q0 -147 -129 -373l-190 25q100 163 100 242q0 43 -27 59t-100 19q-163 7 -226 89t-63 223q0 206 132 431t429 447h-402l30 180h613l-25 -152q-238 -163 -386 -398t-148 -439z" />
    <glyph glyph-name="eta" unicode="&#x3b7;" horiz-adv-x="1110" 
d="M787 724q0 138 -132 138q-104 0 -182.5 -78.5t-100.5 -206.5l-96 -577h-224l170 1017h206l-30 -180q91 125 173.5 166.5t188.5 41.5t182 -61t76 -185q0 -70 -20 -188l-162 -966h-224l166 990q9 57 9 89z" />
    <glyph glyph-name="theta" unicode="&#x3b8;" horiz-adv-x="1102" 
d="M333 477q0 -340 189 -340q230 0 294 496h-473q-10 -88 -10 -156zM838 897q0 167 -55 249t-141 82t-166 -103t-115 -340h472q5 69 5 112zM667 1393q183 0 288 -134t105 -408q0 -370 -147 -624t-410 -254q-183 0 -288 133.5t-105 405.5q0 372 147.5 626.5t409.5 254.5z" />
    <glyph glyph-name="iota" unicode="&#x3b9;" horiz-adv-x="508" 
d="M287 0h-235l170 1017h235z" />
    <glyph glyph-name="kappa" unicode="&#x3ba;" horiz-adv-x="1033" 
d="M53 0l170 1017h224l-73 -438l476 438h232l-384 -354l252 -663h-253l-179 497l-185 -159l-56 -338h-224z" />
    <glyph glyph-name="lambda" unicode="&#x3bb;" horiz-adv-x="842" 
d="M-87 0l444 934l-105 431h236l320 -1365h-233l-163 700l-317 -700h-182z" />
    <glyph glyph-name="mu" unicode="&#x3bc;" horiz-adv-x="1119" 
d="M340 318q0 -61 43 -111.5t118 -50.5t147 58.5t105 254.5l92 548h224l-171 -1017h-188l27 158q-109 -185 -253 -185t-186 154l-81 -482h-224l230 1372h224l-92 -548q-15 -90 -15 -151z" />
    <glyph glyph-name="nu" unicode="&#x3bd;" horiz-adv-x="915" 
d="M504 0h-209l-216 1017h245l135 -712l331 712h198z" />
    <glyph glyph-name="xi" unicode="&#x3be;" horiz-adv-x="891" 
d="M582 -102q0 58 -32 75.5t-124 24.5q-217 16 -296.5 96t-79.5 213q0 325 368 423q-216 64 -216 196q0 177 276 259h-264l30 180h717l-31 -180h-126q-210 0 -286 -69t-76 -150q0 -169 255 -169h83l-24 -176h-82q-145 0 -220 -21t-119 -86.5t-44 -136.5t28.5 -106.5
t72.5 -48t172 -24.5t183.5 -49t55.5 -149t-112 -355l-192 34q83 161 83 219z" />
    <glyph glyph-name="omicron" unicode="&#x3bf;" horiz-adv-x="1075" 
d="M508 157q136 1 200 141t64 294q0 264 -204 264q-143 0 -205 -151t-62 -289t60 -199q60 -60 147 -60zM506 -26q-112 0 -218 50t-162 158t-55 259q0 243 143 421t374 177q190 1 304 -127t114 -346t-136 -405t-364 -187z" />
    <glyph glyph-name="pi" unicode="&#x3c0;" horiz-adv-x="1128" 
d="M82 0l140 837h-122l30 180h1038l-30 -180h-122l-140 -837h-224l140 837h-346l-140 -837h-224z" />
    <glyph glyph-name="rho" unicode="&#x3c1;" horiz-adv-x="1113" 
d="M609 862q-151 0 -212 -137t-61 -326q0 -243 204 -243q141 0 207.5 139t66.5 327q0 240 -205 240zM619 1045q194 0 311 -114.5t117 -321.5q0 -269 -132 -453t-337 -184t-288 169l-83 -496h-235l125 748q36 212 61.5 306.5t125 220t335.5 125.5z" />
    <glyph glyph-name="sigma1" unicode="&#x3c2;" horiz-adv-x="993" 
d="M642 -85q0 45 -24 62t-130 30t-199 53.5t-154.5 138t-61.5 244.5q0 236 134 419t377 183q175 0 270 -101t100 -263l-211 -39q-3 220 -173 220q-122 0 -190.5 -110t-68.5 -264t69.5 -212t228.5 -82t207 -65t48 -156t-100 -328l-195 40q73 121 73 230z" />
    <glyph glyph-name="sigma" unicode="&#x3c3;" horiz-adv-x="1107" 
d="M585 862q-134 0 -206.5 -124.5t-72.5 -331.5q0 -250 198 -250q134 0 205 121.5t71 326.5q0 258 -195 258zM504 -27q-434 0 -433 474q0 233 141 412t382 179q72 0 155 -21h396l-30 -180h-237q133 -128 133 -312q0 -238 -145.5 -395t-361.5 -157z" />
    <glyph glyph-name="tau" unicode="&#x3c4;" horiz-adv-x="781" 
d="M195 0l140 837h-288l30 180h798l-31 -180h-285l-140 -837h-224z" />
    <glyph glyph-name="upsilon" unicode="&#x3c5;" horiz-adv-x="1077" 
d="M321 275q0 -119 153 -119t185 68t54 198l99 595h224l-95 -568q-33 -200 -71 -284t-136 -138t-284 -54t-269 75.5t-83 208.5q0 69 16 165l100 595h224l-100 -595q-17 -104 -17 -147z" />
    <glyph glyph-name="phi" unicode="&#x3c6;" horiz-adv-x="1350" 
d="M1060 572q0 257 -211 305l-123 -734q178 15 256 136.5t78 292.5zM768 1045q250 0 381 -128t131 -359t-144 -404t-439 -184l-55 -325h-214l55 331q-192 25 -297.5 143.5t-105.5 312.5t100 350.5t252 208.5l46 -182q-176 -116 -176 -360t211 -296l148 886q58 6 107 6z" />
    <glyph glyph-name="chi" unicode="&#x3c7;" horiz-adv-x="956" 
d="M328 388l-216 629h240l161 -476l310 476h201l-447 -665l242 -707h-240l-177 566l-371 -566h-208z" />
    <glyph glyph-name="psi" unicode="&#x3c8;" horiz-adv-x="1460" 
d="M108 303q0 59 18 169l92 545h224l-92 -545q-15 -92 -15 -164t49.5 -111t181.5 -42l144 862h213l-144 -862q130 3 186 28.5t83.5 83t52.5 205.5l91 545h224l-91 -545q-29 -174 -52 -244t-81 -128.5t-155.5 -89.5t-287.5 -35l-55 -330h-213l55 330q-428 4 -428 328z" />
    <glyph glyph-name="omega" unicode="&#x3c9;" horiz-adv-x="1440" 
d="M794 301q0 -139 120 -139q214 0 214 401q0 201 -114 384l171 98q180 -211 180 -487t-117.5 -430.5t-326.5 -154.5q-93 0 -150.5 39t-93.5 147q-103 -186 -270 -186t-261 113.5t-94 294.5q0 363 321 664l148 -98q-240 -267 -240 -578q0 -110 44.5 -158.5t114.5 -48.5
t100 56t57 230l56 336h209l-56 -336q-12 -73 -12 -147z" />
    <glyph glyph-name="iotadieresis" unicode="&#x3ca;" horiz-adv-x="508" 
d="M287 0h-235l170 1017h235zM552 1188q-48 0 -80 32t-31 76q-1 44 31 76q32 34 79 34t81 -30t35 -80t-33 -79t-82 -29zM218 1188q-48 0 -80 32t-31 75q0 43 31 77q30 34 78 34t82 -30t34 -80t-34 -79q-32 -29 -80 -29z" />
    <glyph glyph-name="upsilondieresis" unicode="&#x3cb;" horiz-adv-x="1077" 
d="M321 275q0 -119 153 -119t196 92q21 44 43 174l99 595h224l-95 -568q-33 -200 -71 -284t-136 -138t-284 -54q-186 -1 -269 75t-83 209q0 69 16 165l100 595h224l-100 -595q-17 -104 -17 -147zM845 1188q-47 0 -79 32t-32 76t32 76q32 34 78 34q48 0 82 -30t34 -80
t-34 -79t-81 -29zM510 1188q-48 0 -78 32q-32 32 -32 75t31 77t79 34t81 -30q34 -30 34 -80q1 -50 -33 -79t-82 -29z" />
    <glyph glyph-name="omicrontonos" unicode="&#x3cc;" horiz-adv-x="1075" 
d="M508 159q136 1 200 141t64 294q0 264 -204 264q-143 0 -205 -151t-62 -289t60 -199q60 -60 147 -60zM506 -24q-112 0 -218 50t-162 158t-55 259q0 243 143 421t374 177q190 1 304 -127t114 -346t-136 -405t-364 -187zM737 1553l144 -97l-323 -360l-87 59z" />
    <glyph glyph-name="upsilontonos" unicode="&#x3cd;" horiz-adv-x="1077" 
d="M321 275q0 -119 153 -119t196 92q21 44 43 174l99 595h224l-95 -568q-33 -200 -71 -284t-136 -138t-284 -54q-186 -1 -269 75t-83 209q0 69 16 165l100 595h224l-100 -595q-17 -104 -17 -147zM766 1553l144 -97l-323 -360l-87 59z" />
    <glyph glyph-name="omegatonos" unicode="&#x3ce;" horiz-adv-x="1440" 
d="M794 301q0 -139 120 -139q214 0 214 401q0 201 -114 384l171 98q180 -211 180 -487q1 -276 -117 -430q-118 -155 -327 -155q-93 0 -151 39t-93 147q-103 -186 -270 -186q-167 -1 -261 113t-94 295q0 363 321 664l148 -98q-240 -267 -240 -578q1 -111 45 -159t114 -48
t100 56t57 230l56 336h209l-56 -336q-12 -73 -12 -147zM954 1553l144 -97l-323 -360l-87 59z" />
    <glyph glyph-name="afii10023" unicode="&#x401;" horiz-adv-x="1099" 
d="M952 0h-887l228 1365h863l-36 -214h-618l-59 -354h512l-34 -202h-512l-64 -381h643zM929 1512q-47 0 -79 32t-32 76t32 76q32 34 78 34q48 0 82 -30t34 -80t-34 -79t-81 -29zM594 1512q-48 0 -78 32q-32 32 -32 75t31 77t79 34t81 -30q34 -30 34 -80q1 -50 -33 -79
t-82 -29z" />
    <glyph glyph-name="afii10051" unicode="&#x402;" horiz-adv-x="1283" 
d="M877 915q314 0 314 -281q0 -157 -60.5 -465.5t-185.5 -415t-355 -108.5l21 183q90 8 135 32.5t83.5 100.5t75 293t36.5 315q0 163 -163 163q-282 0 -330 -287l-75 -445h-244l195 1165h-226l33 200h976l-33 -200h-506l-71 -426q165 176 380 176z" />
    <glyph glyph-name="afii10052" unicode="&#x403;" horiz-adv-x="893" 
d="M66 0l228 1365h743l-35 -211h-499l-193 -1154h-244zM908 1800l66 -136l-417 -190l-42 107z" />
    <glyph glyph-name="afii10053" unicode="&#x404;" horiz-adv-x="1244" 
d="M360 538q0 -162 75 -265t223 -103q234 0 347 262l223 -45q-61 -177 -211.5 -295.5t-378.5 -118.5q-267 0 -398.5 170t-131.5 437q0 322 172 567.5t493 245.5q414 0 499 -376l-231 -50q-55 228 -274 228q-163 0 -258 -116t-123 -279h513l-30 -180h-504q-5 -49 -5 -82z" />
    <glyph glyph-name="afii10054" unicode="&#x405;" horiz-adv-x="1127" 
d="M621 1193q-114 0 -177.5 -53.5t-63.5 -123.5t43 -108.5t142 -66.5l187 -55q81 -23 154 -73t109 -125t36 -158q0 -186 -138.5 -322.5t-404.5 -136.5q-412 0 -534 340l223 79q81 -214 326 -214q140 0 208 64.5t68 151.5t-64.5 117t-204.5 70t-220.5 82t-131 122t-50.5 190
q0 187 135 306t368 119q344 0 474 -292l-224 -83q-72 170 -260 170z" />
    <glyph glyph-name="afii10055" unicode="&#x406;" horiz-adv-x="553" 
d="M318 0h-253l228 1365h253z" />
    <glyph glyph-name="afii10056" unicode="&#x407;" horiz-adv-x="553" 
d="M318 0h-253l228 1365h253zM610 1512q-48 0 -80 32t-31 76q-1 44 31 76q32 34 79 34t81 -30t35 -80t-33 -79t-82 -29zM276 1512q-48 0 -80 32t-31 75q0 43 31 77q30 34 78 34t82 -30t34 -80t-34 -79q-32 -29 -80 -29z" />
    <glyph glyph-name="afii10057" unicode="&#x408;" horiz-adv-x="767" 
d="M90 193q155 0 207 60t77 209l151 903h250l-145 -863q-34 -200 -78 -300t-148 -163q-104 -64 -279 -64q-93 0 -210 22l39 204q74 -8 136 -8z" />
    <glyph glyph-name="afii10058" unicode="&#x409;" horiz-adv-x="1715" 
d="M1144 212q149 0 213 71.5t64 181.5q0 178 -232 178h-261l42 -431h174zM1188 842q203 0 293.5 -36t144 -119t53.5 -208q0 -200 -131.5 -339.5t-419.5 -139.5h-400l-87 1136h-14l-529 -1136h-214l662 1365h311l51 -523h280z" />
    <glyph glyph-name="afii10059" unicode="&#x40a;" horiz-adv-x="1929" 
d="M1348 212q149 0 213 71.5t64 181.5q0 178 -232 178h-242l-72 -431h269zM1392 842q203 0 293 -36t144 -119t54 -208q0 -200 -131.5 -339.5t-420.5 -139.5h-532l104 623h-489l-105 -623h-244l228 1365h245l-91 -543h490l91 543h244l-87 -523h207z" />
    <glyph glyph-name="afii10060" unicode="&#x40b;" horiz-adv-x="1302" 
d="M865 916q149 0 238.5 -76.5t89.5 -241.5q0 -41 -14 -125l-79 -473h-244l80 484q10 58 10 90q0 160 -176 160q-214 0 -304 -180l-93 -554h-244l195 1165h-226l33 200h981l-34 -200h-510l-70 -417q167 168 367 168z" />
    <glyph glyph-name="afii10061" unicode="&#x40c;" horiz-adv-x="1264" 
d="M1145 0h-258l-203 685l-318 -348l-57 -337h-244l228 1365h245l-100 -595q-3 -17 -31 -144q36 56 77 101l576 638h262l-447 -487zM1050 1800l66 -136l-417 -190l-42 107z" />
    <glyph glyph-name="afii10062" unicode="&#x40e;" horiz-adv-x="1056" 
d="M157 0h-91l35 212h92q89 0 135 31t90 107l28 48l-327 967h267l224 -691l387 691h235l-591 -1027q-115 -198 -217 -268t-267 -70zM573 1766q-1 -82 45 -107t106 -25q149 0 193 132h132q-27 -124 -124 -199t-223 -75t-196 64q-68 64 -68 160q0 18 3 50h132z" />
    <glyph glyph-name="afii10145" unicode="&#x40f;" horiz-adv-x="1308" 
d="M346 212h519l193 1153h244l-228 -1365h-404l-62 -287h-179l34 287h-397l228 1365h245z" />
    <glyph glyph-name="afii10017" unicode="&#x410;" horiz-adv-x="1186" 
d="M777 520l-107 606l-281 -606h388zM1129 0h-273l-56 330h-495l-152 -330h-231l654 1365h303z" />
    <glyph glyph-name="afii10018" unicode="&#x411;" horiz-adv-x="1231" 
d="M627 212q133 0 202 65t69 153t-47.5 137t-194.5 49h-243l-67 -404h281zM647 811q183 0 284 -28.5t158.5 -110.5t57.5 -209q0 -192 -129 -327.5t-396 -135.5h-556l228 1365h858l-33 -198h-613l-60 -356h201z" />
    <glyph glyph-name="afii10019" unicode="&#x412;" horiz-adv-x="1251" 
d="M622 201q110 1 163 19t88 70t35 122q0 72 -36 120t-84 64q-46 16 -127 16h-248l-69 -411h278zM687 800q161 0 213 64t53 133q0 179 -230 179h-216l-63 -376h243zM772 1365q128 0 212 -26q84 -27 149 -111t65 -202q0 -243 -256 -324q213 -94 213 -309q-1 -141 -99 -267
t-383 -126h-607l228 1365h478z" />
    <glyph glyph-name="afii10020" unicode="&#x413;" horiz-adv-x="893" 
d="M66 0l228 1365h743l-35 -211h-499l-193 -1154h-244z" />
    <glyph glyph-name="afii10021" unicode="&#x414;" horiz-adv-x="1256" 
d="M270 212h581l-82 924h-74zM60 212l554 1153h366l131 -1153h100l-83 -499h-164l18 287h-863l-78 -287h-164l83 499h100z" />
    <glyph glyph-name="afii10022" unicode="&#x415;" horiz-adv-x="1099" 
d="M952 0h-887l228 1365h863l-36 -214h-618l-59 -354h512l-34 -202h-512l-64 -381h643z" />
    <glyph glyph-name="afii10024" unicode="&#x416;" horiz-adv-x="1665" 
d="M1268 765l378 -765h-273l-313 641l-88 -24l-103 -617h-235l103 617l-80 24l-527 -641h-239l595 724l-331 641h269l287 -572l54 -14l98 586h234l-98 -586l59 14l478 572h254z" />
    <glyph glyph-name="afii10025" unicode="&#x417;" horiz-adv-x="1165" 
d="M520 171q140 0 217.5 71.5t77.5 188.5q0 185 -214 185h-129l30 181h108q113 0 180 62t67 151t-62.5 137t-182.5 48q-228 0 -293 -227l-210 32q101 393 541 393q218 0 340 -96.5t122 -242.5q0 -248 -286 -328q255 -61 255 -298q0 -190 -151 -322.5t-413 -132.5
t-388.5 113.5t-126.5 308.5l228 37q21 -261 290 -261z" />
    <glyph glyph-name="afii10026" unicode="&#x418;" horiz-adv-x="1352" 
d="M329 111l-19 -111h-244l228 1365h245l-126 -752q-17 -102 -41 -206q83 126 212 271l501 563l21 124h240l-228 -1365h-241l116 693q16 94 52 251q-76 -110 -219 -271z" />
    <glyph glyph-name="afii10027" unicode="&#x419;" horiz-adv-x="1352" 
d="M329 111l-19 -111h-244l228 1365h245l-126 -752q-17 -102 -41 -206q83 126 212 271l501 563l21 124h240l-228 -1365h-241l116 693q16 94 52 251q-76 -110 -219 -271zM719 1766q-1 -82 45 -107t106 -25q149 0 193 132h132q-27 -124 -124 -199t-223 -75t-196 64
q-68 64 -68 160q0 18 3 50h132z" />
    <glyph glyph-name="afii10028" unicode="&#x41a;" horiz-adv-x="1264" 
d="M1145 0h-258l-203 685l-318 -348l-57 -337h-244l228 1365h245l-100 -595q-3 -17 -31 -144q36 56 77 101l576 638h262l-447 -487z" />
    <glyph glyph-name="afii10029" unicode="&#x41b;" horiz-adv-x="1096" 
d="M136 0h-232l617 1365h310l220 -1365h-275l-152 1136h-18z" />
    <glyph glyph-name="afii10030" unicode="&#x41c;" horiz-adv-x="1633" 
d="M1399 0h-245l208 1243l-582 -1243h-133l-184 1232l-206 -1232h-191l228 1365h375l141 -917l417 917h400z" />
    <glyph glyph-name="afii10031" unicode="&#x41d;" horiz-adv-x="1323" 
d="M1088 0h-245l99 591h-534l-99 -591h-244l228 1365h245l-94 -559h534l94 559h244z" />
    <glyph glyph-name="afii10032" unicode="&#x41e;" horiz-adv-x="1324" 
d="M363 543q0 -205 79 -290t192 -85q198 0 291 219t93 454q0 358 -282 358q-188 1 -280 -225t-93 -431zM104 598q0 296 176 552q176 254 471 254q245 0 387 -165t142 -470t-179 -555t-476 -251q-217 -1 -369 169t-152 466z" />
    <glyph glyph-name="afii10033" unicode="&#x41f;" horiz-adv-x="1281" 
d="M66 0l228 1365h981l-228 -1365h-245l195 1165h-492l-195 -1165h-244z" />
    <glyph glyph-name="afii10034" unicode="&#x420;" horiz-adv-x="1223" 
d="M688 748q128 0 179 16t90 72t39 132t-35 124t-83 61t-172 13h-191l-69 -418h242zM659 1365q178 1 260 -7t160 -54t126 -132t48 -212q1 -124 -77 -234t-182 -144q-104 -35 -253 -35h-329l-92 -547h-255l228 1365h366z" />
    <glyph glyph-name="afii10035" unicode="&#x421;" horiz-adv-x="1211" 
d="M604 -36q-222 0 -362 160t-139 437q0 345 179 593t460 247q219 0 347 -127t146 -352l-222 -40q-30 314 -276 314q-199 0 -287 -236t-87 -426q-1 -190 73 -273q74 -84 184 -84q110 -1 194 81q86 82 131 199l200 -83q-175 -410 -541 -410z" />
    <glyph glyph-name="afii10036" unicode="&#x422;" horiz-adv-x="945" 
d="M1053 1151h-347l-193 -1151h-251l193 1151h-347l36 214h945z" />
    <glyph glyph-name="afii10037" unicode="&#x423;" horiz-adv-x="1056" 
d="M157 0h-91l35 212h92q89 0 134.5 31t90.5 107l28 48l-327 967h267l224 -691l387 691h235l-591 -1027q-114 -199 -216.5 -268.5t-267.5 -69.5z" />
    <glyph glyph-name="afii10038" unicode="&#x424;" horiz-adv-x="1527" 
d="M1233 751q0 253 -253 305l-126 -752q379 56 379 447zM360 618q0 -253 254 -307l125 752q-202 -29 -290.5 -150.5t-88.5 -294.5zM1475 756q0 -235 -152 -417t-499 -213l-28 -167h-241l28 173q-465 62 -465 478q0 241 156.5 421.5t494.5 207.5l28 167h242l-29 -173
q465 -61 465 -477z" />
    <glyph glyph-name="afii10039" unicode="&#x425;" horiz-adv-x="1153" 
d="M1057 0h-269l-218 522l-394 -522h-250l548 709l-285 656h271l191 -456l342 456h245l-496 -636z" />
    <glyph glyph-name="afii10040" unicode="&#x426;" horiz-adv-x="1346" 
d="M79 0l228 1365h245l-193 -1153h522l193 1153h245l-193 -1153h170l-83 -499h-171l21 287h-984z" />
    <glyph glyph-name="afii10041" unicode="&#x427;" horiz-adv-x="1244" 
d="M489 438q-154 0 -241 82.5t-87 219.5q0 58 32 254l63 371h244l-71 -424q-19 -113 -19 -166q0 -140 170 -140t313 124l102 606h244l-228 -1365h-245l99 588q-182 -150 -376 -150z" />
    <glyph glyph-name="afii10042" unicode="&#x428;" horiz-adv-x="1918" 
d="M79 0l228 1365h245l-193 -1153h429l193 1153h244l-193 -1153h429l193 1153h244l-228 -1365h-1591z" />
    <glyph glyph-name="afii10043" unicode="&#x429;" horiz-adv-x="1933" 
d="M1705 212h179l-84 -499h-168l18 287h-1571l228 1365h245l-193 -1153h429l193 1153h244l-193 -1153h429l193 1153h244z" />
    <glyph glyph-name="afii10044" unicode="&#x42a;" horiz-adv-x="1331" 
d="M759 212q150 0 214 71.5t64 181.5q0 178 -233 178h-241l-73 -431h269zM804 842q203 0 293 -36t143.5 -119t53.5 -208q0 -200 -131.5 -339.5t-419.5 -139.5h-532l193 1154h-343l35 211h588l-88 -523h208z" />
    <glyph glyph-name="afii10045" unicode="&#x42b;" horiz-adv-x="1744" 
d="M628 212q150 0 213.5 72t63.5 181q0 178 -232 178h-242l-72 -431h269zM672 842q203 0 293 -36t143.5 -118.5t53.5 -208.5q0 -200 -131 -339.5t-420 -139.5h-532l228 1365h245l-88 -523h208zM1251 0l228 1365h244l-228 -1365h-244z" />
    <glyph glyph-name="afii10046" unicode="&#x42c;" horiz-adv-x="1185" 
d="M615 212q150 0 213.5 72t63.5 181q0 178 -232 178h-242l-72 -431h269zM659 842q203 0 293 -36t143.5 -118.5t53.5 -208.5q0 -200 -131 -339.5t-420 -139.5h-532l228 1365h245l-88 -523h208z" />
    <glyph glyph-name="afii10047" unicode="&#x42d;" horiz-adv-x="1250" 
d="M957 843q0 144 -67.5 248t-224.5 104q-217 0 -326 -228l-219 50q58 146 200.5 260.5t375.5 114.5t373 -148t140 -437q0 -352 -184.5 -593.5t-499.5 -241.5q-232 0 -359 125.5t-147 289.5l233 45q49 -262 287 -262q166 0 271 130.5t126 319.5h-505l30 180h495q1 28 1 43z
" />
    <glyph glyph-name="afii10048" unicode="&#x42e;" horiz-adv-x="1883" 
d="M923 544q0 -208 83 -287.5t189 -79.5q197 0 290 211.5t93 445.5q0 354 -284 354q-187 0 -279 -218t-92 -426zM1326 1393q244 0 378.5 -169.5t134.5 -439.5q0 -326 -180.5 -568.5t-463.5 -242.5q-145 0 -261 73t-186.5 211t-70.5 315q0 16 1 42h-265l-103 -614h-244
l228 1365h245l-92 -549h258q60 256 218.5 416.5t402.5 160.5z" />
    <glyph glyph-name="afii10049" unicode="&#x42f;" horiz-adv-x="1266" 
d="M656 1166q-134 0 -197 -63t-63 -147t50.5 -140t173.5 -56h293l68 406h-325zM137 915q0 114 63 225.5t180.5 168t254.5 56.5h625l-229 -1365h-246l95 567h-331l-358 -567h-247l391 612q-198 95 -198 303z" />
    <glyph glyph-name="afii10065" unicode="&#x430;" horiz-adv-x="1087" 
d="M276 289q0 -61 41 -99t112 -39q102 -1 189 89t123 279q-261 -14 -363 -69t-102 -161zM673 72q0 45 18 147q-50 -113 -144 -179q-95 -66 -219 -66t-210 84t-85 209q1 171 153 272t477 101q42 0 98 -4q7 46 7 73q0 82 -56 124t-141 42q-161 0 -235 -141l-200 63
q126 248 445 248q190 0 300 -86t110 -229q1 -61 -49 -329q-50 -269 -50 -319t4 -82h-221q-2 27 -2 72z" />
    <glyph glyph-name="afii10066" unicode="&#x431;" horiz-adv-x="1107" 
d="M598 859q-139 0 -211.5 -122t-72.5 -318q0 -256 206 -256q138 0 208.5 122.5t70.5 317.5q0 256 -201 256zM666 1031q158 0 263 -110.5t105 -315.5q0 -278 -140 -455t-390 -177q-201 0 -308 111.5t-107 329.5q0 156 48 359t126.5 326.5t165.5 174t195 74.5t136 43t40 66
h228q-19 -99 -87 -151t-204 -78t-225 -68.5t-143 -243.5q139 115 297 115z" />
    <glyph glyph-name="afii10067" unicode="&#x432;" horiz-adv-x="1080" 
d="M567 180q186 0 186 160q0 125 -165 125h-234l-48 -285h261zM637 598q84 0 121.5 44t37.5 104q0 107 -143 107h-234l-43 -255h261zM703 1017q114 0 175.5 -21t101.5 -74t40 -129q0 -197 -242 -256q197 -58 197 -231q0 -132 -94 -219t-259 -87h-570l170 1017h481z" />
    <glyph glyph-name="afii10068" unicode="&#x433;" horiz-adv-x="754" 
d="M840 1017l-30 -180h-394l-140 -837h-224l170 1017h618z" />
    <glyph glyph-name="afii10069" unicode="&#x434;" horiz-adv-x="1000" 
d="M225 177h415l-50 656h-89zM42 177l375 833h351l91 -833h92l-69 -409h-148l12 232h-651l-66 -232h-148l69 409h92z" />
    <glyph glyph-name="afii10070" unicode="&#x435;" horiz-adv-x="1068" 
d="M786 627q0 258 -200 258q-207 0 -266 -258h466zM498 -25q-200 0 -314 123t-115 327q1 260 145 439t360 179t320 -129t104 -352q0 -37 -3 -80h-699q-7 -43 -7 -76q-1 -115 55 -185t158 -70q158 0 240 189l200 -53q-140 -312 -444 -312z" />
    <glyph glyph-name="afii10072" unicode="&#x436;" horiz-adv-x="1312" 
d="M1011 613l262 -613h-241l-204 460l-73 -20l-74 -440h-214l74 440l-67 20l-366 -460h-217l446 539l-240 478h231l203 -404l37 -14l70 418h214l-71 -418l42 14l338 404h220z" />
    <glyph glyph-name="afii10073" unicode="&#x437;" horiz-adv-x="937" 
d="M618 758q0 119 -148 119t-198 -154l-198 38q94 284 426 284q177 0 267 -68.5t90 -180.5q0 -181 -218 -255q193 -48 193 -216q0 -138 -108.5 -245t-325.5 -107q-358 0 -403 311l208 37q22 -183 189 -183q97 0 151 52t54 115t-29.5 94.5t-77.5 39t-159 7.5l27 157
q163 0 211.5 47t48.5 108z" />
    <glyph glyph-name="afii10074" unicode="&#x438;" horiz-adv-x="1118" 
d="M291 88l-15 -88h-224l170 1017h224l-72 -428q-11 -70 -43 -221q73 95 181 207l312 326l20 116h223l-170 -1017h-224l67 404q22 130 45 232q-64 -85 -168 -197z" />
    <glyph glyph-name="afii10075" unicode="&#x439;" horiz-adv-x="1118" 
d="M291 88l-15 -88h-224l170 1017h224l-72 -428q-11 -70 -43 -221q73 95 181 207l312 326l20 116h223l-170 -1017h-224l67 404q22 130 45 232q-64 -85 -168 -197zM534 1455q0 -82 46 -107t105 -25q149 0 193 132h132q-27 -124 -124 -199q-98 -75 -224 -75q-126 1 -194 65
t-69 159q0 18 3 50h132z" />
    <glyph glyph-name="afii10076" unicode="&#x43a;" horiz-adv-x="1022" 
d="M47 0l170 1017h224l-73 -438l476 438h232l-384 -354l252 -663h-253l-179 497l-185 -159l-56 -338h-224z" />
    <glyph glyph-name="afii10077" unicode="&#x43b;" horiz-adv-x="887" 
d="M-94 0l492 1010h269l145 -1010h-229l-98 833l-394 -833h-185z" />
    <glyph glyph-name="afii10078" unicode="&#x43c;" horiz-adv-x="1460" 
d="M52 0l170 1017h338l118 -847l414 847h317l-170 -1017h-206l141 842h-17l-413 -842h-229l-126 842h-17l-141 -842h-179z" />
    <glyph glyph-name="afii10079" unicode="&#x43d;" horiz-adv-x="1115" 
d="M52 0l170 1017h224l-65 -388h394l65 388h224l-170 -1017h-224l75 449h-394l-75 -449h-224z" />
    <glyph glyph-name="afii10080" unicode="&#x43e;" horiz-adv-x="1075" 
d="M508 157q136 1 200 141t64 294q0 264 -204 264q-143 0 -205 -151t-62 -289t60 -199q60 -60 147 -60zM506 -26q-112 0 -218 50t-162 158t-55 259q0 243 143 421t374 177q190 1 304 -127t114 -346t-136 -405t-364 -187z" />
    <glyph glyph-name="afii10081" unicode="&#x43f;" horiz-adv-x="1071" 
d="M52 0l170 1017h798l-170 -1017h-224l143 854h-350l-143 -854h-224z" />
    <glyph glyph-name="afii10082" unicode="&#x440;" horiz-adv-x="1092" 
d="M547 154q117 0 181 148t63 303q0 263 -160 263q-121 0 -203 -144t-81 -293t59 -213t141 -64zM703 1051q143 0 232 -116t89 -337t-120 -424t-322 -203t-277 209l-89 -535h-224l230 1372h200l-35 -210q126 244 316 244z" />
    <glyph glyph-name="afii10083" unicode="&#x441;" horiz-adv-x="979" 
d="M476 -22q-179 0 -292 120t-113 353q0 232 139 414t349 182q159 -1 265 -93t134 -262l-190 -37q-40 200 -199 200q-118 0 -192 -134t-74 -288q0 -153 56 -209t133 -56q150 0 228 201l188 -67q-144 -324 -432 -324z" />
    <glyph glyph-name="afii10084" unicode="&#x442;" horiz-adv-x="754" 
d="M183 0l140 837h-278l30 180h775l-30 -180h-273l-140 -837h-224z" />
    <glyph glyph-name="afii10085" unicode="&#x443;" horiz-adv-x="953" 
d="M106 -176q73 0 119.5 29.5t84.5 110.5l38 81l-249 972h240l154 -700l336 700h203l-522 -1053q-72 -145 -140.5 -239.5t-283.5 -94.5q-58 0 -122 9l10 194q59 -9 132 -9z" />
    <glyph glyph-name="afii10086" unicode="&#x444;" horiz-adv-x="1326" 
d="M1038 560q0 238 -206 301l-120 -716q165 34 245.5 149.5t80.5 265.5zM297 453q0 -234 208 -294l119 712q-164 -33 -245.5 -149t-81.5 -269zM1261 563q0 -224 -150.5 -384.5t-422.5 -179.5l-59 -354h-210l60 360q-196 24 -300.5 139.5t-104.5 288.5q0 240 153 402.5
t421 182.5l56 334h210l-57 -340q157 -12 280.5 -118.5t123.5 -330.5z" />
    <glyph glyph-name="afii10087" unicode="&#x445;" horiz-adv-x="936" 
d="M870 0h-256l-181 390l-307 -390h-222l443 539l-239 478h259l141 -314l245 314h220l-377 -458z" />
    <glyph glyph-name="afii10088" unicode="&#x446;" horiz-adv-x="1098" 
d="M52 0l170 1017h224l-140 -837h366l140 837h224l-140 -837h147l-69 -413h-147l14 233h-789z" />
    <glyph glyph-name="afii10089" unicode="&#x447;" horiz-adv-x="1022" 
d="M382 312q-134 0 -202.5 59.5t-68.5 148.5q0 38 29 216l48 281h224l-53 -316q-14 -82 -14 -103q-1 -103 117 -103t205 45l79 477h224l-170 -1017h-224l68 403q-128 -91 -262 -91z" />
    <glyph glyph-name="afii10090" unicode="&#x448;" horiz-adv-x="1619" 
d="M62 0l170 1017h224l-140 -837h327l140 837h224l-140 -837h327l140 837h224l-170 -1017h-1326z" />
    <glyph glyph-name="afii10091" unicode="&#x449;" horiz-adv-x="1637" 
d="M66 0l170 1017h224l-140 -837h327l140 837h224l-140 -837h327l140 837h224l-140 -837h163l-70 -413h-145l12 233h-1316z" />
    <glyph glyph-name="afii10092" unicode="&#x44a;" horiz-adv-x="1082" 
d="M615 180q186 0 186 171q0 129 -163 129h-194l-51 -300h222zM696 644q325 0 325 -280q0 -157 -101.5 -260.5t-317.5 -103.5h-463l140 837h-269l30 180h493l-62 -373h225z" />
    <glyph glyph-name="afii10093" unicode="&#x44b;" horiz-adv-x="1471" 
d="M537 180q187 0 187 172q0 128 -164 128h-194l-50 -300h221zM619 644q324 0 324 -279q0 -158 -101 -261.5t-317 -103.5h-463l170 1017h224l-62 -373h225zM1016 0l170 1017h224l-170 -1017h-224z" />
    <glyph glyph-name="afii10094" unicode="&#x44c;" horiz-adv-x="994" 
d="M527 180q187 0 187 172q0 128 -164 128h-194l-50 -300h221zM609 644q324 0 324 -279q0 -158 -101 -261.5t-317 -103.5h-463l170 1017h224l-62 -373h225z" />
    <glyph glyph-name="afii10095" unicode="&#x44d;" horiz-adv-x="1006" 
d="M708 638q0 94 -51.5 159t-155.5 65q-163 0 -228 -144l-202 42q135 285 454 285q199 0 306 -118t107 -334q0 -283 -136 -451.5t-387 -168.5q-210 0 -301 87t-115 214l208 40q37 -158 212 -158q117 0 188 74.5t81 207.5h-395l27 165h387q1 20 1 35z" />
    <glyph glyph-name="afii10096" unicode="&#x44e;" horiz-adv-x="1558" 
d="M992 156q136 0 199.5 141.5t63.5 294.5q0 270 -204 270q-145 0 -206.5 -158t-61.5 -290t58.5 -195t150.5 -63zM568 445h-218l-74 -445h-224l170 1017h224l-65 -392h209q49 188 175.5 304t312.5 116t298.5 -130.5t112.5 -349.5t-136.5 -405.5t-369.5 -186.5
q-198 0 -306.5 120.5t-108.5 351.5z" />
    <glyph glyph-name="afii10097" unicode="&#x44f;" horiz-adv-x="1059" 
d="M509 853q-165 0 -165 -176q0 -112 124 -112h241l48 288h-248zM121 687q0 125 90.5 227.5t303.5 102.5h494l-170 -1017h-224l67 400h-242l-256 -400h-237l323 449q-149 82 -149 238z" />
    <glyph glyph-name="afii10071" unicode="&#x451;" horiz-adv-x="1068" 
d="M786 627q0 258 -200 258q-207 0 -266 -258h466zM498 -25q-200 0 -314 123t-115 327q1 260 145 439t360 179t320 -129t104 -352q0 -37 -3 -80h-699q-7 -43 -7 -76q-1 -115 55 -185t158 -70q158 0 240 189l200 -53q-140 -312 -444 -312zM803 1188q-47 0 -79 32t-32 76
t32 76q32 34 78 34q48 0 82 -30t34 -80t-34 -79t-81 -29zM468 1188q-48 0 -78 32q-32 32 -32 75t31 77t79 34t81 -30q34 -30 34 -80q1 -50 -33 -79t-82 -29z" />
    <glyph glyph-name="afii10099" unicode="&#x452;" horiz-adv-x="1070" 
d="M731 998q258 0 258 -280q0 -91 -59.5 -466.5t-168.5 -485t-309 -109.5l10 169q120 9 167.5 102.5t90.5 363.5t43 353q0 155 -130 155q-89 0 -170 -74.5t-103 -206.5l-87 -519h-224l188 1126h-178l25 149h178l20 118h224l-20 -118h399l-25 -149h-399l-53 -318
q134 190 323 190z" />
    <glyph glyph-name="afii10100" unicode="&#x453;" horiz-adv-x="754" 
d="M840 1017l-30 -180h-394l-140 -837h-224l170 1017h618zM788 1487l66 -136l-417 -190l-42 107z" />
    <glyph glyph-name="afii10101" unicode="&#x454;" horiz-adv-x="1025" 
d="M304 380q0 -100 55.5 -162.5t156.5 -62.5q173 0 244 159l200 -40q-123 -302 -449 -302q-207 0 -322.5 109.5t-115.5 349.5t136.5 427t399.5 187q319 0 391 -285l-212 -42q-31 144 -193 144q-218 0 -268 -259h395l-27 -165h-387q-4 -37 -4 -58z" />
    <glyph glyph-name="afii10102" unicode="&#x455;" horiz-adv-x="945" 
d="M425 147q91 -1 143 37t53 88t-35 76q-36 25 -147 56t-177 63t-111 98t-45 151q0 134 101 232t285 98q299 0 420 -240l-193 -62q-67 133 -221 133q-69 0 -117 -32t-48 -78q-1 -46 23 -71t140 -59q116 -33 196 -69q78 -36 124 -102t45 -150q-1 -144 -111 -241t-327 -97
q-347 0 -453 269l214 52q59 -152 241 -152z" />
    <glyph glyph-name="afii10103" unicode="&#x456;" horiz-adv-x="508" 
d="M287 0h-235l170 1017h235zM477 1135h-235l41 244h235z" />
    <glyph glyph-name="afii10104" unicode="&#x457;" horiz-adv-x="508" 
d="M287 0h-235l170 1017h235zM544 1188q-48 0 -80 32t-31 76q-1 44 31 76q32 34 79 34t81 -30t35 -80t-33 -79t-82 -29zM210 1188q-48 0 -80 32t-31 75q0 43 31 77q30 34 78 34t82 -30t34 -80t-34 -79q-32 -29 -80 -29z" />
    <glyph glyph-name="afii10105" unicode="&#x458;" horiz-adv-x="554" 
d="M-66 -384q-109 0 -181 12l13 192q60 -13 111 -13q112 0 149 52t61 193l161 965h235l-155 -927q-30 -188 -68 -276t-128 -143t-198 -55zM503 1139h-235l41 240h235z" />
    <glyph glyph-name="afii10106" unicode="&#x459;" horiz-adv-x="1364" 
d="M898 180q186 0 186 172q0 128 -163 128h-215l22 -300h170zM980 644q324 0 324 -280q0 -157 -101 -260.5t-318 -103.5h-346l-54 833l-394 -833h-185l492 1010h269l27 -366h286z" />
    <glyph glyph-name="afii10107" unicode="&#x45a;" horiz-adv-x="1590" 
d="M1119 180q186 0 186 172q0 128 -163 128h-194l-51 -300h222zM1200 644q325 0 325 -280q0 -157 -101.5 -260.5t-317.5 -103.5h-463l75 449h-367l-75 -449h-224l170 1017h224l-65 -388h367l65 388h224l-62 -373h225z" />
    <glyph glyph-name="afii10108" unicode="&#x45b;" horiz-adv-x="1079" 
d="M739 998q130 0 200.5 -71.5t70.5 -178.5q0 -39 -19 -152l-99 -596h-224l96 574q11 70 11 98q0 66 -41 97t-89 31q-94 0 -178.5 -74.5t-106.5 -206.5l-87 -519h-224l188 1126h-178l25 149h178l20 118h224l-20 -118h395l-25 -149h-395l-52 -316q135 188 330 188z" />
    <glyph glyph-name="afii10109" unicode="&#x45c;" horiz-adv-x="1022" 
d="M47 0l170 1017h224l-73 -438l476 438h232l-384 -354l252 -663h-253l-179 497l-185 -159l-56 -338h-224zM890 1487l66 -136l-417 -190l-42 107z" />
    <glyph glyph-name="afii10110" unicode="&#x45e;" horiz-adv-x="953" 
d="M106 -176q74 0 120 30t84 110l38 81l-249 972h240l154 -700l336 700h203l-522 -1053q-72 -146 -113 -202q-96 -133 -311 -132q-58 0 -122 9l10 194q59 -9 132 -9zM466 1455q0 -82 46 -107t105 -25q149 0 193 132h132q-27 -124 -124 -199q-98 -75 -224 -75q-126 1 -194 65
t-69 159q0 18 3 50h132z" />
    <glyph glyph-name="afii10193" unicode="&#x45f;" horiz-adv-x="1086" 
d="M52 0l170 1017h224l-140 -837h365l140 837h224l-170 -1017h-311l-62 -233h-144l17 233h-313z" />
    <glyph glyph-name="afii10050" unicode="&#x490;" horiz-adv-x="934" 
d="M1120 1616l-77 -462h-540l-193 -1154h-244l228 1365h586l42 251h198z" />
    <glyph glyph-name="afii10098" unicode="&#x491;" horiz-adv-x="754" 
d="M670 1017l35 209h170l-65 -389h-394l-140 -837h-224l170 1017h448z" />
    <glyph glyph-name="Wgrave" unicode="&#x1e80;" horiz-adv-x="1782" 
d="M1332 -10h-246l-120 1028l-421 -1028h-237l-160 1375h264l91 -1031l419 1031h243l109 -1031l415 1031h216zM950 1800l343 -219l-49 -107l-373 196z" />
    <glyph glyph-name="wgrave" unicode="&#x1e81;" horiz-adv-x="1432" 
d="M1031 0h-210l-77 723l-294 -723h-206l-152 1017h231l92 -703l294 703h202l74 -701l314 701h198zM722 1487l343 -219l-49 -107l-373 196z" />
    <glyph glyph-name="Wacute" unicode="&#x1e82;" horiz-adv-x="1782" 
d="M1332 -10h-246l-120 1028l-421 -1028h-237l-160 1375h264l91 -1031l419 1031h243l109 -1031l415 1031h216zM1218 1800l66 -136l-417 -190l-42 107z" />
    <glyph glyph-name="wacute" unicode="&#x1e83;" horiz-adv-x="1432" 
d="M1031 0h-210l-77 723l-294 -723h-206l-152 1017h231l92 -703l294 703h202l74 -701l314 701h198zM1027 1487l66 -136l-417 -190l-42 107z" />
    <glyph glyph-name="Wdieresis" unicode="&#x1e84;" horiz-adv-x="1782" 
d="M1332 -10h-246l-120 1028l-421 -1028h-237l-160 1375h264l91 -1031l419 1031h243l109 -1031l415 1031h216zM1239 1512q-47 0 -79 32t-32 76t32 76q32 34 78 34q48 0 82 -30t34 -80t-34 -79t-81 -29zM904 1512q-48 0 -78 32q-32 32 -32 75t31 77t79 34t81 -30
q34 -30 34 -80q1 -50 -33 -79t-82 -29z" />
    <glyph glyph-name="wdieresis" unicode="&#x1e85;" horiz-adv-x="1432" 
d="M1031 0h-210l-77 723l-294 -723h-206l-152 1017h231l92 -703l294 703h202l74 -701l314 701h198zM996 1188q-48 0 -80 32t-31 76q-1 44 31 76q32 34 79 34t81 -30t35 -80t-33 -79t-82 -29zM662 1188q-48 0 -80 32t-31 75q0 43 31 77q30 34 78 34t82 -30t34 -80t-34 -79
q-32 -29 -80 -29z" />
    <glyph glyph-name="Ygrave" unicode="&#x1ef2;" horiz-adv-x="1061" 
d="M593 0h-257l96 575l-347 790h281l242 -590l388 590h236l-545 -802zM548 1800l343 -219l-49 -107l-373 196z" />
    <glyph glyph-name="ygrave" unicode="&#x1ef3;" horiz-adv-x="933" 
d="M84 -176q74 0 120 30t85 110l38 81l-249 972h240l154 -700l336 700h196l-522 -1053q-73 -146 -112 -202q-92 -132 -306 -132q-56 0 -121 9l10 194q57 -9 131 -9zM428 1487l343 -219l-49 -107l-373 196z" />
    <glyph glyph-name="endash" unicode="&#x2013;" horiz-adv-x="1201" 
d="M998 414h-826l31 183h826z" />
    <glyph glyph-name="emdash" unicode="&#x2014;" horiz-adv-x="1365" 
d="M1403 414h-1472l31 183h1471z" />
    <glyph glyph-name="afii00208" unicode="&#x2015;" horiz-adv-x="1365" 
d="M1403 414h-1472l31 183h1471z" />
    <glyph glyph-name="underscoredbl" unicode="&#x2017;" horiz-adv-x="1024" 
d="M29 -341h1024v-144h-1024v144zM29 -101h1024v-144h-1024v144z" />
    <glyph glyph-name="quoteleft" unicode="&#x2018;" horiz-adv-x="493" 
d="M418 1365h81l-153 -258h109l-37 -222h-217l35 207z" />
    <glyph glyph-name="quoteright" unicode="&#x2019;" horiz-adv-x="493" 
d="M281 885h-80l152 259h-109l37 221h218l-35 -206z" />
    <glyph glyph-name="quotesinglbase" unicode="&#x201a;" horiz-adv-x="493" 
d="M90 -258h-80l152 258h-109l37 223h218l-35 -208z" />
    <glyph glyph-name="quotereversed" unicode="&#x201b;" horiz-adv-x="493" 
d="M306 885l-60 274l37 206h217l-40 -221h-112l35 -259h-77z" />
    <glyph glyph-name="quotedblleft" unicode="&#x201c;" horiz-adv-x="757" 
d="M704 1365h80l-153 -269h95l-38 -225h-206l35 208zM416 1365h79l-151 -269h96l-37 -225h-212l35 209z" />
    <glyph glyph-name="quotedblright" unicode="&#x201d;" horiz-adv-x="757" 
d="M258 871h-81l154 269h-95l37 225h208l-35 -208zM545 871h-79l151 269h-96l38 225h211l-35 -209z" />
    <glyph glyph-name="quotedblbase" unicode="&#x201e;" horiz-adv-x="756" 
d="M67 -270h-81l154 270h-95l37 225h208l-35 -208zM354 -270h-79l151 270h-96l38 225h211l-35 -209z" />
    <glyph glyph-name="dagger" unicode="&#x2020;" horiz-adv-x="1201" 
d="M635 1365h219l-63 -376h366l-31 -188h-367l-193 -1156h-218l193 1156h-366l31 188h367z" />
    <glyph glyph-name="daggerdbl" unicode="&#x2021;" horiz-adv-x="1201" 
d="M635 1365h218l-62 -376h366l-32 -188h-366l-93 -557h366l-31 -189h-367l-69 -410h-217l68 410h-366l31 189h367l93 557h-366l31 188h366z" />
    <glyph glyph-name="bullet" unicode="&#x2022;" horiz-adv-x="1365" 
d="M998 696q0 -118 -82 -202t-200 -84t-199.5 84t-81.5 202t82.5 202t198.5 84t199 -84t83 -202z" />
    <glyph glyph-name="ellipsis" unicode="&#x2026;" horiz-adv-x="1494" 
d="M1279 0h-239l42 250h239zM781 0h-238l42 250h238zM284 0h-239l42 250h239z" />
    <glyph glyph-name="perthousand" unicode="&#x2030;" horiz-adv-x="2228" 
d="M1004 286q0 -167 116 -167q77 0 116.5 104t39.5 212q0 165 -114 165q-86 0 -122 -105.5t-36 -208.5zM834 322q0 163 100 291t227 128t207 -94.5t80 -251.5t-96 -287t-230 -130t-211 90.5t-77 253.5zM1700 284q0 -165 116 -165q77 0 116.5 103.5t39.5 213.5
q0 164 -114 164q-85 0 -121.5 -105.5t-36.5 -210.5zM1530 322q0 162 100 290.5t227 128.5t207 -93.5t80 -251.5t-96 -288t-230 -130t-211 91t-77 253zM373 0h-153l998 1365h150zM316 944q0 -102 33 -137.5t77 -35.5t78 28.5t59 112t25 180.5q0 160 -111 160
q-82 0 -121.5 -103t-39.5 -205zM145 970q0 154 92.5 288.5t244.5 134.5q115 0 196.5 -86.5t81.5 -242.5t-93 -294t-249 -138q-114 0 -193.5 92t-79.5 246z" />
    <glyph glyph-name="minute" unicode="&#x2032;" horiz-adv-x="431" 
d="M248 823h-150l248 542h218z" />
    <glyph glyph-name="second" unicode="&#x2033;" horiz-adv-x="768" 
d="M626 823h-150l248 542h217zM248 823h-150l248 542h218z" />
    <glyph glyph-name="guilsinglleft" unicode="&#x2039;" horiz-adv-x="426" 
d="M290 224h-89l-124 292l202 281h107l-155 -287z" />
    <glyph glyph-name="guilsinglright" unicode="&#x203a;" horiz-adv-x="425" 
d="M137 797h89l124 -292l-202 -281h-107l155 287z" />
    <glyph glyph-name="exclamdbl" unicode="&#x203c;" horiz-adv-x="1010" 
d="M803 0h-246l42 253h246zM788 380h-104l34 985h290zM291 0h-246l42 253h246zM276 380h-104l34 985h290z" />
    <glyph glyph-name="uni203E" unicode="&#x203e;" horiz-adv-x="1135" 
d="M-42 1869h1219v-74h-1219v74z" />
    <glyph glyph-name="uni2044" unicode="&#x2044;" horiz-adv-x="437" 
d="M-174 0h-153l998 1365h150z" />
    <glyph glyph-name="nsuperior" unicode="&#x207f;" horiz-adv-x="723" 
d="M544 981q0 73 -71 73q-56 0 -101 -58.5t-64 -172.5l-46 -277h-161l103 614h150l-16 -96q64 112 188 112q68 0 124.5 -44t56.5 -132q0 -30 -12 -99l-59 -355h-161l62 367q7 39 7 68z" />
    <glyph glyph-name="franc" unicode="&#x20a3;" horiz-adv-x="1017" 
d="M99 201h-117l32 191h117l162 973h840l-36 -214h-589l-62 -369h490l-34 -203h-490l-32 -187h249l-32 -191h-248l-34 -201h-250z" />
    <glyph glyph-name="lira" unicode="&#x20a4;" horiz-adv-x="1201" 
d="M820 1420q258 0 350 -252l-207 -90q-39 153 -168 153q-69 0 -124.5 -47.5t-70.5 -114t-17 -205.5h266l-25 -150h-246q-3 -49 -10 -109h238l-25 -150h-247q-61 -156 -181 -227h269q158 0 240.5 42t119.5 155l197 -110q-73 -164 -205.5 -239.5t-340.5 -75.5h-723l38 230
q126 7 182.5 23.5t105 69t73.5 132.5h-178l25 150h172l1 109h-155l25 150h132q4 123 21 201t82 167.5t165 138.5t221 49z" />
    <glyph glyph-name="peseta" unicode="&#x20a7;" horiz-adv-x="2144" 
d="M1811 517q-91 0 -91 -61q0 -41 66 -58q150 -41 207 -84t57 -126t-71.5 -142t-210.5 -59q-226 0 -294 169l153 36q33 -91 143 -91t110 71q0 39 -108 67t-161 71t-53 122t65.5 139t184.5 60q195 0 274 -152l-139 -43q-41 81 -132 81zM1301 -10q-92 0 -136 39t-44 83t13 122
l44 258h-93l20 122h96l36 161l148 9l-29 -170h137l-21 -122h-136l-44 -260q-8 -48 -8 -62q0 -52 80 -52q19 0 57 5l-21 -123q-75 -10 -99 -10zM634 748q128 0 179 16.5t90 72t39 131.5t-35 124t-83 61t-172 13h-136l-70 -418h188zM592 1365q178 0 259.5 -7.5t160 -53.5
t126 -133t47.5 -211t-77.5 -233.5t-181 -144.5t-252.5 -35h-262l-91 -547h-231l228 1365h274z" />
    <glyph glyph-name="Euro" unicode="&#x20ac;" horiz-adv-x="1200" 
d="M774 1212q-107 0 -193 -92t-128 -246h307l-17 -122h-319q-11 -60 -18 -134h321l-18 -122h-310q4 -159 65.5 -247.5t167.5 -88.5t191.5 76.5t114.5 191.5l227 -25q-125 -440 -534 -440q-222 0 -349.5 147t-127.5 386h-113l16 122h103q0 38 16 134h-100l16 122h111
q71 242 227 384.5t358 142.5t324.5 -110.5t128.5 -313.5l-233 -25q-10 260 -234 260z" />
    <glyph glyph-name="afii61248" unicode="&#x2105;" horiz-adv-x="1879" 
d="M1438 103q94 0 137.5 92t43.5 191q0 170 -139 170q-98 0 -140.5 -99t-42.5 -188t40.5 -127.5t100.5 -38.5zM1445 -27q-153 0 -235 82.5t-82 238.5t102 273.5t250 117.5t229.5 -84.5t81.5 -230.5t-96.5 -271.5t-249.5 -125.5zM546 0h-153l998 1365h150zM409 685
q-133 0 -210 84t-77 236t98.5 273t247.5 121q238 0 284 -242l-141 -25q-27 132 -136 132q-81 0 -131.5 -87.5t-50.5 -200.5q0 -157 128 -157q104 0 157 134l140 -48q-103 -220 -309 -220z" />
    <glyph glyph-name="afii61289" unicode="&#x2113;" horiz-adv-x="1201" 
d="M901 1178q0 92 -40 91q-85 0 -181 -552q101 113 161 241t60 220zM592 168q0 -68 33 -68q43 0 89 102q18 40 43 40q33 0 33 -39q0 -73 -68.5 -152.5t-152.5 -79.5q-153 0 -153 244q0 66 8 166q-63 -61 -77 -61t-25.5 14t-11.5 36t38 59q38 38 91 102q64 358 167 607
t253 249q69 0 110 -50.5t41 -133.5q0 -296 -359 -656q-59 -311 -59 -379z" />
    <glyph glyph-name="afii61352" unicode="&#x2116;" horiz-adv-x="2048" 
d="M1872 0h-622l31 183h621zM1659 501q76 0 113 79t37 176q0 144 -118 144q-82 0 -116.5 -87t-34.5 -170q0 -142 119 -142zM1665 363q-139 0 -222 75.5t-83 227.5t96 262t244 110t219.5 -89t71.5 -203q0 -156 -93.5 -269.5t-232.5 -113.5zM1094 0h-195l-466 1026l-171 -1026
h-197l228 1365h253l425 -937l157 937h195z" />
    <glyph glyph-name="trademark" unicode="&#x2122;" horiz-adv-x="1573" 
d="M1506 587h-171l106 636l-315 -636h-99l-112 633l-105 -633h-139l130 778h248l89 -486l234 486h264zM709 1232h-211l-108 -645h-175l107 645h-211l22 133h599z" />
    <glyph glyph-name="uni2126" unicode="&#x2126;" horiz-adv-x="1573" 
d="M110 676q0 344 212.5 585.5t547.5 241.5q262 0 411.5 -162.5t149.5 -408.5t-114 -448.5t-326 -323.5l365 7l-23 -167h-575l24 179q199 85 318 283.5t119 423.5t-99.5 339.5t-272.5 114.5q-233 0 -381 -200.5t-148 -479.5q0 -354 269 -481l-25 -179h-577l23 167l368 -7
q-266 172 -266 516z" />
    <glyph glyph-name="estimated" unicode="&#x212e;" horiz-adv-x="1229" 
d="M879 605v297q-123 121 -299 121t-297 -122v-296h596zM283 531v-371q120 -121 298 -121q254 0 395 246l72 -43q-118 -170 -231.5 -223t-235.5 -53q-232 0 -380.5 158.5t-148.5 408.5t149.5 406.5t371.5 156.5t374 -142t163 -423h-827z" />
    <glyph glyph-name="oneeighth" unicode="&#x215b;" horiz-adv-x="1802" 
d="M1217 213q0 -49 47.5 -80t133.5 -31t130.5 35.5t44.5 76.5q0 80 -190 140q-166 -45 -166 -141zM1620 621q0 44 -42 72.5t-114 28.5t-112 -28t-40 -71t39.5 -73t136.5 -60q132 50 132 131zM1138 585q0 106 89.5 180.5t233.5 74.5t227.5 -58t83.5 -149q0 -129 -169 -195
q141 -65 141 -183t-97.5 -195.5t-261.5 -77.5t-246.5 61.5t-82.5 152.5q0 158 199 218q-117 65 -117 171zM474 0h-153l1069 1365h150zM171 1107q-10 0 -27 1l22 136q237 18 329 151h113l-119 -710h230l-23 -139h-619l23 139h227l82 490q-116 -68 -238 -68z" />
    <glyph glyph-name="threeeighths" unicode="&#x215c;" horiz-adv-x="1802" 
d="M1217 213q0 -50 47.5 -80.5t133.5 -30.5t130.5 35.5t44.5 76.5q0 80 -191 140q-165 -45 -165 -141zM1620 621q0 43 -42.5 72t-114.5 29t-112 -28t-40 -71t38.5 -72.5t138.5 -60.5q132 50 132 131zM1137 584q0 106 89.5 181t233.5 75t228 -58t84 -149q0 -129 -169 -195
q141 -65 141 -183t-98 -195.5t-258 -77.5t-246 60t-86 154q0 158 199 218q-118 64 -118 170zM473 0h-152l1068 1365h151zM386 657q74 0 120 37t46 88t-26.5 80.5t-61.5 34.5t-162 5l22 128q26 -1 45 -1q220 0 220 121q0 47 -40 75t-97 28q-127 0 -186 -119l-146 61
q118 190 337 190q133 0 217.5 -64.5t84.5 -157.5q0 -139 -170 -192q134 -48 134 -187q0 -102 -89 -179.5t-253 -77.5q-265 0 -334 231l153 37q11 -62 61.5 -100t124.5 -38z" />
    <glyph glyph-name="fiveeighths" unicode="&#x215d;" horiz-adv-x="1802" 
d="M1217 213q0 -50 47.5 -80.5t133.5 -30.5t130.5 35.5t44.5 76.5q0 80 -191 140q-165 -45 -165 -141zM1620 621q0 44 -42.5 72.5t-114.5 28.5t-112 -28t-40 -71t38.5 -72.5t138.5 -60.5q132 50 132 131zM1137 585q0 106 90 180.5t239 74.5t227.5 -61t78.5 -146
q0 -129 -169 -195q141 -65 141 -183t-97.5 -195.5t-258.5 -77.5t-246.5 60t-85.5 154q0 158 199 218q-118 65 -118 171zM473 0h-152l1068 1365h151zM396 654q66 0 118 49t52 117t-45 107.5t-105 39.5q-97 0 -157 -91l-134 54l120 435h528l-36 -136h-389l-56 -198
q80 70 186 70t184.5 -78.5t78.5 -198.5t-101.5 -210t-231.5 -90t-219.5 58t-116.5 154l150 37q13 -53 60.5 -86t113.5 -33z" />
    <glyph glyph-name="seveneighths" unicode="&#x215e;" horiz-adv-x="1802" 
d="M1218 213q0 -50 47 -80.5t133 -30.5t130.5 35.5t44.5 76.5q0 80 -190 140q-165 -45 -165 -141zM1621 621q0 41 -40.5 71t-114.5 30t-114 -28t-40 -71t38.5 -72.5t138.5 -60.5q132 50 132 131zM1138 584q0 106 89.5 181t233.5 75t227.5 -58t83.5 -149q0 -129 -169 -195
q142 -65 142 -183t-98.5 -195.5t-258.5 -77.5t-245.5 60t-85.5 154q0 158 199 218q-118 64 -118 170zM474 0h-153l1069 1365h150zM400 546h-193q1 1 15 63q83 365 396 614h-479l45 142h613l-21 -123q-91 -66 -224 -262.5t-152 -433.5z" />
    <glyph glyph-name="arrowleft" unicode="&#x2190;" horiz-adv-x="2048" 
d="M1968 567v-101h-1595q102 -102 198 -309h-78q-223 253 -414 341v45q177 71 413 333h76q-81 -170 -195 -309h1595z" />
    <glyph glyph-name="arrowup" unicode="&#x2191;" horiz-adv-x="1024" 
d="M563 -429h-101v1474q-139 -114 -309 -195v76q262 237 333 413h46q87 -191 340 -414v-77q-207 95 -309 197v-1474z" />
    <glyph glyph-name="arrowright" unicode="&#x2192;" horiz-adv-x="2048" 
d="M79 466v101h1595q-114 139 -195 309h76q237 -262 413 -333v-45q-191 -88 -414 -341h-77q95 207 197 309h-1595z" />
    <glyph glyph-name="arrowdown" unicode="&#x2193;" horiz-adv-x="1024" 
d="M462 1339h101v-1474q102 102 309 197v-77q-253 -223 -340 -414h-46q-71 176 -333 413v76q170 -81 309 -195v1474z" />
    <glyph glyph-name="arrowboth" unicode="&#x2194;" horiz-adv-x="2048" 
d="M1968 540v-45q-181 -79 -406 -337h-80q69 172 194 311h-1305q125 -139 194 -311h-80q-224 258 -406 337v45q182 79 406 338h80q-69 -172 -194 -311h1305q-125 139 -194 311h80q225 -259 406 -338z" />
    <glyph glyph-name="arrowupdn" unicode="&#x2195;" horiz-adv-x="1024" 
d="M489 1463h45q79 -182 337 -407v-80q-171 69 -311 195v-1306q140 126 311 194v-79q-258 -225 -337 -407h-45q-79 182 -337 407v79q171 -68 311 -194v1306q-140 -126 -311 -195v80q258 225 337 407z" />
    <glyph glyph-name="arrowupdnbse" unicode="&#x21a8;" horiz-adv-x="1024" 
d="M154 -522h717v-98h-717v98zM489 1463h45q79 -182 337 -407v-80q-171 69 -311 195v-1306q140 126 311 194v-79q-258 -225 -337 -407h-45q-79 182 -337 407v79q171 -68 311 -194v1306q-140 -126 -311 -195v80q258 225 337 407z" />
    <glyph glyph-name="partialdiff" unicode="&#x2202;" horiz-adv-x="1012" 
d="M174 319q0 -104 53.5 -155.5t116.5 -51.5q144 0 279 169.5t169 514.5q-246 -12 -362 -70t-186 -180.5t-70 -226.5zM589 1491q148 0 235 -139.5t87 -425.5q0 -437 -181.5 -695.5t-429.5 -258.5q-135 0 -220.5 92t-85.5 256q0 258 197 428t605 176q-2 250 -57 344.5
t-148 94.5q-143 0 -227 -225l-135 60q64 150 163.5 221.5t196.5 71.5z" />
    <glyph glyph-name="uni2206" unicode="&#x2206;" horiz-adv-x="1253" 
d="M990 82l-399 967l-440 -967h839zM1226 0h-1200l628 1387z" />
    <glyph glyph-name="product" unicode="&#x220f;" horiz-adv-x="1685" 
d="M130 1536h1362v-1962h-191v1788h-978v-1788h-193v1962z" />
    <glyph glyph-name="summation" unicode="&#x2211;" horiz-adv-x="1460" 
d="M108 1536h1237v-164h-988l607 -796l-646 -841h1037v-161h-1264v187l620 808l-603 791v176z" />
    <glyph glyph-name="minus" unicode="&#x2212;" horiz-adv-x="1201" 
d="M1137 785v-191h-1012v191h1012z" />
    <glyph glyph-name="fraction" unicode="&#x2215;" horiz-adv-x="437" 
d="M-174 0h-153l998 1365h150z" />
    <glyph glyph-name="periodcentered" unicode="&#x2219;" horiz-adv-x="281" 
d="M239 380h-239l42 251h239z" />
    <glyph glyph-name="radical" unicode="&#x221a;" horiz-adv-x="1124" 
d="M1047 1869h74l-312 -1947l-496 1021l-198 -91l-34 64l301 151l405 -823z" />
    <glyph glyph-name="infinity" unicode="&#x221e;" horiz-adv-x="1460" 
d="M367 893q-61 0 -98 -43.5t-37 -112.5t39.5 -112t97.5 -43q100 0 218 153q-122 158 -220 158zM980 519q74 0 130 50.5t56 158.5t-52 165.5t-120 57.5t-119.5 -40t-149.5 -174q47 -76 114 -147t141 -71zM1006 1064q93 0 182 -78t89 -254t-93 -250.5t-183 -74.5t-160 43
t-185 190q-136 -172 -288 -172q-112 0 -179.5 83t-67.5 185t67.5 184t179.5 82q152 0 288 -171q117 150 187 191.5t163 41.5z" />
    <glyph glyph-name="orthogonal" unicode="&#x221f;" horiz-adv-x="2005" 
d="M362 1279h100v-1179h1181v-100h-1281v1279z" />
    <glyph glyph-name="intersection" unicode="&#x2229;" horiz-adv-x="1472" 
d="M302 0h-110v473q0 265 13 373t76 210t188 171.5t268 69.5t267.5 -70t186 -167.5t76 -206.5t14.5 -380v-473h-109v480q0 232 -12 333t-60 182.5t-149 138.5t-215 57t-215.5 -58t-148 -137t-58.5 -181.5t-12 -334.5v-480z" />
    <glyph glyph-name="integral" unicode="&#x222b;" horiz-adv-x="561" 
d="M435 1863q54 0 89.5 -34.5t35.5 -75.5t-25.5 -71t-63.5 -30t-70 28t-49 28q-40 0 -40 -53t23 -309t23 -418q0 -161 -12 -564t-77 -493.5t-151 -90.5q-49 0 -83.5 32t-34.5 82t25 78t65 28t69 -32t49 -32q39 0 39 52t-9 129q-37 316 -37 868t56 715t178 163z" />
    <glyph glyph-name="approxequal" unicode="&#x2248;" horiz-adv-x="1201" 
d="M424 659q82 1 222 -55t190 -56q96 0 158 115l133 -78q-114 -260 -320 -260q-56 0 -201 55t-187 55q-94 0 -156 -131l-129 84q67 161 137.5 216t152.5 55zM423 1054q83 0 223 -56t189 -55q97 0 159 114l133 -77q-113 -261 -319 -261q-57 0 -202 55t-187 55
q-94 0 -156 -130l-129 84q66 158 136 214.5t153 56.5z" />
    <glyph glyph-name="notequal" unicode="&#x2260;" horiz-adv-x="1201" 
d="M1073 946v-208h-322l-75 -152h398v-209h-493l-103 -206l-149 73l66 133h-209v209h304l76 152h-380v208h474l112 224l149 -74l-75 -150h227z" />
    <glyph glyph-name="equivalence" unicode="&#x2261;" horiz-adv-x="1201" 
d="M187 474h887v-209h-887v209zM187 793h887v-209h-887v209zM187 1112h887v-208h-887v208z" />
    <glyph glyph-name="lessequal" unicode="&#x2264;" horiz-adv-x="1201" 
d="M1074 241v-209h-887v209h887zM1074 1333v-217l-641 -300l640 -299l1 -217l-887 419v195z" />
    <glyph glyph-name="greaterequal" unicode="&#x2265;" horiz-adv-x="1201" 
d="M187 32v209h887v-209h-887zM187 300v217l642 300l-641 299l-1 217l887 -419v-196z" />
    <glyph glyph-name="house" unicode="&#x2302;" horiz-adv-x="1229" 
d="M234 81h761v519l-381 427l-380 -427v-519zM153 0v634l461 519l462 -519v-634h-923z" />
    <glyph glyph-name="revlogicalnot" unicode="&#x2310;" horiz-adv-x="1201" 
d="M419 0h-232v546h887v-208h-655v-338z" />
    <glyph glyph-name="integraltp" unicode="&#x2320;" horiz-adv-x="1237" 
d="M691 -515h-145v1811q0 219 89.5 330t202.5 111q67 0 102.5 -32.5t35.5 -74.5t-25 -68t-59 -26t-56 12t-46 49t-44 37q-40 0 -47 -36q-8 -36 -8 -142v-1971z" />
    <glyph glyph-name="integralbt" unicode="&#x2321;" horiz-adv-x="1237" 
d="M546 1737h145v-1811q0 -219 -89.5 -330t-202.5 -111q-67 0 -102.5 32.5t-35.5 74.5t25.5 68t59.5 26t56 -13q23 -13 46 -49t43 -36q40 0 48 40q7 32 7 138v1971z" />
    <glyph glyph-name="SF100000" unicode="&#x2500;" 
d="M1473 534h-1496v175h1496v-175z" />
    <glyph glyph-name="SF110000" unicode="&#x2502;" 
d="M638 -621v2485h175v-2485h-175z" />
    <glyph glyph-name="SF010000" unicode="&#x250c;" 
d="M1474 709v-175h-661v-1155h-175v1330h836z" />
    <glyph glyph-name="SF030000" unicode="&#x2510;" 
d="M637 534h-660v175h835v-1330h-175v1155z" />
    <glyph glyph-name="SF020000" unicode="&#x2514;" 
d="M638 534v1330h175v-1155h661v-175h-836z" />
    <glyph glyph-name="SF040000" unicode="&#x2518;" 
d="M812 534h-835v175h660v1155h175v-1330z" />
    <glyph glyph-name="SF080000" unicode="&#x251c;" 
d="M638 -621v2485h175v-1155h661v-175h-661v-1155h-175z" />
    <glyph glyph-name="SF090000" unicode="&#x2524;" 
d="M637 -621v1155h-660v175h660v1155h175v-2485h-175z" />
    <glyph glyph-name="SF060000" unicode="&#x252c;" 
d="M637 534h-660v175h1496v-175h-661v-1155h-175v1155z" />
    <glyph glyph-name="SF070000" unicode="&#x2534;" 
d="M1473 534h-1496v175h660v1155h175v-1155h661v-175z" />
    <glyph glyph-name="SF050000" unicode="&#x253c;" 
d="M637 534h-660v175h660v1155h175v-1155h661v-175h-661v-1155h-175v1155z" />
    <glyph glyph-name="SF430000" unicode="&#x2550;" 
d="M1473 344h-1496v175h1496v-175zM1473 724h-1496v175h1496v-175z" />
    <glyph glyph-name="SF240000" unicode="&#x2551;" 
d="M448 -621v2485h175v-2485h-175zM829 -621v2485h175v-2485h-175z" />
    <glyph glyph-name="SF510000" unicode="&#x2552;" 
d="M638 -621v1520h836v-175h-661v-205h661v-175h-661v-965h-175z" />
    <glyph glyph-name="SF520000" unicode="&#x2553;" 
d="M448 -621v1330h1027v-175h-471v-1155h-175v1155h-206v-1155h-175z" />
    <glyph glyph-name="SF390000" unicode="&#x2554;" 
d="M1004 344v-965h-175v1140h645v-175h-470zM623 -621h-175v1520h1026v-175h-851v-1345z" />
    <glyph glyph-name="SF220000" unicode="&#x2555;" 
d="M637 344h-660v175h660v205h-660v175h835v-1520h-175v965z" />
    <glyph glyph-name="SF210000" unicode="&#x2556;" 
d="M448 -621v1155h-471v175h1026v-1330h-175v1155h-206v-1155h-174z" />
    <glyph glyph-name="SF250000" unicode="&#x2557;" 
d="M447 344h-470v175h645v-1140h-175v965zM828 -621v1345h-851v175h1026v-1520h-175z" />
    <glyph glyph-name="SF500000" unicode="&#x2558;" 
d="M638 344v1520h175v-965h661v-175h-661v-205h661v-175h-836z" />
    <glyph glyph-name="SF490000" unicode="&#x2559;" 
d="M1475 534h-1027v1330h175v-1155h206v1155h175v-1155h471v-175z" />
    <glyph glyph-name="SF380000" unicode="&#x255a;" 
d="M1004 899h470v-175h-645v1140h175v-965zM623 1864v-1345h850v-175h-1025v1520h175z" />
    <glyph glyph-name="SF280000" unicode="&#x255b;" 
d="M812 344h-835v175h660v205h-660v175h660v965h175v-1520z" />
    <glyph glyph-name="SF270000" unicode="&#x255c;" 
d="M1003 534h-1026v175h470v1155h175v-1155h206v1155h175v-1330z" />
    <glyph glyph-name="SF260000" unicode="&#x255d;" 
d="M447 899v965h175v-1140h-645v175h470zM828 1864h175v-1520h-1026v175h851v1345z" />
    <glyph glyph-name="SF360000" unicode="&#x255e;" 
d="M638 -621v2485h175v-965h661v-175h-661v-205h661v-175h-661v-965h-175z" />
    <glyph glyph-name="SF370000" unicode="&#x255f;" 
d="M448 -621v2485h175v-2485h-175zM829 -621v2485h175v-1155h470v-175h-470v-1155h-175z" />
    <glyph glyph-name="SF420000" unicode="&#x2560;" 
d="M829 -621v1140h645v-175h-470v-965h-175zM829 724v1140h175v-965h470v-175h-645zM448 -621v2485h175v-2485h-175z" />
    <glyph glyph-name="SF190000" unicode="&#x2561;" 
d="M637 344h-660v175h660v205h-660v175h660v965h175v-2485h-175v965z" />
    <glyph glyph-name="SF200000" unicode="&#x2562;" 
d="M828 -621v2485h175v-2485h-175zM-23 534v175h470v1155h175v-2485h-175l1 1155h-471z" />
    <glyph glyph-name="SF230000" unicode="&#x2563;" 
d="M447 344h-470v175h645v-1140h-175v965zM622 1864v-1140h-645v175h470v965h175zM828 -621v2485h175v-2485h-175z" />
    <glyph glyph-name="SF470000" unicode="&#x2564;" 
d="M637 344h-660v175h1496v-175h-661v-965h-175v965zM1473 724h-1496v175h1496v-175z" />
    <glyph glyph-name="SF480000" unicode="&#x2565;" 
d="M447 -621v1155h-470v175h1496v-175h-470v-1155h-175v1155h-206v-1155h-175z" />
    <glyph glyph-name="SF410000" unicode="&#x2566;" 
d="M828 -621v1140h645v-175h-470v-965h-175zM447 344h-470v175h645v-1140h-175v965zM1473 724h-1496v175h1496v-175z" />
    <glyph glyph-name="SF450000" unicode="&#x2567;" 
d="M1473 344h-1496v175h1496v-175zM1473 724h-1496v175h660v965h175v-965h661v-175z" />
    <glyph glyph-name="SF460000" unicode="&#x2568;" 
d="M1473 534h-1496v175h470v1155h175v-1155h206v1155h175v-1155h470v-175z" />
    <glyph glyph-name="SF400000" unicode="&#x2569;" 
d="M1473 344h-1496v175h1496v-175zM1473 724h-645v1140h175v-965h470v-175zM622 724h-645v175h470v965h175v-1140z" />
    <glyph glyph-name="SF540000" unicode="&#x256a;" 
d="M637 344h-660v175h660v205h-660v175h660v965h175v-965h661v-175h-661v-205h661v-175h-661v-965h-175v965z" />
    <glyph glyph-name="SF530000" unicode="&#x256b;" 
d="M447 -621v1155h-470v175h470v1155h175v-1155h206v1155h175v-1155h470v-175h-470v-1155h-175v1155h-206v-1155h-175z" />
    <glyph glyph-name="SF440000" unicode="&#x256c;" 
d="M1003 344v-965h-175v1140h645v-175h-470zM447 344h-470v175h645v-1140h-175v965zM447 899v965h175v-1140h-645v175h470zM1003 899h470v-175h-645v1140h175v-965z" />
    <glyph glyph-name="upblock" unicode="&#x2580;" 
d="M1473 621h-1496v1243h1496v-1243z" />
    <glyph glyph-name="dnblock" unicode="&#x2584;" 
d="M1473 -621h-1496v1242h1496v-1242z" />
    <glyph glyph-name="block" unicode="&#x2588;" 
d="M-23 -621v2485h1496v-2485h-1496z" />
    <glyph glyph-name="lfblock" unicode="&#x258c;" 
d="M-23 -621v2485h748v-2485h-748z" />
    <glyph glyph-name="rtblock" unicode="&#x2590;" 
d="M726 -621v2485h748v-2485h-748z" />
    <glyph glyph-name="ltshade" unicode="&#x2591;" 
d="M1206 -379h121v-125h-121v125zM723 -379h121v-125h-121v125zM241 -379h121v-125h-121v125zM0 -130h121v-125h-121v125zM482 -130h121v-125h-121v125zM965 -130h121v-125h-121v125zM1206 120h121v-125h-121v125zM723 120h121v-125h-121v125zM241 120h121v-125h-121v125z
M965 369h121v-125h-121v125zM482 369h121v-125h-121v125zM0 369h121v-125h-121v125zM241 618h121v-125h-121v125zM723 618h121v-125h-121v125zM1206 618h121v-125h-121v125zM965 867h121v-125h-121v125zM482 867h121v-125h-121v125zM0 867h121v-125h-121v125zM241 1117h121
v-125h-121v125zM723 1117h121v-125h-121v125zM1206 1117h121v-125h-121v125zM0 1366h121v-125h-121v125zM482 1366h121v-125h-121v125zM965 1366h121v-125h-121v125zM1206 1615h121v-125h-121v125zM723 1615h121v-125h-121v125zM241 1615h121v-125h-121v125zM965 1864h121
v-125h-121v125zM482 1864h121v-125h-121v125zM0 1864h121v-125h-121v125z" />
    <glyph glyph-name="shade" unicode="&#x2592;" 
d="M1206 -379h121v-125h-121v125zM1086 -504h-121v124l121 1v-125zM724 -379h120v-125h-120v125zM482 -379h121v-125h-121v125zM241 -379h121v-125h-121v125zM0 -379h121v-125h-121v125zM121 -130h120v-125h-120v125zM362 -130h120v-125h-120v125zM603 -130h121v-125h-121
v125zM844 -130h121v-125h-121v125zM1086 -130h120v-125h-120v125zM1327 -130h120v-125h-120v125zM1206 119h121v-124h-121v124zM965 119h121v-124h-121v124zM724 119h120v-124h-120v124zM482 119h121v-124h-121v124zM241 119h121v-124h-121v124zM0 119h121v-124h-121v124z
M121 369h120v-125h-120v125zM362 369h120v-125h-120v125zM603 369h121v-125h-121v125zM844 369h121v-125h-121v125zM1086 369h120v-125h-120v125zM1327 369h120v-125h-120v125zM241 618h121v-125h-121v125zM1206 618h121v-125h-121v125zM965 618h121v-125h-121v125zM724 618
h120v-125h-120v125zM482 618h121v-125h-121v125zM0 618h121v-125h-121v125zM1327 867h120v-125h-120v125zM1086 867h120v-125h-120v125zM844 867h121v-125h-121v125zM603 867h121v-125h-121v125zM362 867h120v-125h-120v125zM121 867h120v-125h-120v125zM0 1116h121v-124
h-121v124zM1206 1116h121v-124h-121v124zM965 1116h121v-124h-121v124zM724 1116h120v-124h-120v124zM482 1116h121v-124h-121v124zM241 1116h121v-124h-121v124zM1327 1366h120v-125h-120v125zM1086 1366h120v-125h-120v125zM844 1366h121v-125h-121v125zM603 1366h121
v-125h-121v125zM362 1366h120v-125h-120v125zM121 1366h120v-125h-120v125zM1206 1615h121v-125h-121v125zM965 1615h121v-125h-121v125zM724 1615h120v-125h-120v125zM482 1615h121v-125h-121v125zM241 1615h121v-125h-121v125zM0 1615h121v-125h-121v125zM1327 1864h120
v-125h-120v125zM1086 1864h120v-125h-120v125zM844 1864h121v-125h-121v125zM603 1864h121v-125h-121v125zM362 1864h120v-125h-120v125zM121 1864h120v-125h-120v125z" />
    <glyph glyph-name="dkshade" unicode="&#x2593;" 
d="M1086 -379v-125h120v125h-120zM844 -379v-125h121v125h-121zM603 -379v-125h121v125h-121zM362 -379v-125h120v125h-120zM121 -379v-125h120v125h-120zM362 -255v125h-121v-125h121zM603 -255v125h-121v-125h121zM844 -255v125h-120v-125h120zM1086 -255v125h-121v-125
h121zM1327 -255v125h-121v-125h121zM1086 119v-124h120v124h-120zM844 119v-124h121v124h-121zM603 119v-124h121v124h-121zM362 119v-124h120v124h-120zM121 119v-124h120v124h-120zM362 244v125h-121v-125h121zM603 244v125h-121v-125h121zM844 244v125h-120v-125h120z
M1086 244v125h-121v-125h121zM1327 244v125h-121v-125h121zM1086 618v-125h120v125h-120zM844 618v-125h121v125h-121zM482 493v125h-120v-125h120zM603 618v-125h121v125h-121zM121 618v-125h120v125h-120zM1206 867v-125h121v125h-121zM965 867v-125h121v125h-121z
M724 867v-125h120v125h-120zM482 867v-125h121v125h-121zM362 867h-121v-125h121v125zM1086 1116v-124h120v124h-120zM844 1116v-124h121v124h-121zM603 1116v-124h121v124h-121zM362 1116v-124h120v124h-120zM121 1116v-124h120v124h-120zM362 1366h-121v-125h121v125z
M603 1366h-121v-125h121v125zM844 1366h-120v-125h120v125zM1086 1366h-121v-125h121v125zM1327 1366h-121v-125h121v125zM1086 1615v-125h120v125h-120zM844 1615v-125h121v125h-121zM603 1615v-125h121v125h-121zM362 1615v-125h120v125h-120zM121 1615v-125h120v125h-120
zM1447 1490v-374h-120v-124h120v-374h-120v-125h120v-374h-120v-124h120v-374h-120v-125h120v-124h-1447v373h121v125h-121v374h121v125h-121v373h121v125h-121v374h121v125h-121v373h121v125h120v-125h121v125h120v-125h121v125h121v-125h120v125h121v-125h121v125h120
v-125h121v125h120v-249h-120v-125h120z" />
    <glyph glyph-name="filledbox" unicode="&#x25a0;" horiz-adv-x="1237" 
d="M146 944h944v-944h-944v944z" />
    <glyph glyph-name="H22073" unicode="&#x25a1;" horiz-adv-x="1237" 
d="M222 868v-792h792v792h-792zM146 944h944v-944h-944v944z" />
    <glyph glyph-name="H18543" unicode="&#x25aa;" horiz-adv-x="727" 
d="M635 948v-543h-543v543h543z" />
    <glyph glyph-name="H18551" unicode="&#x25ab;" horiz-adv-x="727" 
d="M559 872h-391v-391h391v391zM635 948v-543h-543v543h543z" />
    <glyph glyph-name="filledrect" unicode="&#x25ac;" horiz-adv-x="2048" 
d="M0 703h2047v-386h-2047v386z" />
    <glyph glyph-name="triagup" unicode="&#x25b2;" horiz-adv-x="2027" 
d="M304 0l710 1419l710 -1419h-1420z" />
    <glyph glyph-name="triagrt" unicode="&#x25ba;" horiz-adv-x="2027" 
d="M288 1417l1451 -724l-1451 -724v1448z" />
    <glyph glyph-name="triagdn" unicode="&#x25bc;" horiz-adv-x="2027" 
d="M1724 1388l-710 -1419l-710 1419h1420z" />
    <glyph glyph-name="triaglf" unicode="&#x25c4;" horiz-adv-x="2027" 
d="M1739 1417v-1448l-1451 724z" />
    <glyph glyph-name="lozenge" unicode="&#x25ca;" horiz-adv-x="1012" 
d="M463 1325l-340 -616l340 -615l359 615zM517 1422l418 -713l-418 -709h-111l-391 709l391 713h111z" />
    <glyph glyph-name="circle" unicode="&#x25cb;" horiz-adv-x="1237" 
d="M618 942q-92 0 -179 -47t-136 -135t-49 -182q0 -151 107 -258t258 -107t257.5 107t106.5 258q0 94 -49 182t-136.5 135t-179.5 47zM618 1018q110 0 216.5 -57t165.5 -163t59 -220q0 -183 -129.5 -312t-311.5 -129t-311 129t-129 312q0 115 59 220.5t165 162.5t216 57z
" />
    <glyph glyph-name="H18533" unicode="&#x25cf;" horiz-adv-x="1237" 
d="M1059 578q0 -182 -129.5 -311.5t-311.5 -129.5t-311 129.5t-129 311.5t129 311t311 129t311.5 -129t129.5 -311z" />
    <glyph glyph-name="invbullet" unicode="&#x25d8;" horiz-adv-x="1237" 
d="M618 692q-84 0 -143 -59t-59 -143t59 -143t143 -59t143 59t59 143t-59 143t-143 59zM128 0v980h980v-980h-980z" />
    <glyph glyph-name="invcircle" unicode="&#x25d9;" horiz-adv-x="1237" 
d="M620 942q92 0 179 -47t136 -134.5t49 -183.5q0 -151 -106 -257.5t-258 -106.5t-258.5 106.5t-106.5 257.5q0 96 49 183.5t136.5 134.5t179.5 47zM620 1018q-112 0 -217.5 -57t-164.5 -163t-59 -221q0 -182 129.5 -311t311.5 -129t311 129t129 311q0 115 -59 221t-164 163
t-217 57zM42 0v1155h1155v-1155h-1155z" />
    <glyph glyph-name="openbullet" unicode="&#x25e6;" horiz-adv-x="727" 
d="M574 676q0 86 -62 148t-148 62t-148 -62t-62 -148t61.5 -148t148.5 -62t148.5 62t61.5 148zM649 676q0 -118 -83.5 -202t-201.5 -84t-202 84t-84 202t84 202t202 84t201.5 -84t83.5 -202z" />
    <glyph glyph-name="smileface" unicode="&#x263a;" horiz-adv-x="2048" 
d="M1024 205q153 0 231 144l63 -36q-103 -195 -294 -195t-294 195l62 36q79 -144 232 -144zM1268 731q34 0 57.5 -23.5t23.5 -57.5t-23.5 -57.5t-57.5 -23.5t-57.5 23.5t-23.5 57.5t23.5 57.5t57.5 23.5zM780 731q34 0 57 -23.5t23 -57.5t-23 -57.5t-57 -23.5t-58 23.5
t-24 57.5t24 57.5t58 23.5zM1024 1063q-137 0 -267.5 -70.5t-204 -201.5t-73.5 -273t72 -271t202 -201t271 -72t271 72t202 201t72 271t-73.5 273t-204 201.5t-267.5 70.5zM1024 1156q160 0 313 -82.5t239 -236t86 -319.5t-84.5 -317t-236 -235.5t-317.5 -84.5t-317.5 84.5
t-236 235.5t-84.5 317t85.5 319.5t239 236t313.5 82.5z" />
    <glyph glyph-name="invsmileface" unicode="&#x263b;" horiz-adv-x="2048" 
d="M1024 205q-153 0 -232 144l-62 -36q103 -195 294 -195t294 195l-63 36q-78 -144 -231 -144zM1268 731q-34 0 -57.5 -23.5t-23.5 -57.5t23.5 -57.5t57.5 -23.5t57.5 23.5t23.5 57.5t-23.5 57.5t-57.5 23.5zM780 731q-34 0 -58 -23.5t-24 -57.5t24 -57.5t58 -23.5t57 23.5
t23 57.5t-23 57.5t-57 23.5zM1024 1156q160 0 313 -82.5t239 -236t86 -319.5t-84.5 -317t-236 -235.5t-317.5 -84.5t-317.5 84.5t-236 235.5t-84.5 317t85.5 319.5t239 236t313.5 82.5z" />
    <glyph glyph-name="sun" unicode="&#x263c;" horiz-adv-x="1877" 
d="M937 1211q-129 0 -252 -66t-191.5 -189.5t-68.5 -256.5t67.5 -255t189.5 -190t255 -68t255 68t190 190t68 255t-69 256.5t-192 189.5t-252 66zM902 1621h76v-337q102 -7 181.5 -38.5t167.5 -102.5l290 284l52 -53l-286 -286q138 -180 144 -354h335v-69h-335
q-19 -193 -143 -351l285 -291l-57 -50l-283 282q-98 -72 -171 -100.5t-180 -40.5v-337h-76v337q-112 15 -188.5 46t-156.5 92l-294 -278l-51 51l285 286q-66 84 -100 166t-45 188h-336v69h336q9 106 42 185.5t102 163.5l-284 287l48 57l292 -282q101 70 179.5 100.5
t170.5 38.5v337z" />
    <glyph glyph-name="female" unicode="&#x2640;" horiz-adv-x="1536" 
d="M768 1451q-118 0 -231 -60.5t-176 -173.5t-63 -235q0 -195 138 -332.5t332 -137.5t331.5 137.5t137.5 332.5q0 122 -63 235t-175.5 173.5t-230.5 60.5zM796 59h459v-59h-459v-439h-59v439h-460v59h460v402q-103 0 -225.5 65.5t-195 191t-72.5 263.5t69.5 263t194 194
t260.5 69t260.5 -69.5t193.5 -194t69 -260.5q0 -209 -143.5 -360.5t-351.5 -161.5v-402z" />
    <glyph glyph-name="male" unicode="&#x2642;" horiz-adv-x="1536" 
d="M634 731q-118 0 -230.5 -60.5t-175.5 -173.5t-63 -235q0 -195 137.5 -332.5t331.5 -137.5t332 137.5t138 332.5q0 122 -63 235t-176 173.5t-231 60.5zM1158 266q0 -140 -69 -264.5t-194 -194t-261 -69.5t-260.5 69.5t-193.5 194t-69 260.5q0 217 153.5 370t372.5 153
q78 0 166 -27l360 771l-537 -265l-24 53l614 303l36 -16l163 -666l-57 -15l-142 581l-358 -768q148 -75 224 -202.5t76 -267.5z" />
    <glyph glyph-name="spade" unicode="&#x2660;" horiz-adv-x="1344" 
d="M406 275q-90 0 -155 64.5t-65 146.5t38 153t140 154t163 151t94.5 133.5t51.5 153.5q26 -108 80 -193t192.5 -210.5t175.5 -193t37 -149.5t-64 -146t-154 -64q-157 0 -255 190q1 -147 58 -279t319 -149l7 -37h-792l7 37q184 0 285.5 107.5t97.5 320.5q-90 -190 -261 -190
z" />
    <glyph glyph-name="club" unicode="&#x2663;" horiz-adv-x="1344" 
d="M660 511q-118 -238 -340 -238q-104 0 -184.5 81t-80.5 198t74 196.5t165 81.5q63 -2 166 -53q-42 69 -54.5 105t-12.5 77q0 115 79 193.5t197 78.5t198.5 -78.5t80.5 -178.5t-69 -197q84 41 106 47t56 6q100 0 173.5 -78.5t73.5 -196.5t-80.5 -199.5t-196.5 -82.5
q-138 7 -242 113q-35 37 -87 125q7 -287 170 -395q77 -51 238 -82l8 -34h-848l8 34q165 35 219 69q81 51 132.5 151t51.5 210q0 16 -1 47z" />
    <glyph glyph-name="heart" unicode="&#x2665;" horiz-adv-x="1344" 
d="M958 1231q108 0 183.5 -74.5t75.5 -170.5t-43.5 -193t-189.5 -281t-212 -302q-67 -119 -98 -234q-31 118 -88.5 221.5t-200.5 292.5q-143 190 -180 246q-78 119 -78 231q0 113 74 188t180 76q210 -2 293 -252q32 112 104 182t180 70z" />
    <glyph glyph-name="diamond" unicode="&#x2666;" horiz-adv-x="1344" 
d="M671 -24q-93 180 -458 628q101 114 239 300t219 330q88 -154 228 -340t232 -290q-74 -78 -226 -281t-234 -347z" />
    <glyph glyph-name="musicalnote" unicode="&#x266a;" horiz-adv-x="1024" 
d="M486 1363h38q172 0 239 -17q67 -16 119 -66q104 -99 105 -305v-103h-99v43q0 138 -113 188q-73 32 -162 32h-28v-835q0 -121 -32 -188.5t-110.5 -108t-178.5 -40.5t-163.5 61.5t-63.5 163.5t76 174t199 72q78 0 174 -46v975z" />
    <glyph glyph-name="musicalnotedbl" unicode="&#x266b;" horiz-adv-x="1536" 
d="M1330 411q0 -124 -31.5 -187t-107 -104t-177.5 -41t-167 62.5t-65 162.5t77 172t199 72q40 0 70.5 -7t99.5 -36v724l-595 -185v-836q0 -121 -32 -188.5t-110.5 -107.5t-178.5 -40t-163.5 61.5t-63.5 163.5t76 173.5t199 71.5q78 0 174 -46v975l796 248v-1108z" />
    <glyph glyph-name="uniF001" unicode="&#xf001;" horiz-adv-x="1105" 
d="M883 0h-235l171 1017h234zM1072 1126h-235l41 245h234zM689 1415q53 0 117 -9l-32 -189q-52 7 -95 7t-96 -32t-84 -175h215l-33 -183h-221l-135 -834h-242l140 834h-128l29 183h137q69 259 171 329t257 69z" />
    <glyph glyph-name="uniF002" unicode="&#xf002;" horiz-adv-x="1103" 
d="M882 0h-235l229 1371h235zM693 1415q53 0 111 -9l-31 -187q-57 7 -99 7t-93 -34t-83 -175h216l-32 -183h-221l-136 -834h-242l140 834h-127l27 183h138q53 219 148 309t284 89z" />
    <glyph glyph-name="uniF003" unicode="&#xf003;" horiz-adv-x="792" 
d="M510 853l59 352l-314 -354zM609 546h-164l31 183h-381l23 138l463 526h170l-89 -529h135l-22 -135h-135z" />
    <glyph glyph-name="uniF004" unicode="&#xf004;" horiz-adv-x="1024" 
d="M587 968h-93l105 397h205z" />
    <glyph glyph-name="uniF005" unicode="&#xf005;" horiz-adv-x="1024" 
d="M301 -479h-93l105 370h205z" />
    <glyph glyph-name="uniF006" unicode="&#xf006;" horiz-adv-x="1128" 
d="M82 0l140 837h-122l30 180h1038l-30 -180h-122l-140 -837h-224l140 837h-346l-140 -837h-224z" />
    <glyph glyph-name="fi" unicode="&#xfb01;" horiz-adv-x="1105" 
d="M883 0h-235l171 1017h234zM1072 1126h-235l41 245h234zM689 1415q53 0 117 -9l-32 -189q-52 7 -95 7t-96 -32.5t-84 -174.5h215l-33 -183h-221l-135 -834h-242l140 834h-128l29 183h137q69 259 170.5 328.5t257.5 69.5z" />
    <glyph glyph-name="fl" unicode="&#xfb02;" horiz-adv-x="1103" 
d="M882 0h-235l229 1371h235zM693 1415q53 0 111 -9l-31 -187q-57 7 -99 7t-93 -34.5t-83 -174.5h216l-32 -183h-221l-136 -834h-242l140 834h-127l27 183h138q53 219 148 308.5t284 89.5z" />
    </font>
</defs>
</svg>
