<?xml version="1.0" standalone="no"?>
<!DOCTYPE svg PUBLIC "-//W3C//DTD SVG 1.1//EN" "http://www.w3.org/Graphics/SVG/1.1/DTD/svg11.dtd" >
<svg xmlns="http://www.w3.org/2000/svg">
<metadata>
Created by FontPrep 20130207 at Wed Oct  8 15:53:24 2014
 By Stephanie Siaw
(c) Ludwig Ubele. All Rights Reserved.
</metadata>
<defs>
<font id="38241d99eba89a71dcb1106fdbb56e6a" horiz-adv-x='1024' >
  <font-face 
    font-family="Marat-Medium"
    font-weight="500"
    font-stretch="normal"
    units-per-em="2048"
    panose-1="2 11 6 0 0 0 0 2 0 0"
    ascent="1516"
    descent="-532"
    x-height="858"
    cap-height="1300"
    bbox="-205 -541 2196 1769"
    underline-thickness="102"
    underline-position="-102"
    unicode-range="U+0020-FB02"
  />
<missing-glyph horiz-adv-x="368" 
 />
    <glyph glyph-name="fi" unicode="fi" horiz-adv-x="1134" 
d="M1104 0h-461v74l125 24v647h-393v-647l133 -24v-74h-475v74l133 24v647h-135v95l141 37q0 535 522 534q158 0 291 -37l-27 -299h-143l-49 242q-217 12 -304 -88t-87 -371h84q174 0 295 10t127 11q57 0 77 -24t21 -83v-674l125 -24v-74z" />
    <glyph glyph-name="fl" unicode="fl" horiz-adv-x="1150" 
d="M1120 0h-469v74l127 24v1153q-88 51 -166 52q-120 0 -186 -119t-51 -326h217v-113h-217v-647l133 -24v-74h-475v74l133 24v647h-135v95l141 37q-6 283 146 409t395 125q125 0 274 -35v-1278l133 -24v-74z" />
    <glyph glyph-name="f_j" unicode="fj" horiz-adv-x="1112" 
d="M766 8v737h-391v-647l151 -24v-74h-493v74l133 24v647h-135v95l141 37q0 299 149 421q136 113 341 113q145 0 303 -47l-27 -299h-143l-50 242q-43 8 -92 8q-151 0 -215 -109t-63 -348h84q174 0 294 10l132 11q53 0 73 -25t21 -82v-688q0 -418 -315 -588l-76 78
q88 84 133 178t45 256z" />
    <glyph glyph-name=".notdef" horiz-adv-x="368" 
 />
    <glyph glyph-name=".null" horiz-adv-x="0" 
 />
    <glyph glyph-name="nonmarkingreturn" horiz-adv-x="681" 
 />
    <glyph glyph-name="space" unicode=" " horiz-adv-x="368" 
 />
    <glyph glyph-name="exclam" unicode="!" horiz-adv-x="559" 
d="M315 406h-69q-25 118 -56 398t-30 419q0 59 26 82q27 23 95 23q69 0 95 -24q26 -22 25 -81q1 -150 -29 -427t-57 -390zM406 116q0 -56 -38 -91t-92 -35t-89 34q-34 34 -33 91q0 57 35 93q37 36 91 36t90 -36t36 -92z" />
    <glyph glyph-name="quotedbl" unicode="&#x22;" horiz-adv-x="733" 
d="M430 1341q0 76 100 76t101 -76q0 -80 -43 -350l-15 -88h-84q-59 340 -59 438zM204 1417q102 0 101 -76q0 -86 -45 -350l-14 -88h-84q-59 340 -60 438q0 76 102 76z" />
    <glyph glyph-name="numbersign" unicode="#" horiz-adv-x="1042" 
d="M600 455l47 235h-221l-49 -235h223zM635 -35l-125 31l70 350h-228l-80 -381l-125 31l76 350h-182l22 109h183l51 235h-197l23 109h196l76 348l123 -31l-67 -317h217l69 348l123 -31l-61 -317h202l-22 -109h-203l-45 -235h217l-22 -109h-217z" />
    <glyph glyph-name="dollar" unicode="$" horiz-adv-x="921" 
d="M657 236q0 54 -32 86q-33 33 -117 84v-316q70 14 110 53t39 93zM262 863q0 -58 36 -95t122 -86v324q-70 -10 -114 -48t-44 -95zM508 -186h-92v166q-186 2 -355 77l27 258h105l36 -176q74 -51 187 -55v371q-172 75 -253 151t-81 199t90 204t248 93v135h92v-131
q154 -6 309 -70l-20 -243h-105l-37 170q-72 39 -147 45v-371q151 -74 244 -145q94 -71 94 -200q0 -128 -95 -209t-247 -97v-172z" />
    <glyph glyph-name="percent" unicode="%" horiz-adv-x="1572" 
d="M444 -59l-90 57l744 1114l88 -57zM1188 63q119 0 119 248q0 109 -31 175t-91 65q-60 0 -92 -65t-32 -175q0 -248 127 -248zM1181 -20q-142 0 -223 90q-80 90 -80 237t87 237q86 90 227 89q141 0 220 -86q79 -87 79 -235t-84 -240t-226 -92zM393 549q117 0 117 248
q0 111 -31 175t-90 64t-91 -64t-32 -175q0 -248 127 -248zM694 799q0 -147 -83 -241t-226 -93q-143 0 -223 90q-80 89 -80 237t87 237t228 89t219 -86t78 -233z" />
    <glyph glyph-name="ampersand" unicode="&#x26;" horiz-adv-x="1497" 
d="M634 1251q-68 0 -110 -50q-42 -49 -42 -151t96 -268q201 119 200 316q0 68 -38 110t-106 43zM319 362q0 -112 74 -190t199 -78t229 62q-198 187 -381 469q-121 -109 -121 -263zM1176 -14q-146 0 -289 112q-156 -127 -375 -127q-168 0 -289 90t-121 252q0 119 81 219
t216 162q-109 184 -109 327t103 229q102 86 258 87t242 -67t86 -178q0 -236 -361 -375q66 -102 165 -218t188 -202q74 102 110 283l-116 41v69h430v-69l-170 -48q-70 -201 -193 -331q135 -115 213 -115t148 51l43 -55q-114 -137 -260 -137z" />
    <glyph glyph-name="quotesingle" unicode="'" horiz-adv-x="419" 
d="M210 1417q108 0 107 -76q0 -107 -47 -350l-14 -88h-92q-61 340 -62 438q0 76 108 76z" />
    <glyph glyph-name="parenleft" unicode="(" horiz-adv-x="741" 
d="M205 535q0 348 145 617t373 335l18 -53q-163 -86 -245 -331t-82 -569t82 -577q82 -252 245 -338l-18 -53q-225 63 -372 342q-146 279 -146 627z" />
    <glyph glyph-name="parenright" unicode=")" horiz-adv-x="739" 
d="M330 535q0 325 -84 569t-246 330l18 53q224 -66 370 -334t146 -617t-145 -628q-146 -279 -371 -342l-18 53q162 86 246 339t84 577z" />
    <glyph glyph-name="asterisk" unicode="*" horiz-adv-x="937" 
d="M403 899l52 -39q-90 -225 -117 -264q-35 -41 -105 12q-35 22 -48 50t7 54t164 148zM537 924l-19 57q205 133 240 144q65 20 88 -66q29 -90 -20 -105t-228 -26zM481 860l51 39q186 -157 216 -197t-44 -94q-76 -54 -104 -12q-20 27 -96 207zM420 981l-21 -61
q-243 16 -289 31t-18 102q10 39 32 61t46 13q24 -8 199 -113zM377 1283q0 50 91 50t91 -51q0 -42 -45 -225l-14 -60h-62q-61 236 -61 286z" />
    <glyph glyph-name="plus" unicode="+" 
d="M586 121h-189v303h-291v135h291v295h189v-295h291v-135h-291v-303z" />
    <glyph glyph-name="comma" unicode="," horiz-adv-x="444" 
d="M152 51q0 70 -72 84v66q84 72 176 71q106 0 106 -118t-69 -222q-69 -106 -184 -184l-68 45q111 137 111 258z" />
    <glyph glyph-name="hyphen" unicode="-" horiz-adv-x="884" 
d="M721 428h-557v160h557v-160z" />
    <glyph glyph-name="period" unicode="." horiz-adv-x="454" 
d="M227 270q61 0 103 -40t43 -104q0 -64 -44 -104q-43 -40 -105 -40t-102 38t-40 105q0 65 42 105t103 40z" />
    <glyph glyph-name="slash" unicode="/" horiz-adv-x="686" 
d="M180 -63l-139 49l467 1435l137 -49z" />
    <glyph glyph-name="zero" unicode="0" horiz-adv-x="1011" 
d="M512 80q195 0 195 399q-1 173 -51 277t-150 104t-150 -103t-51 -278q0 -399 207 -399zM940 481q0 -219 -116 -360t-323 -141q-208 0 -319 138q-110 138 -110 355t121 351t325 134t314 -129q108 -129 108 -348z" />
    <glyph glyph-name="one" unicode="1" horiz-adv-x="780" 
d="M719 0h-606v72l209 41v651l-234 -39l-16 100l323 123h142v-837l182 -41v-70z" />
    <glyph glyph-name="two" unicode="2" horiz-adv-x="950" 
d="M858 0h-776v131q240 162 366 293t125 260q0 160 -178 160q-68 0 -131 -25l-43 -213h-108l-21 266q190 86 366 86t267 -70q92 -70 92 -203q0 -132 -119 -248t-387 -283h402l39 122h106v-276z" />
    <glyph glyph-name="three" unicode="3" horiz-adv-x="915" 
d="M600 43q0 199 -260 199q-29 0 -121 -11v125q172 16 260 96t88 190q0 111 -66 159q-67 47 -163 47q-49 0 -92 -12l-49 -220h-111l-23 265q197 77 359 77t267 -74t106 -218q0 -227 -256 -320q141 -4 223 -82t82 -192q0 -158 -115 -263q-210 -192 -657 -192l-11 96
q255 15 397 99t142 231z" />
    <glyph glyph-name="four" unicode="4" horiz-adv-x="966" 
d="M776 -387h-205v401h-530v111l393 850l244 -21l-453 -788h346v330h205v-330h160v-152h-160v-401z" />
    <glyph glyph-name="five" unicode="5" horiz-adv-x="919" 
d="M592 96q0 82 -46 136t-117 72q-165 41 -329 7l41 627h664l-12 -320h-111l-35 152h-371l-22 -307q68 14 141 14q187 0 315 -90t128 -261t-110 -288q-206 -219 -646 -219l-10 100q246 17 383 115t137 262z" />
    <glyph glyph-name="six" unicode="6" horiz-adv-x="1019" 
d="M530 78q94 0 149 93q54 93 54 231t-54 221q-55 82 -155 82t-155 -81t-55 -217q0 -137 60 -233q62 -96 156 -96zM596 848q162 0 262 -114t100 -308t-126 -321q-126 -126 -320 -125q-117 0 -205 50t-137 136q-100 175 -98 407q0 359 218 581t593 183v-98
q-563 -18 -596 -600h16q31 97 112 153t181 56z" />
    <glyph glyph-name="seven" unicode="7" horiz-adv-x="942" 
d="M901 938v-113q-16 -33 -81 -157t-164 -358q-197 -467 -232 -697h-242q39 213 232 595t299 548h-492l-49 -201h-109l-22 383h860z" />
    <glyph glyph-name="eight" unicode="8" horiz-adv-x="1034" 
d="M525 1247q-85 0 -138 -56q-53 -57 -53 -127t17 -114q25 -64 137 -135q26 -16 100 -57q49 49 82 126q32 78 32 160t-46 142t-131 61zM418 604q-66 -51 -102 -131t-36 -170t63 -159q62 -68 172 -68t173 61q64 61 64 147t-30 122q-30 35 -47 53t-71 49t-110 59
q-56 27 -76 37zM963 360q0 -180 -124 -283t-330 -103t-322 94q-116 96 -115 245q0 98 65 189q66 90 197 151q-211 137 -211 348q0 150 111 244q112 94 293 94t283 -86q102 -87 101 -199q0 -216 -241 -341q226 -123 271 -232q22 -53 22 -121z" />
    <glyph glyph-name="nine" unicode="9" horiz-adv-x="1013" 
d="M494 252q100 0 155 80t55 210t-58 224t-156 94t-151 -94q-54 -94 -54 -224q1 -130 55 -210t154 -80zM420 109q-156 1 -257 111t-101 298t124 314q125 126 326 126q202 0 316 -150t114 -435q0 -350 -214 -561t-581 -191v98q271 31 417 177t167 419h-16q-39 -102 -118 -154
t-177 -52z" />
    <glyph glyph-name="colon" unicode=":" horiz-adv-x="540" 
d="M270 621q-55 -1 -93 37t-38 96t38 95q38 38 93 38q56 0 94 -38t38 -95t-38 -96q-39 -37 -94 -37zM270 35q-55 0 -93 37t-38 94t38 95t93 38q56 0 94 -38t38 -95t-39 -94q-38 -37 -93 -37z" />
    <glyph glyph-name="semicolon" unicode=";" horiz-adv-x="512" 
d="M166 -236l-66 43q106 135 107 248q0 70 -68 84v64q78 70 170 69q103 0 103 -114t-68 -216t-178 -178zM272 500q-55 0 -93 38t-38 95t38 95t93 38q56 0 94 -38t38 -95t-39 -95q-38 -38 -93 -38z" />
    <glyph glyph-name="less" unicode="&#x3c;" 
d="M799 80l-682 352v152l682 352l51 -180l-504 -234v-12l504 -234z" />
    <glyph glyph-name="equal" unicode="=" 
d="M866 594h-749v141h749v-141zM866 246h-749v141h749v-141z" />
    <glyph glyph-name="greater" unicode="&#x3e;" 
d="M866 432l-682 -352l-51 180l504 234v12l-504 233l51 197l682 -352v-152z" />
    <glyph glyph-name="question" unicode="?" horiz-adv-x="784" 
d="M317 244q55 0 91 -36t36 -92t-38 -91t-92 -35t-89 35t-35 91t36 92t91 36zM379 399h-129q-47 169 -47 219q1 50 23 78t79 62q57 36 95 66t75 90t37 138t-54 124t-124 45q-70 0 -127 -15l-51 -219h-93l-22 262q168 84 337 84q169 -1 267 -71t98 -220q0 -223 -364 -399
v-244z" />
    <glyph glyph-name="at" unicode="@" horiz-adv-x="1884" 
d="M1065 338v72q-103 -6 -193 -56t-90 -131q0 -51 28 -80t75 -28q72 1 126 63t54 160zM1333 74q111 0 196 124t85 300q0 311 -167 487t-467 176t-503 -209q-203 -210 -203 -536t195 -515t526 -190q160 0 326 51l29 -104q-186 -57 -371 -57q-383 0 -611 219t-228 595
q0 377 245 619q246 242 598 242t560 -209t208 -545q0 -300 -211 -462q-113 -87 -268 -87q-76 -1 -136 49t-61 144h-14q-76 -186 -268 -186q-100 0 -157 59q-56 59 -56 157t80 168t184 94t223 25v64q0 127 -39 181t-139 54q-49 0 -105 -16l-20 -201h-102l-62 240
q66 33 170 61t188 27q164 0 238 -73t74 -218l-10 -401q0 -127 73 -127z" />
    <glyph glyph-name="A" unicode="A" horiz-adv-x="1335" 
d="M809 545l-193 520l-182 -520h375zM1346 0h-527v84l152 22l-123 330h-453l-112 -325l153 -27v-84h-446v84l121 27l460 1206h179l473 -1211l123 -22v-84z" />
    <glyph glyph-name="B" unicode="B" horiz-adv-x="1155" 
d="M428 727h86q276 0 277 260q0 207 -285 207h-78v-467zM428 109h107q319 0 319 264q0 115 -86 183t-246 69h-94v-516zM612 0h-561v86l154 33v1063l-148 32v86h535q432 0 432 -301q0 -98 -70 -181t-178 -118q137 -25 228 -107q90 -83 90 -210q0 -183 -122 -283t-360 -100z
" />
    <glyph glyph-name="C" unicode="C" horiz-adv-x="1228" 
d="M82 644q0 310 200 500t525 189q188 0 332 -43l-19 -340h-116l-50 252q-59 14 -131 15q-223 0 -353 -151q-130 -150 -130 -400t116 -407t345 -157q67 1 143 17l84 237l119 -8l-17 -319q-174 -55 -385 -56q-297 1 -480 181t-183 490z" />
    <glyph glyph-name="D" unicode="D" horiz-adv-x="1380" 
d="M432 117h70q272 0 407 134t135 417q0 520 -514 520h-98v-1071zM535 0h-484v86l154 33v1063l-148 32v86h527q715 0 714 -622q0 -324 -202 -501t-561 -177z" />
    <glyph glyph-name="E" unicode="E" horiz-adv-x="1101" 
d="M1030 0h-979v86l154 33v1063l-148 32v86h932v-319h-115l-53 207h-389v-455h291l41 135h96v-385h-96l-41 135h-291v-501h430l53 215h115v-332z" />
    <glyph glyph-name="F" unicode="F" horiz-adv-x="989" 
d="M641 0h-590v86l154 27v1069l-148 32v86h932v-329h-115l-53 217h-389v-483h287l41 143h100v-424h-100l-41 166h-287v-477l209 -27v-86z" />
    <glyph glyph-name="G" unicode="G" horiz-adv-x="1378" 
d="M827 586h490v-86l-90 -35v-404q-209 -90 -417 -90q-427 0 -611 291q-96 152 -97 367q0 315 204 510t540 194q195 0 393 -57l-14 -330h-123l-49 248q-80 20 -183 20q-215 0 -362 -150q-148 -150 -148 -409q0 -260 124 -408t347 -149q80 0 166 25v330l-170 43v90z" />
    <glyph glyph-name="H" unicode="H" horiz-adv-x="1433" 
d="M1382 0h-530v86l149 27v489h-569v-489l150 -27v-86h-531v86l154 27v1075l-148 26v86h518v-86l-143 -26v-453h569v453l-145 26v86h520v-86l-147 -26v-1075l153 -27v-86z" />
    <glyph glyph-name="I" unicode="I" horiz-adv-x="641" 
d="M590 0h-539v86l154 27v1075l-148 26v86h527v-86l-146 -26v-1075l152 -27v-86z" />
    <glyph glyph-name="J" unicode="J" horiz-adv-x="589" 
d="M207 121v1067l-162 26v86h545v-86l-154 -26v-1020q0 -273 -107 -420q-53 -74 -107 -119t-136 -96l-86 78q102 109 154 227t53 283z" />
    <glyph glyph-name="K" unicode="K" horiz-adv-x="1255" 
d="M571 0h-520v86l154 27v1075l-148 26v86h506v-86l-133 -26v-1075l141 -27v-86zM1090 -12q-146 0 -248 127q-101 127 -314 442l-71 105l444 518l-123 34v86h463v-86l-127 -45l-424 -424q51 -82 178 -262q127 -179 158 -213q32 -34 56 -62t31 -35l27 -27t45 -39
q33 -23 70 -29v-80q-91 -10 -165 -10z" />
    <glyph glyph-name="L" unicode="L" horiz-adv-x="1067" 
d="M1016 0h-965v86l154 33v1069l-148 26v86h564v-86l-189 -26v-1061h408l53 244h123v-371z" />
    <glyph glyph-name="M" unicode="M" horiz-adv-x="1728" 
d="M1688 0h-502v84l141 29l-61 960l-373 -1091h-135l-377 1048l-51 -907l141 -35v-88h-430v88l143 35l84 1053l-141 38v86h250q96 0 132 -24t64 -111l297 -858l293 858q29 84 66 110t133 25h244v-86l-144 -38l82 -1063l144 -29v-84z" />
    <glyph glyph-name="N" unicode="N" horiz-adv-x="1396" 
d="M1231 -10h-113l-778 1022v-375q0 -395 8 -473l2 -37l166 -39v-88h-465v88l146 39q10 109 10 510v522l-152 60v81h252q70 0 102 -13t70 -62l621 -819v370q0 217 -8 361l-2 34l-168 41v88h464v-88l-145 -41q-10 -109 -10 -395v-786z" />
    <glyph glyph-name="O" unicode="O" horiz-adv-x="1435" 
d="M338 664q0 -268 106 -424t280 -156q173 0 273 155q101 155 101 423t-104 413t-278 145t-276 -144t-102 -412zM707 -35q-285 1 -455 191t-170 510t183 495q183 176 471 176t453 -173t165 -493t-181 -513t-466 -193z" />
    <glyph glyph-name="P" unicode="P" horiz-adv-x="1073" 
d="M508 1190h-78v-549q39 -8 84 -8q133 0 221 79t88 218q0 260 -315 260zM623 0h-572v86l154 27v1069l-148 32v86h535q471 0 471 -360q0 -144 -84 -244q-153 -182 -463 -182q-29 0 -86 4v-405l193 -27v-86z" />
    <glyph glyph-name="Q" unicode="Q" horiz-adv-x="1445" 
d="M338 664q0 -268 106 -424t280 -156q173 0 273 155q101 155 101 423t-104 413t-278 145t-276 -144t-102 -412zM736 1337q288 0 453 -173t165 -473t-140 -484t-368 -227q184 -131 301 -170t243 -39t240 12l10 -94q-203 -94 -335 -95q-199 0 -333 77t-331 298
q-258 23 -409 209q-150 186 -150 496t183 487q183 176 471 176z" />
    <glyph glyph-name="R" unicode="R" horiz-adv-x="1234" 
d="M430 717h53q170 0 250 61t80 201q0 211 -299 211h-84v-473zM1094 -12q-196 0 -298 142t-225 480h-141v-497l148 -27v-86h-527v86l154 27v1069l-148 32v86h539q457 0 457 -313q0 -115 -74 -200t-193 -132q193 -387 274 -479t175 -100v-76q-76 -12 -141 -12z" />
    <glyph glyph-name="S" unicode="S" horiz-adv-x="1040" 
d="M461 90q115 0 189 53t75 153q0 100 -87 159t-230 122q-143 64 -233 149q-89 86 -89 246t132 262t324 101q192 0 378 -84l-23 -295h-125l-37 209q-84 57 -187 57t-168 -47q-65 -48 -65 -127t54 -145q32 -41 138 -90q25 -12 91 -42q215 -98 288 -188t72 -216
q0 -185 -140 -289t-351 -104t-406 100l31 317h123l41 -227q90 -74 205 -74z" />
    <glyph glyph-name="T" unicode="T" horiz-adv-x="1114" 
d="M879 0h-643v86l204 41v1059h-274l-49 -234h-117v348h1114v-348h-119l-49 234h-272v-1059l205 -41v-86z" />
    <glyph glyph-name="U" unicode="U" horiz-adv-x="1288" 
d="M1159 504q0 -541 -518 -541q-258 0 -382 129t-124 406l2 690l-133 26v86h528v-86l-155 -26q-2 0 -2 -694q0 -176 75 -282t242 -108q317 0 318 390l-15 682l-153 38v86h456v-86l-133 -38q-6 -340 -6 -672z" />
    <glyph glyph-name="V" unicode="V" horiz-adv-x="1284" 
d="M0 1300h547v-77l-176 -43l315 -953l307 947l-164 51v75h455v-75l-119 -54l-432 -1187h-196l-424 1202l-113 39v75z" />
    <glyph glyph-name="W" unicode="W" horiz-adv-x="1847" 
d="M0 1300h539v-77l-177 -43l211 -916l283 1036h221l271 -1038l215 912l-166 51v75h450v-75l-118 -54l-332 -1187h-183l-290 1069l-301 -1069h-191l-319 1202l-113 39v75z" />
    <glyph glyph-name="X" unicode="X" horiz-adv-x="1259" 
d="M1260 0h-553v80l151 39l-276 426l-256 -418l127 -47v-80h-453v78l125 45l377 516l-365 547l-119 39v75h541v-77l-139 -43l246 -394l239 390l-121 47v77h435v-75l-123 -43l-353 -492l396 -577l121 -35v-78z" />
    <glyph glyph-name="Y" unicode="Y" horiz-adv-x="1210" 
d="M874 0h-559v84l160 27v409l-362 666l-113 39v75h526v-81l-153 -39l278 -521l269 515l-140 51v75h430v-75l-118 -54l-375 -651v-409l157 -27v-84z" />
    <glyph glyph-name="Z" unicode="Z" horiz-adv-x="1110" 
d="M1016 0h-975v125l707 1057h-490l-55 -232h-117v350h932v-120l-701 -1053h525l53 231h121v-358z" />
    <glyph glyph-name="bracketleft" unicode="[" horiz-adv-x="686" 
d="M604 -428h-389v1913h389v-99h-213v-1716h213v-98z" />
    <glyph glyph-name="backslash" unicode="\" horiz-adv-x="686" 
d="M645 -14l-139 -49l-465 1435l137 49z" />
    <glyph glyph-name="bracketright" unicode="]" horiz-adv-x="688" 
d="M473 -428h-391v98h215v1716h-215v99h391v-1913z" />
    <glyph glyph-name="asciicircum" unicode="^" horiz-adv-x="1314" 
d="M1110 852l-100 -53l-357 407l-352 -407l-96 53l346 553h213z" />
    <glyph glyph-name="underscore" unicode="_" horiz-adv-x="1187" 
d="M1126 -150h-1065v150h1065v-150z" />
    <glyph glyph-name="grave" unicode="`" horiz-adv-x="663" 
d="M500 1042l-60 -34q-225 260 -262 324t47 118q86 49 118 -6t128 -318z" />
    <glyph glyph-name="a" unicode="a" horiz-adv-x="929" 
d="M557 338v72q-104 -6 -193 -56t-90 -131q0 -51 28 -80t75 -28q72 1 126 63t54 160zM801 119q31 0 76 61l53 -33q-33 -79 -87 -123t-122 -44t-110 47t-44 139h-14q-76 -186 -266 -186q-102 0 -159 59q-56 59 -56 145q0 223 322 284q81 15 165 15v64q0 127 -39 181t-137 54
q-51 0 -107 -16l-20 -201h-102l-62 240q66 33 170 61t191 27q161 0 235 -74t74 -217l-10 -381q0 -102 49 -102z" />
    <glyph glyph-name="b" unicode="b" horiz-adv-x="1003" 
d="M340 279v-132q70 -67 170 -67t158 99q57 99 57 257q0 285 -172 285q-213 0 -213 -442zM246 1409q90 0 90 -115v-508l-19 -182h17q31 131 111 207q81 76 209 76q128 -1 210 -107t82 -326t-122 -346t-326 -126t-363 63v1229l-135 29v75q172 31 246 31z" />
    <glyph glyph-name="c" unicode="c" horiz-adv-x="825" 
d="M478 -27q-184 0 -300 118q-117 118 -117 331t129 342t328 129q119 0 258 -55l-26 -287h-111l-41 219q-33 8 -63 8q-113 0 -185 -89t-72 -239t78 -233q78 -84 187 -84t215 53l37 -55q-133 -158 -317 -158z" />
    <glyph glyph-name="d" unicode="d" horiz-adv-x="1007" 
d="M657 588v133q-72 53 -155 53q-111 0 -167 -92t-56 -244q1 -152 41 -229q40 -78 114 -78q98 0 161 117q62 117 62 340zM670 106v138h-15q-86 -264 -293 -264q-145 0 -225 112t-80 322t120 338t331 129q66 0 154 -13v406l-136 29v75q166 31 230 31t85 -28q22 -28 21 -87
v-1179l135 -19v-76q-119 -37 -223 -36q-104 0 -104 122z" />
    <glyph glyph-name="e" unicode="e" horiz-adv-x="880" 
d="M469 803q-77 -1 -133 -75t-60 -185l340 20q6 31 7 60q0 80 -39 130t-115 50zM492 -27q-202 0 -316 123t-115 336q0 213 124 339t293 126t261 -92t92 -242q0 -55 -12 -112l-543 -7q2 -162 81 -240t205 -77q126 0 243 51l31 -49q-142 -156 -344 -156z" />
    <glyph glyph-name="f" unicode="f" horiz-adv-x="589" 
d="M561 0h-528v74l133 24v647h-135v95l139 37q12 281 145 407t338 127q92 0 203 -27l-25 -272h-90l-53 207q-10 2 -29 2q-285 0 -284 -463h207v-113h-207v-647l186 -24v-74z" />
    <glyph glyph-name="g" unicode="g" horiz-adv-x="960" 
d="M252 590q0 -102 48 -160t127 -59q79 0 122 58q43 57 43 159t-48 160t-126 57q-78 0 -122 -56q-44 -57 -44 -159zM451 -369q123 0 207 46q84 47 83 115q0 68 -74 95q-75 27 -255 47q-72 11 -121 27q-107 -63 -107 -149t72 -134q72 -47 195 -47zM807 582q0 -122 -95 -200
q-96 -79 -238 -94t-142 -79q0 -37 51 -54t199 -35t240 -74q91 -58 91 -181q-1 -158 -151 -250t-338 -92q-188 1 -301 65t-113 172q0 68 56 131t165 103q-68 45 -67 125q0 49 41 98t110 76q-127 18 -203 95t-75 207q0 130 111 214q112 84 264 84t239 -43q187 15 310 35v-180
q-33 29 -220 77q66 -78 66 -200z" />
    <glyph glyph-name="h" unicode="h" horiz-adv-x="1040" 
d="M1020 0h-436v74l108 24v398q0 110 -32 164t-105 55q-201 0 -201 -430v-187l111 -24v-74h-440v74l125 24v1176l-136 29v75q172 31 232 31t83 -28q22 -28 21 -87v-508l-18 -182h16q31 137 109 210t188 73q254 0 254 -307v-482l121 -24v-74z" />
    <glyph glyph-name="i" unicode="i" horiz-adv-x="565" 
d="M416 1223q0 -61 -39 -99t-97 -39q-58 0 -95 37q-35 38 -35 100t38 101q40 39 96 39t94 -39t38 -100zM535 0h-463v74l125 24v650h-136v88q175 45 241 45t86 -27t20 -86v-670l127 -24v-74z" />
    <glyph glyph-name="j" unicode="j" horiz-adv-x="507" 
d="M375 1223q0 -61 -39 -99t-97 -39q-58 0 -96 37q-37 36 -37 98t39 102t97 40t95 -39q38 -39 38 -100zM160 8v740h-135v88q175 45 241 45t85 -27t20 -86v-684q-1 -418 -316 -588l-75 78q88 84 134 178t46 256z" />
    <glyph glyph-name="k" unicode="k" horiz-adv-x="985" 
d="M469 0h-444v74l125 24v1176l-136 29v75q166 31 234 31t86 -28q20 -28 20 -87v-1196l115 -24v-74zM985 74v-72q-61 -12 -113 -12q-160 0 -262 133q-51 67 -131 187t-94 159q223 242 266 291l-82 33v65h396v-76l-119 -53l-275 -197q37 -82 279 -360q46 -54 74 -76t61 -22z
" />
    <glyph glyph-name="l" unicode="l" horiz-adv-x="532" 
d="M502 0h-469v74l131 24v1176l-139 29v75q172 31 238 31q65 0 85 -28t21 -87v-1196l133 -24v-74z" />
    <glyph glyph-name="m" unicode="m" horiz-adv-x="1626" 
d="M1606 0h-439v74l111 24v398q0 110 -31 164t-104 55q-199 0 -199 -430v-187l121 -24v-74h-430v74l108 24v398q1 110 -31 164t-106 55q-201 0 -200 -430v-187l110 -24v-74h-444v74l125 24v652h-136v84q181 47 231 47t70 -27t21 -84v-166h14q31 137 110 210t189 73
q227 0 228 -283h12q27 135 105 209q79 74 190 74q254 0 254 -307v-482l121 -24v-74z" />
    <glyph glyph-name="n" unicode="n" horiz-adv-x="1091" 
d="M1071 0h-436v74l108 24v398q1 110 -31 164t-106 55q-201 0 -200 -430v-187l110 -24v-74h-444v74l125 24v652h-136v84q181 47 231 47t70 -27t21 -84v-166h14q31 137 110 210t189 73q254 0 254 -307v-482l121 -24v-74z" />
    <glyph glyph-name="o" unicode="o" horiz-adv-x="993" 
d="M494 799q-98 0 -150 -91q-52 -90 -53 -264q1 -174 57 -271t153 -97t148 96t52 270t-54 266t-153 91zM485 -27q-199 0 -311 124t-113 338q0 214 125 338t325 124q201 0 311 -116q110 -115 110 -331t-124 -346t-323 -131z" />
    <glyph glyph-name="p" unicode="p" horiz-adv-x="1024" 
d="M360 266v-129q78 -59 170 -59t151 100q58 100 58 264q0 274 -161 275q-102 0 -160 -113t-58 -338zM356 606q66 281 325 281q128 -1 205 -105t77 -293q0 -241 -121 -373t-318 -132q-76 0 -164 18v-369l162 -22v-74h-491v74l125 22v1119h-136v84q160 47 236 47
q86 0 86 -111v-166h14z" />
    <glyph glyph-name="q" unicode="q" horiz-adv-x="974" 
d="M655 588v135q-76 55 -155 55q-221 0 -221 -348q0 -129 42 -214q43 -85 129 -85t146 118q59 118 59 339zM985 -463h-489v74l159 22v473l11 130h-17q-37 -119 -107 -188t-171 -68q-147 0 -231 113q-83 115 -83 325t120 342t331 131q162 0 352 -51v-1207l125 -22v-74z" />
    <glyph glyph-name="r" unicode="r" horiz-adv-x="741" 
d="M586 0h-514v74l131 24v654h-142v82q183 47 235 47t74 -26t21 -85v-227h15q12 145 80 242q69 97 184 98q20 0 61 -9l-37 -256q-55 10 -88 11q-104 0 -149 -89t-45 -304v-138l174 -24v-74z" />
    <glyph glyph-name="s" unicode="s" horiz-adv-x="813" 
d="M432 795q-68 0 -106 -29t-39 -80q0 -51 43 -82q44 -31 162 -77t184 -103t65 -162q-1 -135 -109 -209q-108 -73 -260 -73t-300 69l28 260h101l35 -180q63 -47 140 -47t123 31t46 77q-1 46 -17 62q-36 36 -71 50q-35 15 -100 40q-200 77 -245 178q-22 47 -22 107
q0 125 95 195t241 69q146 0 291 -64l-23 -231h-106l-29 166q-59 33 -127 33z" />
    <glyph glyph-name="t" unicode="t" horiz-adv-x="649" 
d="M390 -20q-146 0 -196 78t-51 241q0 285 9 440h-142v92l119 37l127 271h98v-281h269v-119h-269v-381q0 -137 26 -189q47 -94 261 -22l29 -65q-134 -102 -280 -102z" />
    <glyph glyph-name="u" unicode="u" horiz-adv-x="1032" 
d="M698 106v144h-14q-28 -121 -106 -196t-181 -74q-137 0 -194 87t-58 265v405l-125 29v74q176 32 234 32t78 -27q20 -28 20 -87v-357q0 -137 26 -201t108 -65q82 0 139 117q55 117 55 334v151l-125 29v74q176 33 229 32q102 0 103 -114v-643l135 -19v-76q-120 -36 -200 -36
t-102 32t-22 90z" />
    <glyph glyph-name="v" unicode="v" horiz-adv-x="917" 
d="M-20 858h436v-63l-101 -31l166 -590h11l174 584l-101 37v63h373v-63l-104 -47l-289 -754h-211l-250 760l-104 41v63z" />
    <glyph glyph-name="w" unicode="w" horiz-adv-x="1421" 
d="M-20 858h440v-63l-115 -31l127 -576h10l213 670h189l180 -670h10l140 568l-115 39v63h383v-63l-107 -52l-245 -749h-187l-192 651l-217 -651h-187l-223 760l-104 41v63z" />
    <glyph glyph-name="x" unicode="x" horiz-adv-x="935" 
d="M936 0h-428v66l88 30l-168 242l-141 -236l86 -34v-68h-373v63l125 54l242 293l-252 344l-105 41v63h436v-63l-90 -31l154 -229l127 227l-76 33v63h346v-63l-119 -60l-221 -266l275 -363l94 -40v-66z" />
    <glyph glyph-name="y" unicode="y" horiz-adv-x="935" 
d="M-23 858h443v-63l-103 -31l175 -522h10l178 516l-100 37v63h376v-63l-106 -41q-16 -48 -150 -372t-211 -458q-123 -217 -233 -309t-272 -92q-37 0 -74 6l20 260h113l35 -154q72 -10 160 113t131 279l-283 727l-109 41v63z" />
    <glyph glyph-name="z" unicode="z" horiz-adv-x="813" 
d="M41 0v96q0 70 59 137l441 517h-328l-27 -162h-110l-19 270h703v-100q0 -70 -60 -137l-434 -504h350l35 174h105l16 -291h-731z" />
    <glyph glyph-name="braceleft" unicode="{" horiz-adv-x="784" 
d="M600 -340h102v-90h-202q-106 0 -151 48q-44 48 -44 155q0 37 16 253q15 216 15 287q0 145 -189 166v117q188 20 189 166q0 72 -15 278t-16 242q0 203 217 203h180v-90h-102q-49 0 -77 -31t-27 -82l6 -471q0 -63 -4 -94q-12 -92 -79 -129q-40 -23 -110 -43v-13
q137 -39 167 -105q18 -38 22 -69t4 -94l-6 -491q0 -51 28 -82t76 -31z" />
    <glyph glyph-name="bar" unicode="|" horiz-adv-x="612" 
d="M367 -248h-121v1634h121v-1634z" />
    <glyph glyph-name="braceright" unicode="}" horiz-adv-x="784" 
d="M184 1395h-102v90h180q217 0 217 -203q0 -37 -15 -243t-15 -277q0 -145 188 -166v-117q-188 -20 -188 -166q0 -71 15 -287t15 -253q0 -104 -50 -154q-51 -49 -157 -49h-190v90h102q49 0 77 31t28 82l-6 491q0 63 4 94q12 92 79 130q40 24 109 44v13q-69 20 -109 43
q-40 22 -58 60t-21 69q-4 31 -4 94l6 471q0 51 -28 82t-77 31z" />
    <glyph glyph-name="asciitilde" unicode="~" 
d="M682 391q-82 0 -216 52t-204 53q-109 0 -162 -86l-67 30q25 113 103 185q79 71 164 71t214 -53t193 -53q111 0 174 90l67 -31q-24 -121 -104 -189t-162 -69z" />
    <glyph glyph-name="exclamdown" unicode="&#xa1;" horiz-adv-x="559" 
d="M246 487h69q27 -113 57 -391t29 -426q-1 -59 -27 -82q-26 -22 -94 -22t-94 22q-27 22 -26 82q0 138 30 418t56 399zM279 649q-55 0 -91 36q-35 36 -34 93q0 57 33 91q34 34 88 34q55 0 93 -35t38 -91t-36 -92t-91 -36z" />
    <glyph glyph-name="cent" unicode="&#xa2;" horiz-adv-x="856" 
d="M279 457q0 -233 170 -305v618q-78 -33 -124 -116t-46 -197zM530 -215h-81v197q-158 12 -263 127q-104 115 -104 309t101 318t266 153v215h81v-207q135 0 267 -55l-27 -285h-106l-46 225q-49 10 -88 9v-658q100 -14 248 60l37 -56q-115 -135 -285 -155v-197z" />
    <glyph glyph-name="sterling" unicode="&#xa3;" horiz-adv-x="989" 
d="M737 0h-686v90q176 25 176 422h-147v109h153q-10 253 115 375t320 122q129 0 280 -41l-22 -266h-111l-43 197q-51 10 -86 10q-246 0 -246 -397h310v-109h-310q0 -125 -38 -223t-103 -139h379q86 0 117 36t39 133h106v-122q0 -109 -44 -153t-159 -44z" />
    <glyph glyph-name="yen" unicode="&#xa5;" horiz-adv-x="1099" 
d="M805 0h-526v84l159 27v286h-336v103h306l-84 151h-222v103h166l-133 243l-94 33v74h438v-80l-117 -33l226 -450l221 444l-102 45v74h352v-74l-101 -47l-135 -229h170v-103h-229l-88 -151h317v-103h-348v-286l160 -27v-84z" />
    <glyph glyph-name="brokenbar" unicode="&#xa6;" horiz-adv-x="612" 
d="M367 -248h-121v645h121v-645zM367 741h-121v645h121v-645z" />
    <glyph glyph-name="section" unicode="&#xa7;" horiz-adv-x="1071" 
d="M764 -78q0 154 -137 428q-55 112 -109 224q-126 265 -100 415q-106 -68 -107 -250q-1 -105 55 -249t122 -264t118 -267q53 -147 49 -264q109 73 109 227zM569 1118q186 0 365 -84l-29 -286h-110l-35 210q-102 63 -234 64q10 -98 77 -249t141 -281t136 -282
q62 -153 62 -259q0 -193 -125 -293t-317 -100t-371 86l29 286h108l37 -213q117 -72 234 -59q-8 100 -73 248t-137 276q-73 127 -131 280t-59 263q0 193 123 293t309 100z" />
    <glyph glyph-name="dieresis" unicode="&#xa8;" horiz-adv-x="946" 
d="M782 1167q0 -51 -34 -84t-86 -33q-51 0 -84 34q-33 32 -33 83t35 86t85 35q49 0 83 -35t34 -86zM401 1167q-1 -51 -35 -84t-85 -33t-84 34q-33 32 -33 83t35 86t85 35t84 -35t33 -86z" />
    <glyph glyph-name="copyright" unicode="&#xa9;" horiz-adv-x="1646" 
d="M824 233q-134 0 -224 82t-90 234q0 151 95 237t221 86t231 -38l-13 -172h-81l-23 108q-35 14 -72 14q-80 0 -128 -59t-48 -162q0 -233 172 -233q35 0 68 8l41 111h86l-4 -177q-97 -39 -231 -39zM821 72q207 0 339 135t132 342t-132 343t-338 136t-337 -136t-131 -342
t130 -342t337 -136zM1401 549q0 -248 -163 -409q-163 -160 -417 -160q-255 0 -415 160t-160 409t162 409t414 160t416 -160q163 -160 163 -409z" />
    <glyph glyph-name="ordfeminine" unicode="&#xaa;" horiz-adv-x="593" 
d="M338 825v58q-53 -4 -94 -33t-41 -70q0 -63 53 -63q34 1 58 29t24 79zM508 717q14 0 41 31l35 -23q-18 -47 -54 -75t-80 -28q-42 0 -70 28t-30 75h-10q-35 -102 -152 -102q-66 0 -102 39t-35 96q0 90 86 133t203 45v31q0 75 -18 103t-58 28t-74 -11l-14 -114h-76l-37 149
q106 55 230 56q195 0 194 -177l-6 -237q0 -47 27 -47z" />
    <glyph glyph-name="guillemotleft" unicode="&#xab;" horiz-adv-x="1112" 
d="M522 456q0 71 66 122l352 253l45 -90l-264 -276v-12l264 -277l-45 -102q-298 211 -358 261t-60 121zM102 454q0 73 66 124l352 253l45 -90l-264 -276v-12l264 -277l-45 -102q-302 211 -360 259t-58 121z" />
    <glyph glyph-name="logicalnot" unicode="&#xac;" 
d="M877 217h-162v256h-609v145h771v-401z" />
    <glyph glyph-name="uni00AD" unicode="&#xad;" horiz-adv-x="872" 
d="M721 428h-557v160h557v-160z" />
    <glyph glyph-name="registered" unicode="&#xae;" horiz-adv-x="1026" 
d="M467 954h16q100 0 101 74q0 33 -24 47t-77 15h-16v-136zM467 909v-127l39 -6v-37h-170v37l41 6v305l-39 11v41h192q152 0 152 -109q0 -74 -82 -104q83 -142 127 -154v-31q-102 -18 -138 24t-67 144h-55zM511 598q140 0 234 95q95 95 95 237t-94 238t-234 96
q-139 0 -232 -96q-94 -96 -94 -237t92 -237t233 -96zM924 930q0 -174 -118 -290t-294 -116t-293 117t-117 290t117 290t293 117t294 -118q118 -116 118 -290z" />
    <glyph glyph-name="macron" unicode="&#xaf;" horiz-adv-x="911" 
d="M748 1118h-584v125h584v-125z" />
    <glyph glyph-name="degree" unicode="&#xb0;" horiz-adv-x="796" 
d="M229 1044q0 -90 47 -144t123 -54t122 54t46 144t-46 144t-122 55q-76 -1 -123 -55t-47 -144zM82 1044q0 136 90 220t227 84t227 -83t89 -221q0 -138 -89 -220q-88 -83 -226 -83t-228 83t-90 220z" />
    <glyph glyph-name="plusminus" unicode="&#xb1;" 
d="M877 528h-293v-258h-185v258h-293v136h293v256h185v-256h293v-136zM877 0h-771v141h771v-141z" />
    <glyph glyph-name="twosuperior" unicode="&#xb2;" horiz-adv-x="610" 
d="M557 635h-547v84q39 55 140 154q100 99 161 183t62 163q0 129 -140 129q-23 0 -59 -5l-29 -157h-88l-14 192q121 56 244 56t197 -54t75 -166q0 -70 -46 -142t-102 -118q-56 -47 -132 -108t-109 -96h272l25 104h90v-219z" />
    <glyph glyph-name="threesuperior" unicode="&#xb3;" horiz-adv-x="602" 
d="M387 854q0 145 -237 145v82q100 0 160 41t60 106q0 64 -44 94t-88 30t-80 -4l-31 -146h-82l-14 180q119 52 235 52t189 -52q74 -52 73 -149q0 -121 -153 -174q176 -43 176 -193q0 -125 -98 -182t-240 -57q-82 -1 -182 28l14 187h86l27 -135q33 -4 47 -5q78 0 130 38
t52 114z" />
    <glyph glyph-name="acute" unicode="&#xb4;" horiz-adv-x="663" 
d="M223 1008l-59 34q113 328 153 400q35 59 121 6q84 -49 51 -109q-22 -40 -208 -266z" />
    <glyph glyph-name="mu" unicode="&#xb5;" horiz-adv-x="1032" 
d="M698 106v144h-14q-20 -102 -76 -185t-136 -83q-81 0 -130 55l-8 -379q-2 -43 -33 -71q-57 -52 -215 -3l68 355q22 123 22 155t-15 125q-15 92 -16 164v354l-125 29v74q176 32 234 32t78 -27q20 -28 20 -87v-357q0 -137 26 -201t108 -65q82 0 139 117q55 117 55 334v151
l-125 29v74q176 33 229 32q102 0 103 -114v-643l135 -19v-76q-120 -36 -200 -36t-102 32t-22 90z" />
    <glyph glyph-name="paragraph" unicode="&#xb6;" horiz-adv-x="1292" 
d="M1038 -449h-360v93l199 45v1611h333v-94l-172 -41v-1614zM702 285h-106q-225 0 -359 141q-135 142 -135 366t134 366t360 142h106v-1015z" />
    <glyph glyph-name="periodcentered" unicode="&#xb7;" horiz-adv-x="700" 
d="M496 492q0 -62 -42 -104t-104 -42t-104 41q-41 41 -41 105t41 106q41 43 103 43q63 0 105 -43t42 -106z" />
    <glyph glyph-name="cedilla" unicode="&#xb8;" horiz-adv-x="663" 
d="M297 -260q0 47 -31 92q-30 45 -30 84t38 84h62q-23 -31 -23 -55q0 -23 24 -39q25 -16 53 -28t52 -42q24 -31 23 -76q0 -82 -68 -143t-164 -98l-38 41q102 74 102 180z" />
    <glyph glyph-name="onesuperior" unicode="&#xb9;" horiz-adv-x="497" 
d="M467 532h-426v58l135 28v586l-137 -18l-8 57l207 84h108v-709l121 -28v-58z" />
    <glyph glyph-name="ordmasculine" unicode="&#xba;" horiz-adv-x="641" 
d="M324 688q96 0 96 215q0 97 -27 153t-74 56q-98 0 -98 -209q0 -99 28 -157t75 -58zM313 618q-123 0 -193 75t-69 205q0 130 77 206t201 76q125 0 193 -71t68 -202t-77 -210t-200 -79z" />
    <glyph glyph-name="guillemotright" unicode="&#xbb;" horiz-adv-x="1112" 
d="M590 453q0 -72 -66 -125l-352 -254l-45 94l264 276v13l-264 276l45 98q298 -211 358 -259t60 -119zM1010 453q0 -74 -66 -125l-352 -254l-45 94l264 276v13l-264 276l45 98q298 -211 358 -257t60 -121z" />
    <glyph glyph-name="onequarter" unicode="&#xbc;" horiz-adv-x="1599" 
d="M508 -20l-105 47l644 1294l104 -47zM1516 0h-355v51l119 19v123h-332v79l213 537l160 -16l-256 -496h215v262h137v-262h101v-104h-101v-123l99 -19v-51zM518 532h-426v58l135 28v586l-137 -18l-8 57l207 84h108v-709l121 -28v-58z" />
    <glyph glyph-name="onehalf" unicode="&#xbd;" horiz-adv-x="1619" 
d="M508 -20l-105 47l644 1294l104 -47zM1536 0h-547v84q39 54 139 154t162 184q61 84 62 162q0 129 -140 129q-23 0 -59 -4l-29 -158h-88l-14 192q121 55 244 55q124 0 198 -54t74 -164q0 -70 -46 -142t-102 -119t-132 -108t-109 -96h272l25 104h90v-219zM518 532h-426v58
l135 28v586l-137 -18l-8 57l207 84h108v-709l121 -28v-58z" />
    <glyph glyph-name="threequarters" unicode="&#xbe;" horiz-adv-x="1658" 
d="M567 -20l-104 47l643 1294l104 -47zM1575 0h-354v51l118 19v123h-331v79l213 537l159 -16l-256 -496h215v262h138v-262h100v-104h-100v-123l98 -19v-51zM256 600q78 0 130 38t52 114q0 145 -237 145v82q100 0 160 41q61 42 61 106t-45 94t-89 30t-79 -5l-31 -145h-82
l-14 180q119 51 235 51q115 0 189 -51t74 -150q0 -121 -154 -174q176 -43 176 -192q0 -125 -98 -182q-174 -101 -422 -29l14 186h86l27 -135q33 -4 47 -4z" />
    <glyph glyph-name="questiondown" unicode="&#xbf;" horiz-adv-x="782" 
d="M465 649q-55 0 -90 36t-35 92t37 91t91 35t89 -34t35 -91t-36 -93t-91 -36zM408 -440q-173 0 -270 70t-97 211t100 235t262 174v244h132q45 -176 45 -222t-23 -74q-23 -26 -79 -62t-95 -66t-76 -92q-37 -60 -37 -138t54 -123t130 -45q75 0 124 15l51 219h90l22 -262
q-160 -84 -333 -84z" />
    <glyph glyph-name="Agrave" unicode="&#xc0;" horiz-adv-x="1335" 
d="M717 1468l-35 -59q-319 127 -393 170q-55 35 -6 117t106 49q69 -42 262 -217zM809 545l-193 520l-182 -520h375zM1346 0h-527v84l152 22l-123 330h-453l-112 -325l153 -27v-84h-446v84l121 27l460 1206h179l473 -1211l123 -22v-84z" />
    <glyph glyph-name="Aacute" unicode="&#xc1;" horiz-adv-x="1335" 
d="M582 1409l-35 59q252 231 325 277q58 33 108 -48t-5 -118q-83 -45 -311 -137zM809 545l-193 520l-182 -520h375zM1346 0h-527v84l152 22l-123 330h-453l-112 -325l153 -27v-84h-446v84l121 27l460 1206h179l473 -1211l123 -22v-84z" />
    <glyph glyph-name="Acircumflex" unicode="&#xc2;" horiz-adv-x="1335" 
d="M688 1741q64 0 103 -43q89 -98 176 -215l34 -45l-55 -49q-188 137 -274 202l-273 -202l-53 49q134 174 182 228t72 64q24 11 88 11zM809 545l-193 520l-182 -520h375zM1346 0h-527v84l152 22l-123 330h-453l-112 -325l153 -27v-84h-446v84l121 27l460 1206h179l473 -1211
l123 -22v-84z" />
    <glyph glyph-name="Atilde" unicode="&#xc3;" horiz-adv-x="1335" 
d="M500 1675q76 0 179 -48t148 -48q91 0 152 94l53 -26q-18 -99 -80 -161t-137 -62q-76 0 -180 46q-104 47 -150 48q-96 0 -151 -91l-53 25q18 98 80 160q63 62 139 63zM809 545l-193 520l-182 -520h375zM1346 0h-527v84l152 22l-123 330h-453l-112 -325l153 -27v-84h-446
v84l121 27l460 1206h179l473 -1211l123 -22v-84z" />
    <glyph glyph-name="Adieresis" unicode="&#xc4;" horiz-adv-x="1335" 
d="M981 1577q0 -53 -38 -89t-92 -36t-89 36t-35 89t37 90t90 37t90 -37t37 -90zM573 1577q-1 -53 -37 -89t-92 -36t-90 36q-35 36 -35 89t37 90t91 37t90 -37t36 -90zM809 545l-193 520l-182 -520h375zM1346 0h-527v84l152 22l-123 330h-453l-112 -325l153 -27v-84h-446v84
l121 27l460 1206h179l473 -1211l123 -22v-84z" />
    <glyph glyph-name="Aring" unicode="&#xc5;" horiz-adv-x="1335" 
d="M655 1464q47 0 76 30t29 83t-30 82t-76 29t-76 -29t-29 -82q-1 -53 29 -83t77 -30zM891 1577q0 -92 -68 -142q-68 -51 -169 -51t-169 50t-67 143q0 92 67 142q68 50 169 50t169 -50t68 -142zM809 545l-193 520l-182 -520h375zM1346 0h-527v84l152 22l-123 330h-453
l-112 -325l153 -27v-84h-446v84l121 27l460 1206h179l473 -1211l123 -22v-84z" />
    <glyph glyph-name="AE" unicode="&#xc6;" horiz-adv-x="1847" 
d="M950 545v567l-377 -567h377zM1776 0h-979v86l153 27v323h-448l-215 -325l153 -27v-84h-460v84l118 27l807 1189h830v-319h-115l-53 207h-389v-455h290l41 135h97v-385h-97l-41 135h-290v-501h430l53 215h115v-332z" />
    <glyph glyph-name="Ccedilla" unicode="&#xc7;" horiz-adv-x="1228" 
d="M760 -281q0 51 -33 101t-33 83q0 34 21 70q-285 9 -459 189t-174 486t200 496t525 189q188 0 332 -43l-19 -340h-116l-50 252q-59 14 -131 15q-223 0 -353 -151q-130 -150 -130 -400t116 -407t345 -157q68 0 143 17l84 237l119 -8l-17 -319q-150 -47 -346 -56
q-8 -15 -8 -37q0 -33 82 -69q30 -12 56 -44t26 -81q0 -88 -73 -156t-177 -104l-41 43q111 84 111 194z" />
    <glyph glyph-name="Egrave" unicode="&#xc8;" horiz-adv-x="1101" 
d="M680 1468l-35 -59q-319 127 -393 170q-55 35 -6 117t106 49q69 -42 262 -217zM1030 0h-979v86l154 33v1063l-148 32v86h932v-319h-115l-53 207h-389v-455h291l41 135h96v-385h-96l-41 135h-291v-501h430l53 215h115v-332z" />
    <glyph glyph-name="Eacute" unicode="&#xc9;" horiz-adv-x="1101" 
d="M451 1409l-35 59q252 231 325 277q59 33 109 -48t-6 -118q-88 -48 -312 -137zM1030 0h-979v86l154 33v1063l-148 32v86h932v-319h-115l-53 207h-389v-455h291l41 135h96v-385h-96l-41 135h-291v-501h430l53 215h115v-332z" />
    <glyph glyph-name="Ecircumflex" unicode="&#xca;" horiz-adv-x="1101" 
d="M592 1741q64 0 108 -51q75 -80 170 -207l35 -45l-55 -49q-188 137 -275 202l-272 -202l-53 49q134 174 182 228t72 64q24 11 88 11zM1030 0h-979v86l154 33v1063l-148 32v86h932v-319h-115l-53 207h-389v-455h291l41 135h96v-385h-96l-41 135h-291v-501h430l53 215h115
v-332z" />
    <glyph glyph-name="Edieresis" unicode="&#xcb;" horiz-adv-x="1101" 
d="M872 1577q0 -53 -38 -89t-92 -36t-89 36t-35 89t37 90t90 37t90 -37t37 -90zM465 1577q0 -53 -37 -89t-92 -36t-90 36t-35 89t37 90t91 37t90 -37t36 -90zM1030 0h-979v86l154 33v1063l-148 32v86h932v-319h-115l-53 207h-389v-455h291l41 135h96v-385h-96l-41 135h-291
v-501h430l53 215h115v-332z" />
    <glyph glyph-name="Igrave" unicode="&#xcc;" horiz-adv-x="641" 
d="M426 1468l-35 -59q-319 127 -393 170q-55 35 -6 117t106 49q69 -42 262 -217zM590 0h-539v86l154 27v1075l-148 26v86h527v-86l-146 -26v-1075l152 -27v-86z" />
    <glyph glyph-name="Iacute" unicode="&#xcd;" horiz-adv-x="641" 
d="M207 1409l-35 59q252 231 326 277q59 33 108 -48t-6 -118q-83 -45 -311 -137zM590 0h-539v86l154 27v1075l-148 26v86h527v-86l-146 -26v-1075l152 -27v-86z" />
    <glyph glyph-name="Icircumflex" unicode="&#xce;" horiz-adv-x="641" 
d="M336 1741q64 0 108 -51q75 -80 170 -207l35 -45l-55 -49q-188 137 -275 202l-272 -202l-53 49q134 174 182 228t72 64q24 11 88 11zM590 0h-539v86l154 27v1075l-148 26v86h527v-86l-146 -26v-1075l152 -27v-86z" />
    <glyph glyph-name="Idieresis" unicode="&#xcf;" horiz-adv-x="641" 
d="M651 1577q0 -53 -38 -89t-92 -36t-89 36t-35 89t37 90t90 37t90 -37t37 -90zM244 1577q0 -53 -37 -89t-92 -36t-90 36t-35 89t37 90t91 37t90 -37t36 -90zM590 0h-539v86l154 27v1075l-148 26v86h527v-86l-146 -26v-1075l152 -27v-86z" />
    <glyph glyph-name="Eth" unicode="&#xd0;" horiz-adv-x="1380" 
d="M432 117h70q272 0 407 134t135 417q0 520 -514 520h-98v-451h373v-125h-373v-495zM535 0h-484v86l154 33v493h-150v125h150v445l-148 32v86h527q715 0 714 -622q0 -324 -202 -501t-561 -177z" />
    <glyph glyph-name="Ntilde" unicode="&#xd1;" horiz-adv-x="1396" 
d="M610 1675q76 0 180 -48t148 -48q91 0 152 94l53 -26q-17 -99 -79 -161t-138 -62t-180 46q-104 47 -150 48q-96 0 -152 -91l-53 25q19 98 81 160t138 63zM1231 -10h-113l-778 1022v-375q0 -395 8 -473l2 -37l166 -39v-88h-465v88l146 39q10 109 10 510v522l-152 60v81h252
q70 0 102 -13t70 -62l621 -819v370q0 217 -8 361l-2 34l-168 41v88h464v-88l-145 -41q-10 -109 -10 -395v-786z" />
    <glyph glyph-name="Ograve" unicode="&#xd2;" horiz-adv-x="1435" 
d="M823 1468l-35 -59q-319 127 -393 170q-55 35 -6 117t108 47t261 -215zM338 664q0 -268 106 -424t280 -156q173 0 273 155q101 155 101 423t-104 413t-278 145t-276 -144t-102 -412zM707 -35q-285 1 -455 191t-170 510t183 495q183 176 471 176t453 -173t165 -493
t-181 -513t-466 -193z" />
    <glyph glyph-name="Oacute" unicode="&#xd3;" horiz-adv-x="1435" 
d="M614 1409l-34 59q252 231 325 277q59 33 109 -48t-6 -118q-88 -48 -312 -137zM338 664q0 -268 106 -424t280 -156q173 0 273 155q101 155 101 423t-104 413t-278 145t-276 -144t-102 -412zM707 -35q-285 1 -455 191t-170 510t183 495q183 176 471 176t453 -173t165 -493
t-181 -513t-466 -193z" />
    <glyph glyph-name="Ocircumflex" unicode="&#xd4;" horiz-adv-x="1435" 
d="M736 1741q64 0 102 -43q89 -98 176 -215l35 -45l-56 -49q-188 137 -274 202l-273 -202l-53 49q133 174 181 228t74 64q24 11 88 11zM338 664q0 -268 106 -424t280 -156q173 0 273 155q101 155 101 423t-104 413t-278 145t-276 -144t-102 -412zM707 -35q-285 1 -455 191
t-170 510t183 495q183 176 471 176t453 -173t165 -493t-181 -513t-466 -193z" />
    <glyph glyph-name="Otilde" unicode="&#xd5;" horiz-adv-x="1435" 
d="M553 1675q76 0 179 -48t149 -48q90 0 151 94l53 -26q-18 -99 -79 -161q-62 -62 -138 -62t-180 46q-104 47 -149 48q-96 0 -152 -91l-53 25q18 98 80 160t139 63zM338 664q0 -268 106 -424t280 -156q173 0 273 155q101 155 101 423t-104 413t-278 145t-276 -144t-102 -412
zM707 -35q-285 1 -455 191t-170 510t183 495q183 176 471 176t453 -173t165 -493t-181 -513t-466 -193z" />
    <glyph glyph-name="Odieresis" unicode="&#xd6;" horiz-adv-x="1435" 
d="M1051 1577q0 -53 -38 -89t-92 -36t-90 36q-35 36 -34 89q0 53 37 90t90 37t90 -37t37 -90zM643 1577q0 -53 -37 -89t-92 -36t-90 36t-35 89t37 90t91 37t90 -37t36 -90zM338 664q0 -268 106 -424t280 -156q173 0 273 155q101 155 101 423t-104 413t-278 145t-276 -144
t-102 -412zM707 -35q-285 1 -455 191t-170 510t183 495q183 176 471 176t453 -173t165 -493t-181 -513t-466 -193z" />
    <glyph glyph-name="multiply" unicode="&#xd7;" 
d="M784 94l-297 295l-292 -293l-101 101l293 292l-297 299l109 109l297 -299l292 293l101 -100l-293 -293l297 -295z" />
    <glyph glyph-name="Oslash" unicode="&#xd8;" horiz-adv-x="1435" 
d="M446 223l463 946q-82 55 -188 56q-183 1 -289 -145t-106 -424t120 -433zM729 80q172 0 277 157q104 157 104 428t-117 425l-463 -949q86 -61 199 -61zM82 670q0 315 183 491t472 176q129 0 238 -37l106 193l107 -45l-111 -195q276 -166 277 -583q0 -319 -182 -512
t-465 -193q-127 0 -244 43l-101 -184l-106 45l106 190q-135 86 -207 244q-73 158 -73 367z" />
    <glyph glyph-name="Ugrave" unicode="&#xd9;" horiz-adv-x="1288" 
d="M778 1468l-35 -59q-319 127 -393 170q-55 35 -6 117t108 47t261 -215zM1159 504q0 -541 -518 -541q-258 0 -382 129t-124 406l2 690l-133 26v86h528v-86l-155 -26q-2 0 -2 -694q0 -176 75 -282t242 -108q317 0 318 390l-15 682l-153 38v86h456v-86l-133 -38
q-6 -340 -6 -672z" />
    <glyph glyph-name="Uacute" unicode="&#xda;" horiz-adv-x="1288" 
d="M592 1409l-35 59q252 231 326 277q59 33 108 -48t-6 -118q-83 -45 -311 -137zM1159 504q0 -541 -518 -541q-258 0 -382 129t-124 406l2 690l-133 26v86h528v-86l-155 -26q-2 0 -2 -694q0 -176 75 -282t242 -108q317 0 318 390l-15 682l-153 38v86h456v-86l-133 -38
q-6 -340 -6 -672z" />
    <glyph glyph-name="Ucircumflex" unicode="&#xdb;" horiz-adv-x="1288" 
d="M680 1741q64 0 108 -51q75 -80 170 -207l35 -45l-55 -49q-188 137 -274 202l-273 -202l-53 49q134 174 182 228t72 64q24 11 88 11zM1159 504q0 -541 -518 -541q-258 0 -382 129t-124 406l2 690l-133 26v86h528v-86l-155 -26q-2 0 -2 -694q0 -176 75 -282t242 -108
q317 0 318 390l-15 682l-153 38v86h456v-86l-133 -38q-6 -340 -6 -672z" />
    <glyph glyph-name="Udieresis" unicode="&#xdc;" horiz-adv-x="1288" 
d="M1008 1577q0 -53 -38 -89t-92 -36t-90 36q-35 36 -34 89q0 53 37 90t90 37t90 -37t37 -90zM600 1577q0 -53 -37 -89t-92 -36t-90 36t-35 89t37 90t91 37t90 -37t36 -90zM1159 504q0 -541 -518 -541q-258 0 -382 129t-124 406l2 690l-133 26v86h528v-86l-155 -26
q-2 0 -2 -694q0 -176 75 -282t242 -108q317 0 318 390l-15 682l-153 38v86h456v-86l-133 -38q-6 -340 -6 -672z" />
    <glyph glyph-name="Yacute" unicode="&#xdd;" horiz-adv-x="1210" 
d="M528 1409l-34 59q252 231 325 277q59 33 109 -48t-6 -118q-88 -48 -312 -137zM874 0h-559v84l160 27v409l-362 666l-113 39v75h526v-81l-153 -39l278 -521l269 515l-140 51v75h430v-75l-118 -54l-375 -651v-409l157 -27v-84z" />
    <glyph glyph-name="Thorn" unicode="&#xde;" horiz-adv-x="1093" 
d="M479 948h-49v-497q162 -31 278 37t115 219q0 241 -344 241zM616 0h-565v86l154 27v1075l-148 26v86h525v-86l-152 -26v-129h127q244 0 375 -87t131 -255q0 -113 -58 -197q-59 -84 -153 -127q-186 -85 -422 -63v-217l186 -27v-86z" />
    <glyph glyph-name="germandbls" unicode="&#xdf;" horiz-adv-x="1081" 
d="M631 871q31 26 61 54q74 67 74 170q0 201 -166 201q-207 0 -207 -331v-965h-342v74l133 24v652h-133v94l133 33v49q0 244 122 364t295 121q173 0 272 -77t99 -197t-76 -187q-32 -28 -65 -50q-79 -54 -78 -121t102 -168q42 -42 84 -88q103 -113 101 -244q0 -98 -56 -167
q-101 -124 -314 -122q-92 -1 -168 30l16 209h94l29 -139q82 -16 138 27q57 43 57 109t-29 119q-29 52 -70 94t-82 85q-98 103 -98 194t74 153z" />
    <glyph glyph-name="agrave" unicode="&#xe0;" horiz-adv-x="929" 
d="M543 1042l-60 -34q-225 260 -262 324t47 118q86 49 121 -8q41 -74 123 -316zM557 338v72q-104 -6 -193 -56t-90 -131q0 -51 28 -80t75 -28q72 1 126 63t54 160zM801 119q31 0 76 61l53 -33q-33 -79 -87 -123t-122 -44t-110 47t-44 139h-14q-76 -186 -266 -186
q-102 0 -159 59q-56 59 -56 145q0 223 322 284q81 15 165 15v64q0 127 -39 181t-137 54q-51 0 -107 -16l-20 -201h-102l-62 240q66 33 170 61t191 27q161 0 235 -74t74 -217l-10 -381q0 -102 49 -102z" />
    <glyph glyph-name="aacute" unicode="&#xe1;" horiz-adv-x="929" 
d="M432 1008l-59 34q113 328 153 400q35 59 121 6q84 -49 54 -103t-212 -272zM557 338v72q-104 -6 -193 -56t-90 -131q0 -51 28 -80t75 -28q72 1 126 63t54 160zM801 119q31 0 76 61l53 -33q-33 -79 -87 -123t-122 -44t-110 47t-44 139h-14q-76 -186 -266 -186
q-102 0 -159 59q-56 59 -56 145q0 223 322 284q81 15 165 15v64q0 127 -39 181t-137 54q-51 0 -107 -16l-20 -201h-102l-62 240q66 33 170 61t191 27q161 0 235 -74t74 -217l-10 -381q0 -102 49 -102z" />
    <glyph glyph-name="acircumflex" unicode="&#xe2;" horiz-adv-x="929" 
d="M764 1036l-55 -30q-170 180 -256 278l-254 -278l-54 30q135 252 185 338q37 62 124 62t126 -62zM557 338v72q-104 -6 -193 -56t-90 -131q0 -51 28 -80t75 -28q72 1 126 63t54 160zM801 119q31 0 76 61l53 -33q-33 -79 -87 -123t-122 -44t-110 47t-44 139h-14
q-76 -186 -266 -186q-102 0 -159 59q-56 59 -56 145q0 223 322 284q81 15 165 15v64q0 127 -39 181t-137 54q-51 0 -107 -16l-20 -201h-102l-62 240q66 33 170 61t191 27q161 0 235 -74t74 -217l-10 -381q0 -102 49 -102z" />
    <glyph glyph-name="atilde" unicode="&#xe3;" horiz-adv-x="929" 
d="M311 1163q-94 0 -145 -90l-51 27q16 96 76 158q61 62 135 62t176 -47q102 -48 145 -48q87 0 144 94l51 -25q-16 -100 -76 -162t-134 -62q-75 0 -177 46q-102 47 -144 47zM557 338v72q-104 -6 -193 -56t-90 -131q0 -51 28 -80t75 -28q72 1 126 63t54 160zM801 119
q31 0 76 61l53 -33q-33 -79 -87 -123t-122 -44t-110 47t-44 139h-14q-76 -186 -266 -186q-102 0 -159 59q-56 59 -56 145q0 223 322 284q81 15 165 15v64q0 127 -39 181t-137 54q-51 0 -107 -16l-20 -201h-102l-62 240q66 33 170 61t191 27q161 0 235 -74t74 -217l-10 -381
q0 -102 49 -102z" />
    <glyph glyph-name="adieresis" unicode="&#xe4;" horiz-adv-x="929" 
d="M772 1167q0 -51 -35 -84t-86 -33t-84 34q-33 32 -32 83q0 51 34 86q35 35 85 35t84 -35t34 -86zM391 1167q0 -51 -35 -84t-86 -33t-84 34q-33 32 -32 83q0 51 34 86q35 35 85 35t84 -35t34 -86zM557 338v72q-104 -6 -193 -56t-90 -131q0 -51 28 -80t75 -28q72 1 126 63
t54 160zM801 119q31 0 76 61l53 -33q-33 -79 -87 -123t-122 -44t-110 47t-44 139h-14q-76 -186 -266 -186q-102 0 -159 59q-56 59 -56 145q0 223 322 284q81 15 165 15v64q0 127 -39 181t-137 54q-51 0 -107 -16l-20 -201h-102l-62 240q66 33 170 61t191 27q161 0 235 -74
t74 -217l-10 -381q0 -102 49 -102z" />
    <glyph glyph-name="aring" unicode="&#xe5;" horiz-adv-x="929" 
d="M462 1112q46 0 74 36t27 93q0 57 -27 92q-28 35 -74 35t-74 -35t-28 -92t28 -93t74 -36zM686 1240q0 -93 -63 -147q-63 -55 -161 -55t-160 54q-64 54 -64 148q0 92 63 148t161 56t161 -55q63 -56 63 -149zM557 338v72q-104 -6 -193 -56t-90 -131q0 -51 28 -80t75 -28
q72 1 126 63t54 160zM801 119q31 0 76 61l53 -33q-33 -79 -87 -123t-122 -44t-110 47t-44 139h-14q-76 -186 -266 -186q-102 0 -159 59q-56 59 -56 145q0 223 322 284q81 15 165 15v64q0 127 -39 181t-137 54q-51 0 -107 -16l-20 -201h-102l-62 240q66 33 170 61t191 27
q161 0 235 -74t74 -217l-10 -381q0 -102 49 -102z" />
    <glyph glyph-name="ae" unicode="&#xe6;" horiz-adv-x="1374" 
d="M553 338v78q-103 -8 -191 -58t-88 -135q0 -49 28 -78t75 -28q72 -1 124 61t52 160zM1114 623q0 82 -39 131t-115 49t-134 -82t-58 -197l340 37q6 31 6 62zM981 -25q-264 0 -371 207q-96 -203 -313 -202q-106 0 -166 59q-59 59 -59 147q0 228 322 296q81 17 165 20v49
q0 127 -38 179t-138 52q-51 0 -107 -16l-20 -201h-102l-62 240q66 33 170 61t191 27q180 0 254 -92q115 96 273 96t251 -92q92 -92 92 -242q0 -55 -12 -112l-543 -23q8 -154 87 -228t197 -73q118 0 244 51l33 -47q-143 -156 -348 -156z" />
    <glyph glyph-name="ccedilla" unicode="&#xe7;" horiz-adv-x="825" 
d="M477 -260q0 47 -31 92q-30 45 -30 76t20 67q-160 10 -268 126t-107 325q0 209 129 338t328 129q119 0 258 -55l-26 -287h-111l-41 219q-33 8 -63 8q-113 0 -185 -89t-72 -239t78 -233q78 -84 186 -84t216 53l37 -55q-119 -139 -293 -156q-8 -25 -8 -39q0 -25 75 -58
q29 -11 53 -42t23 -76q1 -82 -67 -143t-164 -98l-39 41q102 74 102 180z" />
    <glyph glyph-name="egrave" unicode="&#xe8;" horiz-adv-x="880" 
d="M551 1042l-59 -34q-225 260 -267 331q-33 57 51 111q86 49 121 -8q48 -88 123 -316zM469 803q-77 -1 -133 -75t-60 -185l340 20q6 31 7 60q0 80 -39 130t-115 50zM492 -27q-202 0 -316 123t-115 336q0 213 124 339t293 126t261 -92t92 -242q0 -55 -12 -112l-543 -7
q2 -162 81 -240t205 -77q126 0 243 51l31 -49q-142 -156 -344 -156z" />
    <glyph glyph-name="eacute" unicode="&#xe9;" horiz-adv-x="880" 
d="M440 1008l-59 34q113 328 154 400q35 59 120 6q84 -49 55 -103t-212 -272zM469 803q-77 -1 -133 -75t-60 -185l340 20q6 31 7 60q0 80 -39 130t-115 50zM492 -27q-202 0 -316 123t-115 336q0 213 124 339t293 126t261 -92t92 -242q0 -55 -12 -112l-543 -7q2 -162 81 -240
t205 -77q126 0 243 51l31 -49q-142 -156 -344 -156z" />
    <glyph glyph-name="ecircumflex" unicode="&#xea;" horiz-adv-x="880" 
d="M782 1036l-55 -30q-170 180 -256 278l-254 -278l-53 30q135 252 184 338q37 62 124 62t126 -62zM469 803q-77 -1 -133 -75t-60 -185l340 20q6 31 7 60q0 80 -39 130t-115 50zM492 -27q-202 0 -316 123t-115 336q0 213 124 339t293 126t261 -92t92 -242q0 -55 -12 -112
l-543 -7q2 -162 81 -240t205 -77q126 0 243 51l31 -49q-142 -156 -344 -156z" />
    <glyph glyph-name="edieresis" unicode="&#xeb;" horiz-adv-x="880" 
d="M799 1167q0 -51 -35 -84t-86 -33t-84 34q-33 32 -33 83t35 86t85 35t84 -35t34 -86zM418 1167q0 -51 -35 -84t-86 -33t-84 34q-33 32 -33 83t35 86t85 35t84 -35t34 -86zM469 803q-77 -1 -133 -75t-60 -185l340 20q6 31 7 60q0 80 -39 130t-115 50zM492 -27
q-202 0 -316 123t-115 336q0 213 124 339t293 126t261 -92t92 -242q0 -55 -12 -112l-543 -7q2 -162 81 -240t205 -77q126 0 243 51l31 -49q-142 -156 -344 -156z" />
    <glyph glyph-name="igrave" unicode="&#xec;" horiz-adv-x="563" 
d="M362 1042l-59 -34q-225 260 -262 324t47 118q86 49 121 -8q41 -74 123 -316zM532 0h-460v74l125 24v647h-136v89q183 47 243 47t80 -28t22 -87v-668l126 -24v-74z" />
    <glyph glyph-name="iacute" unicode="&#xed;" horiz-adv-x="563" 
d="M242 1008l-60 34q113 328 154 400q35 59 121 6q84 -49 54 -103t-212 -272zM532 0h-460v74l125 24v647h-136v89q183 47 243 47t80 -28t22 -87v-668l126 -24v-74z" />
    <glyph glyph-name="icircumflex" unicode="&#xee;" horiz-adv-x="563" 
d="M588 1036l-56 -30q-170 180 -256 278l-253 -278l-54 30q135 252 185 338q37 62 124 62t125 -62zM532 0h-460v74l125 24v647h-136v89q183 47 243 47t80 -28t22 -87v-668l126 -24v-74z" />
    <glyph glyph-name="idieresis" unicode="&#xef;" horiz-adv-x="563" 
d="M551 1167q0 -51 -35 -84t-86 -33t-84 34q-33 32 -33 83t35 86t85 35t84 -35t34 -86zM252 1167q0 -51 -35 -84t-86 -33t-84 34q-33 32 -33 83t35 86t85 35t84 -35t34 -86zM532 0h-460v74l125 24v645h-136v88q183 47 243 47t80 -27q20 -28 22 -87v-666l126 -24v-74z" />
    <glyph glyph-name="eth" unicode="&#xf0;" horiz-adv-x="1028" 
d="M524 82q197 0 197 367q0 174 -54 265t-153 91q-203 0 -203 -356q-1 -175 55 -271t158 -96zM512 -20q-204 0 -318 122q-112 122 -112 338q0 215 125 339t323 124q109 0 170 -61q-33 147 -151 293l-361 -113l-36 98l323 97q-90 86 -190 149l131 59q121 -68 213 -161l221 71
l41 -94l-189 -57q244 -314 244 -727q0 -209 -115 -343t-319 -134z" />
    <glyph glyph-name="ntilde" unicode="&#xf1;" horiz-adv-x="1091" 
d="M424 1163q-94 0 -145 -90l-52 27q17 96 77 158t134 62t176 -47q102 -48 146 -48q86 0 143 94l51 -25q-16 -100 -75 -162t-135 -62t-177 46q-102 47 -143 47zM1071 0h-436v74l108 24v398q1 110 -31 164t-106 55q-201 0 -200 -430v-187l110 -24v-74h-444v74l125 24v652
h-136v84q181 47 231 47t70 -27t21 -84v-166h14q31 137 110 210t189 73q254 0 254 -307v-482l121 -24v-74z" />
    <glyph glyph-name="ograve" unicode="&#xf2;" horiz-adv-x="993" 
d="M569 1042l-59 -34q-225 260 -262 324t47 118q86 49 118 -6t128 -318zM494 799q-98 0 -150 -91q-52 -90 -53 -264q1 -174 57 -271t153 -97t148 96t52 270t-54 266t-153 91zM485 -27q-199 0 -311 124t-113 338q0 214 125 338t325 124q201 0 311 -116q110 -115 110 -331
t-124 -346t-323 -131z" />
    <glyph glyph-name="oacute" unicode="&#xf3;" horiz-adv-x="993" 
d="M463 1008l-60 34q113 328 154 400q35 59 121 6q84 -49 54 -103t-212 -272zM494 799q-98 0 -150 -91q-52 -90 -53 -264q1 -174 57 -271t153 -97t148 96t52 270t-54 266t-153 91zM485 -27q-199 0 -311 124t-113 338q0 214 125 338t325 124q201 0 311 -116
q110 -115 110 -331t-124 -346t-323 -131z" />
    <glyph glyph-name="ocircumflex" unicode="&#xf4;" horiz-adv-x="993" 
d="M811 1036l-55 -30q-170 180 -256 278l-254 -278l-53 30q135 252 184 338q37 62 124 62t126 -62zM494 799q-98 0 -150 -91q-52 -90 -53 -264q1 -174 57 -271t153 -97t148 96t52 270t-54 266t-153 91zM485 -27q-199 0 -311 124t-113 338q0 214 125 338t325 124
q201 0 311 -116q110 -115 110 -331t-124 -346t-323 -131z" />
    <glyph glyph-name="otilde" unicode="&#xf5;" horiz-adv-x="993" 
d="M332 1163q-94 0 -146 -90l-51 27q17 96 77 158t134 62t176 -47q102 -48 146 -48q86 0 143 94l51 -25q-16 -100 -76 -162t-134 -62q-75 0 -177 46q-102 47 -143 47zM494 799q-98 0 -150 -91q-52 -90 -53 -264q1 -174 57 -271t153 -97t148 96t52 270t-54 266t-153 91z
M485 -27q-199 0 -311 124t-113 338q0 214 125 338t325 124q201 0 311 -116q110 -115 110 -331t-124 -346t-323 -131z" />
    <glyph glyph-name="odieresis" unicode="&#xf6;" horiz-adv-x="993" 
d="M805 1167q0 -51 -35 -84t-86 -33t-84 34q-33 32 -33 83t35 86t85 35t84 -35t34 -86zM424 1167q0 -51 -35 -84t-86 -33t-84 34q-33 32 -33 83t35 86t85 35t84 -35t34 -86zM494 799q-98 0 -150 -91q-52 -90 -53 -264q1 -174 57 -271t153 -97t148 96t52 270t-54 266t-153 91
zM485 -27q-199 0 -311 124t-113 338q0 214 125 338t325 124q201 0 311 -116q110 -115 110 -331t-124 -346t-323 -131z" />
    <glyph glyph-name="divide" unicode="&#xf7;" 
d="M897 393h-811v142h811v-142zM483 647q-47 0 -80 33t-32 80q0 47 32 79q33 31 80 31t79 -32t32 -78q0 -47 -32 -80t-79 -33zM483 57q-47 0 -80 33t-32 80q0 47 32 79q33 32 80 32t79 -32t32 -79t-32 -80t-79 -33z" />
    <glyph glyph-name="oslash" unicode="&#xf8;" horiz-adv-x="993" 
d="M494 805q-209 0 -209 -361q-1 -141 32 -227l295 543q-47 45 -118 45zM513 70q89 0 142 97t53 260t-40 255l-297 -553q53 -59 142 -59zM61 438q0 211 125 335t324 124q90 0 164 -25l100 170l86 -30l-106 -178q178 -111 178 -385q0 -215 -124 -345t-323 -131q-98 0 -184 33
l-90 -153l-86 30l100 168q-164 123 -164 387z" />
    <glyph glyph-name="ugrave" unicode="&#xf9;" horiz-adv-x="1032" 
d="M563 1042l-59 -34q-225 260 -262 324t47 118q86 49 121 -8q45 -83 122 -316zM698 106v144h-14q-28 -121 -106 -196t-181 -74q-137 0 -194 87t-58 265v405l-125 29v74q176 32 234 32t78 -27q20 -28 20 -87v-357q0 -137 26 -201t108 -65q82 0 139 117q55 117 55 334v151
l-125 29v74q176 33 229 32q102 0 103 -114v-643l135 -19v-76q-120 -36 -200 -36t-102 32t-22 90z" />
    <glyph glyph-name="uacute" unicode="&#xfa;" horiz-adv-x="1032" 
d="M457 1008l-60 34q113 328 154 400q35 59 121 6q84 -49 54 -103t-212 -272zM698 106v144h-14q-28 -121 -106 -196t-181 -74q-137 0 -194 87t-58 265v405l-125 29v74q176 32 234 32t78 -27q20 -28 20 -87v-357q0 -137 26 -201t108 -65q82 0 139 117q55 117 55 334v151
l-125 29v74q176 33 229 32q102 0 103 -114v-643l135 -19v-76q-120 -36 -200 -36t-102 32t-22 90z" />
    <glyph glyph-name="ucircumflex" unicode="&#xfb;" horiz-adv-x="1032" 
d="M801 1036l-56 -30q-170 180 -256 278l-253 -278l-54 30q135 252 185 338q37 62 124 62t125 -62zM698 106v144h-14q-28 -121 -106 -196t-181 -74q-137 0 -194 87t-58 265v405l-125 29v74q176 32 234 32t78 -27q20 -28 20 -87v-357q0 -137 26 -201t108 -65q82 0 139 117
q55 117 55 334v151l-125 29v74q176 33 229 32q102 0 103 -114v-643l135 -19v-76q-120 -36 -200 -36t-102 32t-22 90z" />
    <glyph glyph-name="udieresis" unicode="&#xfc;" horiz-adv-x="1032" 
d="M817 1167q0 -51 -35 -84t-86 -33t-84 34q-33 32 -32 83q0 51 34 86q35 35 85 35t84 -35t34 -86zM436 1167q0 -51 -35 -84t-86 -33t-84 34q-33 32 -32 83q0 51 34 86q35 35 85 35t84 -35t34 -86zM698 106v144h-14q-28 -121 -106 -196t-181 -74q-137 0 -194 87t-58 265v405
l-125 29v74q176 32 234 32t78 -27q20 -28 20 -87v-357q0 -137 26 -201t108 -65q82 0 139 117q55 117 55 334v151l-125 29v74q176 33 229 32q102 0 103 -114v-643l135 -19v-76q-120 -36 -200 -36t-102 32t-22 90z" />
    <glyph glyph-name="yacute" unicode="&#xfd;" horiz-adv-x="935" 
d="M453 1008l-60 34q113 328 154 400q35 59 121 6q84 -49 54 -103t-212 -272zM-23 858h443v-63l-103 -31l175 -522h10l178 516l-100 37v63h376v-63l-106 -41q-16 -48 -150 -372t-211 -458q-123 -217 -233 -309t-272 -92q-37 0 -74 6l20 260h113l35 -154q72 -10 160 113
t131 279l-283 727l-109 41v63z" />
    <glyph glyph-name="thorn" unicode="&#xfe;" horiz-adv-x="1024" 
d="M362 266v-131q76 -57 169 -57t151 100q57 100 57 248q0 291 -170 291q-95 0 -151 -114t-56 -337zM520 -483h-489v73l125 23v1661l-136 29v75q172 31 232 31t83 -28q22 -28 21 -87v-508l-16 -180h16q33 141 114 213t189 72q143 -1 223 -105t81 -266q0 -272 -120 -405
t-325 -133q-74 0 -158 18v-387l160 -23v-73z" />
    <glyph glyph-name="ydieresis" unicode="&#xff;" horiz-adv-x="935" 
d="M797 1167q0 -51 -35 -84t-86 -33t-84 34q-33 32 -33 83t35 86t85 35t84 -35t34 -86zM416 1167q0 -51 -35 -84t-86 -33t-84 34q-33 32 -33 83t35 86t85 35t84 -35t34 -86zM-23 858h443v-63l-103 -31l175 -522h10l178 516l-100 37v63h376v-63l-106 -41q-16 -48 -150 -372
t-211 -458q-123 -217 -233 -309t-272 -92q-37 0 -74 6l20 260h113l35 -154q72 -10 160 113t131 279l-283 727l-109 41v63z" />
    <glyph glyph-name="Amacron" unicode="&#x100;" horiz-adv-x="1335" 
d="M1008 1462h-666v125h666v-125zM809 545l-193 520l-182 -520h375zM1346 0h-527v84l152 22l-123 330h-453l-112 -325l153 -27v-84h-446v84l121 27l460 1206h179l473 -1211l123 -22v-84z" />
    <glyph glyph-name="amacron" unicode="&#x101;" horiz-adv-x="929" 
d="M754 1118h-584v125h584v-125zM557 338v72q-104 -6 -193 -56t-90 -131q0 -51 28 -80t75 -28q72 1 126 63t54 160zM801 119q31 0 76 61l53 -33q-33 -79 -87 -123t-122 -44t-110 47t-44 139h-14q-76 -186 -266 -186q-102 0 -159 59q-56 59 -56 145q0 223 322 284
q81 15 165 15v64q0 127 -39 181t-137 54q-51 0 -107 -16l-20 -201h-102l-62 240q66 33 170 61t191 27q161 0 235 -74t74 -217l-10 -381q0 -102 49 -102z" />
    <glyph glyph-name="Abreve" unicode="&#x102;" horiz-adv-x="1335" 
d="M680 1415q-119 0 -204 69t-87 202l64 10q55 -131 229 -131t227 131l66 -10q-2 -133 -89 -202t-206 -69zM809 545l-193 520l-182 -520h375zM1346 0h-527v84l152 22l-123 330h-453l-112 -325l153 -27v-84h-446v84l121 27l460 1206h179l473 -1211l123 -22v-84z" />
    <glyph glyph-name="abreve" unicode="&#x103;" horiz-adv-x="929" 
d="M476 1034q-120 0 -204 83t-75 226l65 11q16 -72 72 -115t142 -43q84 0 142 43t74 115l66 -11q8 -143 -77 -226t-205 -83zM557 338v72q-104 -6 -193 -56t-90 -131q0 -51 28 -80t75 -28q72 1 126 63t54 160zM801 119q31 0 76 61l53 -33q-33 -79 -87 -123t-122 -44t-110 47
t-44 139h-14q-76 -186 -266 -186q-102 0 -159 59q-56 59 -56 145q0 223 322 284q81 15 165 15v64q0 127 -39 181t-137 54q-51 0 -107 -16l-20 -201h-102l-62 240q66 33 170 61t191 27q161 0 235 -74t74 -217l-10 -381q0 -102 49 -102z" />
    <glyph glyph-name="Aogonek" unicode="&#x104;" horiz-adv-x="1335" 
d="M809 545l-193 520l-182 -520h375zM940 -294q0 89 59 169t148 125h-328v84l152 22l-123 330h-453l-112 -325l153 -27v-84h-446v84l121 27l460 1206h179l473 -1211l123 -22v-84h-115q-57 -45 -95 -114t-38 -126t32 -84t84 -27q50 0 105 25l27 -41q-106 -111 -232 -110
q-74 0 -124 47t-50 136z" />
    <glyph glyph-name="aogonek" unicode="&#x105;" horiz-adv-x="929" 
d="M557 338v72q-104 -6 -193 -56t-90 -131q0 -51 28 -80t75 -28q72 1 126 63t54 160zM686 -227q0 -51 31 -76q61 -49 176 -4l25 -39q-98 -102 -218 -103q-68 1 -116 45t-47 121q0 156 161 265q-125 16 -131 184h-14q-76 -186 -266 -186q-102 0 -159 59q-56 59 -56 145
q0 223 322 284q81 15 165 15v64q0 127 -39 181t-137 54q-51 0 -107 -16l-20 -201h-102l-62 240q66 33 170 61t191 27q161 0 235 -74t74 -217l-10 -381q0 -86 43 -101q25 -9 69 30l45 -60q-223 -164 -223 -317z" />
    <glyph glyph-name="Cacute" unicode="&#x106;" horiz-adv-x="1228" 
d="M682 1409l-35 59q252 231 326 277q59 33 108 -48t-6 -118q-83 -45 -311 -137zM82 644q0 310 200 500t525 189q188 0 332 -43l-19 -340h-116l-50 252q-59 14 -131 15q-223 0 -353 -151q-130 -150 -130 -400t116 -407t345 -157q67 1 143 17l84 237l119 -8l-17 -319
q-174 -55 -385 -56q-297 1 -480 181t-183 490z" />
    <glyph glyph-name="cacute" unicode="&#x107;" horiz-adv-x="825" 
d="M478 -27q-184 0 -300 118q-117 118 -117 331t129 342t328 129q119 0 258 -55l-26 -287h-111l-41 219q-33 8 -63 8q-113 0 -185 -89t-72 -239t78 -233q78 -84 187 -84t215 53l37 -55q-133 -158 -317 -158zM461 1008l-60 34q113 328 154 400q35 59 121 6q84 -49 54 -103
t-212 -272z" />
    <glyph glyph-name="Ccircumflex" unicode="&#x108;" horiz-adv-x="1228" 
d="M762 1741q64 0 108 -51q75 -80 170 -207l35 -45l-55 -49q-188 137 -275 202l-272 -202l-53 49q134 174 182 228t72 64q24 11 88 11zM82 644q0 310 200 500t525 189q188 0 332 -43l-19 -340h-116l-50 252q-59 14 -131 15q-223 0 -353 -151q-130 -150 -130 -400t116 -407
t345 -157q67 1 143 17l84 237l119 -8l-17 -319q-174 -55 -385 -56q-297 1 -480 181t-183 490z" />
    <glyph glyph-name="ccircumflex" unicode="&#x109;" horiz-adv-x="825" 
d="M478 -27q-184 0 -300 118q-117 118 -117 331t129 342t328 129q119 0 258 -55l-26 -287h-111l-41 219q-33 8 -63 8q-113 0 -185 -89t-72 -239t78 -233q78 -84 187 -84t215 53l37 -55q-133 -158 -317 -158zM799 1036l-56 -30q-170 180 -256 278l-254 -278l-53 30
q135 252 185 338q37 62 123 62t126 -62z" />
    <glyph glyph-name="Cdotaccent" unicode="&#x10a;" horiz-adv-x="1228" 
d="M82 644q0 310 200 500t525 189q188 0 332 -43l-19 -340h-116l-50 252q-59 14 -131 15q-223 0 -353 -151q-130 -150 -130 -400t116 -407t345 -157q67 1 143 17l84 237l119 -8l-17 -319q-174 -55 -385 -56q-297 1 -480 181t-183 490zM893 1584q0 -60 -40 -99t-101 -39
t-101 39q-39 39 -39 99t40 99t100 39t101 -39q40 -39 40 -99z" />
    <glyph glyph-name="cdotaccent" unicode="&#x10b;" horiz-adv-x="825" 
d="M475 1085q-59 0 -95 37q-36 38 -36 100t39 101t96 39t95 -39t38 -100t-39 -99t-98 -39zM478 -27q-184 0 -300 118q-117 118 -117 331t129 342t328 129q119 0 258 -55l-26 -287h-111l-41 219q-33 8 -63 8q-113 0 -185 -89t-72 -239t78 -233q78 -84 187 -84t215 53l37 -55
q-133 -158 -317 -158z" />
    <glyph glyph-name="Ccaron" unicode="&#x10c;" horiz-adv-x="1228" 
d="M754 1407q-66 0 -119 66l-184 219l63 53q156 -119 242 -180l239 180l62 -53q-186 -237 -240 -271q-25 -14 -63 -14zM82 644q0 310 200 500t525 189q188 0 332 -43l-19 -340h-116l-50 252q-59 14 -131 15q-223 0 -353 -151q-130 -150 -130 -400t116 -407t345 -157
q67 1 143 17l84 237l119 -8l-17 -319q-174 -55 -385 -56q-297 1 -480 181t-183 490z" />
    <glyph glyph-name="ccaron" unicode="&#x10d;" horiz-adv-x="825" 
d="M478 -27q-184 0 -300 118q-117 118 -117 331t129 342t328 129q119 0 258 -55l-26 -287h-111l-41 219q-33 8 -63 8q-113 0 -185 -89t-72 -239t78 -233q78 -84 187 -84t215 53l37 -55q-133 -158 -317 -158zM494 1026q-76 0 -117 68l-184 319l67 35q147 -166 234 -260
l235 260l64 -35q-131 -236 -185 -319q-38 -68 -114 -68z" />
    <glyph glyph-name="Dcaron" unicode="&#x10e;" horiz-adv-x="1380" 
d="M680 1407q-66 0 -119 66l-184 219l63 53q156 -119 242 -180l240 180l61 -53q-188 -240 -240 -271q-25 -14 -63 -14zM432 117h70q272 0 407 134t135 417q0 520 -514 520h-98v-1071zM535 0h-484v86l154 33v1063l-148 32v86h527q715 0 714 -622q0 -324 -202 -501t-561 -177z
" />
    <glyph glyph-name="dcaron" unicode="&#x10f;" horiz-adv-x="1021" 
d="M1018 1178q0 80 -45 92l-6 57q106 37 141 37q68 0 68 -104t-50 -196t-129 -151l-53 37q74 106 74 228zM657 588v133q-72 53 -155 53q-111 0 -167 -92t-56 -244q1 -152 41 -229q40 -78 114 -78q98 0 161 117q62 117 62 340zM670 106v138h-15q-86 -264 -293 -264
q-145 0 -225 112t-80 322t120 338t331 129q66 0 154 -13v406l-136 29v75q166 31 230 31t85 -28q22 -28 21 -87v-1179l135 -19v-76q-119 -37 -223 -36q-104 0 -104 122z" />
    <glyph glyph-name="Dcroat" unicode="&#x110;" horiz-adv-x="1380" 
d="M432 117h70q272 0 407 134t135 417q0 520 -514 520h-98v-451h373v-125h-373v-495zM535 0h-484v86l154 33v493h-150v125h150v445l-148 32v86h527q715 0 714 -622q0 -324 -202 -501t-561 -177z" />
    <glyph glyph-name="dcroat" unicode="&#x111;" horiz-adv-x="1007" 
d="M657 588v133q-72 53 -155 53q-111 0 -167 -92t-56 -242t43 -229q43 -80 112 -80q92 0 158 119q65 119 65 338zM670 106v138h-15q-86 -264 -293 -264q-139 0 -222 114t-83 322t120 336t331 129q66 0 154 -13v183h-343v108h343v115l-136 29v75q166 31 230 31t85 -28
q22 -28 21 -87v-135h135v-108h-135v-936l135 -19v-76q-119 -37 -223 -36q-104 0 -104 122z" />
    <glyph glyph-name="Emacron" unicode="&#x112;" horiz-adv-x="1101" 
d="M905 1462h-665v125h665v-125zM1030 0h-979v86l154 33v1063l-148 32v86h932v-319h-115l-53 207h-389v-455h291l41 135h96v-385h-96l-41 135h-291v-501h430l53 215h115v-332z" />
    <glyph glyph-name="emacron" unicode="&#x113;" horiz-adv-x="880" 
d="M776 1118h-583v125h583v-125zM469 803q-77 -1 -133 -75t-60 -185l340 20q6 31 7 60q0 80 -39 130t-115 50zM492 -27q-202 0 -316 123t-115 336q0 213 124 339t293 126t261 -92t92 -242q0 -55 -12 -112l-543 -7q2 -162 81 -240t205 -77q126 0 243 51l31 -49
q-142 -156 -344 -156z" />
    <glyph glyph-name="Ebreve" unicode="&#x114;" horiz-adv-x="1101" 
d="M578 1415q-118 0 -204 69q-85 69 -87 202l63 10q56 -131 230 -131t227 131l65 -10q-2 -133 -89 -202t-205 -69zM1030 0h-979v86l154 33v1063l-148 32v86h932v-319h-115l-53 207h-389v-455h291l41 135h96v-385h-96l-41 135h-291v-501h430l53 215h115v-332z" />
    <glyph glyph-name="ebreve" unicode="&#x115;" horiz-adv-x="880" 
d="M484 1034q-120 0 -204 83t-75 226l65 11q16 -72 72 -115t142 -43q85 0 143 43q57 43 73 115l66 -11q8 -143 -77 -226t-205 -83zM469 803q-77 -1 -133 -75t-60 -185l340 20q6 31 7 60q0 80 -39 130t-115 50zM492 -27q-202 0 -316 123t-115 336q0 213 124 339t293 126
t261 -92t92 -242q0 -55 -12 -112l-543 -7q2 -162 81 -240t205 -77q126 0 243 51l31 -49q-142 -156 -344 -156z" />
    <glyph glyph-name="Edotaccent" unicode="&#x116;" horiz-adv-x="1101" 
d="M570 1722q60 0 100 -39t41 -99q0 -60 -40 -99q-39 -39 -101 -39t-101 39t-39 99t40 99t100 39zM1030 0h-979v86l154 33v1063l-148 32v86h932v-319h-115l-53 207h-389v-455h291l41 135h96v-385h-96l-41 135h-291v-501h430l53 215h115v-332z" />
    <glyph glyph-name="edotaccent" unicode="&#x117;" horiz-adv-x="880" 
d="M465 1085q-59 0 -95 37q-36 38 -36 100t39 101t96 39t95 -39t38 -100t-39 -99t-98 -39zM469 803q-77 -1 -133 -75t-60 -185l340 20q6 31 7 60q0 80 -39 130t-115 50zM492 -27q-202 0 -316 123t-115 336q0 213 124 339t293 126t261 -92t92 -242q0 -55 -12 -112l-543 -7
q2 -162 81 -240t205 -77q126 0 243 51l31 -49q-142 -156 -344 -156z" />
    <glyph glyph-name="Eogonek" unicode="&#x118;" horiz-adv-x="1101" 
d="M625 -294q0 89 59 169t147 125h-780v86l154 33v1063l-148 32v86h932v-319h-115l-53 207h-389v-455h291l41 135h96v-385h-96l-41 135h-291v-501h430l53 215h115v-332h-115q-57 -45 -95 -114t-38 -126t33 -84t83 -27t106 25l26 -41q-106 -111 -231 -110q-74 0 -124 47
t-50 136z" />
    <glyph glyph-name="eogonek" unicode="&#x119;" horiz-adv-x="880" 
d="M475 803q-83 -1 -139 -75t-60 -185l340 20q16 104 -21 172q-38 68 -120 68zM393 -283q0 150 156 260q-41 -4 -62 -4q-197 0 -311 123t-115 336q0 213 124 339t307 126q182 0 276 -127t51 -319l-543 -7q2 -162 81 -240t205 -77q126 0 243 51l35 -61q-224 -148 -272 -241
q-26 -50 -25 -103q0 -101 110 -101q46 1 97 21l24 -39q-98 -102 -217 -103q-68 1 -116 45t-48 121z" />
    <glyph glyph-name="Ecaron" unicode="&#x11a;" horiz-adv-x="1101" 
d="M586 1407q-66 0 -119 66l-184 219l63 53q156 -119 242 -180l239 180l62 -53q-188 -240 -240 -271q-25 -14 -63 -14zM1030 0h-979v86l154 33v1063l-148 32v86h932v-319h-115l-53 207h-389v-455h291l41 135h96v-385h-96l-41 135h-291v-501h430l53 215h115v-332z" />
    <glyph glyph-name="ecaron" unicode="&#x11b;" horiz-adv-x="880" 
d="M481 1026q-76 0 -114 68l-185 319l68 35q147 -166 233 -260l236 260l63 -35q-131 -235 -178 -311t-123 -76zM469 803q-77 -1 -133 -75t-60 -185l340 20q6 31 7 60q0 80 -39 130t-115 50zM492 -27q-202 0 -316 123t-115 336q0 213 124 339t293 126t261 -92t92 -242
q0 -55 -12 -112l-543 -7q2 -162 81 -240t205 -77q126 0 243 51l31 -49q-142 -156 -344 -156z" />
    <glyph glyph-name="Gcircumflex" unicode="&#x11c;" horiz-adv-x="1378" 
d="M795 1741q63 0 102 -43q89 -98 176 -215l35 -45l-55 -49q-188 137 -275 202l-272 -202l-53 49q133 174 181 228t73 64q25 11 88 11zM827 586h490v-86l-90 -35v-404q-209 -90 -417 -90q-427 0 -611 291q-96 152 -97 367q0 315 204 510t540 194q195 0 393 -57l-14 -330
h-123l-49 248q-80 20 -183 20q-215 0 -362 -150q-148 -150 -148 -409q0 -260 124 -408t347 -149q80 0 166 25v330l-170 43v90z" />
    <glyph glyph-name="gcircumflex" unicode="&#x11d;" horiz-adv-x="960" 
d="M766 1036l-55 -30q-170 180 -256 278l-254 -278l-54 30q135 252 185 338q37 62 124 62t126 -62zM252 590q0 -102 48 -160t127 -59q79 0 122 58q43 57 43 159t-48 160t-126 57q-78 0 -122 -56q-44 -57 -44 -159zM451 -369q123 0 207 46q84 47 83 115q0 68 -74 95
q-75 27 -255 47q-72 11 -121 27q-107 -63 -107 -149t72 -134q72 -47 195 -47zM807 582q0 -122 -95 -200q-96 -79 -238 -94t-142 -79q0 -37 51 -54t199 -35t240 -74q91 -58 91 -181q-1 -158 -151 -250t-338 -92q-188 1 -301 65t-113 172q0 68 56 131t165 103q-68 45 -67 125
q0 49 41 98t110 76q-127 18 -203 95t-75 207q0 130 111 214q112 84 264 84t239 -43q187 15 310 35v-180q-33 29 -220 77q66 -78 66 -200z" />
    <glyph glyph-name="Gbreve" unicode="&#x11e;" horiz-adv-x="1378" 
d="M762 1415q-119 0 -204 69t-87 202l64 10q55 -131 229 -131t227 131l66 -10q-2 -133 -89 -202t-206 -69zM827 586h490v-86l-90 -35v-404q-209 -90 -417 -90q-427 0 -611 291q-96 152 -97 367q0 315 204 510t540 194q195 0 393 -57l-14 -330h-123l-49 248q-80 20 -183 20
q-215 0 -362 -150q-148 -150 -148 -409q0 -260 124 -408t347 -149q80 0 166 25v330l-170 43v90z" />
    <glyph glyph-name="gbreve" unicode="&#x11f;" horiz-adv-x="960" 
d="M458 1034q-120 0 -204 83t-76 226l66 11q16 -72 72 -115t142 -43t142 43q58 43 74 115l65 -11q7 -143 -77 -226t-204 -83zM252 590q0 -102 48 -160t127 -59q79 0 122 58q43 57 43 159t-48 160t-126 57q-78 0 -122 -56q-44 -57 -44 -159zM451 -369q123 0 207 46
q84 47 83 115q0 68 -74 95q-75 27 -255 47q-72 11 -121 27q-107 -63 -107 -149t72 -134q72 -47 195 -47zM807 582q0 -122 -95 -200q-96 -79 -238 -94t-142 -79q0 -37 51 -54t199 -35t240 -74q91 -58 91 -181q-1 -158 -151 -250t-338 -92q-188 1 -301 65t-113 172
q0 68 56 131t165 103q-68 45 -67 125q0 49 41 98t110 76q-127 18 -203 95t-75 207q0 130 111 214q112 84 264 84t239 -43q187 15 310 35v-180q-33 29 -220 77q66 -78 66 -200z" />
    <glyph glyph-name="Gdotaccent" unicode="&#x120;" horiz-adv-x="1378" 
d="M781 1722q61 0 101 -39t40 -99t-40 -99t-102 -39t-100 39q-39 39 -39 99t40 99t100 39zM827 586h490v-86l-90 -35v-404q-209 -90 -417 -90q-427 0 -611 291q-96 152 -97 367q0 315 204 510t540 194q195 0 393 -57l-14 -330h-123l-49 248q-80 20 -183 20q-215 0 -362 -150
q-148 -150 -148 -409q0 -260 124 -408t347 -149q80 0 166 25v330l-170 43v90z" />
    <glyph glyph-name="gdotaccent" unicode="&#x121;" horiz-adv-x="960" 
d="M446 1085q-59 0 -95 37q-36 38 -36 100t39 101q38 39 96 39t96 -39t38 -100t-39 -100q-40 -38 -99 -38zM252 590q0 -102 48 -160t127 -59q79 0 122 58q43 57 43 159t-48 160t-126 57q-78 0 -122 -56q-44 -57 -44 -159zM451 -369q123 0 207 46q84 47 83 115q0 68 -74 95
q-75 27 -255 47q-72 11 -121 27q-107 -63 -107 -149t72 -134q72 -47 195 -47zM807 582q0 -122 -95 -200q-96 -79 -238 -94t-142 -79q0 -37 51 -54t199 -35t240 -74q91 -58 91 -181q-1 -158 -151 -250t-338 -92q-188 1 -301 65t-113 172q0 68 56 131t165 103q-68 45 -67 125
q0 49 41 98t110 76q-127 18 -203 95t-75 207q0 130 111 214q112 84 264 84t239 -43q187 15 310 35v-180q-33 29 -220 77q66 -78 66 -200z" />
    <glyph glyph-name="uni0122" unicode="&#x122;" horiz-adv-x="1378" 
d="M889 -203q0 -191 -213 -338l-58 39q92 111 93 213q0 59 -60 72v55q72 59 148 60q90 0 90 -101zM827 586h490v-86l-90 -35v-404q-209 -90 -417 -90q-427 0 -611 291q-96 152 -97 367q0 315 204 510t540 194q195 0 393 -57l-14 -330h-123l-49 248q-80 20 -183 20
q-215 0 -362 -150q-148 -150 -148 -409q0 -260 124 -408t347 -149q80 0 166 25v330l-170 43v90z" />
    <glyph glyph-name="uni0123" unicode="&#x123;" horiz-adv-x="960" 
d="M252 590q0 -102 48 -160t127 -59q79 0 122 58q43 57 43 159t-48 160t-126 57q-78 0 -122 -56q-44 -57 -44 -159zM451 -369q123 0 207 46q84 47 83 115q0 68 -74 95q-75 27 -255 47q-72 11 -121 27q-107 -63 -107 -149t72 -134q72 -47 195 -47zM807 582q0 -122 -95 -200
q-96 -79 -238 -94t-142 -79q0 -37 51 -54t199 -35t240 -74q91 -58 91 -181q-1 -158 -151 -250t-338 -92q-188 1 -301 65t-113 172q0 68 56 131t165 103q-68 45 -67 125q0 49 41 98t110 76q-127 18 -203 95t-75 207q0 130 111 214q112 84 264 84t239 -43q187 15 310 35v-180
q-33 29 -220 77q66 -78 66 -200zM338 1145q0 96 58 183t155 147l57 -37q-94 -106 -94 -211q0 -70 55 -90v-58q-123 -29 -157 -29t-55 29q-19 29 -19 66z" />
    <glyph glyph-name="Hcircumflex" unicode="&#x124;" horiz-adv-x="1433" 
d="M740 1741q64 0 102 -43q89 -98 176 -215l35 -45l-56 -49q-188 137 -274 202l-272 -202l-54 49q133 174 181 228t74 64q24 11 88 11zM1382 0h-530v86l149 27v489h-569v-489l150 -27v-86h-531v86l154 27v1075l-148 26v86h518v-86l-143 -26v-453h569v453l-145 26v86h520v-86
l-147 -26v-1075l153 -27v-86z" />
    <glyph glyph-name="hcircumflex" unicode="&#x125;" horiz-adv-x="1040" 
d="M1020 0h-436v74l108 24v398q0 110 -32 164t-105 55q-201 0 -201 -430v-187l111 -24v-74h-440v74l125 24v1155l-136 29v76q172 31 232 31t83 -28q22 -28 21 -87v-488l-18 -182h16q31 137 109 210t188 73q254 0 254 -307v-482l121 -24v-74zM241 1724q81 0 126 -51l178 -215
l-53 -45q-164 106 -252 164l-248 -164l-58 45q106 135 179 215q47 51 128 51z" />
    <glyph glyph-name="Hbar" unicode="&#x126;" horiz-adv-x="1433" 
d="M1001 735v185h-569v-185h569zM1382 0h-530v86l149 27v489h-569v-489l150 -27v-86h-531v86l154 27v807h-148v110h148v158l-148 26v86h518v-86l-143 -26v-158h569v158l-145 26v86h520v-86l-147 -26v-158h147v-110h-147v-807l153 -27v-86z" />
    <glyph glyph-name="hbar" unicode="&#x127;" horiz-adv-x="1040" 
d="M1020 0h-436v74l108 24v398q0 110 -32 164t-105 55q-201 0 -201 -430v-187l111 -24v-74h-440v74l125 24v953h-103v108h103v115l-136 29v75q172 31 232 31t83 -28q22 -28 21 -87v-135h387v-108h-387v-265l-18 -182h16q31 137 109 210t188 73q254 0 254 -307v-482l121 -24
v-74z" />
    <glyph glyph-name="Itilde" unicode="&#x128;" horiz-adv-x="641" 
d="M198 1675q76 0 180 -48q103 -48 148 -48q91 0 152 94l53 -26q-17 -99 -79 -161t-138 -62t-180 46q-104 47 -150 48q-96 0 -151 -91l-53 25q18 98 80 160t138 63zM590 0h-539v86l154 27v1075l-148 26v86h527v-86l-146 -26v-1075l152 -27v-86z" />
    <glyph glyph-name="itilde" unicode="&#x129;" horiz-adv-x="563" 
d="M532 0h-460v74l125 24v647h-136v89q183 47 243 47t80 -28t22 -87v-668l126 -24v-74zM98 1169q-76 0 -123 -77l-47 24q14 96 72 156t120 59q64 0 156 -44t138 -44q74 0 123 86l47 -26q-14 -97 -72 -157t-116 -60q-60 0 -155 41q-95 42 -143 42z" />
    <glyph glyph-name="Imacron" unicode="&#x12a;" horiz-adv-x="641" 
d="M590 0h-539v86l154 27v1075l-148 26v86h527v-86l-146 -26v-1075l152 -27v-86zM594 1462h-520v125h520v-125z" />
    <glyph glyph-name="imacron" unicode="&#x12b;" horiz-adv-x="563" 
d="M498 1118h-465v125h465v-125zM532 0h-460v74l125 24v647h-136v89q183 47 243 47t80 -28t22 -87v-668l126 -24v-74z" />
    <glyph glyph-name="Ibreve" unicode="&#x12c;" horiz-adv-x="641" 
d="M336 1415q-119 0 -204 69t-87 202l64 10q55 -131 229 -131t227 131l66 -10q-2 -133 -89 -202t-206 -69zM590 0h-539v86l154 27v1075l-148 26v86h527v-86l-146 -26v-1075l152 -27v-86z" />
    <glyph glyph-name="ibreve" unicode="&#x12d;" horiz-adv-x="563" 
d="M292 1034q-120 0 -204 83t-76 226l66 11q16 -72 72 -115t142 -43q84 0 142 43t74 115l65 -11q7 -143 -77 -226t-204 -83zM532 0h-460v74l125 24v647h-136v89q183 47 243 47t80 -28t22 -87v-668l126 -24v-74z" />
    <glyph glyph-name="Iogonek" unicode="&#x12e;" horiz-adv-x="641" 
d="M203 -294q0 89 59 169t148 125h-359v86l154 27v1075l-148 26v86h527v-86l-146 -26v-1075l152 -27v-86h-96q-58 -45 -96 -114t-38 -126t33 -84t83 -27t106 25l26 -41q-106 -111 -231 -110q-74 0 -124 47t-50 136z" />
    <glyph glyph-name="iogonek" unicode="&#x12f;" horiz-adv-x="565" 
d="M416 1223q0 -61 -39 -99t-97 -39q-58 0 -95 37q-35 38 -35 100t38 101q40 39 96 39t94 -39t38 -100zM156 -278q0 82 54 158q54 75 140 120h-278v74l125 24v650h-136v88q175 45 241 45t86 -27t20 -86v-670l127 -24v-74h-109q-53 -41 -87 -104t-34 -121q0 -102 111 -103
q45 1 96 21l25 -39q-98 -102 -218 -103q-71 1 -117 45t-46 126z" />
    <glyph glyph-name="Idotaccent" unicode="&#x130;" horiz-adv-x="641" 
d="M320 1722q60 0 100 -39t41 -99q0 -60 -40 -99q-39 -39 -101 -39t-101 39t-39 99t40 99t100 39zM590 0h-539v86l154 27v1075l-148 26v86h527v-86l-146 -26v-1075l152 -27v-86z" />
    <glyph glyph-name="dotlessi" unicode="&#x131;" horiz-adv-x="563" 
d="M532 0h-460v74l125 24v647h-136v89q183 47 243 47t80 -28t22 -87v-668l126 -24v-74z" />
    <glyph glyph-name="Jcircumflex" unicode="&#x134;" horiz-adv-x="589" 
d="M340 1741q64 0 103 -43q83 -92 175 -215l35 -45l-55 -49q-188 137 -274 202l-273 -202l-53 49q134 174 182 228t72 64q24 11 88 11zM207 121v1067l-162 26v86h545v-86l-154 -26v-1020q0 -273 -107 -420q-53 -74 -107 -119t-136 -96l-86 78q102 109 154 227t53 283z" />
    <glyph glyph-name="jcircumflex" unicode="&#x135;" horiz-adv-x="507" 
d="M545 1036l-56 -30q-170 180 -256 278l-253 -278l-54 30q135 252 185 338q37 62 124 62t125 -62zM160 8v740h-135v88q175 45 241 45t85 -27t20 -86v-684q-1 -418 -316 -588l-75 78q88 84 134 178t46 256z" />
    <glyph glyph-name="uni0136" unicode="&#x136;" horiz-adv-x="1255" 
d="M629 -289q0 59 -60 72v55q72 59 148 60q90 0 90 -101q0 -191 -213 -338l-57 39q92 111 92 213zM571 0h-520v86l154 27v1075l-148 26v86h506v-86l-133 -26v-1075l141 -27v-86zM1090 -12q-146 0 -248 127q-101 127 -314 442l-71 105l444 518l-123 34v86h463v-86l-127 -45
l-424 -424q51 -82 178 -262q127 -179 158 -213q32 -34 56 -62t31 -35l27 -27t45 -39q33 -23 70 -29v-80q-91 -10 -165 -10z" />
    <glyph glyph-name="uni0137" unicode="&#x137;" horiz-adv-x="985" 
d="M469 0h-444v74l125 24v1176l-136 29v75q166 31 234 31t86 -28q20 -28 20 -87v-1196l115 -24v-74zM985 74v-72q-61 -12 -113 -12q-160 0 -262 133q-51 67 -131 187t-94 159q223 242 266 291l-82 33v65h396v-76l-119 -53l-275 -197q37 -82 279 -360q46 -54 74 -76t61 -22z
M500 -291q0 55 -56 68v53q70 57 140 57q86 0 86 -96q0 -186 -203 -323l-55 36q88 111 88 205z" />
    <glyph glyph-name="kgreenlandic" unicode="&#x138;" horiz-adv-x="1028" 
d="M1028 74v-72q-139 -27 -225 5q-85 32 -143 107q-58 76 -138 196t-94 159q223 242 266 291l-82 33v65h396v-76l-119 -53l-275 -197q37 -82 279 -360q45 -54 73 -76t62 -22zM512 0h-440v74l125 24v652h-136v84q183 47 239 47t76 -27t21 -84v-672l115 -24v-74z" />
    <glyph glyph-name="Lacute" unicode="&#x139;" horiz-adv-x="1067" 
d="M1016 0h-965v86l154 33v1069l-148 26v86h564v-86l-189 -26v-1061h408l53 244h123v-371zM311 1409l-35 59q252 231 326 277q58 33 108 -48t-5 -118q-80 -44 -312 -137z" />
    <glyph glyph-name="lacute" unicode="&#x13a;" horiz-adv-x="532" 
d="M109 1413l-35 60q252 231 325 276q59 33 109 -48t-6 -118q-88 -48 -312 -137zM500 0h-467v74l129 24v1123l-137 28v76q195 29 249 29t74 -28t21 -87v-1141l131 -24v-74z" />
    <glyph glyph-name="uni013B" unicode="&#x13b;" horiz-adv-x="1067" 
d="M502 -289q0 59 -60 72v55q72 59 148 60q90 0 90 -101q0 -191 -213 -338l-57 39q92 111 92 213zM1016 0h-965v86l154 33v1069l-148 26v86h564v-86l-189 -26v-1061h408l53 244h123v-371z" />
    <glyph glyph-name="uni013C" unicode="&#x13c;" horiz-adv-x="532" 
d="M502 0h-469v74l131 24v1176l-139 29v75q172 31 238 31q65 0 85 -28t21 -87v-1196l133 -24v-74zM246 -291q0 55 -56 68v53q70 57 140 57q86 0 86 -96q0 -186 -203 -323l-55 36q88 111 88 205z" />
    <glyph glyph-name="Lcaron" unicode="&#x13d;" horiz-adv-x="1067" 
d="M1016 0h-965v86l154 33v1069l-148 26v86h564v-86l-189 -26v-1061h408l53 244h123v-371zM811 1141q0 94 -55 110l-6 68q127 45 170 45q80 0 80 -125t-60 -235q-58 -110 -154 -181l-63 45q88 129 88 273z" />
    <glyph glyph-name="lcaron" unicode="&#x13e;" horiz-adv-x="548" 
d="M502 0h-469v74l131 24v1176l-139 29v75q172 31 238 31q65 0 85 -28t21 -87v-1196l133 -24v-74zM614 1364q68 0 68 -104t-49 -196t-129 -151l-53 37q74 106 73 228q0 80 -45 92l-6 57q106 37 141 37z" />
    <glyph glyph-name="Ldot" unicode="&#x13f;" horiz-adv-x="1067" 
d="M983 676q0 -62 -42 -104t-104 -42t-104 41q-41 41 -41 105t41 106q41 43 103 43t105 -43q42 -43 42 -106zM1016 0h-965v86l154 33v1069l-148 26v86h564v-86l-189 -26v-1061h408l53 244h123v-371z" />
    <glyph glyph-name="ldot" unicode="&#x140;" horiz-adv-x="731" 
d="M502 0h-469v74l131 24v1176l-139 29v75q172 31 238 31q65 0 85 -28t21 -87v-1196l133 -24v-74zM623 514q-57 0 -95 40q-37 40 -36 103q0 63 37 104q37 40 95 40t96 -40q38 -41 38 -103t-39 -103t-96 -41z" />
    <glyph glyph-name="Lslash" unicode="&#x141;" horiz-adv-x="1067" 
d="M1016 0h-965v86l154 33v391l-142 -72l-36 109l178 84v557l-148 26v86h564v-86l-189 -26v-449l371 185l37 -113l-408 -190v-494h408l53 244h123v-371z" />
    <glyph glyph-name="lslash" unicode="&#x142;" horiz-adv-x="561" 
d="M514 0h-469v74l131 24v426l-106 -67l-39 92l145 92v633l-139 29v75q173 31 239 31t85 -28t20 -87v-522l149 96l41 -90l-190 -123v-557l133 -24v-74z" />
    <glyph glyph-name="Nacute" unicode="&#x143;" horiz-adv-x="1396" 
d="M682 1409l-35 59q252 231 326 277q59 33 108 -48t-6 -118q-83 -45 -311 -137zM1231 -10h-113l-778 1022v-375q0 -395 8 -473l2 -37l166 -39v-88h-465v88l146 39q10 109 10 510v522l-152 60v81h252q70 0 102 -13t70 -62l621 -819v370q0 217 -8 361l-2 34l-168 41v88h464
v-88l-145 -41q-10 -109 -10 -395v-786z" />
    <glyph glyph-name="nacute" unicode="&#x144;" horiz-adv-x="1091" 
d="M1071 0h-436v74l108 24v398q1 110 -31 164t-106 55q-201 0 -200 -430v-187l110 -24v-74h-444v74l125 24v652h-136v84q181 47 231 47t70 -27t21 -84v-166h14q31 137 110 210t189 73q254 0 254 -307v-482l121 -24v-74zM545 1008l-60 34q113 328 154 400q35 59 121 6
q84 -49 54 -103t-212 -272z" />
    <glyph glyph-name="uni0145" unicode="&#x145;" horiz-adv-x="1396" 
d="M696 -289q0 59 -59 72v55q72 59 147 60q90 0 90 -101q1 -191 -212 -338l-58 39q92 111 92 213zM1231 -10h-113l-778 1022v-375q0 -395 8 -473l2 -37l166 -39v-88h-465v88l146 39q10 109 10 510v522l-152 60v81h252q70 0 102 -13t70 -62l621 -819v370q0 217 -8 361l-2 34
l-168 41v88h464v-88l-145 -41q-10 -109 -10 -395v-786z" />
    <glyph glyph-name="uni0146" unicode="&#x146;" horiz-adv-x="1091" 
d="M1071 0h-436v74l108 24v398q1 110 -31 164t-106 55q-201 0 -200 -430v-187l110 -24v-74h-444v74l125 24v652h-136v84q181 47 231 47t70 -27t21 -84v-166h14q31 137 110 210t189 73q254 0 254 -307v-482l121 -24v-74zM618 -113q86 0 87 -96q0 -186 -203 -323l-56 36
q88 111 89 205q0 55 -56 68v53q70 57 139 57z" />
    <glyph glyph-name="Ncaron" unicode="&#x147;" horiz-adv-x="1396" 
d="M750 1407q-66 0 -119 66l-185 219l64 53q156 -119 242 -180l239 180l62 -53q-186 -237 -240 -271q-25 -14 -63 -14zM1231 -10h-113l-778 1022v-375q0 -395 8 -473l2 -37l166 -39v-88h-465v88l146 39q10 109 10 510v522l-152 60v81h252q70 0 102 -13t70 -62l621 -819v370
q0 217 -8 361l-2 34l-168 41v88h464v-88l-145 -41q-10 -109 -10 -395v-786z" />
    <glyph glyph-name="ncaron" unicode="&#x148;" horiz-adv-x="1091" 
d="M1071 0h-436v74l108 24v398q1 110 -31 164t-106 55q-201 0 -200 -430v-187l110 -24v-74h-444v74l125 24v652h-136v84q181 47 231 47t70 -27t21 -84v-166h14q31 137 110 210t189 73q254 0 254 -307v-482l121 -24v-74zM571 1026q-76 0 -114 68l-185 319l68 35
q147 -166 233 -260l236 260l63 -35q-131 -235 -178 -311t-123 -76z" />
    <glyph glyph-name="Omacron" unicode="&#x14c;" horiz-adv-x="1435" 
d="M1063 1462h-666v125h666v-125zM338 664q0 -268 106 -424t280 -156q173 0 273 155q101 155 101 423t-104 413t-278 145t-276 -144t-102 -412zM707 -35q-285 1 -455 191t-170 510t183 495q183 176 471 176t453 -173t165 -493t-181 -513t-466 -193z" />
    <glyph glyph-name="omacron" unicode="&#x14d;" horiz-adv-x="993" 
d="M788 1118h-583v125h583v-125zM494 799q-98 0 -150 -91q-52 -90 -53 -264q1 -174 57 -271t153 -97t148 96t52 270t-54 266t-153 91zM485 -27q-199 0 -311 124t-113 338q0 214 125 338t325 124q201 0 311 -116q110 -115 110 -331t-124 -346t-323 -131z" />
    <glyph glyph-name="Obreve" unicode="&#x14e;" horiz-adv-x="1435" 
d="M733 1415q-119 0 -204 69t-87 202l64 10q56 -131 230 -131t227 131l65 -10q-2 -133 -89 -202t-206 -69zM338 664q0 -268 106 -424t280 -156q173 0 273 155q101 155 101 423t-104 413t-278 145t-276 -144t-102 -412zM707 -35q-285 1 -455 191t-170 510t183 495
q183 176 471 176t453 -173t165 -493t-181 -513t-466 -193z" />
    <glyph glyph-name="obreve" unicode="&#x14f;" horiz-adv-x="993" 
d="M496 1034q-120 0 -203 83q-84 83 -76 226l66 11q16 -72 72 -115q55 -43 141 -43t144 43t73 115l65 -11q8 -143 -77 -226t-205 -83zM494 799q-98 0 -150 -91q-52 -90 -53 -264q1 -174 57 -271t153 -97t148 96t52 270t-54 266t-153 91zM485 -27q-199 0 -311 124t-113 338
q0 214 125 338t325 124q201 0 311 -116q110 -115 110 -331t-124 -346t-323 -131z" />
    <glyph glyph-name="Ohungarumlaut" unicode="&#x150;" horiz-adv-x="1435" 
d="M891 1421l-43 43q170 242 207 275q47 47 110 -19q55 -63 9 -108q-25 -25 -220 -150zM573 1421l-43 43q170 242 205 275q49 45 109 -19t12 -108q-21 -21 -219 -150zM338 664q0 -268 106 -424t280 -156q173 0 273 155q101 155 101 423t-104 413t-278 145t-276 -144
t-102 -412zM707 -35q-285 1 -455 191t-170 510t183 495q183 176 471 176t453 -173t165 -493t-181 -513t-466 -193z" />
    <glyph glyph-name="ohungarumlaut" unicode="&#x151;" horiz-adv-x="993" 
d="M664 1012l-58 26q84 313 119 387q29 59 107 23t53 -100q-28 -58 -174 -269zM369 1012l-58 26q84 313 119 387q29 61 108 23t51 -97q-28 -60 -173 -272zM494 799q-98 0 -150 -91q-52 -90 -53 -264q1 -174 57 -271t153 -97t148 96t52 270t-54 266t-153 91zM485 -27
q-199 0 -311 124t-113 338q0 214 125 338t325 124q201 0 311 -116q110 -115 110 -331t-124 -346t-323 -131z" />
    <glyph glyph-name="OE" unicode="&#x152;" horiz-adv-x="1880" 
d="M981 117v1071h-133q-242 0 -375 -136t-133 -385t123 -400t364 -150h154zM1808 0h-1048q-307 0 -493 170q-185 170 -185 478t193 480q194 172 522 172h970v-319h-114l-54 207h-389v-455h291l39 135h96v-385h-96l-39 135h-291v-501h430l54 215h114v-332z" />
    <glyph glyph-name="oe" unicode="&#x153;" horiz-adv-x="1529" 
d="M494 799q-98 0 -150 -91q-52 -90 -53 -264q1 -174 57 -271t153 -97t148 96t52 270t-54 266t-153 91zM1123 803q-83 1 -139 -75t-60 -185l340 20q18 102 -20 171t-121 69zM1136 -27q-206 0 -323 136q-125 -135 -326 -135t-313 123q-112 124 -113 338q0 214 124 338
t329 124t317 -129q119 129 307 129t280 -127q93 -127 48 -319l-542 -7q2 -162 81 -240t205 -77q126 0 242 51l33 -49q-143 -156 -349 -156z" />
    <glyph glyph-name="Racute" unicode="&#x154;" horiz-adv-x="1234" 
d="M475 1409l-35 59q252 231 326 277q59 33 108 -48t-6 -118q-83 -45 -311 -137zM430 717h53q170 0 250 61t80 201q0 211 -299 211h-84v-473zM1094 -12q-196 0 -298 142t-225 480h-141v-497l148 -27v-86h-527v86l154 27v1069l-148 32v86h539q457 0 457 -313q0 -115 -74 -200
t-193 -132q193 -387 274 -479t175 -100v-76q-76 -12 -141 -12z" />
    <glyph glyph-name="racute" unicode="&#x155;" horiz-adv-x="741" 
d="M586 0h-514v74l131 24v654h-142v82q183 47 235 47t74 -26t21 -85v-227h15q12 145 80 242q69 97 184 98q20 0 61 -9l-37 -256q-55 10 -88 11q-104 0 -149 -89t-45 -304v-138l174 -24v-74zM397 1008l-59 34q113 328 154 400q35 59 120 6q84 -49 55 -103t-212 -272z" />
    <glyph glyph-name="uni0156" unicode="&#x156;" horiz-adv-x="1234" 
d="M803 -203q0 -191 -213 -338l-58 39q92 111 93 213q0 59 -60 72v55q72 59 148 60q90 0 90 -101zM430 717h53q170 0 250 61t80 201q0 211 -299 211h-84v-473zM1094 -12q-196 0 -298 142t-225 480h-141v-497l148 -27v-86h-527v86l154 27v1069l-148 32v86h539q457 0 457 -313
q0 -115 -74 -200t-193 -132q193 -387 274 -479t175 -100v-76q-76 -12 -141 -12z" />
    <glyph glyph-name="uni0157" unicode="&#x157;" horiz-adv-x="741" 
d="M586 0h-514v74l131 24v654h-142v82q183 47 235 47t74 -26t21 -85v-227h15q12 145 80 242q69 97 184 98q20 0 61 -9l-37 -256q-55 10 -88 11q-104 0 -149 -89t-45 -304v-138l174 -24v-74zM285 -291q0 55 -56 68v53q70 57 140 57q86 0 86 -96q0 -186 -203 -323l-55 36
q88 111 88 205z" />
    <glyph glyph-name="Rcaron" unicode="&#x158;" horiz-adv-x="1234" 
d="M588 1407q-66 0 -119 66l-184 219l63 53q156 -119 242 -180l239 180l62 -53q-188 -240 -240 -271q-25 -14 -63 -14zM430 717h53q170 0 250 61t80 201q0 211 -299 211h-84v-473zM1094 -12q-196 0 -298 142t-225 480h-141v-497l148 -27v-86h-527v86l154 27v1069l-148 32v86
h539q457 0 457 -313q0 -115 -74 -200t-193 -132q193 -387 274 -479t175 -100v-76q-76 -12 -141 -12z" />
    <glyph glyph-name="rcaron" unicode="&#x159;" horiz-adv-x="741" 
d="M586 0h-514v74l131 24v654h-142v82q183 47 235 47t74 -26t21 -85v-227h15q12 145 80 242q69 97 184 98q20 0 61 -9l-37 -256q-55 10 -88 11q-104 0 -149 -89t-45 -304v-138l174 -24v-74zM406 1026q-76 0 -115 68l-185 319l68 35q147 -166 234 -260l235 260l64 -35
q-131 -236 -185 -319q-40 -68 -116 -68z" />
    <glyph glyph-name="Sacute" unicode="&#x15a;" horiz-adv-x="1040" 
d="M481 1409l-35 59q252 231 326 277q58 33 108 -48t-6 -118q-83 -45 -311 -137zM461 90q115 0 189 53t75 153q0 100 -87 159t-230 122q-143 64 -233 149q-89 86 -89 246t132 262t324 101q192 0 378 -84l-23 -295h-125l-37 209q-84 57 -187 57t-168 -47q-65 -48 -65 -127
t54 -145q32 -41 138 -90q25 -12 91 -42q215 -98 288 -188t72 -216q0 -185 -140 -289t-351 -104t-406 100l31 317h123l41 -227q90 -74 205 -74z" />
    <glyph glyph-name="sacute" unicode="&#x15b;" horiz-adv-x="813" 
d="M381 1008l-59 34q113 328 153 400q35 59 121 6q84 -49 54 -103t-212 -272zM432 795q-68 0 -106 -29t-39 -80q0 -51 43 -82q44 -31 162 -77t184 -103t65 -162q-1 -135 -109 -209q-108 -73 -260 -73t-300 69l28 260h101l35 -180q63 -47 140 -47t123 31t46 77q-1 46 -17 62
q-36 36 -71 50q-35 15 -100 40q-200 77 -245 178q-22 47 -22 107q0 125 95 195t241 69q146 0 291 -64l-23 -231h-106l-29 166q-59 33 -127 33z" />
    <glyph glyph-name="Scircumflex" unicode="&#x15c;" horiz-adv-x="1040" 
d="M564 1741q64 0 102 -43q89 -98 176 -215l35 -45l-56 -49q-188 137 -274 202l-273 -202l-53 49q133 174 181 228t74 64q24 11 88 11zM461 90q115 0 189 53t75 153q0 100 -87 159t-230 122q-143 64 -233 149q-89 86 -89 246t132 262t324 101q192 0 378 -84l-23 -295h-125
l-37 209q-84 57 -187 57t-168 -47q-65 -48 -65 -127t54 -145q32 -41 138 -90q25 -12 91 -42q215 -98 288 -188t72 -216q0 -185 -140 -289t-351 -104t-406 100l31 317h123l41 -227q90 -74 205 -74z" />
    <glyph glyph-name="scircumflex" unicode="&#x15d;" horiz-adv-x="813" 
d="M721 1036l-55 -30q-170 180 -256 278l-254 -278l-54 30q135 252 185 338q37 62 124 62t126 -62zM432 795q-68 0 -106 -29t-39 -80q0 -51 43 -82q44 -31 162 -77t184 -103t65 -162q-1 -135 -109 -209q-108 -73 -260 -73t-300 69l28 260h101l35 -180q63 -47 140 -47t123 31
t46 77q-1 46 -17 62q-36 36 -71 50q-35 15 -100 40q-200 77 -245 178q-22 47 -22 107q0 125 95 195t241 69q146 0 291 -64l-23 -231h-106l-29 166q-59 33 -127 33z" />
    <glyph glyph-name="uni015E" unicode="&#x15e;" horiz-adv-x="1040" 
d="M463 -97q0 34 20 70h-16q-211 0 -406 101l31 317h123l41 -227q90 -74 205 -74t189 53t75 153q0 100 -87 159t-230 122q-143 64 -233 149q-89 86 -89 246t132 262t324 101q192 0 378 -84l-23 -295h-125l-37 209q-84 57 -187 57t-168 -47q-65 -48 -65 -127t54 -145
q32 -41 138 -90q25 -12 91 -42q215 -98 288 -188t72 -216q0 -166 -111 -267q-112 -100 -290 -120q-12 -22 -12 -44q0 -34 82 -69q31 -12 57 -44t25 -81q0 -88 -73 -156t-177 -104l-41 43q111 84 110 194q0 51 -32 101t-33 83z" />
    <glyph glyph-name="uni015F" unicode="&#x15f;" horiz-adv-x="813" 
d="M356 -89q0 34 23 69h-6q-154 0 -301 69l28 260h101l35 -180q63 -47 140 -47t123 31t46 77q-1 46 -17 62q-36 36 -71 50q-35 15 -100 40q-200 77 -245 178q-22 47 -22 107q0 125 95 195t241 69q146 0 291 -64l-23 -231h-106l-29 166q-59 33 -127 33t-106 -29t-39 -80
q0 -51 43 -82q44 -31 162 -77t184 -103t66 -169q0 -113 -85 -183q-84 -70 -211 -86q-12 -29 -12 -47q0 -28 76 -61q28 -11 52 -42t24 -76q0 -82 -68 -143t-164 -98l-39 41q102 74 103 180q0 47 -31 92t-31 79z" />
    <glyph glyph-name="Scaron" unicode="&#x160;" horiz-adv-x="1040" 
d="M557 1407q-66 0 -119 66l-184 219l63 53q156 -119 242 -180l240 180l61 -53q-187 -239 -239 -271q-25 -14 -64 -14zM461 90q115 0 189 53t75 153q0 100 -87 159t-230 122q-143 64 -233 149q-89 86 -89 246t132 262t324 101q192 0 378 -84l-23 -295h-125l-37 209
q-84 57 -187 57t-168 -47q-65 -48 -65 -127t54 -145q32 -41 138 -90q25 -12 91 -42q215 -98 288 -188t72 -216q0 -185 -140 -289t-351 -104t-406 100l31 317h123l41 -227q90 -74 205 -74z" />
    <glyph glyph-name="scaron" unicode="&#x161;" horiz-adv-x="813" 
d="M416 1026q-76 0 -117 68l-184 319l67 35q147 -166 234 -260l235 260l64 -35q-131 -236 -185 -319q-38 -68 -114 -68zM432 795q-68 0 -106 -29t-39 -80q0 -51 43 -82q44 -31 162 -77t184 -103t65 -162q-1 -135 -109 -209q-108 -73 -260 -73t-300 69l28 260h101l35 -180
q63 -47 140 -47t123 31t46 77q-1 46 -17 62q-36 36 -71 50q-35 15 -100 40q-200 77 -245 178q-22 47 -22 107q0 125 95 195t241 69q146 0 291 -64l-23 -231h-106l-29 166q-59 33 -127 33z" />
    <glyph glyph-name="uni0162" unicode="&#x162;" horiz-adv-x="1114" 
d="M514 -289q0 59 -59 72v55q72 59 147 60q90 0 90 -101q0 -191 -213 -338l-57 39q92 111 92 213zM879 0h-643v86l204 41v1059h-274l-49 -234h-117v348h1114v-348h-119l-49 234h-272v-1059l205 -41v-86z" />
    <glyph glyph-name="uni0163" unicode="&#x163;" horiz-adv-x="649" 
d="M390 -20q-146 0 -196 78t-51 241q0 285 9 440h-142v92l119 37l127 271h98v-281h269v-119h-269v-381q0 -137 26 -189q47 -94 261 -22l29 -65q-134 -102 -280 -102zM330 -291q0 55 -56 68v53q70 57 140 57q86 0 86 -96q0 -186 -203 -323l-55 36q88 111 88 205z" />
    <glyph glyph-name="Tcaron" unicode="&#x164;" horiz-adv-x="1114" 
d="M879 0h-643v86l204 41v1059h-274l-49 -234h-117v348h1114v-348h-119l-49 234h-272v-1059l205 -41v-86zM578 1407q-66 0 -119 66l-185 219l64 53q156 -119 242 -180l239 180l62 -53q-186 -237 -240 -271q-25 -14 -63 -14z" />
    <glyph glyph-name="tcaron" unicode="&#x165;" horiz-adv-x="649" 
d="M390 -20q-146 0 -196 78t-51 241q0 285 9 440h-142v92l119 37l127 271h98v-281h269v-119h-269v-381q0 -137 26 -189q47 -94 261 -22l29 -65q-134 -102 -280 -102zM510 1178q0 80 -45 92l-6 57q106 37 141 37q68 0 68 -104t-50 -196t-129 -151l-53 37q74 106 74 228z" />
    <glyph glyph-name="Tbar" unicode="&#x166;" horiz-adv-x="1114" 
d="M879 0h-643v86l204 41v434h-252v117h252v508h-274l-49 -234h-117v348h1114v-348h-119l-49 234h-272v-508h256v-117h-256v-434l205 -41v-86z" />
    <glyph glyph-name="tbar" unicode="&#x167;" horiz-adv-x="649" 
d="M390 -20q-146 0 -195 78t-50 241v186h-135v103h135v151h-135v92l119 37l127 271h98v-281h269v-119h-269v-151h269v-103h-269v-127q0 -137 26 -189q47 -94 261 -22l29 -65q-134 -102 -280 -102z" />
    <glyph glyph-name="Utilde" unicode="&#x168;" horiz-adv-x="1288" 
d="M565 1675q76 0 179 -48t149 -48q90 0 151 94l54 -26q-18 -99 -80 -161t-138 -62t-180 46q-104 47 -149 48q-96 0 -152 -91l-53 25q18 98 80 160t139 63zM1159 504q0 -541 -518 -541q-258 0 -382 129t-124 406l2 690l-133 26v86h528v-86l-155 -26q-2 0 -2 -694
q0 -176 75 -282t242 -108q317 0 318 390l-15 682l-153 38v86h456v-86l-133 -38q-6 -340 -6 -672z" />
    <glyph glyph-name="utilde" unicode="&#x169;" horiz-adv-x="1032" 
d="M352 1163q-94 0 -145 -90l-51 27q16 96 76 158t134 62t177 -47q102 -48 145 -48q86 0 143 94l52 -25q-15 -100 -75 -162t-135 -62t-177 46q-102 47 -144 47zM698 106v144h-14q-28 -121 -106 -196t-181 -74q-137 0 -194 87t-58 265v405l-125 29v74q176 32 234 32t78 -27
q20 -28 20 -87v-357q0 -137 26 -201t108 -65q82 0 139 117q55 117 55 334v151l-125 29v74q176 33 229 32q102 0 103 -114v-643l135 -19v-76q-120 -36 -200 -36t-102 32t-22 90z" />
    <glyph glyph-name="Umacron" unicode="&#x16a;" horiz-adv-x="1288" 
d="M1022 1462h-666v125h666v-125zM1159 504q0 -541 -518 -541q-258 0 -382 129t-124 406l2 690l-133 26v86h528v-86l-155 -26q-2 0 -2 -694q0 -176 75 -282t242 -108q317 0 318 390l-15 682l-153 38v86h456v-86l-133 -38q-6 -340 -6 -672z" />
    <glyph glyph-name="umacron" unicode="&#x16b;" horiz-adv-x="1032" 
d="M784 1118h-583v125h583v-125zM698 106v144h-14q-28 -121 -106 -196t-181 -74q-137 0 -194 87t-58 265v405l-125 29v74q176 32 234 32t78 -27q20 -28 20 -87v-357q0 -137 26 -201t108 -65q82 0 139 117q55 117 55 334v151l-125 29v74q176 33 229 32q102 0 103 -114v-643
l135 -19v-76q-120 -36 -200 -36t-102 32t-22 90z" />
    <glyph glyph-name="Ubreve" unicode="&#x16c;" horiz-adv-x="1288" 
d="M694 1415q-119 0 -204 69t-87 202l64 10q55 -131 229 -131t228 131l65 -10q-2 -133 -89 -202t-206 -69zM1159 504q0 -541 -518 -541q-258 0 -382 129t-124 406l2 690l-133 26v86h528v-86l-155 -26q-2 0 -2 -694q0 -176 75 -282t242 -108q317 0 318 390l-15 682l-153 38
v86h456v-86l-133 -38q-6 -340 -6 -672z" />
    <glyph glyph-name="ubreve" unicode="&#x16d;" horiz-adv-x="1032" 
d="M505 1034q-120 0 -204 83t-76 226l66 11q17 -72 73 -115t141 -43t143 43t73 115l65 -11q8 -143 -76 -226t-205 -83zM698 106v144h-14q-28 -121 -106 -196t-181 -74q-137 0 -194 87t-58 265v405l-125 29v74q176 32 234 32t78 -27q20 -28 20 -87v-357q0 -137 26 -201
t108 -65q82 0 139 117q55 117 55 334v151l-125 29v74q176 33 229 32q102 0 103 -114v-643l135 -19v-76q-120 -36 -200 -36t-102 32t-22 90z" />
    <glyph glyph-name="Uring" unicode="&#x16e;" horiz-adv-x="1288" 
d="M645 1464q47 0 76 30t29 83t-29 82t-76 29t-77 -29t-30 -82t30 -83t77 -30zM881 1577q0 -92 -68 -142q-68 -51 -169 -51t-169 50t-67 143q0 92 67 142q68 50 169 50t169 -50t68 -142zM1159 504q0 -541 -518 -541q-258 0 -382 129t-124 406l2 690l-133 26v86h528v-86
l-155 -26q-2 0 -2 -694q0 -176 75 -282t242 -108q317 0 318 390l-15 682l-153 38v86h456v-86l-133 -38q-6 -340 -6 -672z" />
    <glyph glyph-name="uring" unicode="&#x16f;" horiz-adv-x="1032" 
d="M495 1112q45 0 73 36t28 93t-28 92t-74 35t-73 -35q-28 -35 -28 -92t28 -93t74 -36zM719 1240q1 -93 -63 -147q-64 -55 -161 -55t-161 54t-64 148q0 92 64 148t160 56q98 0 162 -56t63 -148zM698 106v144h-14q-28 -121 -106 -196t-181 -74q-137 0 -194 87t-58 265v405
l-125 29v74q176 32 234 32t78 -27q20 -28 20 -87v-357q0 -137 26 -201t108 -65q82 0 139 117q55 117 55 334v151l-125 29v74q176 33 229 32q102 0 103 -114v-643l135 -19v-76q-120 -36 -200 -36t-102 32t-22 90z" />
    <glyph glyph-name="Uhungarumlaut" unicode="&#x170;" horiz-adv-x="1288" 
d="M858 1421l-43 43q170 242 207 275q47 47 111 -19q55 -63 8 -108q-21 -21 -219 -150zM541 1421l-43 43q170 242 204 275q48 45 108 -19t13 -108q-21 -21 -219 -150zM1159 504q0 -541 -518 -541q-258 0 -382 129t-124 406l2 690l-133 26v86h528v-86l-155 -26q-2 0 -2 -694
q0 -176 75 -282t242 -108q317 0 318 390l-15 682l-153 38v86h456v-86l-133 -38q-6 -340 -6 -672z" />
    <glyph glyph-name="uhungarumlaut" unicode="&#x171;" horiz-adv-x="1032" 
d="M674 1012l-58 26q84 313 119 387q29 59 108 23t51 -97q-28 -60 -173 -272zM379 1012l-57 26q84 313 118 387q29 61 108 23t51 -97q-28 -60 -173 -272zM698 106v144h-14q-28 -121 -106 -196t-181 -74q-137 0 -194 87t-58 265v405l-125 29v74q176 32 234 32t78 -27
q20 -28 20 -87v-357q0 -137 26 -201t108 -65q82 0 139 117q55 117 55 334v151l-125 29v74q176 33 229 32q102 0 103 -114v-643l135 -19v-76q-120 -36 -200 -36t-102 32t-22 90z" />
    <glyph glyph-name="Uogonek" unicode="&#x172;" horiz-adv-x="1288" 
d="M549 -299q0 147 151 264q-289 -16 -427 114t-138 419l2 690l-133 26v86h528v-86l-155 -26q-2 -514 -2 -691t76 -285t241 -108q317 0 318 390l-15 682l-153 38v86h456v-86l-133 -38q-6 -340 -6 -672q0 -440 -340 -522q-113 -109 -112 -224q1 -55 33 -82t82 -27t106 25
l26 -41q-106 -111 -231 -110q-74 0 -124 48t-50 130z" />
    <glyph glyph-name="uogonek" unicode="&#x173;" horiz-adv-x="1032" 
d="M672 -282q0 78 46 149q46 72 124 121q-16 -4 -58 -4q-86 0 -86 122v144h-14q-28 -121 -106 -196t-181 -74q-137 0 -194 87t-58 265v405l-125 29v74q176 32 234 32t78 -27q20 -28 20 -87v-357q0 -137 26 -201t108 -65q82 0 139 117q55 117 55 334v151l-125 29v74
q176 33 229 32q102 0 103 -114v-643l135 -19v-76q-82 -16 -141 -92t-60 -153q0 -102 111 -103q45 1 96 21l25 -39q-98 -102 -217 -103q-68 1 -116 45t-48 122z" />
    <glyph glyph-name="Wcircumflex" unicode="&#x174;" horiz-adv-x="1847" 
d="M967 1741q63 0 102 -43q89 -98 176 -215l35 -45l-55 -49q-188 137 -275 202l-272 -202l-53 49q133 174 181 228t73 64q25 11 88 11zM0 1300h539v-77l-177 -43l211 -916l283 1036h221l271 -1038l215 912l-166 51v75h450v-75l-118 -54l-332 -1187h-183l-290 1069
l-301 -1069h-191l-319 1202l-113 39v75z" />
    <glyph glyph-name="wcircumflex" unicode="&#x175;" horiz-adv-x="1421" 
d="M-20 858h440v-63l-115 -31l127 -576h10l213 670h189l180 -670h10l140 568l-115 39v63h383v-63l-107 -52l-245 -749h-187l-192 651l-217 -651h-187l-223 760l-104 41v63zM1036 1036l-55 -30q-170 180 -256 278l-254 -278l-53 30q135 252 184 338q37 62 124 62t126 -62z
" />
    <glyph glyph-name="Ycircumflex" unicode="&#x176;" horiz-adv-x="1210" 
d="M633 1741q63 0 102 -43q89 -98 176 -215l35 -45l-55 -49q-188 137 -275 202l-272 -202l-53 49q133 174 181 228t74 64q24 11 87 11zM874 0h-559v84l160 27v409l-362 666l-113 39v75h526v-81l-153 -39l278 -521l269 515l-140 51v75h430v-75l-118 -54l-375 -651v-409
l157 -27v-84z" />
    <glyph glyph-name="ycircumflex" unicode="&#x177;" horiz-adv-x="935" 
d="M803 1036l-55 -30q-170 180 -256 278l-254 -278l-54 30q135 252 185 338q37 62 124 62t125 -62zM-23 858h443v-63l-103 -31l175 -522h10l178 516l-100 37v63h376v-63l-106 -41q-16 -48 -150 -372t-211 -458q-123 -217 -233 -309t-272 -92q-37 0 -74 6l20 260h113l35 -154
q72 -10 160 113t131 279l-283 727l-109 41v63z" />
    <glyph glyph-name="Ydieresis" unicode="&#x178;" horiz-adv-x="1210" 
d="M944 1577q0 -53 -38 -89t-92 -36t-89 36t-35 89t37 90t90 37t90 -37t37 -90zM537 1577q0 -53 -37 -89t-92 -36t-91 36q-35 36 -34 89q0 53 36 90q37 37 91 37t91 -37q36 -37 36 -90zM874 0h-559v84l160 27v409l-362 666l-113 39v75h526v-81l-153 -39l278 -521l269 515
l-140 51v75h430v-75l-118 -54l-375 -651v-409l157 -27v-84z" />
    <glyph glyph-name="Zacute" unicode="&#x179;" horiz-adv-x="1110" 
d="M481 1409l-35 59q252 231 326 277q58 33 108 -48t-6 -118q-83 -45 -311 -137zM1016 0h-975v125l707 1057h-490l-55 -232h-117v350h932v-120l-701 -1053h525l53 231h121v-358z" />
    <glyph glyph-name="zacute" unicode="&#x17a;" horiz-adv-x="813" 
d="M399 1008l-59 34q113 328 154 400q35 59 120 6q84 -49 55 -103t-212 -272zM41 0v96q0 70 59 137l441 517h-328l-27 -162h-110l-19 270h703v-100q0 -70 -60 -137l-434 -504h350l35 174h105l16 -291h-731z" />
    <glyph glyph-name="Zdotaccent" unicode="&#x17b;" horiz-adv-x="1110" 
d="M725 1584q0 -60 -40 -99t-101 -39t-101 39q-39 39 -39 99t40 99t100 39t101 -39q40 -39 40 -99zM1016 0h-975v125l707 1057h-490l-55 -232h-117v350h932v-120l-701 -1053h525l53 231h121v-358z" />
    <glyph glyph-name="zdotaccent" unicode="&#x17c;" horiz-adv-x="813" 
d="M424 1085q-59 0 -95 37q-36 38 -36 100t39 101t96 39t95 -39t38 -100t-39 -99t-98 -39zM41 0v96q0 70 59 137l441 517h-328l-27 -162h-110l-19 270h703v-100q0 -70 -60 -137l-434 -504h350l35 174h105l16 -291h-731z" />
    <glyph glyph-name="Zcaron" unicode="&#x17d;" horiz-adv-x="1110" 
d="M606 1407q-66 0 -119 66l-184 219l64 53q156 -119 241 -180l240 180l61 -53q-187 -239 -239 -271q-25 -14 -64 -14zM1016 0h-975v125l707 1057h-490l-55 -232h-117v350h932v-120l-701 -1053h525l53 231h121v-358z" />
    <glyph glyph-name="zcaron" unicode="&#x17e;" horiz-adv-x="813" 
d="M432 1026q-76 0 -115 68l-184 319l68 35q147 -166 233 -260l236 260l63 -35q-131 -235 -178 -311t-123 -76zM41 0v96q0 70 59 137l441 517h-328l-27 -162h-110l-19 270h703v-100q0 -70 -60 -137l-434 -504h350l35 174h105l16 -291h-731z" />
    <glyph glyph-name="uni018F" unicode="&#x18f;" horiz-adv-x="1306" 
d="M324 477q0 -165 84 -279t238 -114t239 126q84 126 94 361l-649 -14q-6 -41 -6 -80zM621 1337q268 0 436 -181q168 -180 168 -498t-172 -505t-421 -187t-404 165q-155 166 -154 410q0 77 18 159h885q-6 228 -124 348t-299 120t-364 -103l-53 84q101 90 233 139t251 49z
" />
    <glyph glyph-name="uni019F" unicode="&#x19f;" horiz-adv-x="1435" 
d="M717 1221q-165 0 -265 -125t-114 -363h760q-14 236 -116 362t-265 126zM724 84q164 0 264 139t110 387h-762q10 -246 116 -386t272 -140zM707 -35q-285 1 -455 191t-170 510t183 495q183 176 471 176t453 -173t165 -493t-181 -513t-466 -193z" />
    <glyph glyph-name="uni0218" unicode="&#x218;" horiz-adv-x="1040" 
d="M465 -289q0 59 -59 72v55q72 59 147 60q90 0 90 -101q0 -191 -213 -338l-57 39q92 111 92 213zM461 90q115 0 189 53t75 153q0 100 -87 159t-230 122q-143 64 -233 149q-89 86 -89 246t132 262t324 101q192 0 378 -84l-23 -295h-125l-37 209q-84 57 -187 57t-168 -47
q-65 -48 -65 -127t54 -145q32 -41 138 -90q25 -12 91 -42q215 -98 288 -188t72 -216q0 -185 -140 -289t-351 -104t-406 100l31 317h123l41 -227q90 -74 205 -74z" />
    <glyph glyph-name="uni0219" unicode="&#x219;" horiz-adv-x="813" 
d="M369 -291q0 55 -56 68v53q70 57 140 57q86 0 86 -96q0 -186 -203 -323l-55 36q88 111 88 205zM432 795q-68 0 -106 -29t-39 -80q0 -51 43 -82q44 -31 162 -77t184 -103t65 -162q-1 -135 -109 -209q-108 -73 -260 -73t-300 69l28 260h101l35 -180q63 -47 140 -47t123 31
t46 77q-1 46 -17 62q-36 36 -71 50q-35 15 -100 40q-200 77 -245 178q-22 47 -22 107q0 125 95 195t241 69q146 0 291 -64l-23 -231h-106l-29 166q-59 33 -127 33z" />
    <glyph glyph-name="uni021A" unicode="&#x21a;" horiz-adv-x="1114" 
d="M514 -289q0 59 -59 72v55q72 59 147 60q90 0 90 -101q0 -191 -213 -338l-57 39q92 111 92 213zM879 0h-643v86l204 41v1059h-274l-49 -234h-117v348h1114v-348h-119l-49 234h-272v-1059l205 -41v-86z" />
    <glyph glyph-name="uni021B" unicode="&#x21b;" horiz-adv-x="649" 
d="M390 -20q-146 0 -196 78t-51 241q0 285 9 440h-142v92l119 37l127 271h98v-281h269v-119h-269v-381q0 -137 26 -189q47 -94 261 -22l29 -65q-134 -102 -280 -102zM330 -291q0 55 -56 68v53q70 57 140 57q86 0 86 -96q0 -186 -203 -323l-55 36q88 111 88 205z" />
    <glyph glyph-name="uni0259" unicode="&#x259;" horiz-adv-x="897" 
d="M262 291q0 -93 45 -155t126 -62t135 80t53 206l-355 -14q-4 -37 -4 -55zM404 897q202 0 318 -123q114 -123 114 -336t-121 -339t-292 -126q-171 1 -271 107t-101 268q0 56 12 111h555q-20 285 -299 284q-111 0 -227 -51l-31 49q141 156 343 156z" />
    <glyph glyph-name="uni0275" unicode="&#x275;" horiz-adv-x="993" 
d="M504 76q185 0 203 315h-422q10 -151 66 -233t153 -82zM285 485h422q-5 152 -61 233t-152 81q-197 -1 -209 -314zM485 -27q-199 0 -311 124t-113 338q0 214 125 338t325 124q201 0 311 -116q110 -115 110 -331t-124 -346t-323 -131z" />
    <glyph glyph-name="circumflex" unicode="&#x2c6;" horiz-adv-x="946" 
d="M782 1036l-55 -30q-170 180 -256 278l-254 -278l-53 30q135 252 184 338q37 62 124 62t126 -62z" />
    <glyph glyph-name="caron" unicode="&#x2c7;" horiz-adv-x="956" 
d="M477 1026q-76 0 -115 68l-184 319l68 35q147 -166 233 -260l236 260l63 -35q-131 -235 -178 -311t-123 -76z" />
    <glyph glyph-name="breve" unicode="&#x2d8;" horiz-adv-x="892" 
d="M445 1034q-119 0 -203 83t-76 226l65 11q17 -72 73 -115t141 -43t143 43t74 115l65 -11q8 -143 -77 -226t-205 -83z" />
    <glyph glyph-name="dotaccent" unicode="&#x2d9;" horiz-adv-x="595" 
d="M295 1085q-59 0 -95 37q-36 38 -36 100t39 101t96 39t95 -39t38 -100t-39 -99t-98 -39z" />
    <glyph glyph-name="ring" unicode="&#x2da;" horiz-adv-x="763" 
d="M382 1112q46 0 74 36t27 93q0 57 -27 92q-28 35 -74 35t-74 -35t-28 -92t28 -93t74 -36zM606 1240q0 -93 -63 -147q-63 -55 -161 -55t-160 54q-64 54 -64 148q0 92 63 148t161 56t161 -55q63 -56 63 -149z" />
    <glyph glyph-name="ogonek" unicode="&#x2db;" horiz-adv-x="776" 
d="M340 -225q0 -102 111 -103q45 1 96 21l24 -39q-98 -102 -217 -103q-70 1 -116 45t-48 130q0 86 62 164q62 77 154 120h69q-57 -42 -96 -108t-39 -127z" />
    <glyph glyph-name="tilde" unicode="&#x2dc;" horiz-adv-x="1054" 
d="M360 1163q-94 0 -145 -90l-51 27q16 96 76 158t135 62q74 0 176 -47q102 -48 145 -48q87 0 144 94l51 -25q-15 -100 -75 -162t-135 -62t-177 46q-102 47 -144 47z" />
    <glyph glyph-name="hungarumlaut" unicode="&#x2dd;" horiz-adv-x="948" 
d="M551 1012l-57 26q84 313 118 387q29 59 108 23t51 -97q-28 -60 -173 -272zM256 1012l-57 26q84 313 118 387q29 61 108 23t52 -100q-35 -72 -174 -269z" />
    <glyph glyph-name="czechcaron" unicode="&#x313;" horiz-adv-x="460" 
d="M168 1178q0 80 -45 92l-6 57q106 37 141 37q68 0 68 -104t-50 -196t-129 -151l-53 37q74 106 74 228z" />
    <glyph glyph-name="uni0394" unicode="&#x394;" horiz-adv-x="1198" 
d="M846 158l-301 751l-301 -751h602zM1157 0h-1116l551 1362h14z" />
    <glyph glyph-name="uni03A9" unicode="&#x3a9;" horiz-adv-x="1304" 
d="M1180 0h-451v340q90 28 170 148t80 309t-91 311t-240 123q-150 0 -236 -123t-86 -309t78 -304t171 -153v-342h-448v291h102l33 -139h199v141q-143 29 -261 158t-118 335q0 244 166 398t408 154t405 -154q162 -152 162 -377t-117 -354t-260 -158v-143h198l31 139h105v-291
z" />
    <glyph glyph-name="uni03BC" unicode="&#x3bc;" horiz-adv-x="1032" 
d="M698 106v144h-14q-20 -102 -76 -185t-136 -83q-81 0 -130 55l-8 -379q-2 -43 -33 -71q-57 -52 -215 -3l68 355q22 123 22 155t-15 125q-15 92 -16 164v354l-125 29v74q176 32 234 32t78 -27q20 -28 20 -87v-357q0 -137 26 -201t108 -65q82 0 139 117q55 117 55 334v151
l-125 29v74q176 33 229 32q102 0 103 -114v-643l135 -19v-76q-120 -36 -200 -36t-102 32t-22 90z" />
    <glyph glyph-name="pi" unicode="&#x3c0;" horiz-adv-x="1138" 
d="M692 106v607h-231v-617l125 -24v-72h-457v72l125 24v615q-104 0 -178 -105l-66 49q59 125 129 174t209 41l510 -30q117 -8 205 102l65 -47q-77 -150 -151 -183q-35 -15 -78 -16v-583l137 -19v-74q-125 -37 -231 -36q-113 0 -113 122z" />
    <glyph glyph-name="Wdieresis" unicode="&#x1e84;" horiz-adv-x="1847" 
d="M1290 1577q0 -53 -38 -89t-92 -36t-89 36t-35 89t37 90t90 37t90 -37t37 -90zM883 1577q0 -53 -37 -89t-92 -36t-90 36t-35 89t37 90t91 37t90 -37t36 -90zM0 1300h539v-77l-177 -43l211 -916l283 1036h221l271 -1038l215 912l-166 51v75h450v-75l-118 -54l-332 -1187
h-183l-290 1069l-301 -1069h-191l-319 1202l-113 39v75z" />
    <glyph glyph-name="wdieresis" unicode="&#x1e85;" horiz-adv-x="1421" 
d="M1036 1167q0 -51 -35 -84t-86 -33t-84 34q-33 32 -32 83q0 51 35 86t85 35q49 0 83 -35t34 -86zM655 1167q-1 -51 -35 -84t-85 -33t-84 34q-33 32 -33 83t35 86t85 35t84 -35t33 -86zM-20 858h440v-63l-115 -31l127 -576h10l213 670h189l180 -670h10l140 568l-115 39v63
h383v-63l-107 -52l-245 -749h-187l-192 651l-217 -651h-187l-223 760l-104 41v63z" />
    <glyph glyph-name="endash" unicode="&#x2013;" horiz-adv-x="1241" 
d="M1077 449h-913v141h913v-141z" />
    <glyph glyph-name="emdash" unicode="&#x2014;" horiz-adv-x="1732" 
d="M1569 449h-1405v141h1405v-141z" />
    <glyph glyph-name="quoteleft" unicode="&#x2018;" horiz-adv-x="468" 
d="M199 942q-98 0 -99 129q0 213 217 387l66 -41q-88 -135 -88 -248q-1 -82 65 -96l7 -55q-88 -76 -168 -76z" />
    <glyph glyph-name="quoteright" unicode="&#x2019;" horiz-adv-x="466" 
d="M176 1167q0 80 -65 95l-7 57q90 74 168 74q96 0 97 -129q0 -217 -217 -385l-64 39q88 139 88 249z" />
    <glyph glyph-name="quotesinglbase" unicode="&#x201a;" horiz-adv-x="479" 
d="M176 33q0 82 -65 96l-7 55q88 76 168 76q96 0 96 -119q1 -224 -216 -397l-64 41q88 135 88 248z" />
    <glyph glyph-name="quotedblleft" unicode="&#x201c;" horiz-adv-x="798" 
d="M190 934q-98 0 -98 133q0 111 61 215q60 104 158 184l64 -43q-88 -139 -88 -256q-1 -84 65 -98l6 -57q-90 -78 -168 -78zM535 942q-97 0 -97 119q-1 224 217 397l64 -41q-88 -135 -88 -248q-1 -80 67 -96l7 -55q-88 -76 -170 -76z" />
    <glyph glyph-name="quotedblright" unicode="&#x201d;" horiz-adv-x="798" 
d="M506 1167q0 84 -68 99l-4 59q88 76 168 76q96 0 96 -133q0 -110 -60 -214t-157 -184l-63 41q88 143 88 256zM162 1167q0 78 -68 95l-6 57q90 74 168 74q98 0 98 -129q0 -217 -217 -385l-65 39q90 141 90 249z" />
    <glyph glyph-name="quotedblbase" unicode="&#x201e;" horiz-adv-x="798" 
d="M506 47q0 84 -68 98l-4 60q84 76 168 76q96 0 96 -131q0 -226 -217 -400l-63 43q88 139 88 254zM162 47q0 80 -68 94l-6 58q90 74 168 73q98 0 98 -127q0 -219 -217 -387l-65 41q90 137 90 248z" />
    <glyph glyph-name="dagger" unicode="&#x2020;" horiz-adv-x="995" 
d="M156 973q39 0 229 -45l61 -15v-69q-233 -59 -290 -60q-52 0 -53 94t53 95zM893 877q0 -41 -14 -67t-47 -26t-222 45l-61 15v69q233 59 291 60q53 0 53 -96zM498 1333q42 0 68 -15t26 -42q0 -74 -47 -270l-15 -72h-65q-61 281 -62 344q0 55 95 55zM522 -420h-49
q-68 829 -67 1000q0 47 14 108t31 98l14 37h65q59 -137 60 -256t-49 -776z" />
    <glyph glyph-name="daggerdbl" unicode="&#x2021;" horiz-adv-x="1077" 
d="M539 -461q-41 -1 -68 15t-27 42q0 67 48 271l14 72h65q61 -281 62 -345q0 -55 -94 -55zM881 88q53 0 53 -96q0 -41 -14 -67q-14 -25 -39 -25q-55 1 -230 45l-61 14v70q233 59 291 59zM199 -100q-55 0 -56 94q0 94 53 94t230 -45l61 -14v-70q-233 -59 -288 -59zM457 436
q0 248 49 387h65q49 -139 49 -387t-49 -387h-65q-49 139 -49 387zM934 877q0 -41 -14 -67t-47 -26t-222 45l-61 15v69q233 59 291 60q53 0 53 -96zM197 973q39 0 229 -45l61 -15v-69q-233 -59 -290 -60q-52 0 -53 94t53 95zM539 1333q41 0 67 -15t27 -42q0 -61 -47 -270
l-15 -72h-65q-61 281 -62 344q0 55 95 55z" />
    <glyph glyph-name="bullet" unicode="&#x2022;" horiz-adv-x="665" 
d="M332 266q-90 0 -150 60t-59 152q0 92 59 154q60 62 150 62t150 -62t60 -154t-60 -152t-150 -60z" />
    <glyph glyph-name="ellipsis" unicode="&#x2026;" horiz-adv-x="1853" 
d="M1628 120q0 -62 -44 -102t-103 -38q-59 0 -99 37q-39 37 -39 101t41 103q42 39 102 39t101 -39t41 -101zM1069 120q0 -62 -44 -102t-103 -38q-59 0 -99 37q-39 37 -39 101t41 103t101 39t102 -39q41 -39 41 -101zM510 120q0 -62 -44 -102t-103 -38q-59 0 -99 37
q-39 37 -39 101t41 103q42 39 102 39t101 -39t41 -101z" />
    <glyph glyph-name="perthousand" unicode="&#x2030;" horiz-adv-x="2277" 
d="M1894 63q119 0 119 248q0 109 -31 175t-91 65q-60 0 -92 -65t-32 -175q0 -248 127 -248zM1898 633q142 0 220 -86q78 -87 78 -235t-84 -240q-83 -92 -226 -92t-223 90t-80 237t87 237t228 89zM444 -59l-90 57l744 1114l88 -57zM1188 63q119 0 119 248q0 109 -31 175
t-91 65q-60 0 -92 -65t-32 -175q0 -248 127 -248zM1181 -20q-142 0 -223 90q-80 90 -80 237t87 237q86 90 227 89q141 0 220 -86q79 -87 79 -235t-84 -240t-226 -92zM393 549q117 0 117 248q0 111 -31 175t-90 64t-91 -64t-32 -175q0 -248 127 -248zM694 799
q0 -147 -83 -241t-226 -93q-143 0 -223 90q-80 89 -80 237t87 237t228 89t219 -86t78 -233z" />
    <glyph glyph-name="guilsinglleft" unicode="&#x2039;" horiz-adv-x="692" 
d="M102 454q0 73 66 124l352 253l45 -90l-264 -276v-12l264 -277l-45 -102q-302 211 -360 259t-58 121z" />
    <glyph glyph-name="guilsinglright" unicode="&#x203a;" horiz-adv-x="692" 
d="M586 453q0 -72 -66 -125l-352 -254l-45 94l264 276v13l-264 276l45 98q298 -211 358 -259t60 -119z" />
    <glyph glyph-name="fraction" unicode="&#x2044;" horiz-adv-x="337" 
d="M-100 -20l-105 47l643 1294l105 -47z" />
    <glyph glyph-name="zero.sups" unicode="&#x2070;" horiz-adv-x="659" 
d="M217 1024q-1 -174 23 -257t91 -83t89 83t20 257q0 342 -108 342q-115 0 -115 -342zM326 616q-285 0 -285 408q0 190 76 300t221 110q281 0 280 -410q0 -192 -72 -300t-220 -108z" />
    <glyph glyph-name="four.sups" unicode="&#x2074;" horiz-adv-x="610" 
d="M608 635h-354v51l119 19v122h-332v80l213 537l160 -17l-256 -495h215v262h137v-262h100v-105h-100v-122l98 -19v-51z" />
    <glyph glyph-name="five.sups" unicode="&#x2075;" horiz-adv-x="616" 
d="M209 1018q-49 0 -111 -14l-20 30l24 381h439v-213h-84l-29 96h-227l-13 -165q154 25 266 -35t112 -202q0 -140 -101 -205q-100 -65 -246 -64q-74 -1 -168 24l15 185h81l31 -129q96 -7 161 33t64 137q0 141 -194 141z" />
    <glyph glyph-name="six.sups" unicode="&#x2076;" horiz-adv-x="620" 
d="M322 1044q-53 0 -82 -47t-29 -126t32 -135t81 -56q48 0 76 54t28 138q0 172 -106 172zM369 1135q100 0 160 -68q61 -67 61 -183t-78 -192t-207 -76t-197 100t-67 251q0 225 135 356t363 111v-68q-168 -14 -252 -98t-94 -252h10q18 59 63 89t103 30z" />
    <glyph glyph-name="seven.sups" unicode="&#x2077;" horiz-adv-x="571" 
d="M129 623q0 149 192 474q27 45 67 113t48 82h-293l-28 -112h-80l-15 235h541v-88q-95 -167 -175 -379q-81 -212 -85 -325h-172z" />
    <glyph glyph-name="eight.sups" unicode="&#x2078;" horiz-adv-x="634" 
d="M313 1370q-45 0 -71 -29t-27 -83q1 -54 37 -88q36 -35 108 -72q49 68 50 157q0 115 -97 115zM188 823q0 -59 32 -99t93 -40t95 37q32 37 32 85t-16 68q-16 19 -22 26t-19 16q-13 8 -21 14t-26 15l-26 13q-38 22 -54 27q-68 -61 -68 -162zM594 852q0 -113 -77 -174
q-77 -62 -206 -62t-199 56t-71 155q0 123 156 191q-131 80 -131 211q0 90 70 147q70 58 182 58t174 -52t63 -131q0 -110 -127 -186q80 -41 123 -88t43 -125z" />
    <glyph glyph-name="nine.sups" unicode="&#x2079;" horiz-adv-x="620" 
d="M301 1370q-51 0 -80 -55t-29 -136t28 -127t81 -46t81 46t28 128t-29 136t-80 54zM252 915q-98 0 -160 68q-61 67 -61 183t78 192q77 76 203 76t197 -98t71 -253q0 -223 -136 -355t-362 -112v68q166 14 250 99t96 251h-10q-41 -119 -166 -119z" />
    <glyph glyph-name="zero.sinf" unicode="&#x2080;" horiz-adv-x="659" 
d="M217 184q-1 -174 23 -257t91 -83t89 83t20 257q0 342 -108 342q-115 0 -115 -342zM326 -223q-285 0 -285 407q0 190 76 300t221 110q281 0 280 -410q0 -193 -72 -300t-220 -107z" />
    <glyph glyph-name="one.sinf" unicode="&#x2081;" horiz-adv-x="497" 
d="M467 -205h-426v58l135 28v586l-137 -18l-8 57l207 84h108v-709l121 -28v-58z" />
    <glyph glyph-name="two.sinf" unicode="&#x2082;" horiz-adv-x="610" 
d="M557 -205h-547v84q40 55 140 155t161 183q61 84 62 162q0 129 -140 129q-23 0 -59 -4l-29 -158h-88l-14 193q121 55 244 55t197 -54t75 -165q0 -70 -46 -142q-46 -73 -102 -119t-132 -108t-109 -96h272l25 104h90v-219z" />
    <glyph glyph-name="three.sinf" unicode="&#x2083;" horiz-adv-x="602" 
d="M205 -137q78 0 130 38t52 113q0 145 -237 146v82q100 0 160 41t60 105t-44 94t-88 30t-80 -4l-31 -146h-82l-14 181q119 51 235 51t189 -51q74 -51 73 -150q0 -121 -153 -174q176 -43 176 -192q0 -125 -98 -183t-240 -57q-82 0 -182 29l14 186h86l27 -135q33 -4 47 -4z
" />
    <glyph glyph-name="four.sinf" unicode="&#x2084;" horiz-adv-x="610" 
d="M608 -205h-354v51l119 19v123h-332v80l213 536l160 -16l-256 -496h215v262h137v-262h100v-104h-100v-123l98 -19v-51z" />
    <glyph glyph-name="five.sinf" unicode="&#x2085;" horiz-adv-x="616" 
d="M209 178q-49 0 -111 -14l-20 31l24 380h439v-213h-84l-29 97h-227l-13 -166q154 25 266 -35t112 -202q0 -140 -101 -204q-100 -64 -246 -65q-74 0 -168 25l15 184h81l31 -129q96 -6 161 34t64 136q0 141 -194 141z" />
    <glyph glyph-name="six.sinf" unicode="&#x2086;" horiz-adv-x="620" 
d="M322 205q-53 0 -82 -47t-29 -126t32 -135q32 -57 81 -57q48 0 76 54t28 139q0 172 -106 172zM369 295q100 0 160 -68q61 -67 61 -183t-78 -192t-207 -75q-129 0 -197 100t-67 250q0 225 135 356t363 111v-68q-168 -14 -252 -98t-94 -252h10q18 59 63 89t103 30z" />
    <glyph glyph-name="seven.sinf" unicode="&#x2087;" horiz-adv-x="571" 
d="M129 -217q0 149 192 474q91 154 115 196h-293l-28 -113h-80l-15 235h541v-88q-95 -167 -175 -379q-81 -212 -85 -325h-172z" />
    <glyph glyph-name="eight.sinf" unicode="&#x2088;" horiz-adv-x="634" 
d="M215 419q1 -54 37 -89t108 -72q49 68 50 158q0 115 -97 114q-45 0 -71 -28t-27 -83zM188 -16q0 -60 32 -100t93 -40t95 37q32 37 32 87t-16 67q-16 18 -26 31t-45 31q-35 17 -54 29t-43 19q-68 -61 -68 -161zM594 12q0 -113 -77 -174t-206 -61t-199 55t-71 156
q0 123 156 190q-131 80 -131 211q0 90 70 148q70 57 182 57t174 -52t63 -130q0 -111 -127 -187q80 -41 123 -88t43 -125z" />
    <glyph glyph-name="nine.sinf" unicode="&#x2089;" horiz-adv-x="620" 
d="M301 530q-51 0 -80 -55t-29 -136t28 -127t81 -46t81 46t28 128t-29 136t-80 54zM252 76q-98 0 -160 67q-61 68 -61 184q0 115 78 191q77 76 203 76t197 -98t71 -252q0 -223 -136 -355t-362 -112v67q166 14 250 100t96 251h-10q-41 -119 -166 -119z" />
    <glyph glyph-name="Euro" unicode="&#x20ac;" horiz-adv-x="1099" 
d="M721 -10q-219 0 -346 95t-164 302h-129v102h117q-8 76 2 152h-119v102h137q47 179 191 277t356 98q135 0 248 -28l-15 -252h-114l-37 184q-39 8 -84 8q-133 0 -220 -77t-120 -210h377v-102h-393q-8 -59 0 -152h393v-102h-379q59 -293 340 -293q41 0 88 6l41 189h110
l17 -256q-152 -43 -297 -43z" />
    <glyph glyph-name="trademark" unicode="&#x2122;" horiz-adv-x="1280" 
d="M1178 713h-201v45l45 8l-21 315l-122 -372h-66l-121 325l-20 -264l43 -10v-47h-152v47l45 10l35 352l-45 15v45h113q33 0 46 -8t23 -37l90 -265l88 265q10 29 22 37t44 8h125v-45l-45 -15l29 -356l45 -8v-45zM442 713h-254v45l66 14v352h-82l-18 -80h-52v138h422v-138
h-51l-16 80h-82v-352l67 -14v-45z" />
    <glyph glyph-name="Omega" unicode="&#x2126;" horiz-adv-x="1304" 
d="M1180 0h-451v340q90 28 170 148t80 309t-91 311t-240 123q-150 0 -236 -123t-86 -309t78 -304t171 -153v-342h-448v291h102l33 -139h199v141q-143 29 -261 158t-118 335q0 244 166 398t408 154t405 -154q162 -152 162 -377t-117 -354t-260 -158v-143h198l31 139h105v-291
z" />
    <glyph glyph-name="uni2190" unicode="&#x2190;" horiz-adv-x="1519" 
d="M1356 467h-783q-53 0 -206 14l368 -213l-63 -143l-414 305q-53 39 -53 98t53 99l414 305l63 -135l-368 -217q127 16 206 16h783v-129z" />
    <glyph glyph-name="arrowup" unicode="&#x2191;" horiz-adv-x="1124" 
d="M629 -41h-127v776q0 94 14 209l-215 -366l-131 63l297 416q39 53 96 53t96 -53l295 -416l-120 -63l-222 372q16 -131 17 -215v-776z" />
    <glyph glyph-name="uni2192" unicode="&#x2192;" horiz-adv-x="1519" 
d="M946 461h-782v129h782q78 0 205 -17l-367 215l64 144l414 -305q53 -39 53 -99t-53 -98l-414 -305l-64 135l369 215q-154 -14 -207 -14z" />
    <glyph glyph-name="arrowdown" unicode="&#x2193;" horiz-adv-x="1124" 
d="M563 -41q-57 0 -96 53l-297 416l123 64l217 -369q-14 115 -14 211v776h127v-776q0 -61 -15 -215l217 373l129 -64l-295 -416q-39 -53 -96 -53z" />
    <glyph glyph-name="partialdiff" unicode="&#x2202;" horiz-adv-x="987" 
d="M498 74q96 0 146 88t50 246t-53 236t-148 79q-95 0 -147 -79q-52 -80 -53 -236q1 -156 55 -245t150 -89zM301 1202q-84 0 -158 -37l-32 88q129 84 293 84t287 -105q233 -200 235 -665q0 -594 -441 -594q-199 0 -311 116q-112 115 -113 315q0 200 117 315q116 115 280 115
t240 -127h21q-23 205 -137 350q-115 145 -281 145z" />
    <glyph glyph-name="Delta" unicode="&#x2206;" horiz-adv-x="1198" 
d="M846 158l-301 751l-301 -751h602zM1157 0h-1116l551 1362h14z" />
    <glyph glyph-name="product" unicode="&#x220f;" horiz-adv-x="1275" 
d="M1235 -266h-530v86l153 26v1340h-436v-1340l149 -26v-86h-530v86l154 26v1342l-148 26v86h1182v-86l-144 -26v-1342l150 -26v-86z" />
    <glyph glyph-name="summation" unicode="&#x2211;" horiz-adv-x="1044" 
d="M1004 -266h-1004v160l481 608l-463 692v106h967v-331h-115l-53 219h-508l404 -600l-527 -660h650l53 224h115v-418z" />
    <glyph glyph-name="minus" unicode="&#x2212;" 
d="M887 414h-791v155h791v-155z" />
    <glyph glyph-name="uni2219" unicode="&#x2219;" horiz-adv-x="665" 
d="M332 266q-90 0 -150 60t-59 152q0 92 59 154q60 62 150 62t150 -62t60 -154t-60 -152t-150 -60z" />
    <glyph glyph-name="radical" unicode="&#x221a;" 
d="M0 971h365l184 -983h18l275 1599h407v-168h-311l-301 -1726h-246l-235 1149l-156 39v90z" />
    <glyph glyph-name="infinity" unicode="&#x221e;" horiz-adv-x="1265" 
d="M1096 537q0 84 -50 128t-124 44q-124 -1 -220 -140q50 -102 102 -155q52 -54 124 -54t120 46t48 131zM341 702q-73 0 -122 -46t-49 -129t50 -128t128 -45q127 0 219 135q-53 105 -103 159t-123 54zM82 525q0 181 85 279t195 99q110 0 172 -64q62 -65 123 -184
q59 113 100 162q72 88 175 88q104 0 178 -94t74 -272q0 -179 -84 -279t-196 -100t-177 64q-64 64 -121 184q-66 -117 -105 -164q-73 -86 -171 -86t-173 93t-75 274z" />
    <glyph glyph-name="integral" unicode="&#x222b;" horiz-adv-x="733" 
d="M-102 -123h94l59 -170q101 0 152 78q49 81 49 305v914q0 238 118 388t318 148q59 0 148 -18v-246h-95l-61 170q-98 0 -138 -64q-44 -66 -53 -148q-10 -83 -10 -216v-868q0 -238 -118 -388t-320 -149q-65 0 -143 18v246z" />
    <glyph glyph-name="approxequal" unicode="&#x2248;" 
d="M262 264q-111 0 -162 -96l-67 31q25 106 104 176q80 69 164 69t213 -53t193 -53q113 0 174 100l67 -30q-24 -115 -104 -182q-80 -66 -162 -66t-216 52t-204 52zM682 516q-82 0 -216 52t-204 53q-111 0 -162 -97l-67 31q25 106 104 176q80 70 164 70t213 -53t193 -54
q113 1 174 101l67 -31q-24 -116 -104 -182t-162 -66z" />
    <glyph glyph-name="notequal" unicode="&#x2260;" 
d="M866 260h-450l-131 -233l-84 55l100 178h-184v131h258l119 213h-377v131h450l125 219l84 -55l-92 -164h182v-131h-256l-121 -213h377v-131z" />
    <glyph glyph-name="lessequal" unicode="&#x2264;" 
d="M877 0h-771v141h771v-141zM805 248l-699 278v121l699 283l51 -154l-530 -176v-12l530 -174z" />
    <glyph glyph-name="greaterequal" unicode="&#x2265;" 
d="M877 0h-771v141h771v-141zM877 528l-699 -280l-51 153l530 174v13l-530 176l51 166l699 -281v-121z" />
    <glyph glyph-name="dotmath" unicode="&#x22c5;" horiz-adv-x="700" 
d="M496 492q0 -62 -42 -104t-104 -42t-104 41q-41 41 -41 105t41 106q41 43 103 43q63 0 105 -43t42 -106z" />
    <glyph glyph-name="lozenge" unicode="&#x25ca;" horiz-adv-x="978" 
d="M537 248l219 360l-316 504l-217 -358zM487 -51l-446 717l451 745l446 -717z" />
    <glyph glyph-name="commaaccent" unicode="&#xf6c3;" horiz-adv-x="681" 
d="M303 -291q0 55 -55 68v53q70 57 139 57q86 0 86 -96q0 -186 -203 -323l-55 36q88 111 88 205z" />
    <glyph glyph-name="underdot" horiz-adv-x="665" 
d="M332 -449q-55 0 -92 38q-37 37 -37 95t38 95t91 37t90 -38t37 -94t-36 -94t-91 -39z" />
    <glyph glyph-name="zero.lf" horiz-adv-x="1077" 
d="M540 70q120 0 160 142t41 434q0 292 -46 439q-45 147 -155 147t-157 -146q-47 -148 -47 -440t42 -434t162 -142zM535 -31q-225 0 -334 179q-109 180 -109 502t117 502t342 181q434 0 434 -680q-1 -324 -113 -504t-337 -180z" />
    <glyph glyph-name="one.lf" horiz-adv-x="780" 
d="M729 0h-653v84l225 43v1003l-233 -38l-17 100l324 123h157v-1188l197 -43v-84z" />
    <glyph glyph-name="two.lf" horiz-adv-x="987" 
d="M895 0h-885v123q98 151 394 431q91 85 162 199q71 115 71 229t-74 169t-188 55q-63 0 -117 -12l-47 -262h-121l-22 315q188 86 386 86t317 -89q120 -89 120 -275t-170 -354q-78 -77 -160 -143q-243 -197 -319 -298h497l41 176h115v-350z" />
    <glyph glyph-name="three.lf" horiz-adv-x="962" 
d="M322 98q141 0 240 67q100 67 100 195t-104 194t-310 67v120q174 0 277 73q103 74 103 186t-79 163t-171 51t-142 -14l-50 -239h-112l-23 292q181 80 371 80t309 -83t119 -240q0 -106 -69 -184t-191 -115q150 -31 226 -120t75 -217q0 -128 -84 -222t-203 -130
q-118 -36 -262 -36t-291 41l23 301h119l43 -222q45 -8 86 -8z" />
    <glyph glyph-name="four.lf" horiz-adv-x="1026" 
d="M952 0h-561v78l197 24v228h-547v106l387 910l229 -21l-452 -860h383v469h198v-469h179v-135h-179v-228l166 -24v-78z" />
    <glyph glyph-name="five.lf" horiz-adv-x="968" 
d="M674 406q0 248 -361 247q-74 0 -180 -18l-16 22l39 643h702v-333h-115l-45 163h-407l-23 -313q358 58 536 -126q93 -97 93 -237q0 -262 -171 -365t-390 -101q-125 0 -264 35l22 299h113l47 -218q176 -16 298 57t122 245z" />
    <glyph glyph-name="six.lf" horiz-adv-x="1030" 
d="M324 396q0 -136 62 -232t154 -96q93 0 147 93t54 232t-54 220q-55 81 -155 81t-154 -81t-54 -217zM520 -31q-154 0 -256 87t-142 214t-40 287q0 233 93 417t281 283q188 100 437 74v-98q-561 -16 -598 -602h16q31 96 112 151t181 56q162 0 263 -114t101 -308t-126 -321
q-127 -126 -322 -126z" />
    <glyph glyph-name="seven.lf" horiz-adv-x="907" 
d="M897 1300v-112l-48 -88q-30 -55 -106 -215q-161 -340 -226 -566q-64 -227 -66 -346h-252q1 115 69 300t201 435t242 418h-523l-47 -200h-108l-23 374h887z" />
    <glyph glyph-name="eight.lf" horiz-adv-x="1046" 
d="M705 1032q-1 90 -47 148t-133 59q-87 0 -140 -55t-53 -140q0 -125 112 -200q45 -31 68 -43t84 -45q109 113 109 276zM287 304q0 -91 62 -162q62 -70 173 -70t174 63q64 63 64 160t-54 146t-107 79q-54 30 -103 52q-50 22 -64 30q-145 -110 -145 -298zM975 356
q0 -180 -125 -283t-332 -103q-208 0 -322 93q-114 94 -114 250q0 209 264 334q-221 131 -221 346q0 150 112 245q113 95 293 95t280 -88t101 -215q1 -92 -61 -176t-168 -143q72 -39 114 -66q121 -78 157 -168q22 -53 22 -121z" />
    <glyph glyph-name="nine.lf" horiz-adv-x="1034" 
d="M500 606q100 0 154 81t54 219t-54 234q-56 96 -154 95q-98 0 -154 -95q-56 -94 -55 -232t55 -220t154 -82zM422 465q-156 0 -258 114q-102 115 -102 307t124 320q125 128 327 127t321 -153q118 -152 118 -412q-1 -525 -378 -725q-189 -101 -439 -74v99q551 16 598 604
h-18q-39 -102 -117 -154t-176 -53z" />
    <glyph glyph-name="zero.tf" 
d="M493 70q121 0 161 142t40 434t-46 439t-156 147t-156 -146q-47 -148 -47 -440t42 -434t162 -142zM487 -31q-225 0 -333 179q-108 180 -109 502q0 322 117 502t342 181q434 0 434 -680q0 -324 -113 -504t-338 -180z" />
    <glyph glyph-name="one.tf" 
d="M895 0h-809v88l328 45v981l-336 -53l-17 100l426 154h160v-1182l248 -45v-88z" />
    <glyph glyph-name="two.tf" 
d="M889 0h-885v123q103 159 394 431q91 85 162 199q71 115 71 229t-74 169t-188 55q-66 0 -117 -12l-47 -262h-121l-23 315q188 86 386 86t318 -89t120 -275t-170 -354q-78 -77 -160 -143q-243 -197 -319 -298h497l41 176h115v-350z" />
    <glyph glyph-name="three.tf" 
d="M338 98q141 0 241 67q99 67 99 195t-104 194t-310 67v120q174 0 278 73q103 74 103 186t-80 163t-171 51t-142 -14l-49 -239h-113l-22 292q182 80 372 80t308 -83q119 -83 118 -240q0 -106 -68 -185q-69 -78 -192 -114q150 -31 226 -120t75 -217q0 -128 -84 -222
q-85 -94 -203 -130t-262 -36t-290 41l22 301h119l43 -222q45 -8 86 -8z" />
    <glyph glyph-name="four.tf" 
d="M932 0h-561v78l196 24v228h-547v106l388 910l229 -21l-453 -860h383v469h199v-469h178v-135h-178v-228l166 -24v-78z" />
    <glyph glyph-name="five.tf" 
d="M668 406q0 248 -361 247q-74 0 -180 -18l-16 22l39 643h702v-333h-115l-45 163h-407l-23 -313q358 58 536 -126q93 -97 93 -237q0 -262 -171 -365t-390 -101q-125 0 -264 35l22 299h113l47 -218q176 -16 298 57t122 245z" />
    <glyph glyph-name="six.tf" 
d="M506 694q-100 0 -154 -81t-55 -217t61 -232t155 -96t147 93t54 232t-54 220t-154 81zM942 416q0 -194 -127 -321q-127 -126 -321 -126q-154 0 -256 87t-143 214q-40 127 -40 287q0 233 93 417q92 184 280 283q188 100 438 74v-98q-561 -16 -598 -602h17q31 96 111 151
q81 55 182 56q162 0 263 -114t101 -308z" />
    <glyph glyph-name="seven.tf" 
d="M942 1300v-112l-48 -88q-30 -55 -106 -215q-161 -340 -226 -566q-64 -227 -66 -346h-252q2 115 70 300t200 435q133 250 242 418h-523l-47 -200h-108l-23 374h887z" />
    <glyph glyph-name="eight.tf" 
d="M680 1032q0 90 -46 148t-133 59q-87 0 -141 -55t-53 -140q0 -126 113 -200q46 -31 68 -43t83 -45q109 113 109 276zM262 304q0 -91 62 -162q62 -70 174 -70q111 0 174 63t63 160t-66 159q-66 61 -201 119q-46 21 -60 29q-146 -111 -146 -298zM57 313q0 209 265 334
q-221 131 -222 346q0 150 112 245t293 95t281 -88t101 -215q0 -92 -62 -176t-168 -143q72 -39 114 -66t89 -71q92 -86 90 -218q0 -180 -125 -283t-332 -103t-321 93q-114 94 -115 250z" />
    <glyph glyph-name="nine.tf" 
d="M479 606q100 0 155 81q54 81 54 219t-55 234t-153 95q-98 0 -154 -95q-56 -94 -56 -232t54 -220t155 -82zM401 465q-156 0 -258 114q-102 115 -102 307t125 320q124 128 326 127t321 -153t119 -412q0 -525 -378 -725q-189 -101 -439 -74v99q551 16 598 604h-19
q-39 -102 -116 -155q-78 -52 -177 -52z" />
    <glyph glyph-name="dollar.tf" 
d="M279 1036q0 -115 174 -221v406q-78 -13 -126 -61t-48 -124zM711 295q0 106 -172 215v-416q78 20 125 70t47 131zM539 -215h-99v192q-199 2 -366 91l28 292h105l41 -213q88 -63 192 -63v481q-174 90 -263 178t-89 213q0 162 99 257t266 112v176h98v-172q154 -8 317 -82
l-16 -280h-109l-36 204q-66 43 -156 54v-463q15 -10 77 -46t87 -51t71 -53t66 -68q56 -88 57 -173q0 -167 -102 -267t-268 -120v-199z" />
    <glyph glyph-name="cent.tf" 
d="M340 457q0 -233 170 -305v618q-78 -33 -124 -116t-46 -197zM592 -215h-82v197q-158 12 -262 127t-104 309t100 318q102 124 266 153v215h82v-207q135 0 266 -55l-27 -285h-106l-45 225q-49 10 -88 9v-658q100 -14 248 60l37 -56q-115 -135 -285 -155v-197z" />
    <glyph glyph-name="sterling.tf" 
d="M723 0h-703v96q90 14 137 91q46 77 46 266v168h-162v108h168q-14 289 113 447t352 157q119 0 258 -41l-23 -291h-104l-47 222q-25 4 -68 4q-164 0 -223 -125t-47 -373h371v-108h-371v-99q-2 -268 -137 -366h344q106 0 140 44t42 146h115v-149q0 -109 -43 -153t-158 -44z
" />
    <glyph glyph-name="yen.tf" 
d="M750 0h-539v84l160 27v385h-344v108h321l-78 160h-243v106h192l-151 320l-99 39v71h445v-77l-117 -39l229 -508l232 502l-101 51v71h357v-71l-101 -55l-159 -304h196v-106h-252l-84 -160h336v-108h-360v-385l160 -27v-84z" />
    <glyph glyph-name="Euro.tf" 
d="M653 -14q-434 0 -510 489h-114v113h102q-8 104 2 178h-104v113h121q104 455 552 454q109 0 261 -35l-19 -288h-115l-43 215q-39 6 -75 6q-139 0 -227 -95t-119 -257h360v-113h-375q-6 -88 0 -178h375v-113h-363q55 -375 343 -375q38 0 81 6l45 224h113l19 -291
q-147 -53 -310 -53z" />
    <glyph glyph-name="zero.tosf" 
d="M498 80q195 0 194 399q0 173 -50 277t-150 104t-150 -103t-51 -278q0 -399 207 -399zM486 -20q-208 0 -318 138t-111 355q0 217 121 351t326 134q206 0 314 -129t108 -348t-116 -360t-324 -141z" />
    <glyph glyph-name="one.tosf" 
d="M862 0h-723v74l281 41v649l-270 -47l-17 100l361 131h145v-833l223 -41v-74z" />
    <glyph glyph-name="two.tosf" 
d="M854 0h-776v131q240 162 366 293t125 260q0 160 -178 160q-68 0 -131 -25l-43 -213h-108l-21 266q190 86 366 86t267 -70q92 -70 92 -203q0 -132 -119 -248t-387 -283h402l39 122h106v-276z" />
    <glyph glyph-name="three.tosf" 
d="M610 43q0 199 -260 199q-29 0 -121 -11v125q172 16 260 96q89 80 89 190t-67 158t-163 48q-49 0 -92 -12l-49 -220h-111l-22 265q196 77 358 77t267 -74t106 -218q0 -227 -256 -320q141 -4 223 -82t82 -192q0 -158 -115 -263q-210 -192 -657 -192l-10 96q254 15 396 99
t142 231z" />
    <glyph glyph-name="four.tosf" 
d="M786 -387h-204v401h-531v111l393 850l244 -21l-452 -788h346v330h204v-330h160v-152h-160v-401z" />
    <glyph glyph-name="five.tosf" 
d="M637 96q0 82 -46 136t-117 72q-165 41 -329 7l41 627h664l-12 -320h-111l-35 152h-370l-23 -307q68 14 141 14q188 0 316 -90t127 -261q0 -171 -110 -288q-206 -219 -646 -219l-10 100q246 17 383 115t137 262z" />
    <glyph glyph-name="six.tosf" 
d="M516 78q94 0 149 93q54 93 54 231t-54 221q-55 82 -155 82t-156 -81t-55 -217q0 -136 61 -233q62 -96 156 -96zM582 848q162 0 262 -114t100 -308t-126 -321q-126 -126 -320 -125q-117 0 -205 50t-137 136q-99 174 -99 407q0 359 218 581t593 183v-98q-563 -18 -596 -600
h17q31 98 111 154q81 55 182 55z" />
    <glyph glyph-name="seven.tosf" 
d="M938 938v-113q-16 -33 -81 -157t-164 -358q-197 -467 -232 -697h-242q39 213 232 595t299 548h-492l-49 -201h-109l-22 383h860z" />
    <glyph glyph-name="eight.tosf" 
d="M678 1044q0 82 -46 142t-131 61q-85 0 -139 -56q-54 -57 -53 -127q-1 -70 17 -114q27 -68 138 -135q25 -16 99 -57q49 49 82 126q33 78 33 160zM256 303q0 -90 62 -159q62 -68 172 -68t174 61q63 61 63 148t-30 122q-30 34 -47 52t-69 49t-110 58q-58 28 -78 38
q-65 -51 -101 -131t-36 -170zM938 360q0 -180 -124 -283t-330 -103t-322 94q-116 96 -115 245q0 99 66 189t196 151q-211 137 -211 348q0 150 112 244t293 94t282 -86q101 -87 101 -199q1 -215 -241 -341q229 -124 271 -232q22 -53 22 -121z" />
    <glyph glyph-name="nine.tosf" 
d="M477 252q100 0 156 80q55 80 55 210t-58 224t-156 94t-151 -94q-55 -94 -55 -224t54 -210t155 -80zM403 109q-156 1 -257 111t-101 298t125 314q126 126 326 126t315 -150t115 -435q0 -350 -214 -561t-581 -191v98q271 31 417 177t167 419h-17q-40 -102 -118 -154
t-177 -52z" />
    <glyph glyph-name="zero.zero" horiz-adv-x="1052" 
d="M532 80q203 0 203 399q1 129 -26 215l-312 -559q49 -55 135 -55zM346 236l311 559q-49 66 -129 65q-209 0 -211 -381q0 -157 29 -243zM521 -20q-209 0 -319 138t-110 355t121 351t326 134t313 -129t109 -348q0 -219 -116 -360t-324 -141z" />
    <glyph glyph-name="zero.lf.zero" horiz-adv-x="1077" 
d="M543 1233q-117 1 -165 -147t-48 -408t20 -377l324 844q-47 88 -131 88zM543 70q121 0 163 142t42 401t-25 382l-324 -843q47 -82 144 -82zM535 -31q-225 0 -334 179q-109 180 -109 502t117 502t342 181q434 0 434 -680q-1 -324 -113 -504t-337 -180z" />
    <glyph glyph-name="zero.tf.zero" 
d="M496 1233q-117 1 -165 -147t-48 -408t20 -377l324 844q-47 88 -131 88zM496 70q120 0 162 142t42 401t-24 382l-324 -843q47 -82 144 -82zM487 -31q-225 0 -333 179q-108 180 -109 502q0 322 117 502t342 181q434 0 434 -680q0 -324 -113 -504t-338 -180z" />
    <glyph glyph-name="zero.tosf.zero" 
d="M498 80q203 0 202 399q1 129 -26 215l-312 -559q49 -55 136 -55zM311 236l312 559q-49 66 -129 65q-109 0 -160 -103q-52 -103 -52 -269t29 -252zM486 -20q-208 0 -318 138t-111 355q0 217 121 351t326 134q206 0 314 -129t108 -348t-116 -360t-324 -141z" />
    <glyph glyph-name="zero.dnom" horiz-adv-x="659" 
d="M217 389q-1 -174 23 -257t91 -83t89 83t20 257q0 342 -108 342q-115 0 -115 -342zM326 -18q-285 0 -285 407q0 190 76 300t221 110q281 0 280 -410q0 -193 -72 -300t-220 -107z" />
    <glyph glyph-name="one.dnom" horiz-adv-x="497" 
d="M467 0h-426v57l135 29v586l-137 -19l-8 58l207 84h108v-709l121 -29v-57z" />
    <glyph glyph-name="two.dnom" horiz-adv-x="610" 
d="M557 0h-547v84q40 54 140 154t161 184t62 162q0 129 -140 129q-23 0 -59 -4l-29 -158h-88l-14 192q121 55 244 55t197 -54t75 -164q0 -70 -46 -142t-102 -119t-132 -108t-109 -96h272l25 104h90v-219z" />
    <glyph glyph-name="three.dnom" horiz-adv-x="602" 
d="M205 68q78 0 130 38t52 113q0 145 -237 146v81q100 0 160 41t60 106t-44 95t-88 29q-44 0 -80 -4l-31 -146h-82l-14 181q119 51 235 51t189 -51q74 -51 73 -150q0 -121 -153 -174q176 -43 176 -193q0 -125 -98 -182t-240 -57q-82 -1 -182 28l14 187h86l27 -135
q33 -4 47 -4z" />
    <glyph glyph-name="four.dnom" horiz-adv-x="651" 
d="M608 0h-354v51l119 19v123h-332v79l213 537l160 -16l-256 -496h215v262h137v-262h100v-104h-100v-123l98 -19v-51z" />
    <glyph glyph-name="five.dnom" horiz-adv-x="616" 
d="M209 383q-49 0 -111 -14l-20 30l24 381h439v-213h-84l-29 97h-227l-13 -166q154 24 266 -36t112 -200t-101 -206q-100 -65 -246 -64q-74 -1 -168 24l15 185h81l31 -129q96 -6 161 34t64 136q0 141 -194 141z" />
    <glyph glyph-name="six.dnom" horiz-adv-x="620" 
d="M322 410q-53 0 -82 -48t-29 -126t32 -134t81 -57q48 0 76 54t28 139q0 172 -106 172zM369 500q100 0 160 -68q61 -68 61 -184t-78 -191t-207 -75t-197 100t-67 250q0 225 135 356t363 111v-68q-168 -14 -252 -98t-94 -252h10q18 59 63 89t103 30z" />
    <glyph glyph-name="seven.dnom" horiz-adv-x="571" 
d="M129 -12q0 149 192 474q27 44 67 112t48 83h-293l-28 -112h-80l-15 235h541v-88q-95 -167 -175 -379q-81 -212 -85 -325h-172z" />
    <glyph glyph-name="eight.dnom" horiz-adv-x="634" 
d="M215 624q1 -54 37 -89t108 -72q49 68 50 158q0 115 -97 114q-45 -1 -71 -29t-27 -82zM188 188q0 -59 32 -99t93 -40t95 37q32 37 32 85t-16 68q-16 19 -26 32t-45 31q-35 17 -54 29t-43 19q-68 -61 -68 -162zM594 217q0 -113 -77 -174t-206 -61t-199 55t-71 156
q0 123 156 190q-131 80 -131 211q0 90 70 147t182 57t174 -52t63 -130q0 -110 -127 -186q80 -41 123 -88t43 -125z" />
    <glyph glyph-name="nine.dnom" horiz-adv-x="620" 
d="M301 735q-51 0 -80 -55t-29 -136t28 -127t81 -46t81 46t28 128t-29 136t-80 54zM31 532q0 116 78 191q77 76 203 76q126 -1 197 -99t71 -251q0 -223 -136 -355t-362 -112v67q166 14 250 99t96 251h-10q-41 -119 -166 -118q-98 0 -160 67q-61 68 -61 184z" />
    <glyph glyph-name="zero.numr" horiz-adv-x="659" 
d="M217 922q-1 -174 23 -257t91 -83t89 83t20 257q0 342 -108 342q-115 0 -115 -342zM326 514q-285 0 -285 408q0 190 76 300t221 109q281 0 280 -409q0 -192 -72 -300t-220 -108z" />
    <glyph glyph-name="one.numr" horiz-adv-x="497" 
d="M467 532h-426v58l135 28v586l-137 -18l-8 57l207 84h108v-709l121 -28v-58z" />
    <glyph glyph-name="two.numr" horiz-adv-x="610" 
d="M557 532h-547v84q40 54 140 154t161 184t62 162q0 129 -140 129q-23 0 -59 -4l-29 -158h-88l-14 193q121 55 244 55t197 -54t75 -165q0 -70 -46 -142t-102 -118t-132 -108t-109 -97h272l25 105h90v-220z" />
    <glyph glyph-name="three.numr" horiz-adv-x="602" 
d="M205 600q78 0 130 38t52 114q0 145 -237 145v82q100 0 160 41q60 42 60 106t-44 94t-88 30t-80 -5l-31 -145h-82l-14 180q119 51 235 51t189 -51q74 -51 73 -150q0 -121 -153 -174q176 -43 176 -192q0 -125 -98 -182q-174 -101 -422 -29l14 186h86l27 -135q33 -4 47 -4z
" />
    <glyph glyph-name="four.numr" horiz-adv-x="651" 
d="M608 532h-354v52l119 18v123h-332v80l213 536l160 -16l-256 -496h215v263h137v-263h100v-104h-100v-123l98 -18v-52z" />
    <glyph glyph-name="five.numr" horiz-adv-x="616" 
d="M209 915q-49 0 -111 -14l-20 31l24 381h439v-213h-84l-29 96h-227l-13 -166q154 24 266 -36t112 -200t-101 -205q-100 -65 -246 -65q-74 0 -168 25l15 184h81l31 -129q96 -6 161 34t64 136q0 141 -194 141z" />
    <glyph glyph-name="six.numr" horiz-adv-x="620" 
d="M322 942q-53 0 -82 -47t-29 -126t32 -135t81 -56q48 0 76 54t28 138q0 172 -106 172zM369 1032q100 0 160 -68q61 -68 61 -183t-78 -191t-207 -76t-197 100t-67 250q0 224 135 356t363 111v-67q-168 -14 -252 -98t-94 -253h10q18 59 63 89t103 30z" />
    <glyph glyph-name="seven.numr" horiz-adv-x="571" 
d="M129 520q0 149 192 474q91 154 115 196h-293l-28 -113h-80l-15 236h541v-88q-94 -166 -175 -379t-85 -326h-172z" />
    <glyph glyph-name="eight.numr" horiz-adv-x="634" 
d="M313 1268q-45 0 -71 -29t-27 -83q1 -54 37 -89t108 -72q49 68 50 158q0 115 -97 115zM188 721q0 -59 32 -99t93 -40t95 36q32 37 32 87t-16 67q-16 18 -26 31t-52 35l-64 32l-26 13q-68 -61 -68 -162zM594 750q0 -112 -77 -174t-206 -62t-199 55t-71 156q0 123 156 190
q-131 80 -131 211q0 90 70 148q70 57 182 57t174 -52t63 -130q0 -110 -127 -186q80 -41 123 -89t43 -124z" />
    <glyph glyph-name="nine.numr" horiz-adv-x="620" 
d="M301 1268q-51 0 -80 -56t-29 -136q0 -81 28 -127t81 -46t81 46t28 128q0 83 -29 137t-80 54zM252 813q-98 0 -160 68q-61 67 -61 183t78 192q77 76 203 75q126 0 197 -98t71 -252q0 -223 -136 -355t-362 -112v68q166 14 250 99t96 251h-10q-41 -119 -166 -119z" />
    <glyph glyph-name="space.frac" horiz-adv-x="102" 
 />
    <glyph glyph-name="a.sups" horiz-adv-x="563" 
d="M326 825v58q-52 -4 -94 -33t-42 -70q0 -63 54 -63q34 1 58 29t24 79zM496 717q14 0 41 31l34 -23q-18 -47 -54 -75t-79 -28q-42 0 -70 28t-30 75h-10q-35 -102 -152 -102q-66 0 -102 39t-35 96q0 90 86 133t203 45v31q0 75 -18 103t-58 28q-39 0 -74 -11l-14 -114h-76
l-37 149q106 55 230 56q195 0 194 -177l-6 -237q0 -47 27 -47z" />
    <glyph glyph-name="b.sups" horiz-adv-x="616" 
d="M227 795v-70q33 -33 80 -33q111 0 111 211q0 147 -84 148q-107 0 -107 -256zM223 1403v-277l-14 -122h12q15 80 63 124t124 46q76 0 126 -68q48 -68 48 -166q0 -317 -279 -317q-125 -1 -229 36v732l-70 18v51q98 20 158 21q61 0 61 -78z" />
    <glyph glyph-name="c.sups" horiz-adv-x="503" 
d="M317 1178q66 0 160 -37l-18 -176h-80l-21 127q-8 2 -22 2q-64 0 -102 -48t-38 -134t43 -132q41 -45 99 -45t121 27l28 -45q-82 -99 -195 -99t-186 72q-72 72 -72 201t82 208q81 79 201 79z" />
    <glyph glyph-name="d.sups" horiz-adv-x="622" 
d="M387 1014v47q-35 31 -80 31q-111 0 -110 -193q-1 -70 21 -118t58 -48q47 0 79 75t32 206zM395 774h-10q-45 -152 -172 -151q-82 -1 -130 73t-48 176q0 295 276 295q18 0 80 -4v228l-72 18v51q98 20 160 21q59 0 60 -78v-688l67 -13v-53q-92 -25 -147 -24q-63 0 -64 75v74
z" />
    <glyph glyph-name="e.sups" horiz-adv-x="540" 
d="M287 1114q-43 0 -70 -45t-29 -108l168 16q10 61 -8 99t-61 38zM300 1180q116 0 172 -83t30 -202h-314q2 -166 172 -166q64 0 132 25l22 -39q-88 -97 -214 -97t-196 74t-69 203q0 129 75 207q74 78 190 78z" />
    <glyph glyph-name="f.sups" horiz-adv-x="364" 
d="M346 635h-330v53l72 17v370h-74v66l76 22q2 156 83 239t200 83q53 0 112 -19l-16 -168h-66l-30 119q-131 4 -131 -262h116v-80h-116v-370l104 -17v-53z" />
    <glyph glyph-name="g.sups" horiz-adv-x="591" 
d="M264 872q84 0 84 125q0 55 -23 88q-24 33 -67 33q-86 0 -86 -123t92 -123zM127 542q0 -38 45 -62q44 -24 114 -24t122 22q51 22 51 57q0 27 -48 37t-126 18t-113 20q-45 -30 -45 -68zM500 987q0 -72 -60 -117t-143 -52q-84 -7 -84 -33t36 -30q36 -5 50 -8q13 -2 29 -3
q121 -8 181 -43q60 -37 60 -125t-93 -146q-94 -58 -210 -57q-116 0 -185 37t-69 100q0 82 119 123q-39 31 -39 72t27 71t71 43q-78 13 -124 59t-48 124q0 78 70 126q70 50 164 50t156 -29q100 8 186 22v-127q-33 29 -127 58q33 -43 33 -115z" />
    <glyph glyph-name="h.sups" horiz-adv-x="638" 
d="M629 635h-275v51l56 16v222q0 119 -70 118q-102 0 -102 -237v-103l57 -16v-51h-277v51l68 16v689l-72 18v51q98 20 158 21q61 0 61 -78v-277l-12 -122h10q15 80 61 124t114 46q158 0 157 -179v-293l66 -16v-51z" />
    <glyph glyph-name="i.sups" horiz-adv-x="344" 
d="M168 1270q-41 0 -68 28q-26 28 -26 69q0 42 27 71q28 28 68 28t68 -28q27 -28 27 -71q0 -42 -27 -70q-28 -27 -69 -27zM328 635h-291v51l69 16v377h-73v62q92 29 166 28q61 0 61 -75v-392l68 -16v-51z" />
    <glyph glyph-name="j.sups" horiz-adv-x="309" 
d="M244 1367q0 -41 -26 -69t-69 -28q-42 0 -68 28t-26 69q0 42 28 71q28 28 67 28q38 0 66 -28t28 -71zM88 672v407h-74v62q25 8 87 18t81 10q61 0 62 -75v-383q0 -246 -201 -355l-55 62q100 104 100 254z" />
    <glyph glyph-name="k.sups" horiz-adv-x="618" 
d="M299 635h-276v51l67 16v689l-76 18v51q123 20 164 21q59 0 60 -78v-701l61 -16v-51zM360 1155h244v-57l-69 -33l-148 -104q20 -49 106 -159t125 -114v-51q-149 -36 -229 54q-33 36 -77 117q-43 82 -58 107q137 160 152 168l-46 21v51z" />
    <glyph glyph-name="l.sups" horiz-adv-x="327" 
d="M313 635h-290v51l69 16v689l-76 18v51q123 20 168 21q59 0 60 -78v-701l69 -16v-51z" />
    <glyph glyph-name="m.sups" horiz-adv-x="976" 
d="M967 635h-275v51l56 16v222q0 63 -16 91t-52 27q-100 0 -100 -237v-103l63 -16v-51h-268v51l57 16v222q0 119 -70 118q-104 0 -104 -237v-103l57 -16v-51h-276v51l67 16v377h-73v62q92 29 147 28q61 0 62 -71v-94h8q14 80 61 124t115 46q135 0 135 -170h8q13 80 61 124
t115 46q156 0 156 -179v-293l66 -16v-51z" />
    <glyph glyph-name="n.sups" horiz-adv-x="659" 
d="M649 635h-274v51l57 16v222q0 119 -70 118q-104 0 -104 -237v-103l57 -16v-51h-276v51l67 16v377h-73v62q92 29 147 28q61 0 62 -71v-94h8q14 80 61 124t115 46q158 0 158 -179v-293l65 -16v-51z" />
    <glyph glyph-name="o.sups" horiz-adv-x="608" 
d="M307 688q96 0 96 215q0 98 -26 154q-27 55 -74 55q-98 0 -98 -209q0 -100 27 -158q28 -57 75 -57zM297 618q-123 0 -193 75t-70 205t78 206q76 76 200 76t193 -71t69 -202t-78 -210q-76 -79 -199 -79z" />
    <glyph glyph-name="p.sups" horiz-adv-x="632" 
d="M244 776v-53q41 -29 82 -29q106 0 106 207q0 143 -82 143q-47 0 -77 -69q-29 -70 -29 -199zM334 389h-309v49l67 17v624h-74v62q92 29 150 28q59 0 59 -71v-94h9q35 170 186 170q84 0 130 -67t46 -161q0 -322 -274 -321q-27 0 -80 4v-174l90 -17v-49z" />
    <glyph glyph-name="q.sups" horiz-adv-x="606" 
d="M387 1014v47q-39 29 -82 29q-106 0 -106 -193q0 -70 20 -117t60 -47q47 0 77 75t31 206zM606 389h-309v49l90 17v237l6 80h-8q-49 -150 -168 -149q-82 1 -132 73t-50 174q0 150 73 227t191 77t240 -33v-686l67 -17v-49z" />
    <glyph glyph-name="r.sups" horiz-adv-x="458" 
d="M365 635h-326v53l74 17v376h-80v60q96 29 157 28q59 0 60 -71v-146h8q8 113 57 170t138 43l-21 -198q-98 27 -132 -19t-34 -203v-40l99 -17v-53z" />
    <glyph glyph-name="s.sups" horiz-adv-x="499" 
d="M232 696q94 0 94 55q0 26 -32 43t-93 40q-152 61 -152 174q-1 78 61 122t155 46q93 0 184 -41l-15 -136h-76l-16 86q-41 20 -76 21q-74 0 -73 -51q0 -41 112 -84q47 -19 78 -35t57 -53t27 -86q0 -78 -72 -126q-71 -48 -171 -48t-185 41l20 159h72l21 -100q37 -27 80 -27z
" />
    <glyph glyph-name="t.sups" horiz-adv-x="411" 
d="M242 848q0 -127 65 -127q33 0 94 16l21 -49q-78 -66 -173 -66t-130 46q-35 45 -35 141q0 35 8 264h-78v66l68 24l88 156h72v-164h149v-82h-149v-225z" />
    <glyph glyph-name="u.sups" horiz-adv-x="632" 
d="M414 700v82h-8q-14 -72 -62 -116t-111 -43q-154 0 -153 202v248l-68 17v51q88 25 160 24q61 0 61 -78v-210q-1 -74 11 -109t55 -35t72 69t28 197v74l-65 17v51q94 25 145 24q74 0 74 -78v-372l68 -13v-53q-98 -25 -144 -24q-63 0 -63 75z" />
    <glyph glyph-name="v.sups" horiz-adv-x="571" 
d="M-8 1155h280v-47l-53 -18l92 -328h6l89 325l-54 21v47h228v-47l-56 -27l-168 -448h-159l-150 450l-55 25v47z" />
    <glyph glyph-name="w.sups" horiz-adv-x="864" 
d="M-8 1155h274v-47l-57 -18l61 -308h6l119 373h133l101 -373h6l70 303l-58 23v47h225v-47l-55 -29l-141 -446h-139l-105 358l-117 -358h-139l-129 450l-55 25v47z" />
    <glyph glyph-name="x.sups" horiz-adv-x="569" 
d="M573 635h-276v49l47 18l-92 125l-68 -125l47 -18v-49h-235v47l70 29l147 168l-156 204l-55 25v47h277v-47l-46 -18l84 -117l62 117l-39 18v47h215v-47l-68 -35l-129 -155l164 -209l51 -25v-49z" />
    <glyph glyph-name="y.sups" horiz-adv-x="573" 
d="M-23 1155h287v-47l-53 -18l94 -281h6l90 278l-53 21v47h234v-47l-58 -25q-8 -18 -36 -91q-85 -221 -150 -337q-66 -116 -99 -149q-34 -33 -72 -65q-71 -60 -163 -60q-27 0 -76 8l13 168h79l21 -88q49 -10 100 46t76 134l-180 434l-60 25v47z" />
    <glyph glyph-name="z.sups" horiz-adv-x="514" 
d="M29 635v65q0 41 34 84l254 287h-182l-12 -86h-74l-12 170h436v-70q0 -47 -35 -86l-248 -276h193l20 94h70l10 -182h-454z" />
    <glyph glyph-name="one.sups" horiz-adv-x="497" 
d="M467 635h-426v57l135 29v586l-137 -19l-8 58l207 84h108v-709l121 -29v-57z" />
    <glyph glyph-name="two.sups" horiz-adv-x="610" 
d="M557 635h-547v84q39 55 140 154q100 99 161 183t62 163q0 129 -140 129q-23 0 -59 -5l-29 -157h-88l-14 192q121 56 244 56t197 -54t75 -166q0 -70 -46 -142t-102 -118q-56 -47 -132 -108t-109 -96h272l25 104h90v-219z" />
    <glyph glyph-name="three.sups" horiz-adv-x="602" 
d="M387 854q0 145 -237 145v82q100 0 160 41t60 106q0 64 -44 94t-88 30t-80 -4l-31 -146h-82l-14 180q119 52 235 52t189 -52q74 -52 73 -149q0 -121 -153 -174q176 -43 176 -193q0 -125 -98 -182t-240 -57q-82 -1 -182 28l14 187h86l27 -135q33 -4 47 -5q78 0 130 38
t52 114z" />
    <glyph glyph-name="a.sinf" horiz-adv-x="563" 
d="M326 -14v57q-52 -4 -94 -33t-42 -69q0 -63 54 -64q34 0 58 29t24 80zM496 -123q14 0 41 31l34 -23q-18 -47 -54 -75t-79 -27q-42 0 -70 28t-30 74h-10q-35 -102 -152 -102q-66 0 -102 39t-35 96q0 90 86 133t203 45v31q0 75 -18 103t-58 28q-39 0 -74 -10l-14 -115h-76
l-37 150q106 55 230 55q195 0 194 -176l-6 -238q0 -47 27 -47z" />
    <glyph glyph-name="b.sinf" horiz-adv-x="616" 
d="M227 -45v-70q33 -33 80 -32q111 0 111 210q0 147 -84 148q-107 0 -107 -256zM162 641q60 0 61 -78v-276l-14 -123h12q15 80 63 125t124 45t126 -68q48 -68 48 -166q0 -317 -279 -317q-125 0 -229 37v731l-70 18v52q98 20 158 20z" />
    <glyph glyph-name="c.sinf" horiz-adv-x="503" 
d="M292 -221q-113 0 -186 71q-72 72 -72 201t82 208q81 79 201 79q66 0 160 -37l-18 -176h-80l-21 127q-8 2 -22 2q-64 0 -102 -48t-38 -134t43 -131q76 -81 220 -19l28 -45q-82 -98 -195 -98z" />
    <glyph glyph-name="d.sinf" horiz-adv-x="622" 
d="M387 174v47q-35 31 -80 31q-111 0 -110 -193q-1 -69 21 -117t58 -48q47 0 79 74t32 206zM459 -215q-63 0 -64 76v73h-10q-45 -152 -172 -151q-82 0 -130 74t-48 176q0 295 276 295q18 0 80 -4v227l-72 18v52q99 20 159 20t61 -78v-688l67 -12v-53q-92 -25 -147 -25z" />
    <glyph glyph-name="e.sinf" horiz-adv-x="540" 
d="M188 121l168 16q10 61 -8 99t-61 38t-70 -45t-29 -108zM300 -221q-126 0 -196 74q-70 75 -70 203t76 206q74 78 190 78t172 -83t30 -202h-314q2 -166 172 -166q64 0 132 25l22 -39q-88 -96 -214 -96z" />
    <glyph glyph-name="f.sinf" horiz-adv-x="364" 
d="M346 -205h-330v53l72 17v371h-74v65l76 23q2 156 83 238t200 83q53 0 112 -18l-16 -168h-66l-30 119q-131 4 -131 -263h116v-79h-116v-371l104 -17v-53z" />
    <glyph glyph-name="g.sinf" horiz-adv-x="591" 
d="M264 33q84 0 84 125q0 55 -23 88q-24 33 -67 33q-86 0 -86 -123t92 -123zM127 -298q0 -38 45 -62q44 -24 114 -23q70 0 122 22q51 22 51 56q0 27 -48 38t-126 19t-113 19q-45 -31 -45 -69zM500 148q0 -72 -60 -117t-143 -53q-84 -8 -84 -33q0 -26 48 -32q7 -1 23 -4
t38 -4q127 -8 187 -43q60 -36 60 -125t-93 -147q-94 -58 -210 -57q-116 0 -185 37t-69 100q0 82 119 123q-39 31 -39 72q0 82 98 115q-78 12 -124 58t-48 124q0 78 70 127t164 49t156 -29q100 9 186 23v-127q-33 29 -127 57q33 -42 33 -114z" />
    <glyph glyph-name="h.sinf" horiz-adv-x="638" 
d="M629 -205h-275v51l56 17v221q0 119 -70 119q-102 0 -102 -238v-102l57 -17v-51h-277v51l68 17v688l-72 18v52q96 20 158 20t61 -78v-276l-12 -123h10q15 80 61 125t114 45q158 0 157 -178v-293l66 -17v-51z" />
    <glyph glyph-name="i.sinf" horiz-adv-x="344" 
d="M168 430q-41 0 -68 28q-26 28 -26 70t27 70q28 29 68 29t68 -29q27 -29 27 -71q0 -41 -28 -69t-68 -28zM328 -205h-291v51l69 17v377h-73v61q92 29 166 29q61 0 61 -76v-391l68 -17v-51z" />
    <glyph glyph-name="j.sinf" horiz-adv-x="309" 
d="M150 627q38 0 66 -29t28 -71q0 -41 -26 -69t-69 -28q-42 0 -68 28t-26 70t28 70q28 29 67 29zM88 -168v408h-74v61q25 8 87 18t81 11q61 0 62 -76v-383q0 -245 -201 -354l-55 61q100 104 100 254z" />
    <glyph glyph-name="k.sinf" horiz-adv-x="618" 
d="M299 -205h-276v51l67 17v688l-76 18v52q123 20 164 20q59 0 60 -78v-700l61 -17v-51zM360 315h244v-57l-69 -33l-148 -104q20 -49 106 -159t125 -114v-51q-122 -30 -188 20q-55 37 -111 137q-30 61 -65 122q137 160 152 168l-46 20v51z" />
    <glyph glyph-name="l.sinf" horiz-adv-x="327" 
d="M313 -205h-290v51l69 17v688l-76 18v52q123 20 168 20q59 0 60 -78v-700l69 -17v-51z" />
    <glyph glyph-name="m.sinf" horiz-adv-x="976" 
d="M967 -205h-275v51l56 17v221q0 63 -16 91t-52 28q-100 0 -100 -238v-102l63 -17v-51h-268v51l57 17v221q0 119 -70 119q-104 0 -104 -238v-102l57 -17v-51h-276v51l67 17v377h-73v61q92 29 147 29q61 0 62 -72v-94h8q14 80 61 125t115 45q135 0 135 -170h8q13 80 61 125
t115 45q156 0 156 -178v-293l66 -17v-51z" />
    <glyph glyph-name="n.sinf" horiz-adv-x="659" 
d="M649 -205h-274v51l57 17v221q0 119 -70 119q-104 0 -104 -238v-102l57 -17v-51h-276v51l67 17v377h-73v61q92 29 147 29q61 0 62 -72v-94h8q14 80 61 125t115 45q158 0 158 -178v-293l65 -17v-51z" />
    <glyph glyph-name="o.sinf" horiz-adv-x="608" 
d="M307 -152q96 0 96 215q0 98 -26 154q-27 55 -74 55q-98 0 -98 -209q-1 -99 27 -157t75 -58zM297 -221q-123 0 -193 75q-70 74 -70 204t78 206q76 76 200 76t193 -71t69 -201t-78 -210q-76 -79 -199 -79z" />
    <glyph glyph-name="p.sinf" horiz-adv-x="632" 
d="M244 -63v-54q41 -29 82 -28q106 0 106 206q0 143 -82 144q-46 1 -76 -69t-30 -199zM334 -451h-309v50l67 16v625h-74v61q92 29 150 29t59 -72v-94h9q35 170 186 170q84 0 130 -67t46 -161q0 -322 -274 -321q-27 0 -80 4v-174l90 -16v-50z" />
    <glyph glyph-name="q.sinf" horiz-adv-x="606" 
d="M387 174v47q-39 29 -82 29q-106 0 -106 -193q0 -71 20 -117t60 -46q47 0 77 74t31 206zM606 -451h-309v50l90 16v238l6 79h-8q-49 -150 -168 -149q-82 0 -132 73t-50 175q0 151 73 227t191 76t240 -33v-686l67 -16v-50z" />
    <glyph glyph-name="r.sinf" horiz-adv-x="458" 
d="M365 -205h-326v53l74 17v377h-80v59q96 29 156 29t61 -72v-145h8q8 113 57 170t138 43l-21 -199q-98 27 -132 -19t-34 -202v-41l99 -17v-53z" />
    <glyph glyph-name="s.sinf" horiz-adv-x="499" 
d="M266 266q-74 0 -73 -51q0 -41 112 -84q47 -19 78 -35t57 -53t27 -86q0 -78 -72 -126q-71 -48 -171 -48t-185 41l20 160h72l21 -101q37 -27 80 -27q94 1 94 54q0 27 -32 44t-93 40q-152 61 -152 174q-1 78 61 123t155 45t184 -41l-15 -135h-76l-16 86q-41 20 -76 20z" />
    <glyph glyph-name="t.sinf" horiz-adv-x="411" 
d="M242 8q0 -126 65 -126q33 0 94 16l21 -50q-78 -66 -173 -66t-130 46q-35 45 -35 141q0 35 8 264h-78v66l68 25l88 155h72v-164h149v-82h-149v-225z" />
    <glyph glyph-name="u.sinf" horiz-adv-x="632" 
d="M477 -215q-63 0 -63 76v82h-8q-14 -72 -62 -116t-111 -44q-154 0 -153 203v247l-68 17v51q88 25 160 25q61 0 61 -78v-211q-1 -74 11 -109q12 -34 55 -34t72 68t28 198v73l-65 17v51q94 25 145 25q74 0 74 -78v-373l68 -12v-53q-98 -25 -144 -25z" />
    <glyph glyph-name="v.sinf" horiz-adv-x="571" 
d="M-8 315h280v-47l-53 -18l92 -328h6l89 326l-54 20v47h228v-47l-56 -26l-168 -449h-159l-150 451l-55 24v47z" />
    <glyph glyph-name="w.sinf" horiz-adv-x="864" 
d="M-8 315h274v-47l-57 -18l61 -307h6l119 372h133l101 -372h6l70 303l-58 22v47h225v-47l-55 -28l-141 -447h-139l-105 359l-117 -359h-139l-129 451l-55 24v47z" />
    <glyph glyph-name="x.sinf" horiz-adv-x="569" 
d="M573 -205h-276v49l47 19l-92 125l-68 -125l47 -19v-49h-235v47l70 29l147 168l-156 205l-55 24v47h277v-47l-46 -18l84 -117l62 117l-39 18v47h215v-47l-68 -35l-129 -155l164 -209l51 -25v-49z" />
    <glyph glyph-name="y.sinf" horiz-adv-x="573" 
d="M-23 315h287v-47l-53 -18l94 -281h6l90 279l-53 20v47h234v-47l-58 -24q-8 -18 -64 -163t-120 -262q-65 -117 -100 -152q-35 -33 -73 -65q-70 -58 -163 -61q-27 0 -76 8l13 168h79l21 -88q49 -9 100 47t76 134l-180 434l-60 24v47z" />
    <glyph glyph-name="z.sinf" horiz-adv-x="514" 
d="M29 -205v66q0 41 34 84l254 286h-182l-12 -86h-74l-12 170h436v-69q0 -47 -35 -86l-248 -277h193l20 94h70l10 -182h-454z" />
    <glyph glyph-name="parenleft.case" horiz-adv-x="765" 
d="M205 670q0 302 142 526q142 225 370 291l18 -53q-160 -88 -245 -293q-84 -205 -84 -470t86 -479t243 -301l-18 -53q-227 62 -369 296t-143 536z" />
    <glyph glyph-name="parenright.case" horiz-adv-x="763" 
d="M360 670q0 266 -85 471t-244 293l18 53q227 -66 369 -290t141 -526t-143 -536t-367 -297l-18 53q158 86 243 300q86 213 86 479z" />
    <glyph glyph-name="hyphen.case" horiz-adv-x="1058" 
d="M854 573h-649v152h649v-152z" />
    <glyph glyph-name="grave.case" horiz-adv-x="638" 
d="M453 1468l-35 -59q-319 127 -393 170q-55 35 -7 117q49 82 107 49q69 -42 262 -217z" />
    <glyph glyph-name="acute.case" horiz-adv-x="638" 
d="M193 1409l-35 59q252 231 325 277q59 33 109 -48t-6 -118q-88 -48 -312 -137z" />
    <glyph glyph-name="dieresis.case" horiz-adv-x="911" 
d="M786 1577q0 -53 -38 -89t-92 -36t-89 36t-35 89t37 90t90 37t90 -37t37 -90zM379 1577q0 -53 -37 -89t-92 -36t-90 36t-35 89t37 90t91 37t90 -37t36 -90z" />
    <glyph glyph-name="circumflex.case" horiz-adv-x="948" 
d="M488 1741q64 0 102 -43q89 -98 176 -215l35 -45l-56 -49q-188 137 -274 202l-272 -202l-54 49q133 174 181 228t74 64q24 11 88 11z" />
    <glyph glyph-name="tilde.case" horiz-adv-x="1079" 
d="M383 1675q76 0 179 -48t149 -48q90 0 151 94l53 -26q-18 -99 -79 -161q-62 -62 -138 -62t-180 46q-104 47 -149 48q-96 0 -152 -91l-53 25q18 98 80 160t139 63z" />
    <glyph glyph-name="macron.case" horiz-adv-x="911" 
d="M788 1462h-665v125h665v-125z" />
    <glyph glyph-name="breve.case" horiz-adv-x="880" 
d="M438 1415q-119 0 -204 69t-87 202l64 10q55 -131 229 -131t228 131l65 -10q-2 -133 -89 -202t-206 -69z" />
    <glyph glyph-name="dotaccent.case" horiz-adv-x="591" 
d="M436 1584q0 -60 -40 -99t-101 -39t-100 39t-39 99t40 99t100 39t100 -39t40 -99z" />
    <glyph glyph-name="ring.case" horiz-adv-x="608" 
d="M305 1464q47 0 76 30t29 83t-29 82t-76 29t-77 -29t-30 -82t30 -83t77 -30zM541 1577q0 -92 -68 -142q-68 -51 -169 -51t-169 50t-67 143q0 92 67 142q68 50 169 50t169 -50t68 -142z" />
    <glyph glyph-name="hungarumlaut.case" horiz-adv-x="894" 
d="M618 1421l-43 43q170 242 207 275q47 47 111 -19q55 -63 8 -108q-21 -21 -219 -150zM301 1421l-43 43q170 242 205 275q49 45 108 -19t13 -108q-21 -21 -219 -150z" />
    <glyph glyph-name="caron.case" horiz-adv-x="960" 
d="M479 1407q-66 0 -119 66l-184 219l64 53q156 -119 241 -180l240 180l61 -53q-187 -239 -239 -271q-25 -14 -64 -14z" />
    <glyph glyph-name="commaaccent.case" horiz-adv-x="686" 
d="M301 -289q0 59 -59 72v55q72 59 147 60q90 0 90 -101q0 -191 -213 -338l-57 39q92 111 92 213z" />
    <glyph glyph-name="cedilla.case" horiz-adv-x="768" 
d="M338 -89q0 42 41 89h65q-49 -69 1 -103q26 -17 57 -29q30 -12 56 -45q26 -32 26 -81q0 -88 -73 -156t-177 -104l-41 43q111 82 110 194q-1 51 -33 101t-32 91z" />
    <glyph glyph-name="ogonek.case" horiz-adv-x="878" 
d="M285 -291q0 92 65 174q66 82 162 127h78q-60 -44 -104 -116t-44 -132t33 -86q33 -27 83 -27t106 25l26 -41q-106 -111 -231 -110q-74 0 -124 47t-50 139z" />
    <glyph glyph-name="underdot.case" horiz-adv-x="665" 
d="M332 -449q-55 0 -92 38q-37 37 -37 95t38 95t91 37t90 -38t37 -94t-36 -94t-91 -39z" />
    <glyph glyph-name="blackarrowright" horiz-adv-x="1128" 
d="M965 442l-699 -467v936z" />
    <glyph glyph-name="blackarrowleft" horiz-adv-x="1128" 
d="M862 -25l-698 467l698 469v-936z" />
    <glyph glyph-name="blackarrowup" horiz-adv-x="1253" 
d="M1090 135h-926l463 707z" />
    <glyph glyph-name="blackarrowdown" horiz-adv-x="1253" 
d="M627 45l-463 707h926z" />
    <glyph glyph-name="Euro.lf" horiz-adv-x="1142" 
d="M780 -14q-500 0 -579 489h-140v113h125q-10 90 2 178h-127v113h146q53 213 208 333t386 121q162 0 301 -35l-19 -286h-120l-43 207q-53 12 -103 12q-150 0 -251 -92t-136 -260h410v-113h-426q-8 -68 0 -178h426v-113h-410q72 -371 395 -371q48 1 95 9l45 217h118l19 -291
q-164 -53 -322 -53z" />
    <glyph glyph-name="sterling.lf" horiz-adv-x="1089" 
d="M821 0h-770v96q102 18 147 89q44 71 44 266v170h-170v108h176q-14 299 123 456t385 156q133 0 272 -41l-22 -290h-105l-47 219q-43 6 -82 6q-178 0 -247 -125t-56 -381h403v-108h-403v-99q-2 -268 -162 -366h410q106 0 140 45t42 149h123v-153q0 -109 -43 -153t-158 -44z
" />
    <glyph glyph-name="dollar.lf" horiz-adv-x="1024" 
d="M297 1040q0 -121 172 -223v410q-78 -15 -125 -65t-47 -122zM729 287q0 117 -174 223v-416q76 20 125 70t49 123zM555 -215h-98v192q-190 0 -375 91l31 292h106l41 -213q88 -63 197 -63v479q-192 94 -280 184q-87 91 -87 230t101 236t278 116v178h98v-174q170 -6 334 -82
l-18 -278h-113l-39 205q-76 47 -164 53v-469q4 -4 11 -4q70 -37 96 -50q26 -12 80 -48q55 -36 79 -60q23 -24 55 -64q54 -65 54 -180q0 -150 -105 -250t-282 -122v-199z" />
    <glyph glyph-name="cent.lf" horiz-adv-x="876" 
d="M279 457q0 -233 170 -305v618q-78 -33 -124 -116t-46 -197zM530 -215h-81v197q-158 12 -263 127q-104 115 -104 309t101 318t266 153v215h81v-207q135 0 267 -55l-27 -285h-106l-46 225q-49 10 -88 9v-658q100 -14 248 60l37 -56q-115 -135 -285 -155v-197z" />
    <glyph glyph-name="yen.lf" horiz-adv-x="1191" 
d="M854 0h-543v84l160 27v385h-367v108h338l-86 160h-252v106h195l-170 320l-98 39v71h452v-77l-118 -39l264 -522l266 516l-104 51v71h370v-71l-104 -55l-176 -304h196v-106h-260l-92 -160h352v-108h-383v-385l160 -27v-84z" />
    <glyph glyph-name="percent.lf" horiz-adv-x="1533" 
d="M1169 63q115 0 115 248q0 109 -30 173t-87 65q-121 0 -121 -243t123 -243zM1473 312q-1 -148 -85 -240t-227 -92t-223 90t-80 237t87 237t229 89q142 0 220 -86q79 -87 79 -235zM373 770q115 0 114 248q1 110 -29 174t-88 64t-89 -66q-31 -64 -31 -172q0 -248 123 -248z
M674 1018q0 -146 -83 -240t-225 -94t-224 91q-81 91 -81 237t87 236q86 89 228 89t220 -86t78 -233zM438 -59l-100 59l743 1352l99 -58z" />
    <glyph glyph-name="numbersign.lf" horiz-adv-x="1091" 
d="M633 514l61 315h-241l-64 -315h244zM651 -35l-121 31l82 414h-245l-91 -445l-118 31l84 414h-201l20 104h203l64 315h-205l22 105h205l84 409l119 -30l-78 -379h240l82 409l118 -30l-75 -379h211l-23 -105h-209l-61 -315h215l-21 -104h-215z" />
    <glyph glyph-name="section.lf" horiz-adv-x="1005" 
d="M258 929q0 -193 139 -497q57 -125 113 -250q130 -293 111 -477q123 78 122 258q0 121 -67 303q-68 182 -146 336t-128 322t-23 272q-121 -74 -121 -267zM924 -16q0 -186 -121 -306t-330 -120t-381 86l29 286h110l35 -213q92 -55 199 -55l35 2q-14 199 -217 618
q-77 156 -139 334t-62 297q0 185 119 305t323 120t373 -85l-29 -286h-110l-35 213q-94 55 -199 55l-37 -2q14 -193 229 -623q80 -158 144 -336t64 -290z" />
    <glyph glyph-name="percent.tf" horiz-adv-x="1597" 
d="M1202 63q115 0 115 248q0 109 -30 173t-87 65q-121 0 -121 -243t123 -243zM1194 -20q-143 0 -223 90t-80 237t87 237t228 89q141 0 220 -86q79 -87 79 -235t-84 -240t-227 -92zM406 770q115 0 114 248q0 110 -30 174t-88 64t-89 -66q-31 -64 -30 -172q0 -248 123 -248z
M398 684q-142 0 -223 91t-81 237t87 236q87 89 229 89t219 -86q78 -86 78 -233t-83 -241q-84 -93 -226 -93zM471 -59l-100 59l743 1352l98 -58z" />
    <glyph glyph-name="numbersign.tf" 
d="M565 514l62 315h-213l-64 -315h215zM584 -35l-121 31l82 414h-217l-90 -445l-119 31l84 414h-172l20 104h174l64 315h-176l22 105h176l84 409l119 -30l-78 -379h211l82 409l119 -30l-76 -379h182l-22 -105h-180l-62 -315h187l-21 -104h-186z" />
    <glyph glyph-name="section.tf" horiz-adv-x="1058" 
d="M299 929q0 -193 139 -497l112 -250q130 -293 112 -477q123 78 122 258q0 121 -67 303q-68 182 -146 336t-128 322t-23 272q-121 -74 -121 -267zM965 -16q0 -186 -121 -306t-330 -120t-381 86l29 286h110l35 -213q92 -55 199 -55l35 2q-14 199 -217 618q-76 156 -138 334
t-63 297q0 185 119 305q118 120 322 120t374 -85l-29 -286h-110l-35 213q-94 55 -199 55l-37 -2q14 -193 229 -623q79 -158 143 -336t65 -290z" />
    <glyph glyph-name="Euro.tosf" 
d="M664 -10q-209 0 -328 96t-152 301h-127v102h117q-6 82 2 152h-119v102h136q43 175 175 275t332 100q123 0 238 -28l-14 -252h-111l-37 184q-35 8 -78 8q-120 0 -196 -77t-105 -210h320v-102h-334q-8 -80 0 -152h334v-102h-322q55 -293 303 -293q37 0 80 6l41 189h107
l16 -256q-156 -43 -278 -43z" />
    <glyph glyph-name="sterling.tosf" 
d="M713 0h-662v90q176 25 176 422h-147v109h153q-10 257 105 377t305 120q125 0 277 -41l-23 -266h-109l-43 197q-41 8 -81 8q-250 0 -230 -395h289v-109h-289q0 -127 -35 -224t-100 -138h352q86 0 117 36t39 133h106v-122q-1 -109 -43 -153t-157 -44z" />
    <glyph glyph-name="dollar.tosf" 
d="M547 408v-318q154 33 153 156q0 45 -37 81q-38 36 -116 81zM297 854q0 -51 40 -90t122 -84v326q-162 -25 -162 -152zM547 -186h-92v166q-186 2 -355 77l27 258h104l37 -176q74 -51 187 -55v373q-59 27 -90 41t-85 48q-162 102 -160 244q1 142 92 221t247 91v135h92v-131
q154 -6 309 -70l-20 -243h-105l-37 170q-72 39 -147 45v-373q148 -72 217 -124t95 -101t26 -109q0 -139 -93 -218t-249 -97v-172z" />
    <glyph glyph-name="cent.tosf" 
d="M332 457q0 -233 170 -305v618q-78 -33 -124 -116t-46 -197zM584 -215h-82v197q-158 12 -262 127t-104 309t100 318q102 124 266 153v215h82v-207q135 0 266 -55l-27 -285h-106l-45 225q-49 10 -88 9v-658q100 -14 247 60l37 -56q-115 -135 -284 -155v-197z" />
    <glyph glyph-name="yen.tosf" 
d="M748 0h-525v84l160 27v286h-307v103h280l-73 151h-207v103h155l-116 243l-95 33v74h420v-80l-114 -33l202 -450l197 444l-98 45v74h338v-74l-99 -47l-118 -229h151v-103h-203l-78 -151h281v-103h-309v-286l158 -27v-84z" />
    <glyph glyph-name="percent.tosf" horiz-adv-x="1597" 
d="M457 -59l-90 57l743 1114l88 -57zM1200 63q119 0 119 248q0 109 -31 175t-91 65q-60 0 -92 -65t-32 -175q0 -248 127 -248zM1193 -20q-142 0 -222 90t-80 237t86 237t227 89q141 0 220 -86q79 -87 79 -235t-84 -240t-226 -92zM406 549q117 0 116 248q0 111 -30 175
t-90 64t-92 -64t-31 -175q0 -248 127 -248zM397 465q-143 0 -223 90q-80 89 -80 237t87 237t229 89t219 -86q78 -86 78 -233t-83 -241q-84 -93 -227 -93z" />
    <glyph glyph-name="numbersign.tosf" 
d="M573 453l48 239h-213l-52 -239h217zM600 -35l-117 31l70 352h-219l-82 -383l-117 31l76 352h-170l22 105h170l52 239h-185l23 105h184l76 350l115 -31l-68 -319h211l70 350l114 -31l-63 -319h190l-22 -105h-189l-47 -239h205l-22 -105h-203z" />
    <glyph glyph-name="section.tosf" 
d="M285 739q0 -105 55 -249t121 -264t119 -267t49 -264q109 72 108 242q0 139 -137 413q-55 112 -108 224q-126 268 -101 415q-106 -68 -106 -250zM111 725q0 193 122 293q123 100 309 100t365 -84l-28 -286h-111l-35 210q-102 63 -233 64q10 -98 77 -249t141 -281t136 -282
q61 -153 61 -259q1 -193 -125 -293t-318 -100t-370 86l29 286h109l36 -213q117 -72 234 -59q-8 100 -73 248t-137 276q-73 127 -131 280t-58 263z" />
    <glyph glyph-name="section.case" horiz-adv-x="1097" 
d="M340 961q0 -98 56 -211t123 -200t123 -205t56 -224q84 70 84 214t-136 346q-56 83 -111 167q-130 199 -115 338q-80 -68 -80 -225zM545 72q25 0 37 2q-14 139 -159 344q-58 82 -117 167q-136 199 -136 380q0 180 115 274t305 94t360 -86l-28 -282h-111l-35 209
q-104 61 -211 61q-25 0 -37 -2q14 -136 164 -345q60 -85 120 -172q142 -207 142 -364q0 -194 -116 -286t-308 -92q-190 0 -370 83l28 285h109l37 -209q102 -61 211 -61z" />
    <glyph glyph-name="f.calt1" horiz-adv-x="610" 
d="M557 0h-524v74l133 24v647h-135v95l135 37q4 246 107 389t309 143q78 0 161 -20l-32 -263h-95l-43 193q-104 0 -146 -75q-43 -75 -47 -152q-8 -141 -5 -234h209v-113h-209v-647l182 -24v-74z" />
    <glyph glyph-name="f.calt2" horiz-adv-x="608" 
d="M508 1313q-152 1 -152 -199q0 -94 19 -256h194v-113h-194v-647l168 -24v-74h-510v74l133 24v647h-135v95l135 37q-4 233 87 381t286 149q63 0 141 -18l-35 -263h-94z" />
    <glyph glyph-name="y.calt" horiz-adv-x="882" 
d="M-31 858h408v-63l-103 -31l177 -526h10l192 520l-102 37v63h362v-63l-104 -41q-10 -39 -170 -403q-160 -363 -195 -435q-133 -274 -264 -395l-131 92q66 55 104 91t92 115t95 175l-291 760l-80 41v63z" />
    <glyph glyph-name="zero.osf.sinf" horiz-adv-x="620" 
d="M313 -145q93 0 93 227t-96 227t-97 -227q0 -227 100 -227zM306 -217q-128 0 -196 80t-69 217q0 137 75 217q76 80 202 80t194 -76t68 -215t-73 -221t-201 -82z" />
    <glyph glyph-name="one.osf.sinf" horiz-adv-x="460" 
d="M434 -205h-393v45l127 25v383l-131 -19l-8 58l200 84h101v-506l104 -25v-45z" />
    <glyph glyph-name="two.osf.sinf" horiz-adv-x="575" 
d="M514 -205h-483v86q137 92 211 170t73 156q0 92 -96 92q-25 0 -61 -4l-25 -131h-84l-12 164q121 49 229 49t166 -45q57 -45 57 -125q1 -80 -71 -149t-225 -160h219l24 73h78v-176z" />
    <glyph glyph-name="three.osf.sinf" horiz-adv-x="561" 
d="M344 -176q0 113 -141 113q-33 0 -78 -9v84q201 18 201 178q0 111 -119 111q-33 0 -49 -4l-29 -133h-84l-14 162q129 51 229 51t165 -43t64 -133q0 -137 -149 -195q82 -2 131 -49t49 -117q0 -136 -139 -206t-342 -70l-6 65q311 20 311 195z" />
    <glyph glyph-name="four.osf.sinf" horiz-adv-x="595" 
d="M496 -436h-138v233h-327v82l223 522l158 -14l-254 -475h200v184h138v-184h90v-115h-90v-233z" />
    <glyph glyph-name="five.osf.sinf" horiz-adv-x="552" 
d="M340 -141q0 63 -44 96t-106 33t-131 -8l25 372h416l-11 -205h-77l-23 89h-207l-14 -152q53 4 80 4q118 0 194 -51t76 -164q0 -147 -137 -227t-334 -80l-6 69q145 9 222 67t77 157z" />
    <glyph glyph-name="six.osf.sinf" horiz-adv-x="618" 
d="M318 213q-52 0 -80 -47t-27 -127q0 -81 30 -137t80 -56q49 0 77 56t28 136q0 81 -28 128t-80 47zM367 303q100 1 160 -67q61 -68 61 -185t-78 -193t-208 -75q-130 0 -196 101t-65 251q0 225 134 357t360 110v-67q-167 -13 -251 -99t-94 -252h11q16 57 62 88t104 31z" />
    <glyph glyph-name="seven.osf.sinf" horiz-adv-x="571" 
d="M563 352v-90q-90 -163 -178 -373t-104 -325h-170q31 172 265 564q50 83 54 89h-278l-29 -113h-80l-14 248h534z" />
    <glyph glyph-name="eight.osf.sinf" horiz-adv-x="636" 
d="M316 537q-46 0 -72 -31t-27 -85t33 -88t104 -67q55 59 56 154q0 51 -24 84t-70 33zM190 -18q0 -56 33 -94t92 -38t94 33q33 33 33 79q-1 78 -83 125q-37 21 -68 37l-35 17q-66 -61 -66 -159zM596 16q0 -111 -77 -172t-206 -61t-201 56t-71 149q0 127 154 196
q-127 88 -127 211q0 90 70 149q72 58 184 58t176 -52t63 -132q0 -109 -143 -189q55 -27 89 -49q33 -22 61 -64t28 -100z" />
    <glyph glyph-name="nine.osf.sinf" horiz-adv-x="618" 
d="M297 313q-51 0 -79 -54t-28 -132t27 -124t80 -46t82 47t29 123t-30 131t-81 55zM250 -131q-96 0 -158 64q-61 65 -61 180t77 189q78 74 204 75q126 0 196 -96t70 -250q0 -223 -134 -352t-358 -109v68q160 16 244 100t98 250h-10q-41 -119 -168 -119z" />
    <glyph glyph-name="zero.osf.sups" horiz-adv-x="620" 
d="M313 694q93 0 93 228t-96 227q-96 1 -97 -227q0 -228 100 -228zM306 623q-128 -1 -196 79t-69 218q0 138 75 217q76 80 202 80t194 -76t68 -215t-73 -221t-201 -82z" />
    <glyph glyph-name="one.osf.sups" horiz-adv-x="460" 
d="M434 635h-393v45l127 25v382l-131 -18l-8 57l200 84h101v-505l104 -25v-45z" />
    <glyph glyph-name="two.osf.sups" horiz-adv-x="575" 
d="M514 635h-483v86q137 92 211 170t73 156q0 92 -96 92q-25 0 -61 -4l-25 -131h-84l-12 163q121 49 229 49t166 -44q57 -46 57 -126q1 -80 -71 -148q-72 -69 -225 -161h219l24 74h78v-176z" />
    <glyph glyph-name="three.osf.sups" horiz-adv-x="561" 
d="M344 664q0 113 -141 112q-33 0 -78 -8v84q201 18 201 178q0 111 -119 111q-33 0 -49 -4l-29 -133h-84l-14 161q255 101 394 9q65 -43 64 -134q0 -137 -149 -194q82 -2 131 -49t49 -117q0 -137 -139 -207t-342 -70l-6 66q311 20 311 195z" />
    <glyph glyph-name="four.osf.sups" horiz-adv-x="595" 
d="M496 403h-138v234h-327v82l223 522l158 -14l-254 -475h200v184h138v-184h90v-115h-90v-234z" />
    <glyph glyph-name="five.osf.sups" horiz-adv-x="552" 
d="M340 698q0 62 -44 96t-106 34t-131 -9l25 373h416l-11 -205h-77l-23 88h-207l-14 -151q53 4 80 4q118 0 194 -51t76 -164q0 -147 -137 -227t-334 -80l-6 69q145 9 222 67t77 156z" />
    <glyph glyph-name="six.osf.sups" horiz-adv-x="618" 
d="M318 1053q-52 0 -80 -47t-27 -127q0 -81 30 -137t80 -56q49 0 77 55t28 137t-28 128q-28 47 -80 47zM367 1143q100 0 160 -68q61 -69 61 -185t-78 -192t-208 -76t-196 102q-66 101 -65 251q0 225 134 356t360 111v-68q-167 -14 -251 -99t-94 -251h11q16 57 62 88t104 31z
" />
    <glyph glyph-name="seven.osf.sups" horiz-adv-x="571" 
d="M563 1192v-90q-90 -163 -178 -374q-88 -210 -104 -325h-170q13 73 76 213t151 287q88 148 92 154h-278l-29 -113h-80l-14 248h534z" />
    <glyph glyph-name="eight.osf.sups" horiz-adv-x="636" 
d="M316 1376q-46 0 -72 -30t-27 -85q-1 -54 33 -88t104 -67q55 59 56 154q0 52 -24 84t-70 32zM190 821q0 -57 33 -94t92 -37t94 33q33 33 33 79q-1 78 -83 125q-37 21 -68 37l-35 17q-66 -61 -66 -160zM596 856q0 -111 -77 -172t-206 -61t-201 56t-71 148q0 127 154 197
q-127 88 -127 211q0 90 70 148q72 59 184 59t176 -52t63 -133q0 -108 -143 -188q55 -27 89 -49q33 -22 61 -64q28 -43 28 -100z" />
    <glyph glyph-name="nine.osf.sups" horiz-adv-x="618" 
d="M297 1153q-51 0 -79 -54t-28 -132t27 -124t80 -46t82 47t29 123t-30 131t-81 55zM31 952q0 114 77 190q78 75 204 75q126 -1 196 -97t70 -250q0 -224 -134 -352t-358 -108v67q160 17 244 101t98 249h-10q-41 -119 -168 -118q-96 0 -158 64q-61 65 -61 179z" />
    </font>
</defs>
</svg>
